%TF.GenerationSoftware,KiCad,Pcbnew,9.0.7*%
%TF.CreationDate,2026-06-26T14:07:03-06:00*%
%TF.ProjectId,Proyecto,50726f79-6563-4746-9f2e-6b696361645f,rev?*%
%TF.SameCoordinates,Original*%
%TF.FileFunction,Legend,Top*%
%TF.FilePolarity,Positive*%
%FSLAX46Y46*%
G04 Gerber Fmt 4.6, Leading zero omitted, Abs format (unit mm)*
G04 Created by KiCad (PCBNEW 9.0.7) date 2026-06-26 14:07:03*
%MOMM*%
%LPD*%
G01*
G04 APERTURE LIST*
%ADD10C,0.400000*%
%ADD11C,0.100000*%
%ADD12C,0.150000*%
%ADD13C,0.254000*%
%ADD14C,0.120000*%
%ADD15C,0.200000*%
%ADD16C,0.000000*%
G04 APERTURE END LIST*
D10*
X259750000Y-173425000D02*
X170500000Y-173425000D01*
X259625000Y-101175000D02*
X170500000Y-101175000D01*
D11*
X183500000Y-151250000D02*
X213500000Y-151250000D01*
X183500000Y-107175000D02*
X183500000Y-155805000D01*
D10*
X261750000Y-103175000D02*
X261750000Y-171425000D01*
X168500000Y-171175000D02*
X168500010Y-171183703D01*
X168500040Y-171192383D01*
X168500090Y-171201042D01*
X168500159Y-171209677D01*
X168500249Y-171218291D01*
X168500358Y-171226882D01*
X168500487Y-171235451D01*
X168500636Y-171243997D01*
X168500804Y-171252522D01*
X168500991Y-171261025D01*
X168501199Y-171269505D01*
X168501425Y-171277964D01*
X168501671Y-171286401D01*
X168501937Y-171294816D01*
X168502221Y-171303209D01*
X168502525Y-171311580D01*
X168502848Y-171319930D01*
X168503191Y-171328258D01*
X168503552Y-171336564D01*
X168503932Y-171344849D01*
X168504332Y-171353112D01*
X168504750Y-171361354D01*
X168505187Y-171369575D01*
X168505644Y-171377774D01*
X168506119Y-171385952D01*
X168506612Y-171394108D01*
X168507125Y-171402244D01*
X168507656Y-171410358D01*
X168508206Y-171418451D01*
X168508774Y-171426523D01*
X168509361Y-171434575D01*
X168509966Y-171442605D01*
X168510590Y-171450614D01*
X168511233Y-171458602D01*
X168511893Y-171466570D01*
X168512572Y-171474517D01*
X168513270Y-171482444D01*
X168513985Y-171490349D01*
X168514719Y-171498234D01*
X168515470Y-171506098D01*
X168516240Y-171513943D01*
X168517028Y-171521766D01*
X168517834Y-171529570D01*
X168518658Y-171537352D01*
X168519500Y-171545115D01*
X168520360Y-171552857D01*
X168521238Y-171560579D01*
X168522133Y-171568280D01*
X168523046Y-171575963D01*
X168523977Y-171583624D01*
X168524926Y-171591266D01*
X168525892Y-171598887D01*
X168526876Y-171606490D01*
X168527878Y-171614071D01*
X168528897Y-171621634D01*
X168529933Y-171629176D01*
X168530987Y-171636699D01*
X168532058Y-171644202D01*
X168533147Y-171651686D01*
X168534253Y-171659149D01*
X168535376Y-171666594D01*
X168536517Y-171674018D01*
X168537675Y-171681424D01*
X168538850Y-171688809D01*
X168540042Y-171696177D01*
X168541251Y-171703523D01*
X168542478Y-171710852D01*
X168543721Y-171718160D01*
X168544981Y-171725451D01*
X168546258Y-171732721D01*
X168547553Y-171739973D01*
X168548864Y-171747205D01*
X168550192Y-171754419D01*
X168551537Y-171761613D01*
X168552898Y-171768790D01*
X168554276Y-171775946D01*
X168555672Y-171783085D01*
X168557083Y-171790203D01*
X168558512Y-171797305D01*
X168559957Y-171804386D01*
X168561418Y-171811451D01*
X168562896Y-171818495D01*
X168564391Y-171825522D01*
X168565902Y-171832529D01*
X168567430Y-171839520D01*
X168568974Y-171846490D01*
X168570534Y-171853444D01*
X168572111Y-171860378D01*
X168573704Y-171867295D01*
X168575313Y-171874192D01*
X168576939Y-171881073D01*
X168578581Y-171887934D01*
X168580239Y-171894779D01*
X168581913Y-171901604D01*
X168583604Y-171908413D01*
X168585311Y-171915202D01*
X168587033Y-171921975D01*
X168588772Y-171928728D01*
X168590527Y-171935466D01*
X168592297Y-171942183D01*
X168594085Y-171948885D01*
X168595887Y-171955567D01*
X168597706Y-171962234D01*
X168599540Y-171968881D01*
X168601391Y-171975512D01*
X168603257Y-171982124D01*
X168605139Y-171988721D01*
X168607037Y-171995298D01*
X168608951Y-172001860D01*
X168610879Y-172008402D01*
X168612825Y-172014929D01*
X168614785Y-172021437D01*
X168616762Y-172027930D01*
X168618754Y-172034403D01*
X168620762Y-172040862D01*
X168622785Y-172047301D01*
X168624824Y-172053725D01*
X168626878Y-172060130D01*
X168628948Y-172066521D01*
X168631033Y-172072892D01*
X168633135Y-172079249D01*
X168635251Y-172085586D01*
X168637383Y-172091909D01*
X168639530Y-172098212D01*
X168641693Y-172104502D01*
X168643870Y-172110772D01*
X168646064Y-172117029D01*
X168648272Y-172123266D01*
X168652736Y-172135693D01*
X168657260Y-172148054D01*
X168661845Y-172160349D01*
X168666491Y-172172579D01*
X168671198Y-172184745D01*
X168675965Y-172196845D01*
X168680793Y-172208881D01*
X168685680Y-172220852D01*
X168690628Y-172232760D01*
X168695636Y-172244605D01*
X168700704Y-172256386D01*
X168705831Y-172268104D01*
X168711019Y-172279759D01*
X168716265Y-172291352D01*
X168721571Y-172302882D01*
X168726937Y-172314351D01*
X168732362Y-172325758D01*
X168737845Y-172337104D01*
X168743388Y-172348388D01*
X168748990Y-172359612D01*
X168754651Y-172370775D01*
X168760371Y-172381877D01*
X168766149Y-172392920D01*
X168771986Y-172403903D01*
X168777882Y-172414826D01*
X168783837Y-172425689D01*
X168789849Y-172436494D01*
X168795921Y-172447240D01*
X168802051Y-172457926D01*
X168808239Y-172468555D01*
X168814486Y-172479125D01*
X168820791Y-172489637D01*
X168827155Y-172500091D01*
X168833576Y-172510488D01*
X168840056Y-172520827D01*
X168846595Y-172531108D01*
X168853191Y-172541333D01*
X168859846Y-172551501D01*
X168866559Y-172561612D01*
X168873331Y-172571667D01*
X168880160Y-172581666D01*
X168887048Y-172591608D01*
X168893994Y-172601494D01*
X168900999Y-172611325D01*
X168908061Y-172621100D01*
X168915183Y-172630819D01*
X168922362Y-172640484D01*
X168929600Y-172650093D01*
X168936896Y-172659646D01*
X168944251Y-172669145D01*
X168951664Y-172678590D01*
X168959135Y-172687979D01*
X168966666Y-172697314D01*
X168974254Y-172706595D01*
X168981902Y-172715821D01*
X168989608Y-172724993D01*
X168997373Y-172734112D01*
X169005197Y-172743176D01*
X169013079Y-172752186D01*
X169021021Y-172761143D01*
X169029021Y-172770045D01*
X169037081Y-172778895D01*
X169045200Y-172787690D01*
X169053377Y-172796432D01*
X169061615Y-172805121D01*
X169069911Y-172813757D01*
X169078267Y-172822339D01*
X169086682Y-172830868D01*
X169095157Y-172839343D01*
X169103691Y-172847766D01*
X169112286Y-172856135D01*
X169120940Y-172864452D01*
X169129653Y-172872715D01*
X169138427Y-172880925D01*
X169147261Y-172889082D01*
X169156155Y-172897186D01*
X169165109Y-172905237D01*
X169174123Y-172913235D01*
X169183197Y-172921180D01*
X169192332Y-172929072D01*
X169201528Y-172936910D01*
X169210784Y-172944696D01*
X169220101Y-172952428D01*
X169229478Y-172960108D01*
X169238916Y-172967733D01*
X169248415Y-172975306D01*
X169257975Y-172982825D01*
X169267596Y-172990291D01*
X169277278Y-172997703D01*
X169287021Y-173005062D01*
X169296826Y-173012367D01*
X169306691Y-173019618D01*
X169316618Y-173026816D01*
X169326606Y-173033959D01*
X169336656Y-173041048D01*
X169346767Y-173048083D01*
X169356940Y-173055064D01*
X169367174Y-173061991D01*
X169377469Y-173068862D01*
X169387826Y-173075680D01*
X169398245Y-173082442D01*
X169408725Y-173089149D01*
X169419267Y-173095801D01*
X169429871Y-173102398D01*
X169440536Y-173108939D01*
X169451262Y-173115424D01*
X169462050Y-173121854D01*
X169472900Y-173128227D01*
X169483811Y-173134544D01*
X169494783Y-173140805D01*
X169505816Y-173147009D01*
X169516911Y-173153156D01*
X169528067Y-173159246D01*
X169539284Y-173165278D01*
X169550561Y-173171253D01*
X169561900Y-173177170D01*
X169573299Y-173183028D01*
X169584758Y-173188829D01*
X169596278Y-173194570D01*
X169607858Y-173200253D01*
X169619497Y-173205876D01*
X169631197Y-173211439D01*
X169642955Y-173216943D01*
X169654773Y-173222387D01*
X169666649Y-173227770D01*
X169678584Y-173233092D01*
X169690576Y-173238353D01*
X169702627Y-173243552D01*
X169714734Y-173248690D01*
X169726899Y-173253765D01*
X169739120Y-173258777D01*
X169751397Y-173263727D01*
X169763729Y-173268613D01*
X169776116Y-173273436D01*
X169788557Y-173278194D01*
X169801051Y-173282887D01*
X169813599Y-173287516D01*
X169826198Y-173292079D01*
X169838849Y-173296576D01*
X169851550Y-173301007D01*
X169864300Y-173305371D01*
X169877100Y-173309668D01*
X169889946Y-173313897D01*
X169902840Y-173318058D01*
X169915778Y-173322150D01*
X169928761Y-173326173D01*
X169941786Y-173330126D01*
X169954853Y-173334008D01*
X169967960Y-173337820D01*
X169981105Y-173341561D01*
X169994287Y-173345229D01*
X170007503Y-173348825D01*
X170020753Y-173352348D01*
X170034033Y-173355798D01*
X170047343Y-173359173D01*
X170060678Y-173362473D01*
X170074038Y-173365697D01*
X170087419Y-173368846D01*
X170100818Y-173371917D01*
X170114233Y-173374911D01*
X170127660Y-173377827D01*
X170141095Y-173380664D01*
X170154535Y-173383421D01*
X170167976Y-173386098D01*
X170181414Y-173388694D01*
X170194842Y-173391208D01*
X170208258Y-173393640D01*
X170221654Y-173395988D01*
X170235025Y-173398252D01*
X170248364Y-173400431D01*
X170261664Y-173402525D01*
X170274918Y-173404531D01*
X170288115Y-173406450D01*
X170301247Y-173408281D01*
X170314304Y-173410022D01*
X170327272Y-173411673D01*
X170340140Y-173413233D01*
X170352891Y-173414700D01*
X170365510Y-173416074D01*
X170377976Y-173417354D01*
X170390267Y-173418539D01*
X170402358Y-173419627D01*
X170414219Y-173420618D01*
X170425811Y-173421510D01*
X170437092Y-173422303D01*
X170448005Y-173422995D01*
X170458481Y-173423585D01*
X170468424Y-173424073D01*
X170477704Y-173424457D01*
X170486120Y-173424737D01*
X170493333Y-173424914D01*
X170498613Y-173424992D01*
X170500000Y-173425000D01*
X168500000Y-103175000D02*
X168500000Y-171425000D01*
X259750000Y-101175000D02*
X259757736Y-101175010D01*
X259765452Y-101175040D01*
X259773148Y-101175090D01*
X259780824Y-101175159D01*
X259788481Y-101175249D01*
X259796117Y-101175358D01*
X259803734Y-101175487D01*
X259811331Y-101175636D01*
X259818909Y-101175804D01*
X259826467Y-101175991D01*
X259834006Y-101176199D01*
X259841525Y-101176425D01*
X259849024Y-101176671D01*
X259856505Y-101176937D01*
X259863966Y-101177221D01*
X259871407Y-101177525D01*
X259878830Y-101177849D01*
X259886233Y-101178191D01*
X259893618Y-101178552D01*
X259900983Y-101178933D01*
X259908329Y-101179332D01*
X259915656Y-101179751D01*
X259922965Y-101180188D01*
X259930254Y-101180644D01*
X259937525Y-101181119D01*
X259944777Y-101181613D01*
X259952010Y-101182126D01*
X259959224Y-101182657D01*
X259966421Y-101183207D01*
X259973598Y-101183776D01*
X259980757Y-101184363D01*
X259987897Y-101184969D01*
X259995019Y-101185593D01*
X260002123Y-101186236D01*
X260009208Y-101186897D01*
X260016275Y-101187576D01*
X260023324Y-101188274D01*
X260030355Y-101188990D01*
X260037368Y-101189724D01*
X260044362Y-101190476D01*
X260051339Y-101191247D01*
X260058297Y-101192035D01*
X260065238Y-101192842D01*
X260072160Y-101193667D01*
X260079065Y-101194509D01*
X260085952Y-101195370D01*
X260092822Y-101196249D01*
X260099673Y-101197145D01*
X260106508Y-101198059D01*
X260113323Y-101198991D01*
X260120123Y-101199941D01*
X260126904Y-101200909D01*
X260133668Y-101201894D01*
X260140414Y-101202897D01*
X260147144Y-101203918D01*
X260153855Y-101204955D01*
X260160551Y-101206011D01*
X260167227Y-101207084D01*
X260173889Y-101208175D01*
X260180531Y-101209283D01*
X260187158Y-101210408D01*
X260193766Y-101211551D01*
X260200359Y-101212711D01*
X260206933Y-101213888D01*
X260213492Y-101215083D01*
X260220033Y-101216295D01*
X260226559Y-101217524D01*
X260233066Y-101218770D01*
X260239558Y-101220034D01*
X260246031Y-101221314D01*
X260252490Y-101222612D01*
X260258930Y-101223926D01*
X260265356Y-101225258D01*
X260271764Y-101226606D01*
X260278156Y-101227972D01*
X260284531Y-101229354D01*
X260290891Y-101230754D01*
X260297233Y-101232170D01*
X260303561Y-101233603D01*
X260309870Y-101235053D01*
X260316165Y-101236519D01*
X260322442Y-101238003D01*
X260328705Y-101239503D01*
X260334950Y-101241019D01*
X260341181Y-101242553D01*
X260347394Y-101244103D01*
X260353593Y-101245670D01*
X260359774Y-101247253D01*
X260365942Y-101248853D01*
X260372091Y-101250469D01*
X260378228Y-101252102D01*
X260384346Y-101253751D01*
X260390450Y-101255417D01*
X260396537Y-101257099D01*
X260402611Y-101258798D01*
X260408666Y-101260512D01*
X260414709Y-101262244D01*
X260420733Y-101263991D01*
X260426745Y-101265756D01*
X260432739Y-101267536D01*
X260438720Y-101269333D01*
X260444683Y-101271145D01*
X260450634Y-101272975D01*
X260456567Y-101274820D01*
X260462487Y-101276682D01*
X260468390Y-101278559D01*
X260480152Y-101282363D01*
X260491854Y-101286231D01*
X260503497Y-101290163D01*
X260515080Y-101294160D01*
X260526605Y-101298221D01*
X260538070Y-101302346D01*
X260549477Y-101306534D01*
X260560826Y-101310786D01*
X260572117Y-101315102D01*
X260583351Y-101319481D01*
X260594527Y-101323923D01*
X260605646Y-101328429D01*
X260616709Y-101332998D01*
X260627715Y-101337629D01*
X260638665Y-101342324D01*
X260649559Y-101347082D01*
X260660398Y-101351902D01*
X260671181Y-101356785D01*
X260681909Y-101361731D01*
X260692582Y-101366739D01*
X260703201Y-101371810D01*
X260713766Y-101376943D01*
X260724276Y-101382139D01*
X260734733Y-101387398D01*
X260745136Y-101392718D01*
X260755486Y-101398101D01*
X260765783Y-101403547D01*
X260776027Y-101409055D01*
X260786219Y-101414625D01*
X260796358Y-101420257D01*
X260806444Y-101425952D01*
X260816479Y-101431709D01*
X260826463Y-101437528D01*
X260836394Y-101443410D01*
X260846275Y-101449354D01*
X260856104Y-101455360D01*
X260865882Y-101461429D01*
X260875610Y-101467560D01*
X260885287Y-101473754D01*
X260894914Y-101480010D01*
X260904490Y-101486328D01*
X260914017Y-101492710D01*
X260923493Y-101499154D01*
X260932920Y-101505660D01*
X260942298Y-101512230D01*
X260951626Y-101518862D01*
X260960905Y-101525557D01*
X260970134Y-101532315D01*
X260979315Y-101539136D01*
X260988447Y-101546021D01*
X260997531Y-101552968D01*
X261006566Y-101559979D01*
X261015552Y-101567053D01*
X261024490Y-101574191D01*
X261033380Y-101581393D01*
X261042222Y-101588658D01*
X261051016Y-101595987D01*
X261059762Y-101603380D01*
X261068460Y-101610837D01*
X261077111Y-101618358D01*
X261085713Y-101625943D01*
X261094269Y-101633593D01*
X261102776Y-101641308D01*
X261111237Y-101649087D01*
X261119650Y-101656931D01*
X261128015Y-101664840D01*
X261136334Y-101672814D01*
X261144605Y-101680853D01*
X261152829Y-101688958D01*
X261161006Y-101697128D01*
X261169135Y-101705363D01*
X261177218Y-101713665D01*
X261185253Y-101722032D01*
X261193241Y-101730466D01*
X261201182Y-101738966D01*
X261209077Y-101747532D01*
X261216923Y-101756165D01*
X261224723Y-101764865D01*
X261232476Y-101773631D01*
X261240181Y-101782464D01*
X261247839Y-101791365D01*
X261255450Y-101800333D01*
X261263014Y-101809368D01*
X261270530Y-101818472D01*
X261277999Y-101827643D01*
X261285420Y-101836881D01*
X261292794Y-101846188D01*
X261300120Y-101855564D01*
X261307398Y-101865007D01*
X261314629Y-101874520D01*
X261321811Y-101884100D01*
X261328946Y-101893750D01*
X261336032Y-101903469D01*
X261343070Y-101913257D01*
X261350060Y-101923114D01*
X261357001Y-101933041D01*
X261363894Y-101943037D01*
X261370738Y-101953103D01*
X261377533Y-101963238D01*
X261384278Y-101973444D01*
X261390975Y-101983720D01*
X261397622Y-101994065D01*
X261404219Y-102004481D01*
X261410767Y-102014967D01*
X261417265Y-102025524D01*
X261423712Y-102036151D01*
X261430109Y-102046849D01*
X261436456Y-102057617D01*
X261442751Y-102068456D01*
X261448996Y-102079366D01*
X261455189Y-102090347D01*
X261461331Y-102101398D01*
X261467421Y-102112521D01*
X261473459Y-102123714D01*
X261479445Y-102134978D01*
X261485378Y-102146313D01*
X261491259Y-102157718D01*
X261497086Y-102169195D01*
X261502860Y-102180742D01*
X261508580Y-102192359D01*
X261514246Y-102204048D01*
X261519858Y-102215806D01*
X261525415Y-102227636D01*
X261530917Y-102239535D01*
X261536364Y-102251504D01*
X261541755Y-102263543D01*
X261547091Y-102275652D01*
X261552369Y-102287830D01*
X261557592Y-102300078D01*
X261562757Y-102312394D01*
X261567864Y-102324779D01*
X261572914Y-102337232D01*
X261577905Y-102349753D01*
X261582837Y-102362341D01*
X261587711Y-102374997D01*
X261592525Y-102387719D01*
X261597278Y-102400507D01*
X261601972Y-102413361D01*
X261606604Y-102426279D01*
X261611176Y-102439262D01*
X261615685Y-102452309D01*
X261620132Y-102465418D01*
X261624516Y-102478590D01*
X261628837Y-102491823D01*
X261633094Y-102505117D01*
X261637287Y-102518469D01*
X261641415Y-102531881D01*
X261645478Y-102545349D01*
X261649474Y-102558874D01*
X261653404Y-102572454D01*
X261657267Y-102586087D01*
X261661063Y-102599773D01*
X261664790Y-102613509D01*
X261668448Y-102627294D01*
X261672037Y-102641126D01*
X261675556Y-102655003D01*
X261679004Y-102668924D01*
X261682381Y-102682886D01*
X261685685Y-102696887D01*
X261688918Y-102710925D01*
X261692076Y-102724996D01*
X261695161Y-102739098D01*
X261698171Y-102753228D01*
X261701105Y-102767384D01*
X261703963Y-102781560D01*
X261706744Y-102795754D01*
X261709448Y-102809961D01*
X261712073Y-102824177D01*
X261714618Y-102838397D01*
X261717084Y-102852617D01*
X261719468Y-102866830D01*
X261721771Y-102881031D01*
X261723991Y-102895213D01*
X261726127Y-102909369D01*
X261728179Y-102923491D01*
X261730146Y-102937570D01*
X261732026Y-102951596D01*
X261733820Y-102965560D01*
X261735525Y-102979450D01*
X261737140Y-102993252D01*
X261738666Y-103006952D01*
X261740100Y-103020533D01*
X261741442Y-103033976D01*
X261742691Y-103047261D01*
X261743845Y-103060362D01*
X261744903Y-103073250D01*
X261745865Y-103085891D01*
X261746728Y-103098243D01*
X261747493Y-103110257D01*
X261748157Y-103121868D01*
X261748720Y-103132995D01*
X261749180Y-103143529D01*
X261749537Y-103153312D01*
X261749791Y-103162102D01*
X261749942Y-103169466D01*
X261749998Y-103174385D01*
X261750000Y-103175000D01*
D11*
X183500000Y-155825000D02*
X213500000Y-155825000D01*
D10*
X259750000Y-173425000D02*
X259757736Y-173424990D01*
X259765452Y-173424960D01*
X259773148Y-173424910D01*
X259780824Y-173424841D01*
X259788481Y-173424751D01*
X259796117Y-173424642D01*
X259803734Y-173424513D01*
X259811331Y-173424364D01*
X259818909Y-173424196D01*
X259826467Y-173424009D01*
X259834006Y-173423801D01*
X259841525Y-173423575D01*
X259849024Y-173423329D01*
X259856505Y-173423063D01*
X259863966Y-173422779D01*
X259871407Y-173422475D01*
X259878830Y-173422151D01*
X259886233Y-173421809D01*
X259893618Y-173421448D01*
X259900983Y-173421067D01*
X259908329Y-173420668D01*
X259915656Y-173420249D01*
X259922965Y-173419812D01*
X259930254Y-173419356D01*
X259937525Y-173418881D01*
X259944777Y-173418387D01*
X259952010Y-173417874D01*
X259959224Y-173417343D01*
X259966421Y-173416793D01*
X259973598Y-173416224D01*
X259980757Y-173415637D01*
X259987897Y-173415031D01*
X259995019Y-173414407D01*
X260002123Y-173413764D01*
X260009208Y-173413103D01*
X260016275Y-173412424D01*
X260023324Y-173411726D01*
X260030355Y-173411010D01*
X260037368Y-173410276D01*
X260044362Y-173409524D01*
X260051339Y-173408753D01*
X260058297Y-173407965D01*
X260065238Y-173407158D01*
X260072160Y-173406333D01*
X260079065Y-173405491D01*
X260085952Y-173404630D01*
X260092822Y-173403751D01*
X260099673Y-173402855D01*
X260106508Y-173401941D01*
X260113323Y-173401009D01*
X260120123Y-173400059D01*
X260126904Y-173399091D01*
X260133668Y-173398106D01*
X260140414Y-173397103D01*
X260147144Y-173396082D01*
X260153855Y-173395045D01*
X260160551Y-173393989D01*
X260167227Y-173392916D01*
X260173889Y-173391825D01*
X260180531Y-173390717D01*
X260187158Y-173389592D01*
X260193766Y-173388449D01*
X260200359Y-173387289D01*
X260206933Y-173386112D01*
X260213492Y-173384917D01*
X260220033Y-173383705D01*
X260226559Y-173382476D01*
X260233066Y-173381230D01*
X260239558Y-173379966D01*
X260246031Y-173378686D01*
X260252490Y-173377388D01*
X260258930Y-173376074D01*
X260265356Y-173374742D01*
X260271764Y-173373394D01*
X260278156Y-173372028D01*
X260284531Y-173370646D01*
X260290891Y-173369246D01*
X260297233Y-173367830D01*
X260303561Y-173366397D01*
X260309870Y-173364947D01*
X260316165Y-173363481D01*
X260322442Y-173361997D01*
X260328705Y-173360497D01*
X260334950Y-173358981D01*
X260341181Y-173357447D01*
X260347394Y-173355897D01*
X260353593Y-173354330D01*
X260359774Y-173352747D01*
X260365942Y-173351147D01*
X260372091Y-173349531D01*
X260378228Y-173347898D01*
X260384346Y-173346249D01*
X260390450Y-173344583D01*
X260396537Y-173342901D01*
X260402611Y-173341202D01*
X260408666Y-173339488D01*
X260414709Y-173337756D01*
X260420733Y-173336009D01*
X260426745Y-173334244D01*
X260432739Y-173332464D01*
X260438720Y-173330667D01*
X260444683Y-173328855D01*
X260450634Y-173327025D01*
X260456567Y-173325180D01*
X260462487Y-173323318D01*
X260468390Y-173321441D01*
X260480152Y-173317637D01*
X260491854Y-173313769D01*
X260503497Y-173309837D01*
X260515080Y-173305840D01*
X260526605Y-173301779D01*
X260538070Y-173297654D01*
X260549477Y-173293466D01*
X260560826Y-173289214D01*
X260572117Y-173284898D01*
X260583351Y-173280519D01*
X260594527Y-173276077D01*
X260605646Y-173271571D01*
X260616709Y-173267002D01*
X260627715Y-173262371D01*
X260638665Y-173257676D01*
X260649559Y-173252918D01*
X260660398Y-173248098D01*
X260671181Y-173243215D01*
X260681909Y-173238269D01*
X260692582Y-173233261D01*
X260703201Y-173228190D01*
X260713766Y-173223057D01*
X260724276Y-173217861D01*
X260734733Y-173212602D01*
X260745136Y-173207282D01*
X260755486Y-173201899D01*
X260765783Y-173196453D01*
X260776027Y-173190945D01*
X260786219Y-173185375D01*
X260796358Y-173179743D01*
X260806444Y-173174048D01*
X260816479Y-173168291D01*
X260826463Y-173162472D01*
X260836394Y-173156590D01*
X260846275Y-173150646D01*
X260856104Y-173144640D01*
X260865882Y-173138571D01*
X260875610Y-173132440D01*
X260885287Y-173126246D01*
X260894914Y-173119990D01*
X260904490Y-173113672D01*
X260914017Y-173107290D01*
X260923493Y-173100846D01*
X260932920Y-173094340D01*
X260942298Y-173087770D01*
X260951626Y-173081138D01*
X260960905Y-173074443D01*
X260970134Y-173067685D01*
X260979315Y-173060864D01*
X260988447Y-173053979D01*
X260997531Y-173047032D01*
X261006566Y-173040021D01*
X261015552Y-173032947D01*
X261024490Y-173025809D01*
X261033380Y-173018607D01*
X261042222Y-173011342D01*
X261051016Y-173004013D01*
X261059762Y-172996620D01*
X261068460Y-172989163D01*
X261077111Y-172981642D01*
X261085713Y-172974057D01*
X261094269Y-172966407D01*
X261102776Y-172958692D01*
X261111237Y-172950913D01*
X261119650Y-172943069D01*
X261128015Y-172935160D01*
X261136334Y-172927186D01*
X261144605Y-172919147D01*
X261152829Y-172911042D01*
X261161006Y-172902872D01*
X261169135Y-172894637D01*
X261177218Y-172886335D01*
X261185253Y-172877968D01*
X261193241Y-172869534D01*
X261201182Y-172861034D01*
X261209077Y-172852468D01*
X261216923Y-172843835D01*
X261224723Y-172835135D01*
X261232476Y-172826369D01*
X261240181Y-172817536D01*
X261247839Y-172808635D01*
X261255450Y-172799667D01*
X261263014Y-172790632D01*
X261270530Y-172781528D01*
X261277999Y-172772357D01*
X261285420Y-172763119D01*
X261292794Y-172753812D01*
X261300120Y-172744436D01*
X261307398Y-172734993D01*
X261314629Y-172725480D01*
X261321811Y-172715900D01*
X261328946Y-172706250D01*
X261336032Y-172696531D01*
X261343070Y-172686743D01*
X261350060Y-172676886D01*
X261357001Y-172666959D01*
X261363894Y-172656963D01*
X261370738Y-172646897D01*
X261377533Y-172636762D01*
X261384278Y-172626556D01*
X261390975Y-172616280D01*
X261397622Y-172605935D01*
X261404219Y-172595519D01*
X261410767Y-172585033D01*
X261417265Y-172574476D01*
X261423712Y-172563849D01*
X261430109Y-172553151D01*
X261436456Y-172542383D01*
X261442751Y-172531544D01*
X261448996Y-172520634D01*
X261455189Y-172509653D01*
X261461331Y-172498602D01*
X261467421Y-172487479D01*
X261473459Y-172476286D01*
X261479445Y-172465022D01*
X261485378Y-172453687D01*
X261491259Y-172442282D01*
X261497086Y-172430805D01*
X261502860Y-172419258D01*
X261508580Y-172407641D01*
X261514246Y-172395952D01*
X261519858Y-172384194D01*
X261525415Y-172372364D01*
X261530917Y-172360465D01*
X261536364Y-172348496D01*
X261541755Y-172336457D01*
X261547091Y-172324348D01*
X261552369Y-172312170D01*
X261557592Y-172299922D01*
X261562757Y-172287606D01*
X261567864Y-172275221D01*
X261572914Y-172262768D01*
X261577905Y-172250247D01*
X261582837Y-172237659D01*
X261587711Y-172225003D01*
X261592525Y-172212281D01*
X261597278Y-172199493D01*
X261601972Y-172186639D01*
X261606604Y-172173721D01*
X261611176Y-172160738D01*
X261615685Y-172147691D01*
X261620132Y-172134582D01*
X261624516Y-172121410D01*
X261628837Y-172108177D01*
X261633094Y-172094883D01*
X261637287Y-172081531D01*
X261641415Y-172068119D01*
X261645478Y-172054651D01*
X261649474Y-172041126D01*
X261653404Y-172027546D01*
X261657267Y-172013913D01*
X261661063Y-172000227D01*
X261664790Y-171986491D01*
X261668448Y-171972706D01*
X261672037Y-171958874D01*
X261675556Y-171944997D01*
X261679004Y-171931076D01*
X261682381Y-171917114D01*
X261685685Y-171903113D01*
X261688918Y-171889075D01*
X261692076Y-171875004D01*
X261695161Y-171860902D01*
X261698171Y-171846772D01*
X261701105Y-171832616D01*
X261703963Y-171818440D01*
X261706744Y-171804246D01*
X261709448Y-171790039D01*
X261712073Y-171775823D01*
X261714618Y-171761603D01*
X261717084Y-171747383D01*
X261719468Y-171733170D01*
X261721771Y-171718969D01*
X261723991Y-171704787D01*
X261726127Y-171690631D01*
X261728179Y-171676509D01*
X261730146Y-171662430D01*
X261732026Y-171648404D01*
X261733820Y-171634440D01*
X261735525Y-171620550D01*
X261737140Y-171606748D01*
X261738666Y-171593048D01*
X261740100Y-171579467D01*
X261741442Y-171566024D01*
X261742691Y-171552739D01*
X261743845Y-171539638D01*
X261744903Y-171526750D01*
X261745865Y-171514109D01*
X261746728Y-171501757D01*
X261747493Y-171489743D01*
X261748157Y-171478132D01*
X261748720Y-171467005D01*
X261749180Y-171456471D01*
X261749537Y-171446688D01*
X261749791Y-171437898D01*
X261749942Y-171430534D01*
X261749998Y-171425615D01*
X261750000Y-171425000D01*
D11*
X185250000Y-126000000D02*
X185250000Y-126000000D01*
D10*
X168500000Y-103175000D02*
X168500010Y-103167264D01*
X168500040Y-103159548D01*
X168500090Y-103151852D01*
X168500159Y-103144176D01*
X168500249Y-103136519D01*
X168500358Y-103128883D01*
X168500487Y-103121266D01*
X168500636Y-103113669D01*
X168500804Y-103106091D01*
X168500991Y-103098533D01*
X168501199Y-103090994D01*
X168501425Y-103083475D01*
X168501671Y-103075976D01*
X168501937Y-103068495D01*
X168502221Y-103061034D01*
X168502525Y-103053593D01*
X168502849Y-103046170D01*
X168503191Y-103038767D01*
X168503552Y-103031382D01*
X168503933Y-103024017D01*
X168504332Y-103016671D01*
X168504751Y-103009344D01*
X168505188Y-103002035D01*
X168505644Y-102994746D01*
X168506119Y-102987475D01*
X168506613Y-102980223D01*
X168507126Y-102972990D01*
X168507657Y-102965776D01*
X168508207Y-102958579D01*
X168508776Y-102951402D01*
X168509363Y-102944243D01*
X168509969Y-102937103D01*
X168510593Y-102929981D01*
X168511236Y-102922877D01*
X168511897Y-102915792D01*
X168512576Y-102908725D01*
X168513274Y-102901676D01*
X168513990Y-102894645D01*
X168514724Y-102887632D01*
X168515476Y-102880638D01*
X168516247Y-102873661D01*
X168517035Y-102866703D01*
X168517842Y-102859762D01*
X168518667Y-102852840D01*
X168519509Y-102845935D01*
X168520370Y-102839048D01*
X168521249Y-102832178D01*
X168522145Y-102825327D01*
X168523059Y-102818492D01*
X168523991Y-102811677D01*
X168524941Y-102804877D01*
X168525909Y-102798096D01*
X168526894Y-102791332D01*
X168527897Y-102784586D01*
X168528918Y-102777856D01*
X168529955Y-102771145D01*
X168531011Y-102764449D01*
X168532084Y-102757773D01*
X168533175Y-102751111D01*
X168534283Y-102744469D01*
X168535408Y-102737842D01*
X168536551Y-102731234D01*
X168537711Y-102724641D01*
X168538888Y-102718067D01*
X168540083Y-102711508D01*
X168541295Y-102704967D01*
X168542524Y-102698441D01*
X168543770Y-102691934D01*
X168545034Y-102685442D01*
X168546314Y-102678969D01*
X168547612Y-102672510D01*
X168548926Y-102666070D01*
X168550258Y-102659644D01*
X168551606Y-102653236D01*
X168552972Y-102646844D01*
X168554354Y-102640469D01*
X168555754Y-102634109D01*
X168557170Y-102627767D01*
X168558603Y-102621439D01*
X168560053Y-102615130D01*
X168561519Y-102608835D01*
X168563003Y-102602558D01*
X168564503Y-102596295D01*
X168566019Y-102590050D01*
X168567553Y-102583819D01*
X168569103Y-102577606D01*
X168570670Y-102571407D01*
X168572253Y-102565226D01*
X168573853Y-102559058D01*
X168575469Y-102552909D01*
X168577102Y-102546772D01*
X168578751Y-102540654D01*
X168580417Y-102534550D01*
X168582099Y-102528463D01*
X168583798Y-102522389D01*
X168585512Y-102516334D01*
X168587244Y-102510291D01*
X168588991Y-102504267D01*
X168590756Y-102498255D01*
X168592536Y-102492261D01*
X168594333Y-102486280D01*
X168596145Y-102480317D01*
X168597975Y-102474366D01*
X168599820Y-102468433D01*
X168601682Y-102462513D01*
X168603559Y-102456610D01*
X168607363Y-102444848D01*
X168611231Y-102433146D01*
X168615163Y-102421503D01*
X168619160Y-102409920D01*
X168623221Y-102398395D01*
X168627346Y-102386930D01*
X168631534Y-102375523D01*
X168635786Y-102364174D01*
X168640102Y-102352883D01*
X168644481Y-102341649D01*
X168648923Y-102330473D01*
X168653429Y-102319354D01*
X168657998Y-102308291D01*
X168662629Y-102297285D01*
X168667324Y-102286335D01*
X168672082Y-102275441D01*
X168676902Y-102264602D01*
X168681785Y-102253819D01*
X168686731Y-102243091D01*
X168691739Y-102232418D01*
X168696810Y-102221799D01*
X168701943Y-102211234D01*
X168707139Y-102200724D01*
X168712398Y-102190267D01*
X168717718Y-102179864D01*
X168723101Y-102169514D01*
X168728547Y-102159217D01*
X168734055Y-102148973D01*
X168739625Y-102138781D01*
X168745257Y-102128642D01*
X168750952Y-102118556D01*
X168756709Y-102108521D01*
X168762528Y-102098537D01*
X168768410Y-102088606D01*
X168774354Y-102078725D01*
X168780360Y-102068896D01*
X168786429Y-102059118D01*
X168792560Y-102049390D01*
X168798754Y-102039713D01*
X168805010Y-102030086D01*
X168811328Y-102020510D01*
X168817710Y-102010983D01*
X168824154Y-102001507D01*
X168830660Y-101992080D01*
X168837230Y-101982702D01*
X168843862Y-101973374D01*
X168850557Y-101964095D01*
X168857315Y-101954866D01*
X168864136Y-101945685D01*
X168871021Y-101936553D01*
X168877968Y-101927469D01*
X168884979Y-101918434D01*
X168892053Y-101909448D01*
X168899191Y-101900510D01*
X168906393Y-101891620D01*
X168913658Y-101882778D01*
X168920987Y-101873984D01*
X168928380Y-101865238D01*
X168935837Y-101856540D01*
X168943358Y-101847889D01*
X168950943Y-101839287D01*
X168958593Y-101830731D01*
X168966308Y-101822224D01*
X168974087Y-101813763D01*
X168981931Y-101805350D01*
X168989840Y-101796985D01*
X168997814Y-101788666D01*
X169005853Y-101780395D01*
X169013958Y-101772171D01*
X169022128Y-101763994D01*
X169030363Y-101755865D01*
X169038665Y-101747782D01*
X169047032Y-101739747D01*
X169055466Y-101731759D01*
X169063966Y-101723818D01*
X169072532Y-101715923D01*
X169081165Y-101708077D01*
X169089865Y-101700277D01*
X169098631Y-101692524D01*
X169107464Y-101684819D01*
X169116365Y-101677161D01*
X169125333Y-101669550D01*
X169134368Y-101661986D01*
X169143472Y-101654470D01*
X169152643Y-101647001D01*
X169161881Y-101639580D01*
X169171188Y-101632206D01*
X169180564Y-101624880D01*
X169190007Y-101617602D01*
X169199520Y-101610371D01*
X169209100Y-101603189D01*
X169218750Y-101596054D01*
X169228469Y-101588968D01*
X169238257Y-101581930D01*
X169248114Y-101574940D01*
X169258041Y-101567999D01*
X169268037Y-101561106D01*
X169278103Y-101554262D01*
X169288238Y-101547467D01*
X169298444Y-101540722D01*
X169308720Y-101534025D01*
X169319065Y-101527378D01*
X169329481Y-101520781D01*
X169339967Y-101514233D01*
X169350524Y-101507735D01*
X169361151Y-101501288D01*
X169371849Y-101494891D01*
X169382617Y-101488544D01*
X169393456Y-101482249D01*
X169404366Y-101476004D01*
X169415347Y-101469811D01*
X169426398Y-101463669D01*
X169437521Y-101457579D01*
X169448714Y-101451541D01*
X169459978Y-101445555D01*
X169471313Y-101439622D01*
X169482718Y-101433741D01*
X169494195Y-101427914D01*
X169505742Y-101422140D01*
X169517359Y-101416420D01*
X169529048Y-101410754D01*
X169540806Y-101405142D01*
X169552636Y-101399585D01*
X169564535Y-101394083D01*
X169576504Y-101388636D01*
X169588543Y-101383245D01*
X169600652Y-101377909D01*
X169612830Y-101372631D01*
X169625078Y-101367408D01*
X169637394Y-101362243D01*
X169649779Y-101357136D01*
X169662232Y-101352086D01*
X169674753Y-101347095D01*
X169687341Y-101342163D01*
X169699997Y-101337289D01*
X169712719Y-101332475D01*
X169725507Y-101327722D01*
X169738361Y-101323028D01*
X169751279Y-101318396D01*
X169764262Y-101313824D01*
X169777309Y-101309315D01*
X169790418Y-101304868D01*
X169803590Y-101300484D01*
X169816823Y-101296163D01*
X169830117Y-101291906D01*
X169843469Y-101287713D01*
X169856881Y-101283585D01*
X169870349Y-101279522D01*
X169883874Y-101275526D01*
X169897454Y-101271596D01*
X169911087Y-101267733D01*
X169924773Y-101263937D01*
X169938509Y-101260210D01*
X169952294Y-101256552D01*
X169966126Y-101252963D01*
X169980003Y-101249444D01*
X169993924Y-101245996D01*
X170007886Y-101242619D01*
X170021887Y-101239315D01*
X170035925Y-101236082D01*
X170049996Y-101232924D01*
X170064098Y-101229839D01*
X170078228Y-101226829D01*
X170092384Y-101223895D01*
X170106560Y-101221037D01*
X170120754Y-101218256D01*
X170134961Y-101215552D01*
X170149177Y-101212927D01*
X170163397Y-101210382D01*
X170177617Y-101207916D01*
X170191830Y-101205532D01*
X170206031Y-101203229D01*
X170220213Y-101201009D01*
X170234369Y-101198873D01*
X170248491Y-101196821D01*
X170262570Y-101194854D01*
X170276596Y-101192974D01*
X170290560Y-101191180D01*
X170304450Y-101189475D01*
X170318252Y-101187860D01*
X170331952Y-101186334D01*
X170345533Y-101184900D01*
X170358976Y-101183558D01*
X170372261Y-101182309D01*
X170385362Y-101181155D01*
X170398250Y-101180097D01*
X170410891Y-101179135D01*
X170423243Y-101178272D01*
X170435257Y-101177507D01*
X170446868Y-101176843D01*
X170457995Y-101176280D01*
X170468529Y-101175820D01*
X170478312Y-101175463D01*
X170487102Y-101175209D01*
X170494466Y-101175058D01*
X170500000Y-101175000D01*
D11*
X213500000Y-155825000D02*
X213500000Y-107175000D01*
X213500000Y-107175000D02*
X183500000Y-107175000D01*
X171911027Y-126122419D02*
X172244360Y-127122419D01*
X172244360Y-127122419D02*
X172577693Y-126122419D01*
X172911027Y-126741466D02*
X173672932Y-126741466D01*
X173291979Y-127122419D02*
X173291979Y-126360514D01*
X234553884Y-171491466D02*
X235315789Y-171491466D01*
X234934836Y-171872419D02*
X234934836Y-171110514D01*
X236887217Y-171348609D02*
X237030074Y-171396228D01*
X237030074Y-171396228D02*
X237077693Y-171443847D01*
X237077693Y-171443847D02*
X237125312Y-171539085D01*
X237125312Y-171539085D02*
X237125312Y-171681942D01*
X237125312Y-171681942D02*
X237077693Y-171777180D01*
X237077693Y-171777180D02*
X237030074Y-171824800D01*
X237030074Y-171824800D02*
X236934836Y-171872419D01*
X236934836Y-171872419D02*
X236553884Y-171872419D01*
X236553884Y-171872419D02*
X236553884Y-170872419D01*
X236553884Y-170872419D02*
X236887217Y-170872419D01*
X236887217Y-170872419D02*
X236982455Y-170920038D01*
X236982455Y-170920038D02*
X237030074Y-170967657D01*
X237030074Y-170967657D02*
X237077693Y-171062895D01*
X237077693Y-171062895D02*
X237077693Y-171158133D01*
X237077693Y-171158133D02*
X237030074Y-171253371D01*
X237030074Y-171253371D02*
X236982455Y-171300990D01*
X236982455Y-171300990D02*
X236887217Y-171348609D01*
X236887217Y-171348609D02*
X236553884Y-171348609D01*
X237982455Y-171872419D02*
X237982455Y-171348609D01*
X237982455Y-171348609D02*
X237934836Y-171253371D01*
X237934836Y-171253371D02*
X237839598Y-171205752D01*
X237839598Y-171205752D02*
X237649122Y-171205752D01*
X237649122Y-171205752D02*
X237553884Y-171253371D01*
X237982455Y-171824800D02*
X237887217Y-171872419D01*
X237887217Y-171872419D02*
X237649122Y-171872419D01*
X237649122Y-171872419D02*
X237553884Y-171824800D01*
X237553884Y-171824800D02*
X237506265Y-171729561D01*
X237506265Y-171729561D02*
X237506265Y-171634323D01*
X237506265Y-171634323D02*
X237553884Y-171539085D01*
X237553884Y-171539085D02*
X237649122Y-171491466D01*
X237649122Y-171491466D02*
X237887217Y-171491466D01*
X237887217Y-171491466D02*
X237982455Y-171443847D01*
X238315789Y-171205752D02*
X238696741Y-171205752D01*
X238458646Y-170872419D02*
X238458646Y-171729561D01*
X238458646Y-171729561D02*
X238506265Y-171824800D01*
X238506265Y-171824800D02*
X238601503Y-171872419D01*
X238601503Y-171872419D02*
X238696741Y-171872419D01*
X239411027Y-171824800D02*
X239315789Y-171872419D01*
X239315789Y-171872419D02*
X239125313Y-171872419D01*
X239125313Y-171872419D02*
X239030075Y-171824800D01*
X239030075Y-171824800D02*
X238982456Y-171729561D01*
X238982456Y-171729561D02*
X238982456Y-171348609D01*
X238982456Y-171348609D02*
X239030075Y-171253371D01*
X239030075Y-171253371D02*
X239125313Y-171205752D01*
X239125313Y-171205752D02*
X239315789Y-171205752D01*
X239315789Y-171205752D02*
X239411027Y-171253371D01*
X239411027Y-171253371D02*
X239458646Y-171348609D01*
X239458646Y-171348609D02*
X239458646Y-171443847D01*
X239458646Y-171443847D02*
X238982456Y-171539085D01*
X239887218Y-171872419D02*
X239887218Y-171205752D01*
X239887218Y-171396228D02*
X239934837Y-171300990D01*
X239934837Y-171300990D02*
X239982456Y-171253371D01*
X239982456Y-171253371D02*
X240077694Y-171205752D01*
X240077694Y-171205752D02*
X240172932Y-171205752D01*
X240506266Y-171872419D02*
X240506266Y-171205752D01*
X240506266Y-170872419D02*
X240458647Y-170920038D01*
X240458647Y-170920038D02*
X240506266Y-170967657D01*
X240506266Y-170967657D02*
X240553885Y-170920038D01*
X240553885Y-170920038D02*
X240506266Y-170872419D01*
X240506266Y-170872419D02*
X240506266Y-170967657D01*
X241411027Y-171872419D02*
X241411027Y-171348609D01*
X241411027Y-171348609D02*
X241363408Y-171253371D01*
X241363408Y-171253371D02*
X241268170Y-171205752D01*
X241268170Y-171205752D02*
X241077694Y-171205752D01*
X241077694Y-171205752D02*
X240982456Y-171253371D01*
X241411027Y-171824800D02*
X241315789Y-171872419D01*
X241315789Y-171872419D02*
X241077694Y-171872419D01*
X241077694Y-171872419D02*
X240982456Y-171824800D01*
X240982456Y-171824800D02*
X240934837Y-171729561D01*
X240934837Y-171729561D02*
X240934837Y-171634323D01*
X240934837Y-171634323D02*
X240982456Y-171539085D01*
X240982456Y-171539085D02*
X241077694Y-171491466D01*
X241077694Y-171491466D02*
X241315789Y-171491466D01*
X241315789Y-171491466D02*
X241411027Y-171443847D01*
X242649123Y-171491466D02*
X243411028Y-171491466D01*
X260241466Y-133696115D02*
X260241466Y-132934211D01*
X260241466Y-132458020D02*
X260241466Y-131696116D01*
X260241466Y-131219925D02*
X260241466Y-130458021D01*
X259955752Y-129981830D02*
X260241466Y-129219926D01*
X260241466Y-129219926D02*
X260527180Y-129981830D01*
X223327693Y-165420038D02*
X223232455Y-165372419D01*
X223232455Y-165372419D02*
X223089598Y-165372419D01*
X223089598Y-165372419D02*
X222946741Y-165420038D01*
X222946741Y-165420038D02*
X222851503Y-165515276D01*
X222851503Y-165515276D02*
X222803884Y-165610514D01*
X222803884Y-165610514D02*
X222756265Y-165800990D01*
X222756265Y-165800990D02*
X222756265Y-165943847D01*
X222756265Y-165943847D02*
X222803884Y-166134323D01*
X222803884Y-166134323D02*
X222851503Y-166229561D01*
X222851503Y-166229561D02*
X222946741Y-166324800D01*
X222946741Y-166324800D02*
X223089598Y-166372419D01*
X223089598Y-166372419D02*
X223184836Y-166372419D01*
X223184836Y-166372419D02*
X223327693Y-166324800D01*
X223327693Y-166324800D02*
X223375312Y-166277180D01*
X223375312Y-166277180D02*
X223375312Y-165943847D01*
X223375312Y-165943847D02*
X223184836Y-165943847D01*
X223803884Y-166372419D02*
X223803884Y-165372419D01*
X223803884Y-165372419D02*
X224375312Y-166372419D01*
X224375312Y-166372419D02*
X224375312Y-165372419D01*
X224851503Y-166372419D02*
X224851503Y-165372419D01*
X224851503Y-165372419D02*
X225089598Y-165372419D01*
X225089598Y-165372419D02*
X225232455Y-165420038D01*
X225232455Y-165420038D02*
X225327693Y-165515276D01*
X225327693Y-165515276D02*
X225375312Y-165610514D01*
X225375312Y-165610514D02*
X225422931Y-165800990D01*
X225422931Y-165800990D02*
X225422931Y-165943847D01*
X225422931Y-165943847D02*
X225375312Y-166134323D01*
X225375312Y-166134323D02*
X225327693Y-166229561D01*
X225327693Y-166229561D02*
X225232455Y-166324800D01*
X225232455Y-166324800D02*
X225089598Y-166372419D01*
X225089598Y-166372419D02*
X224851503Y-166372419D01*
X200663734Y-152988295D02*
X200187544Y-152988295D01*
X200758972Y-152702580D02*
X200425639Y-153702580D01*
X200425639Y-153702580D02*
X200092306Y-152702580D01*
X199758972Y-153369247D02*
X199758972Y-152702580D01*
X199758972Y-153274009D02*
X199711353Y-153321628D01*
X199711353Y-153321628D02*
X199616115Y-153369247D01*
X199616115Y-153369247D02*
X199473258Y-153369247D01*
X199473258Y-153369247D02*
X199378020Y-153321628D01*
X199378020Y-153321628D02*
X199330401Y-153226390D01*
X199330401Y-153226390D02*
X199330401Y-152702580D01*
X198997067Y-153369247D02*
X198616115Y-153369247D01*
X198854210Y-153702580D02*
X198854210Y-152845438D01*
X198854210Y-152845438D02*
X198806591Y-152750200D01*
X198806591Y-152750200D02*
X198711353Y-152702580D01*
X198711353Y-152702580D02*
X198616115Y-152702580D01*
X197901829Y-152750200D02*
X197997067Y-152702580D01*
X197997067Y-152702580D02*
X198187543Y-152702580D01*
X198187543Y-152702580D02*
X198282781Y-152750200D01*
X198282781Y-152750200D02*
X198330400Y-152845438D01*
X198330400Y-152845438D02*
X198330400Y-153226390D01*
X198330400Y-153226390D02*
X198282781Y-153321628D01*
X198282781Y-153321628D02*
X198187543Y-153369247D01*
X198187543Y-153369247D02*
X197997067Y-153369247D01*
X197997067Y-153369247D02*
X197901829Y-153321628D01*
X197901829Y-153321628D02*
X197854210Y-153226390D01*
X197854210Y-153226390D02*
X197854210Y-153131152D01*
X197854210Y-153131152D02*
X198330400Y-153035914D01*
X197425638Y-153369247D02*
X197425638Y-152702580D01*
X197425638Y-153274009D02*
X197378019Y-153321628D01*
X197378019Y-153321628D02*
X197282781Y-153369247D01*
X197282781Y-153369247D02*
X197139924Y-153369247D01*
X197139924Y-153369247D02*
X197044686Y-153321628D01*
X197044686Y-153321628D02*
X196997067Y-153226390D01*
X196997067Y-153226390D02*
X196997067Y-152702580D01*
X196092305Y-152702580D02*
X196092305Y-153226390D01*
X196092305Y-153226390D02*
X196139924Y-153321628D01*
X196139924Y-153321628D02*
X196235162Y-153369247D01*
X196235162Y-153369247D02*
X196425638Y-153369247D01*
X196425638Y-153369247D02*
X196520876Y-153321628D01*
X196092305Y-152750200D02*
X196187543Y-152702580D01*
X196187543Y-152702580D02*
X196425638Y-152702580D01*
X196425638Y-152702580D02*
X196520876Y-152750200D01*
X196520876Y-152750200D02*
X196568495Y-152845438D01*
X196568495Y-152845438D02*
X196568495Y-152940676D01*
X196568495Y-152940676D02*
X196520876Y-153035914D01*
X196520876Y-153035914D02*
X196425638Y-153083533D01*
X196425638Y-153083533D02*
X196187543Y-153083533D01*
X196187543Y-153083533D02*
X196092305Y-153131152D01*
X242494360Y-103872419D02*
X242684836Y-103872419D01*
X242684836Y-103872419D02*
X242780074Y-103920038D01*
X242780074Y-103920038D02*
X242875312Y-104015276D01*
X242875312Y-104015276D02*
X242922931Y-104205752D01*
X242922931Y-104205752D02*
X242922931Y-104539085D01*
X242922931Y-104539085D02*
X242875312Y-104729561D01*
X242875312Y-104729561D02*
X242780074Y-104824800D01*
X242780074Y-104824800D02*
X242684836Y-104872419D01*
X242684836Y-104872419D02*
X242494360Y-104872419D01*
X242494360Y-104872419D02*
X242399122Y-104824800D01*
X242399122Y-104824800D02*
X242303884Y-104729561D01*
X242303884Y-104729561D02*
X242256265Y-104539085D01*
X242256265Y-104539085D02*
X242256265Y-104205752D01*
X242256265Y-104205752D02*
X242303884Y-104015276D01*
X242303884Y-104015276D02*
X242399122Y-103920038D01*
X242399122Y-103920038D02*
X242494360Y-103872419D01*
X243780074Y-104205752D02*
X243780074Y-104872419D01*
X243351503Y-104205752D02*
X243351503Y-104729561D01*
X243351503Y-104729561D02*
X243399122Y-104824800D01*
X243399122Y-104824800D02*
X243494360Y-104872419D01*
X243494360Y-104872419D02*
X243637217Y-104872419D01*
X243637217Y-104872419D02*
X243732455Y-104824800D01*
X243732455Y-104824800D02*
X243780074Y-104777180D01*
X244113408Y-104205752D02*
X244494360Y-104205752D01*
X244256265Y-103872419D02*
X244256265Y-104729561D01*
X244256265Y-104729561D02*
X244303884Y-104824800D01*
X244303884Y-104824800D02*
X244399122Y-104872419D01*
X244399122Y-104872419D02*
X244494360Y-104872419D01*
X244589599Y-104967657D02*
X245351503Y-104967657D01*
X245589599Y-104872419D02*
X245589599Y-103872419D01*
X245589599Y-103872419D02*
X245827694Y-103872419D01*
X245827694Y-103872419D02*
X245970551Y-103920038D01*
X245970551Y-103920038D02*
X246065789Y-104015276D01*
X246065789Y-104015276D02*
X246113408Y-104110514D01*
X246113408Y-104110514D02*
X246161027Y-104300990D01*
X246161027Y-104300990D02*
X246161027Y-104443847D01*
X246161027Y-104443847D02*
X246113408Y-104634323D01*
X246113408Y-104634323D02*
X246065789Y-104729561D01*
X246065789Y-104729561D02*
X245970551Y-104824800D01*
X245970551Y-104824800D02*
X245827694Y-104872419D01*
X245827694Y-104872419D02*
X245589599Y-104872419D01*
X246589599Y-104777180D02*
X246637218Y-104824800D01*
X246637218Y-104824800D02*
X246589599Y-104872419D01*
X246589599Y-104872419D02*
X246541980Y-104824800D01*
X246541980Y-104824800D02*
X246589599Y-104777180D01*
X246589599Y-104777180D02*
X246589599Y-104872419D01*
X247018170Y-104586704D02*
X247494360Y-104586704D01*
X246922932Y-104872419D02*
X247256265Y-103872419D01*
X247256265Y-103872419D02*
X247589598Y-104872419D01*
X247922932Y-104872419D02*
X247922932Y-104205752D01*
X247922932Y-104300990D02*
X247970551Y-104253371D01*
X247970551Y-104253371D02*
X248065789Y-104205752D01*
X248065789Y-104205752D02*
X248208646Y-104205752D01*
X248208646Y-104205752D02*
X248303884Y-104253371D01*
X248303884Y-104253371D02*
X248351503Y-104348609D01*
X248351503Y-104348609D02*
X248351503Y-104872419D01*
X248351503Y-104348609D02*
X248399122Y-104253371D01*
X248399122Y-104253371D02*
X248494360Y-104205752D01*
X248494360Y-104205752D02*
X248637217Y-104205752D01*
X248637217Y-104205752D02*
X248732456Y-104253371D01*
X248732456Y-104253371D02*
X248780075Y-104348609D01*
X248780075Y-104348609D02*
X248780075Y-104872419D01*
X249256265Y-104205752D02*
X249256265Y-105205752D01*
X249256265Y-104253371D02*
X249351503Y-104205752D01*
X249351503Y-104205752D02*
X249541979Y-104205752D01*
X249541979Y-104205752D02*
X249637217Y-104253371D01*
X249637217Y-104253371D02*
X249684836Y-104300990D01*
X249684836Y-104300990D02*
X249732455Y-104396228D01*
X249732455Y-104396228D02*
X249732455Y-104681942D01*
X249732455Y-104681942D02*
X249684836Y-104777180D01*
X249684836Y-104777180D02*
X249637217Y-104824800D01*
X249637217Y-104824800D02*
X249541979Y-104872419D01*
X249541979Y-104872419D02*
X249351503Y-104872419D01*
X249351503Y-104872419D02*
X249256265Y-104824800D01*
X250303884Y-104872419D02*
X250208646Y-104824800D01*
X250208646Y-104824800D02*
X250161027Y-104729561D01*
X250161027Y-104729561D02*
X250161027Y-103872419D01*
X250684837Y-104872419D02*
X250684837Y-104205752D01*
X250684837Y-103872419D02*
X250637218Y-103920038D01*
X250637218Y-103920038D02*
X250684837Y-103967657D01*
X250684837Y-103967657D02*
X250732456Y-103920038D01*
X250732456Y-103920038D02*
X250684837Y-103872419D01*
X250684837Y-103872419D02*
X250684837Y-103967657D01*
X224494360Y-103872419D02*
X224684836Y-103872419D01*
X224684836Y-103872419D02*
X224780074Y-103920038D01*
X224780074Y-103920038D02*
X224875312Y-104015276D01*
X224875312Y-104015276D02*
X224922931Y-104205752D01*
X224922931Y-104205752D02*
X224922931Y-104539085D01*
X224922931Y-104539085D02*
X224875312Y-104729561D01*
X224875312Y-104729561D02*
X224780074Y-104824800D01*
X224780074Y-104824800D02*
X224684836Y-104872419D01*
X224684836Y-104872419D02*
X224494360Y-104872419D01*
X224494360Y-104872419D02*
X224399122Y-104824800D01*
X224399122Y-104824800D02*
X224303884Y-104729561D01*
X224303884Y-104729561D02*
X224256265Y-104539085D01*
X224256265Y-104539085D02*
X224256265Y-104205752D01*
X224256265Y-104205752D02*
X224303884Y-104015276D01*
X224303884Y-104015276D02*
X224399122Y-103920038D01*
X224399122Y-103920038D02*
X224494360Y-103872419D01*
X225780074Y-104205752D02*
X225780074Y-104872419D01*
X225351503Y-104205752D02*
X225351503Y-104729561D01*
X225351503Y-104729561D02*
X225399122Y-104824800D01*
X225399122Y-104824800D02*
X225494360Y-104872419D01*
X225494360Y-104872419D02*
X225637217Y-104872419D01*
X225637217Y-104872419D02*
X225732455Y-104824800D01*
X225732455Y-104824800D02*
X225780074Y-104777180D01*
X226113408Y-104205752D02*
X226494360Y-104205752D01*
X226256265Y-103872419D02*
X226256265Y-104729561D01*
X226256265Y-104729561D02*
X226303884Y-104824800D01*
X226303884Y-104824800D02*
X226399122Y-104872419D01*
X226399122Y-104872419D02*
X226494360Y-104872419D01*
X226589599Y-104967657D02*
X227351503Y-104967657D01*
X228161027Y-104777180D02*
X228113408Y-104824800D01*
X228113408Y-104824800D02*
X227970551Y-104872419D01*
X227970551Y-104872419D02*
X227875313Y-104872419D01*
X227875313Y-104872419D02*
X227732456Y-104824800D01*
X227732456Y-104824800D02*
X227637218Y-104729561D01*
X227637218Y-104729561D02*
X227589599Y-104634323D01*
X227589599Y-104634323D02*
X227541980Y-104443847D01*
X227541980Y-104443847D02*
X227541980Y-104300990D01*
X227541980Y-104300990D02*
X227589599Y-104110514D01*
X227589599Y-104110514D02*
X227637218Y-104015276D01*
X227637218Y-104015276D02*
X227732456Y-103920038D01*
X227732456Y-103920038D02*
X227875313Y-103872419D01*
X227875313Y-103872419D02*
X227970551Y-103872419D01*
X227970551Y-103872419D02*
X228113408Y-103920038D01*
X228113408Y-103920038D02*
X228161027Y-103967657D01*
X228589599Y-104777180D02*
X228637218Y-104824800D01*
X228637218Y-104824800D02*
X228589599Y-104872419D01*
X228589599Y-104872419D02*
X228541980Y-104824800D01*
X228541980Y-104824800D02*
X228589599Y-104777180D01*
X228589599Y-104777180D02*
X228589599Y-104872419D01*
X229018170Y-104586704D02*
X229494360Y-104586704D01*
X228922932Y-104872419D02*
X229256265Y-103872419D01*
X229256265Y-103872419D02*
X229589598Y-104872419D01*
X229922932Y-104872419D02*
X229922932Y-104205752D01*
X229922932Y-104300990D02*
X229970551Y-104253371D01*
X229970551Y-104253371D02*
X230065789Y-104205752D01*
X230065789Y-104205752D02*
X230208646Y-104205752D01*
X230208646Y-104205752D02*
X230303884Y-104253371D01*
X230303884Y-104253371D02*
X230351503Y-104348609D01*
X230351503Y-104348609D02*
X230351503Y-104872419D01*
X230351503Y-104348609D02*
X230399122Y-104253371D01*
X230399122Y-104253371D02*
X230494360Y-104205752D01*
X230494360Y-104205752D02*
X230637217Y-104205752D01*
X230637217Y-104205752D02*
X230732456Y-104253371D01*
X230732456Y-104253371D02*
X230780075Y-104348609D01*
X230780075Y-104348609D02*
X230780075Y-104872419D01*
X231256265Y-104205752D02*
X231256265Y-105205752D01*
X231256265Y-104253371D02*
X231351503Y-104205752D01*
X231351503Y-104205752D02*
X231541979Y-104205752D01*
X231541979Y-104205752D02*
X231637217Y-104253371D01*
X231637217Y-104253371D02*
X231684836Y-104300990D01*
X231684836Y-104300990D02*
X231732455Y-104396228D01*
X231732455Y-104396228D02*
X231732455Y-104681942D01*
X231732455Y-104681942D02*
X231684836Y-104777180D01*
X231684836Y-104777180D02*
X231637217Y-104824800D01*
X231637217Y-104824800D02*
X231541979Y-104872419D01*
X231541979Y-104872419D02*
X231351503Y-104872419D01*
X231351503Y-104872419D02*
X231256265Y-104824800D01*
X232303884Y-104872419D02*
X232208646Y-104824800D01*
X232208646Y-104824800D02*
X232161027Y-104729561D01*
X232161027Y-104729561D02*
X232161027Y-103872419D01*
X232684837Y-104872419D02*
X232684837Y-104205752D01*
X232684837Y-103872419D02*
X232637218Y-103920038D01*
X232637218Y-103920038D02*
X232684837Y-103967657D01*
X232684837Y-103967657D02*
X232732456Y-103920038D01*
X232732456Y-103920038D02*
X232684837Y-103872419D01*
X232684837Y-103872419D02*
X232684837Y-103967657D01*
X170258533Y-157533884D02*
X170258533Y-158295789D01*
X169877580Y-157914836D02*
X170639485Y-157914836D01*
X169877580Y-158771979D02*
X170877580Y-158771979D01*
X169877580Y-159248169D02*
X170877580Y-159248169D01*
X170877580Y-159248169D02*
X169877580Y-159819597D01*
X169877580Y-159819597D02*
X170877580Y-159819597D01*
X169877580Y-161057693D02*
X170877580Y-161057693D01*
X170877580Y-161057693D02*
X170877580Y-161295788D01*
X170877580Y-161295788D02*
X170829961Y-161438645D01*
X170829961Y-161438645D02*
X170734723Y-161533883D01*
X170734723Y-161533883D02*
X170639485Y-161581502D01*
X170639485Y-161581502D02*
X170449009Y-161629121D01*
X170449009Y-161629121D02*
X170306152Y-161629121D01*
X170306152Y-161629121D02*
X170115676Y-161581502D01*
X170115676Y-161581502D02*
X170020438Y-161533883D01*
X170020438Y-161533883D02*
X169925200Y-161438645D01*
X169925200Y-161438645D02*
X169877580Y-161295788D01*
X169877580Y-161295788D02*
X169877580Y-161057693D01*
X169972819Y-162629121D02*
X169925200Y-162581502D01*
X169925200Y-162581502D02*
X169877580Y-162438645D01*
X169877580Y-162438645D02*
X169877580Y-162343407D01*
X169877580Y-162343407D02*
X169925200Y-162200550D01*
X169925200Y-162200550D02*
X170020438Y-162105312D01*
X170020438Y-162105312D02*
X170115676Y-162057693D01*
X170115676Y-162057693D02*
X170306152Y-162010074D01*
X170306152Y-162010074D02*
X170449009Y-162010074D01*
X170449009Y-162010074D02*
X170639485Y-162057693D01*
X170639485Y-162057693D02*
X170734723Y-162105312D01*
X170734723Y-162105312D02*
X170829961Y-162200550D01*
X170829961Y-162200550D02*
X170877580Y-162343407D01*
X170877580Y-162343407D02*
X170877580Y-162438645D01*
X170877580Y-162438645D02*
X170829961Y-162581502D01*
X170829961Y-162581502D02*
X170782342Y-162629121D01*
X170925200Y-163771978D02*
X169639485Y-162914836D01*
X169877580Y-164105312D02*
X170877580Y-164105312D01*
X170877580Y-164105312D02*
X170877580Y-164343407D01*
X170877580Y-164343407D02*
X170829961Y-164486264D01*
X170829961Y-164486264D02*
X170734723Y-164581502D01*
X170734723Y-164581502D02*
X170639485Y-164629121D01*
X170639485Y-164629121D02*
X170449009Y-164676740D01*
X170449009Y-164676740D02*
X170306152Y-164676740D01*
X170306152Y-164676740D02*
X170115676Y-164629121D01*
X170115676Y-164629121D02*
X170020438Y-164581502D01*
X170020438Y-164581502D02*
X169925200Y-164486264D01*
X169925200Y-164486264D02*
X169877580Y-164343407D01*
X169877580Y-164343407D02*
X169877580Y-164105312D01*
X169972819Y-165676740D02*
X169925200Y-165629121D01*
X169925200Y-165629121D02*
X169877580Y-165486264D01*
X169877580Y-165486264D02*
X169877580Y-165391026D01*
X169877580Y-165391026D02*
X169925200Y-165248169D01*
X169925200Y-165248169D02*
X170020438Y-165152931D01*
X170020438Y-165152931D02*
X170115676Y-165105312D01*
X170115676Y-165105312D02*
X170306152Y-165057693D01*
X170306152Y-165057693D02*
X170449009Y-165057693D01*
X170449009Y-165057693D02*
X170639485Y-165105312D01*
X170639485Y-165105312D02*
X170734723Y-165152931D01*
X170734723Y-165152931D02*
X170829961Y-165248169D01*
X170829961Y-165248169D02*
X170877580Y-165391026D01*
X170877580Y-165391026D02*
X170877580Y-165486264D01*
X170877580Y-165486264D02*
X170829961Y-165629121D01*
X170829961Y-165629121D02*
X170782342Y-165676740D01*
X170258533Y-166867217D02*
X170258533Y-167629122D01*
X172006265Y-146824800D02*
X172149122Y-146872419D01*
X172149122Y-146872419D02*
X172387217Y-146872419D01*
X172387217Y-146872419D02*
X172482455Y-146824800D01*
X172482455Y-146824800D02*
X172530074Y-146777180D01*
X172530074Y-146777180D02*
X172577693Y-146681942D01*
X172577693Y-146681942D02*
X172577693Y-146586704D01*
X172577693Y-146586704D02*
X172530074Y-146491466D01*
X172530074Y-146491466D02*
X172482455Y-146443847D01*
X172482455Y-146443847D02*
X172387217Y-146396228D01*
X172387217Y-146396228D02*
X172196741Y-146348609D01*
X172196741Y-146348609D02*
X172101503Y-146300990D01*
X172101503Y-146300990D02*
X172053884Y-146253371D01*
X172053884Y-146253371D02*
X172006265Y-146158133D01*
X172006265Y-146158133D02*
X172006265Y-146062895D01*
X172006265Y-146062895D02*
X172053884Y-145967657D01*
X172053884Y-145967657D02*
X172101503Y-145920038D01*
X172101503Y-145920038D02*
X172196741Y-145872419D01*
X172196741Y-145872419D02*
X172434836Y-145872419D01*
X172434836Y-145872419D02*
X172577693Y-145920038D01*
X173006265Y-146777180D02*
X173053884Y-146824800D01*
X173053884Y-146824800D02*
X173006265Y-146872419D01*
X173006265Y-146872419D02*
X172958646Y-146824800D01*
X172958646Y-146824800D02*
X173006265Y-146777180D01*
X173006265Y-146777180D02*
X173006265Y-146872419D01*
X173482455Y-146872419D02*
X173482455Y-145872419D01*
X173482455Y-145872419D02*
X173720550Y-145872419D01*
X173720550Y-145872419D02*
X173863407Y-145920038D01*
X173863407Y-145920038D02*
X173958645Y-146015276D01*
X173958645Y-146015276D02*
X174006264Y-146110514D01*
X174006264Y-146110514D02*
X174053883Y-146300990D01*
X174053883Y-146300990D02*
X174053883Y-146443847D01*
X174053883Y-146443847D02*
X174006264Y-146634323D01*
X174006264Y-146634323D02*
X173958645Y-146729561D01*
X173958645Y-146729561D02*
X173863407Y-146824800D01*
X173863407Y-146824800D02*
X173720550Y-146872419D01*
X173720550Y-146872419D02*
X173482455Y-146872419D01*
X174863407Y-146824800D02*
X174768169Y-146872419D01*
X174768169Y-146872419D02*
X174577693Y-146872419D01*
X174577693Y-146872419D02*
X174482455Y-146824800D01*
X174482455Y-146824800D02*
X174434836Y-146729561D01*
X174434836Y-146729561D02*
X174434836Y-146348609D01*
X174434836Y-146348609D02*
X174482455Y-146253371D01*
X174482455Y-146253371D02*
X174577693Y-146205752D01*
X174577693Y-146205752D02*
X174768169Y-146205752D01*
X174768169Y-146205752D02*
X174863407Y-146253371D01*
X174863407Y-146253371D02*
X174911026Y-146348609D01*
X174911026Y-146348609D02*
X174911026Y-146443847D01*
X174911026Y-146443847D02*
X174434836Y-146539085D01*
X175291979Y-146824800D02*
X175387217Y-146872419D01*
X175387217Y-146872419D02*
X175577693Y-146872419D01*
X175577693Y-146872419D02*
X175672931Y-146824800D01*
X175672931Y-146824800D02*
X175720550Y-146729561D01*
X175720550Y-146729561D02*
X175720550Y-146681942D01*
X175720550Y-146681942D02*
X175672931Y-146586704D01*
X175672931Y-146586704D02*
X175577693Y-146539085D01*
X175577693Y-146539085D02*
X175434836Y-146539085D01*
X175434836Y-146539085D02*
X175339598Y-146491466D01*
X175339598Y-146491466D02*
X175291979Y-146396228D01*
X175291979Y-146396228D02*
X175291979Y-146348609D01*
X175291979Y-146348609D02*
X175339598Y-146253371D01*
X175339598Y-146253371D02*
X175434836Y-146205752D01*
X175434836Y-146205752D02*
X175577693Y-146205752D01*
X175577693Y-146205752D02*
X175672931Y-146253371D01*
X176577693Y-146824800D02*
X176482455Y-146872419D01*
X176482455Y-146872419D02*
X176291979Y-146872419D01*
X176291979Y-146872419D02*
X176196741Y-146824800D01*
X176196741Y-146824800D02*
X176149122Y-146777180D01*
X176149122Y-146777180D02*
X176101503Y-146681942D01*
X176101503Y-146681942D02*
X176101503Y-146396228D01*
X176101503Y-146396228D02*
X176149122Y-146300990D01*
X176149122Y-146300990D02*
X176196741Y-146253371D01*
X176196741Y-146253371D02*
X176291979Y-146205752D01*
X176291979Y-146205752D02*
X176482455Y-146205752D01*
X176482455Y-146205752D02*
X176577693Y-146253371D01*
X177434836Y-146872419D02*
X177434836Y-146348609D01*
X177434836Y-146348609D02*
X177387217Y-146253371D01*
X177387217Y-146253371D02*
X177291979Y-146205752D01*
X177291979Y-146205752D02*
X177101503Y-146205752D01*
X177101503Y-146205752D02*
X177006265Y-146253371D01*
X177434836Y-146824800D02*
X177339598Y-146872419D01*
X177339598Y-146872419D02*
X177101503Y-146872419D01*
X177101503Y-146872419D02*
X177006265Y-146824800D01*
X177006265Y-146824800D02*
X176958646Y-146729561D01*
X176958646Y-146729561D02*
X176958646Y-146634323D01*
X176958646Y-146634323D02*
X177006265Y-146539085D01*
X177006265Y-146539085D02*
X177101503Y-146491466D01*
X177101503Y-146491466D02*
X177339598Y-146491466D01*
X177339598Y-146491466D02*
X177434836Y-146443847D01*
X177911027Y-146872419D02*
X177911027Y-146205752D01*
X177911027Y-146396228D02*
X177958646Y-146300990D01*
X177958646Y-146300990D02*
X178006265Y-146253371D01*
X178006265Y-146253371D02*
X178101503Y-146205752D01*
X178101503Y-146205752D02*
X178196741Y-146205752D01*
X178958646Y-146205752D02*
X178958646Y-147015276D01*
X178958646Y-147015276D02*
X178911027Y-147110514D01*
X178911027Y-147110514D02*
X178863408Y-147158133D01*
X178863408Y-147158133D02*
X178768170Y-147205752D01*
X178768170Y-147205752D02*
X178625313Y-147205752D01*
X178625313Y-147205752D02*
X178530075Y-147158133D01*
X178958646Y-146824800D02*
X178863408Y-146872419D01*
X178863408Y-146872419D02*
X178672932Y-146872419D01*
X178672932Y-146872419D02*
X178577694Y-146824800D01*
X178577694Y-146824800D02*
X178530075Y-146777180D01*
X178530075Y-146777180D02*
X178482456Y-146681942D01*
X178482456Y-146681942D02*
X178482456Y-146396228D01*
X178482456Y-146396228D02*
X178530075Y-146300990D01*
X178530075Y-146300990D02*
X178577694Y-146253371D01*
X178577694Y-146253371D02*
X178672932Y-146205752D01*
X178672932Y-146205752D02*
X178863408Y-146205752D01*
X178863408Y-146205752D02*
X178958646Y-146253371D01*
X179863408Y-146872419D02*
X179863408Y-146348609D01*
X179863408Y-146348609D02*
X179815789Y-146253371D01*
X179815789Y-146253371D02*
X179720551Y-146205752D01*
X179720551Y-146205752D02*
X179530075Y-146205752D01*
X179530075Y-146205752D02*
X179434837Y-146253371D01*
X179863408Y-146824800D02*
X179768170Y-146872419D01*
X179768170Y-146872419D02*
X179530075Y-146872419D01*
X179530075Y-146872419D02*
X179434837Y-146824800D01*
X179434837Y-146824800D02*
X179387218Y-146729561D01*
X179387218Y-146729561D02*
X179387218Y-146634323D01*
X179387218Y-146634323D02*
X179434837Y-146539085D01*
X179434837Y-146539085D02*
X179530075Y-146491466D01*
X179530075Y-146491466D02*
X179768170Y-146491466D01*
X179768170Y-146491466D02*
X179863408Y-146443847D01*
X260241466Y-149446115D02*
X260241466Y-148684211D01*
X260241466Y-148208020D02*
X260241466Y-147446116D01*
X260241466Y-146969925D02*
X260241466Y-146208021D01*
X259955752Y-145731830D02*
X260241466Y-144969926D01*
X260241466Y-144969926D02*
X260527180Y-145731830D01*
X173506265Y-156324800D02*
X173649122Y-156372419D01*
X173649122Y-156372419D02*
X173887217Y-156372419D01*
X173887217Y-156372419D02*
X173982455Y-156324800D01*
X173982455Y-156324800D02*
X174030074Y-156277180D01*
X174030074Y-156277180D02*
X174077693Y-156181942D01*
X174077693Y-156181942D02*
X174077693Y-156086704D01*
X174077693Y-156086704D02*
X174030074Y-155991466D01*
X174030074Y-155991466D02*
X173982455Y-155943847D01*
X173982455Y-155943847D02*
X173887217Y-155896228D01*
X173887217Y-155896228D02*
X173696741Y-155848609D01*
X173696741Y-155848609D02*
X173601503Y-155800990D01*
X173601503Y-155800990D02*
X173553884Y-155753371D01*
X173553884Y-155753371D02*
X173506265Y-155658133D01*
X173506265Y-155658133D02*
X173506265Y-155562895D01*
X173506265Y-155562895D02*
X173553884Y-155467657D01*
X173553884Y-155467657D02*
X173601503Y-155420038D01*
X173601503Y-155420038D02*
X173696741Y-155372419D01*
X173696741Y-155372419D02*
X173934836Y-155372419D01*
X173934836Y-155372419D02*
X174077693Y-155420038D01*
X174506265Y-156277180D02*
X174553884Y-156324800D01*
X174553884Y-156324800D02*
X174506265Y-156372419D01*
X174506265Y-156372419D02*
X174458646Y-156324800D01*
X174458646Y-156324800D02*
X174506265Y-156277180D01*
X174506265Y-156277180D02*
X174506265Y-156372419D01*
X175553883Y-156277180D02*
X175506264Y-156324800D01*
X175506264Y-156324800D02*
X175363407Y-156372419D01*
X175363407Y-156372419D02*
X175268169Y-156372419D01*
X175268169Y-156372419D02*
X175125312Y-156324800D01*
X175125312Y-156324800D02*
X175030074Y-156229561D01*
X175030074Y-156229561D02*
X174982455Y-156134323D01*
X174982455Y-156134323D02*
X174934836Y-155943847D01*
X174934836Y-155943847D02*
X174934836Y-155800990D01*
X174934836Y-155800990D02*
X174982455Y-155610514D01*
X174982455Y-155610514D02*
X175030074Y-155515276D01*
X175030074Y-155515276D02*
X175125312Y-155420038D01*
X175125312Y-155420038D02*
X175268169Y-155372419D01*
X175268169Y-155372419D02*
X175363407Y-155372419D01*
X175363407Y-155372419D02*
X175506264Y-155420038D01*
X175506264Y-155420038D02*
X175553883Y-155467657D01*
X176411026Y-156372419D02*
X176411026Y-155848609D01*
X176411026Y-155848609D02*
X176363407Y-155753371D01*
X176363407Y-155753371D02*
X176268169Y-155705752D01*
X176268169Y-155705752D02*
X176077693Y-155705752D01*
X176077693Y-155705752D02*
X175982455Y-155753371D01*
X176411026Y-156324800D02*
X176315788Y-156372419D01*
X176315788Y-156372419D02*
X176077693Y-156372419D01*
X176077693Y-156372419D02*
X175982455Y-156324800D01*
X175982455Y-156324800D02*
X175934836Y-156229561D01*
X175934836Y-156229561D02*
X175934836Y-156134323D01*
X175934836Y-156134323D02*
X175982455Y-156039085D01*
X175982455Y-156039085D02*
X176077693Y-155991466D01*
X176077693Y-155991466D02*
X176315788Y-155991466D01*
X176315788Y-155991466D02*
X176411026Y-155943847D01*
X176887217Y-156372419D02*
X176887217Y-155705752D01*
X176887217Y-155896228D02*
X176934836Y-155800990D01*
X176934836Y-155800990D02*
X176982455Y-155753371D01*
X176982455Y-155753371D02*
X177077693Y-155705752D01*
X177077693Y-155705752D02*
X177172931Y-155705752D01*
X177934836Y-155705752D02*
X177934836Y-156515276D01*
X177934836Y-156515276D02*
X177887217Y-156610514D01*
X177887217Y-156610514D02*
X177839598Y-156658133D01*
X177839598Y-156658133D02*
X177744360Y-156705752D01*
X177744360Y-156705752D02*
X177601503Y-156705752D01*
X177601503Y-156705752D02*
X177506265Y-156658133D01*
X177934836Y-156324800D02*
X177839598Y-156372419D01*
X177839598Y-156372419D02*
X177649122Y-156372419D01*
X177649122Y-156372419D02*
X177553884Y-156324800D01*
X177553884Y-156324800D02*
X177506265Y-156277180D01*
X177506265Y-156277180D02*
X177458646Y-156181942D01*
X177458646Y-156181942D02*
X177458646Y-155896228D01*
X177458646Y-155896228D02*
X177506265Y-155800990D01*
X177506265Y-155800990D02*
X177553884Y-155753371D01*
X177553884Y-155753371D02*
X177649122Y-155705752D01*
X177649122Y-155705752D02*
X177839598Y-155705752D01*
X177839598Y-155705752D02*
X177934836Y-155753371D01*
X178839598Y-156372419D02*
X178839598Y-155848609D01*
X178839598Y-155848609D02*
X178791979Y-155753371D01*
X178791979Y-155753371D02*
X178696741Y-155705752D01*
X178696741Y-155705752D02*
X178506265Y-155705752D01*
X178506265Y-155705752D02*
X178411027Y-155753371D01*
X178839598Y-156324800D02*
X178744360Y-156372419D01*
X178744360Y-156372419D02*
X178506265Y-156372419D01*
X178506265Y-156372419D02*
X178411027Y-156324800D01*
X178411027Y-156324800D02*
X178363408Y-156229561D01*
X178363408Y-156229561D02*
X178363408Y-156134323D01*
X178363408Y-156134323D02*
X178411027Y-156039085D01*
X178411027Y-156039085D02*
X178506265Y-155991466D01*
X178506265Y-155991466D02*
X178744360Y-155991466D01*
X178744360Y-155991466D02*
X178839598Y-155943847D01*
X170258533Y-132303884D02*
X170258533Y-133065789D01*
X169877580Y-132684836D02*
X170639485Y-132684836D01*
X170877580Y-133732455D02*
X170877580Y-133922931D01*
X170877580Y-133922931D02*
X170829961Y-134018169D01*
X170829961Y-134018169D02*
X170734723Y-134113407D01*
X170734723Y-134113407D02*
X170544247Y-134161026D01*
X170544247Y-134161026D02*
X170210914Y-134161026D01*
X170210914Y-134161026D02*
X170020438Y-134113407D01*
X170020438Y-134113407D02*
X169925200Y-134018169D01*
X169925200Y-134018169D02*
X169877580Y-133922931D01*
X169877580Y-133922931D02*
X169877580Y-133732455D01*
X169877580Y-133732455D02*
X169925200Y-133637217D01*
X169925200Y-133637217D02*
X170020438Y-133541979D01*
X170020438Y-133541979D02*
X170210914Y-133494360D01*
X170210914Y-133494360D02*
X170544247Y-133494360D01*
X170544247Y-133494360D02*
X170734723Y-133541979D01*
X170734723Y-133541979D02*
X170829961Y-133637217D01*
X170829961Y-133637217D02*
X170877580Y-133732455D01*
X170544247Y-135018169D02*
X169877580Y-135018169D01*
X170544247Y-134589598D02*
X170020438Y-134589598D01*
X170020438Y-134589598D02*
X169925200Y-134637217D01*
X169925200Y-134637217D02*
X169877580Y-134732455D01*
X169877580Y-134732455D02*
X169877580Y-134875312D01*
X169877580Y-134875312D02*
X169925200Y-134970550D01*
X169925200Y-134970550D02*
X169972819Y-135018169D01*
X170544247Y-135351503D02*
X170544247Y-135732455D01*
X170877580Y-135494360D02*
X170020438Y-135494360D01*
X170020438Y-135494360D02*
X169925200Y-135541979D01*
X169925200Y-135541979D02*
X169877580Y-135637217D01*
X169877580Y-135637217D02*
X169877580Y-135732455D01*
X169877580Y-137351503D02*
X169877580Y-136780075D01*
X169877580Y-137065789D02*
X170877580Y-137065789D01*
X170877580Y-137065789D02*
X170734723Y-136970551D01*
X170734723Y-136970551D02*
X170639485Y-136875313D01*
X170639485Y-136875313D02*
X170591866Y-136780075D01*
X170877580Y-138256265D02*
X170877580Y-137780075D01*
X170877580Y-137780075D02*
X170401390Y-137732456D01*
X170401390Y-137732456D02*
X170449009Y-137780075D01*
X170449009Y-137780075D02*
X170496628Y-137875313D01*
X170496628Y-137875313D02*
X170496628Y-138113408D01*
X170496628Y-138113408D02*
X170449009Y-138208646D01*
X170449009Y-138208646D02*
X170401390Y-138256265D01*
X170401390Y-138256265D02*
X170306152Y-138303884D01*
X170306152Y-138303884D02*
X170068057Y-138303884D01*
X170068057Y-138303884D02*
X169972819Y-138256265D01*
X169972819Y-138256265D02*
X169925200Y-138208646D01*
X169925200Y-138208646D02*
X169877580Y-138113408D01*
X169877580Y-138113408D02*
X169877580Y-137875313D01*
X169877580Y-137875313D02*
X169925200Y-137780075D01*
X169925200Y-137780075D02*
X169972819Y-137732456D01*
X170877580Y-138589599D02*
X169877580Y-138922932D01*
X169877580Y-138922932D02*
X170877580Y-139256265D01*
X170258533Y-139589599D02*
X170258533Y-140351504D01*
D12*
X256929819Y-135603333D02*
X257644104Y-135603333D01*
X257644104Y-135603333D02*
X257786961Y-135650952D01*
X257786961Y-135650952D02*
X257882200Y-135746190D01*
X257882200Y-135746190D02*
X257929819Y-135889047D01*
X257929819Y-135889047D02*
X257929819Y-135984285D01*
X256929819Y-135222380D02*
X256929819Y-134603333D01*
X256929819Y-134603333D02*
X257310771Y-134936666D01*
X257310771Y-134936666D02*
X257310771Y-134793809D01*
X257310771Y-134793809D02*
X257358390Y-134698571D01*
X257358390Y-134698571D02*
X257406009Y-134650952D01*
X257406009Y-134650952D02*
X257501247Y-134603333D01*
X257501247Y-134603333D02*
X257739342Y-134603333D01*
X257739342Y-134603333D02*
X257834580Y-134650952D01*
X257834580Y-134650952D02*
X257882200Y-134698571D01*
X257882200Y-134698571D02*
X257929819Y-134793809D01*
X257929819Y-134793809D02*
X257929819Y-135079523D01*
X257929819Y-135079523D02*
X257882200Y-135174761D01*
X257882200Y-135174761D02*
X257834580Y-135222380D01*
X186164819Y-168791666D02*
X185688628Y-169124999D01*
X186164819Y-169363094D02*
X185164819Y-169363094D01*
X185164819Y-169363094D02*
X185164819Y-168982142D01*
X185164819Y-168982142D02*
X185212438Y-168886904D01*
X185212438Y-168886904D02*
X185260057Y-168839285D01*
X185260057Y-168839285D02*
X185355295Y-168791666D01*
X185355295Y-168791666D02*
X185498152Y-168791666D01*
X185498152Y-168791666D02*
X185593390Y-168839285D01*
X185593390Y-168839285D02*
X185641009Y-168886904D01*
X185641009Y-168886904D02*
X185688628Y-168982142D01*
X185688628Y-168982142D02*
X185688628Y-169363094D01*
X186164819Y-167839285D02*
X186164819Y-168410713D01*
X186164819Y-168124999D02*
X185164819Y-168124999D01*
X185164819Y-168124999D02*
X185307676Y-168220237D01*
X185307676Y-168220237D02*
X185402914Y-168315475D01*
X185402914Y-168315475D02*
X185450533Y-168410713D01*
X223190476Y-170879819D02*
X223190476Y-171594104D01*
X223190476Y-171594104D02*
X223142857Y-171736961D01*
X223142857Y-171736961D02*
X223047619Y-171832200D01*
X223047619Y-171832200D02*
X222904762Y-171879819D01*
X222904762Y-171879819D02*
X222809524Y-171879819D01*
X224190476Y-171879819D02*
X223619048Y-171879819D01*
X223904762Y-171879819D02*
X223904762Y-170879819D01*
X223904762Y-170879819D02*
X223809524Y-171022676D01*
X223809524Y-171022676D02*
X223714286Y-171117914D01*
X223714286Y-171117914D02*
X223619048Y-171165533D01*
X224523810Y-170879819D02*
X225142857Y-170879819D01*
X225142857Y-170879819D02*
X224809524Y-171260771D01*
X224809524Y-171260771D02*
X224952381Y-171260771D01*
X224952381Y-171260771D02*
X225047619Y-171308390D01*
X225047619Y-171308390D02*
X225095238Y-171356009D01*
X225095238Y-171356009D02*
X225142857Y-171451247D01*
X225142857Y-171451247D02*
X225142857Y-171689342D01*
X225142857Y-171689342D02*
X225095238Y-171784580D01*
X225095238Y-171784580D02*
X225047619Y-171832200D01*
X225047619Y-171832200D02*
X224952381Y-171879819D01*
X224952381Y-171879819D02*
X224666667Y-171879819D01*
X224666667Y-171879819D02*
X224571429Y-171832200D01*
X224571429Y-171832200D02*
X224523810Y-171784580D01*
X209374819Y-168841666D02*
X208898628Y-169174999D01*
X209374819Y-169413094D02*
X208374819Y-169413094D01*
X208374819Y-169413094D02*
X208374819Y-169032142D01*
X208374819Y-169032142D02*
X208422438Y-168936904D01*
X208422438Y-168936904D02*
X208470057Y-168889285D01*
X208470057Y-168889285D02*
X208565295Y-168841666D01*
X208565295Y-168841666D02*
X208708152Y-168841666D01*
X208708152Y-168841666D02*
X208803390Y-168889285D01*
X208803390Y-168889285D02*
X208851009Y-168936904D01*
X208851009Y-168936904D02*
X208898628Y-169032142D01*
X208898628Y-169032142D02*
X208898628Y-169413094D01*
X208708152Y-167984523D02*
X209374819Y-167984523D01*
X208327200Y-168222618D02*
X209041485Y-168460713D01*
X209041485Y-168460713D02*
X209041485Y-167841666D01*
X238833333Y-131629820D02*
X238357143Y-131629820D01*
X238357143Y-131629820D02*
X238357143Y-130629820D01*
X239119048Y-130725058D02*
X239166667Y-130677439D01*
X239166667Y-130677439D02*
X239261905Y-130629820D01*
X239261905Y-130629820D02*
X239500000Y-130629820D01*
X239500000Y-130629820D02*
X239595238Y-130677439D01*
X239595238Y-130677439D02*
X239642857Y-130725058D01*
X239642857Y-130725058D02*
X239690476Y-130820296D01*
X239690476Y-130820296D02*
X239690476Y-130915534D01*
X239690476Y-130915534D02*
X239642857Y-131058391D01*
X239642857Y-131058391D02*
X239071429Y-131629820D01*
X239071429Y-131629820D02*
X239690476Y-131629820D01*
D13*
X206760237Y-161249318D02*
X206760237Y-159979318D01*
X208090714Y-161128365D02*
X208030238Y-161188842D01*
X208030238Y-161188842D02*
X207848809Y-161249318D01*
X207848809Y-161249318D02*
X207727857Y-161249318D01*
X207727857Y-161249318D02*
X207546428Y-161188842D01*
X207546428Y-161188842D02*
X207425476Y-161067889D01*
X207425476Y-161067889D02*
X207364999Y-160946937D01*
X207364999Y-160946937D02*
X207304523Y-160705032D01*
X207304523Y-160705032D02*
X207304523Y-160523603D01*
X207304523Y-160523603D02*
X207364999Y-160281699D01*
X207364999Y-160281699D02*
X207425476Y-160160746D01*
X207425476Y-160160746D02*
X207546428Y-160039794D01*
X207546428Y-160039794D02*
X207727857Y-159979318D01*
X207727857Y-159979318D02*
X207848809Y-159979318D01*
X207848809Y-159979318D02*
X208030238Y-160039794D01*
X208030238Y-160039794D02*
X208090714Y-160100270D01*
X208574523Y-160100270D02*
X208634999Y-160039794D01*
X208634999Y-160039794D02*
X208755952Y-159979318D01*
X208755952Y-159979318D02*
X209058333Y-159979318D01*
X209058333Y-159979318D02*
X209179285Y-160039794D01*
X209179285Y-160039794D02*
X209239761Y-160100270D01*
X209239761Y-160100270D02*
X209300238Y-160221222D01*
X209300238Y-160221222D02*
X209300238Y-160342175D01*
X209300238Y-160342175D02*
X209239761Y-160523603D01*
X209239761Y-160523603D02*
X208514047Y-161249318D01*
X208514047Y-161249318D02*
X209300238Y-161249318D01*
D12*
X252154761Y-119925057D02*
X252059523Y-119877438D01*
X252059523Y-119877438D02*
X251964285Y-119782200D01*
X251964285Y-119782200D02*
X251821428Y-119639342D01*
X251821428Y-119639342D02*
X251726190Y-119591723D01*
X251726190Y-119591723D02*
X251630952Y-119591723D01*
X251678571Y-119829819D02*
X251583333Y-119782200D01*
X251583333Y-119782200D02*
X251488095Y-119686961D01*
X251488095Y-119686961D02*
X251440476Y-119496485D01*
X251440476Y-119496485D02*
X251440476Y-119163152D01*
X251440476Y-119163152D02*
X251488095Y-118972676D01*
X251488095Y-118972676D02*
X251583333Y-118877438D01*
X251583333Y-118877438D02*
X251678571Y-118829819D01*
X251678571Y-118829819D02*
X251869047Y-118829819D01*
X251869047Y-118829819D02*
X251964285Y-118877438D01*
X251964285Y-118877438D02*
X252059523Y-118972676D01*
X252059523Y-118972676D02*
X252107142Y-119163152D01*
X252107142Y-119163152D02*
X252107142Y-119496485D01*
X252107142Y-119496485D02*
X252059523Y-119686961D01*
X252059523Y-119686961D02*
X251964285Y-119782200D01*
X251964285Y-119782200D02*
X251869047Y-119829819D01*
X251869047Y-119829819D02*
X251678571Y-119829819D01*
X252488095Y-118925057D02*
X252535714Y-118877438D01*
X252535714Y-118877438D02*
X252630952Y-118829819D01*
X252630952Y-118829819D02*
X252869047Y-118829819D01*
X252869047Y-118829819D02*
X252964285Y-118877438D01*
X252964285Y-118877438D02*
X253011904Y-118925057D01*
X253011904Y-118925057D02*
X253059523Y-119020295D01*
X253059523Y-119020295D02*
X253059523Y-119115533D01*
X253059523Y-119115533D02*
X253011904Y-119258390D01*
X253011904Y-119258390D02*
X252440476Y-119829819D01*
X252440476Y-119829819D02*
X253059523Y-119829819D01*
X234114761Y-119925057D02*
X234019523Y-119877438D01*
X234019523Y-119877438D02*
X233924285Y-119782200D01*
X233924285Y-119782200D02*
X233781428Y-119639342D01*
X233781428Y-119639342D02*
X233686190Y-119591723D01*
X233686190Y-119591723D02*
X233590952Y-119591723D01*
X233638571Y-119829819D02*
X233543333Y-119782200D01*
X233543333Y-119782200D02*
X233448095Y-119686961D01*
X233448095Y-119686961D02*
X233400476Y-119496485D01*
X233400476Y-119496485D02*
X233400476Y-119163152D01*
X233400476Y-119163152D02*
X233448095Y-118972676D01*
X233448095Y-118972676D02*
X233543333Y-118877438D01*
X233543333Y-118877438D02*
X233638571Y-118829819D01*
X233638571Y-118829819D02*
X233829047Y-118829819D01*
X233829047Y-118829819D02*
X233924285Y-118877438D01*
X233924285Y-118877438D02*
X234019523Y-118972676D01*
X234019523Y-118972676D02*
X234067142Y-119163152D01*
X234067142Y-119163152D02*
X234067142Y-119496485D01*
X234067142Y-119496485D02*
X234019523Y-119686961D01*
X234019523Y-119686961D02*
X233924285Y-119782200D01*
X233924285Y-119782200D02*
X233829047Y-119829819D01*
X233829047Y-119829819D02*
X233638571Y-119829819D01*
X235019523Y-119829819D02*
X234448095Y-119829819D01*
X234733809Y-119829819D02*
X234733809Y-118829819D01*
X234733809Y-118829819D02*
X234638571Y-118972676D01*
X234638571Y-118972676D02*
X234543333Y-119067914D01*
X234543333Y-119067914D02*
X234448095Y-119115533D01*
X256929819Y-151603333D02*
X257644104Y-151603333D01*
X257644104Y-151603333D02*
X257786961Y-151650952D01*
X257786961Y-151650952D02*
X257882200Y-151746190D01*
X257882200Y-151746190D02*
X257929819Y-151889047D01*
X257929819Y-151889047D02*
X257929819Y-151984285D01*
X257025057Y-151174761D02*
X256977438Y-151127142D01*
X256977438Y-151127142D02*
X256929819Y-151031904D01*
X256929819Y-151031904D02*
X256929819Y-150793809D01*
X256929819Y-150793809D02*
X256977438Y-150698571D01*
X256977438Y-150698571D02*
X257025057Y-150650952D01*
X257025057Y-150650952D02*
X257120295Y-150603333D01*
X257120295Y-150603333D02*
X257215533Y-150603333D01*
X257215533Y-150603333D02*
X257358390Y-150650952D01*
X257358390Y-150650952D02*
X257929819Y-151222380D01*
X257929819Y-151222380D02*
X257929819Y-150603333D01*
D11*
X251011905Y-108882419D02*
X251011905Y-107882419D01*
X251011905Y-108358609D02*
X251583333Y-108358609D01*
X251583333Y-108882419D02*
X251583333Y-107882419D01*
X252011905Y-108834800D02*
X252154762Y-108882419D01*
X252154762Y-108882419D02*
X252392857Y-108882419D01*
X252392857Y-108882419D02*
X252488095Y-108834800D01*
X252488095Y-108834800D02*
X252535714Y-108787180D01*
X252535714Y-108787180D02*
X252583333Y-108691942D01*
X252583333Y-108691942D02*
X252583333Y-108596704D01*
X252583333Y-108596704D02*
X252535714Y-108501466D01*
X252535714Y-108501466D02*
X252488095Y-108453847D01*
X252488095Y-108453847D02*
X252392857Y-108406228D01*
X252392857Y-108406228D02*
X252202381Y-108358609D01*
X252202381Y-108358609D02*
X252107143Y-108310990D01*
X252107143Y-108310990D02*
X252059524Y-108263371D01*
X252059524Y-108263371D02*
X252011905Y-108168133D01*
X252011905Y-108168133D02*
X252011905Y-108072895D01*
X252011905Y-108072895D02*
X252059524Y-107977657D01*
X252059524Y-107977657D02*
X252107143Y-107930038D01*
X252107143Y-107930038D02*
X252202381Y-107882419D01*
X252202381Y-107882419D02*
X252440476Y-107882419D01*
X252440476Y-107882419D02*
X252583333Y-107930038D01*
X252964286Y-107977657D02*
X253011905Y-107930038D01*
X253011905Y-107930038D02*
X253107143Y-107882419D01*
X253107143Y-107882419D02*
X253345238Y-107882419D01*
X253345238Y-107882419D02*
X253440476Y-107930038D01*
X253440476Y-107930038D02*
X253488095Y-107977657D01*
X253488095Y-107977657D02*
X253535714Y-108072895D01*
X253535714Y-108072895D02*
X253535714Y-108168133D01*
X253535714Y-108168133D02*
X253488095Y-108310990D01*
X253488095Y-108310990D02*
X252916667Y-108882419D01*
X252916667Y-108882419D02*
X253535714Y-108882419D01*
X233261905Y-108882419D02*
X233261905Y-107882419D01*
X233261905Y-108358609D02*
X233833333Y-108358609D01*
X233833333Y-108882419D02*
X233833333Y-107882419D01*
X234261905Y-108834800D02*
X234404762Y-108882419D01*
X234404762Y-108882419D02*
X234642857Y-108882419D01*
X234642857Y-108882419D02*
X234738095Y-108834800D01*
X234738095Y-108834800D02*
X234785714Y-108787180D01*
X234785714Y-108787180D02*
X234833333Y-108691942D01*
X234833333Y-108691942D02*
X234833333Y-108596704D01*
X234833333Y-108596704D02*
X234785714Y-108501466D01*
X234785714Y-108501466D02*
X234738095Y-108453847D01*
X234738095Y-108453847D02*
X234642857Y-108406228D01*
X234642857Y-108406228D02*
X234452381Y-108358609D01*
X234452381Y-108358609D02*
X234357143Y-108310990D01*
X234357143Y-108310990D02*
X234309524Y-108263371D01*
X234309524Y-108263371D02*
X234261905Y-108168133D01*
X234261905Y-108168133D02*
X234261905Y-108072895D01*
X234261905Y-108072895D02*
X234309524Y-107977657D01*
X234309524Y-107977657D02*
X234357143Y-107930038D01*
X234357143Y-107930038D02*
X234452381Y-107882419D01*
X234452381Y-107882419D02*
X234690476Y-107882419D01*
X234690476Y-107882419D02*
X234833333Y-107930038D01*
X235785714Y-108882419D02*
X235214286Y-108882419D01*
X235500000Y-108882419D02*
X235500000Y-107882419D01*
X235500000Y-107882419D02*
X235404762Y-108025276D01*
X235404762Y-108025276D02*
X235309524Y-108120514D01*
X235309524Y-108120514D02*
X235214286Y-108168133D01*
D12*
X238833333Y-147629820D02*
X238357143Y-147629820D01*
X238357143Y-147629820D02*
X238357143Y-146629820D01*
X239690476Y-147629820D02*
X239119048Y-147629820D01*
X239404762Y-147629820D02*
X239404762Y-146629820D01*
X239404762Y-146629820D02*
X239309524Y-146772677D01*
X239309524Y-146772677D02*
X239214286Y-146867915D01*
X239214286Y-146867915D02*
X239119048Y-146915534D01*
X238666666Y-159379819D02*
X238666666Y-160094104D01*
X238666666Y-160094104D02*
X238619047Y-160236961D01*
X238619047Y-160236961D02*
X238523809Y-160332200D01*
X238523809Y-160332200D02*
X238380952Y-160379819D01*
X238380952Y-160379819D02*
X238285714Y-160379819D01*
X239571428Y-159713152D02*
X239571428Y-160379819D01*
X239333333Y-159332200D02*
X239095238Y-160046485D01*
X239095238Y-160046485D02*
X239714285Y-160046485D01*
X191624819Y-168891666D02*
X191148628Y-169224999D01*
X191624819Y-169463094D02*
X190624819Y-169463094D01*
X190624819Y-169463094D02*
X190624819Y-169082142D01*
X190624819Y-169082142D02*
X190672438Y-168986904D01*
X190672438Y-168986904D02*
X190720057Y-168939285D01*
X190720057Y-168939285D02*
X190815295Y-168891666D01*
X190815295Y-168891666D02*
X190958152Y-168891666D01*
X190958152Y-168891666D02*
X191053390Y-168939285D01*
X191053390Y-168939285D02*
X191101009Y-168986904D01*
X191101009Y-168986904D02*
X191148628Y-169082142D01*
X191148628Y-169082142D02*
X191148628Y-169463094D01*
X190720057Y-168510713D02*
X190672438Y-168463094D01*
X190672438Y-168463094D02*
X190624819Y-168367856D01*
X190624819Y-168367856D02*
X190624819Y-168129761D01*
X190624819Y-168129761D02*
X190672438Y-168034523D01*
X190672438Y-168034523D02*
X190720057Y-167986904D01*
X190720057Y-167986904D02*
X190815295Y-167939285D01*
X190815295Y-167939285D02*
X190910533Y-167939285D01*
X190910533Y-167939285D02*
X191053390Y-167986904D01*
X191053390Y-167986904D02*
X191624819Y-168558332D01*
X191624819Y-168558332D02*
X191624819Y-167939285D01*
X203954819Y-168891666D02*
X203478628Y-169224999D01*
X203954819Y-169463094D02*
X202954819Y-169463094D01*
X202954819Y-169463094D02*
X202954819Y-169082142D01*
X202954819Y-169082142D02*
X203002438Y-168986904D01*
X203002438Y-168986904D02*
X203050057Y-168939285D01*
X203050057Y-168939285D02*
X203145295Y-168891666D01*
X203145295Y-168891666D02*
X203288152Y-168891666D01*
X203288152Y-168891666D02*
X203383390Y-168939285D01*
X203383390Y-168939285D02*
X203431009Y-168986904D01*
X203431009Y-168986904D02*
X203478628Y-169082142D01*
X203478628Y-169082142D02*
X203478628Y-169463094D01*
X202954819Y-168558332D02*
X202954819Y-167939285D01*
X202954819Y-167939285D02*
X203335771Y-168272618D01*
X203335771Y-168272618D02*
X203335771Y-168129761D01*
X203335771Y-168129761D02*
X203383390Y-168034523D01*
X203383390Y-168034523D02*
X203431009Y-167986904D01*
X203431009Y-167986904D02*
X203526247Y-167939285D01*
X203526247Y-167939285D02*
X203764342Y-167939285D01*
X203764342Y-167939285D02*
X203859580Y-167986904D01*
X203859580Y-167986904D02*
X203907200Y-168034523D01*
X203907200Y-168034523D02*
X203954819Y-168129761D01*
X203954819Y-168129761D02*
X203954819Y-168415475D01*
X203954819Y-168415475D02*
X203907200Y-168510713D01*
X203907200Y-168510713D02*
X203859580Y-168558332D01*
D13*
X189010237Y-161249318D02*
X189010237Y-159979318D01*
X190340714Y-161128365D02*
X190280238Y-161188842D01*
X190280238Y-161188842D02*
X190098809Y-161249318D01*
X190098809Y-161249318D02*
X189977857Y-161249318D01*
X189977857Y-161249318D02*
X189796428Y-161188842D01*
X189796428Y-161188842D02*
X189675476Y-161067889D01*
X189675476Y-161067889D02*
X189614999Y-160946937D01*
X189614999Y-160946937D02*
X189554523Y-160705032D01*
X189554523Y-160705032D02*
X189554523Y-160523603D01*
X189554523Y-160523603D02*
X189614999Y-160281699D01*
X189614999Y-160281699D02*
X189675476Y-160160746D01*
X189675476Y-160160746D02*
X189796428Y-160039794D01*
X189796428Y-160039794D02*
X189977857Y-159979318D01*
X189977857Y-159979318D02*
X190098809Y-159979318D01*
X190098809Y-159979318D02*
X190280238Y-160039794D01*
X190280238Y-160039794D02*
X190340714Y-160100270D01*
X191550238Y-161249318D02*
X190824523Y-161249318D01*
X191187380Y-161249318D02*
X191187380Y-159979318D01*
X191187380Y-159979318D02*
X191066428Y-160160746D01*
X191066428Y-160160746D02*
X190945476Y-160281699D01*
X190945476Y-160281699D02*
X190824523Y-160342175D01*
D12*
X174916666Y-109629819D02*
X174916666Y-110344104D01*
X174916666Y-110344104D02*
X174869047Y-110486961D01*
X174869047Y-110486961D02*
X174773809Y-110582200D01*
X174773809Y-110582200D02*
X174630952Y-110629819D01*
X174630952Y-110629819D02*
X174535714Y-110629819D01*
X175916666Y-110629819D02*
X175345238Y-110629819D01*
X175630952Y-110629819D02*
X175630952Y-109629819D01*
X175630952Y-109629819D02*
X175535714Y-109772676D01*
X175535714Y-109772676D02*
X175440476Y-109867914D01*
X175440476Y-109867914D02*
X175345238Y-109915533D01*
D14*
%TO.C,J3*%
X256145000Y-131230000D02*
X256145000Y-128630000D01*
X256145000Y-133830000D02*
X256145000Y-132500000D01*
X257475000Y-133830000D02*
X256145000Y-133830000D01*
X258805000Y-128630000D02*
X256145000Y-128630000D01*
X258805000Y-131230000D02*
X256145000Y-131230000D01*
X258805000Y-131230000D02*
X258805000Y-128630000D01*
%TO.C,J12*%
X177700000Y-126750000D02*
G75*
G02*
X174300000Y-126750000I-1700000J0D01*
G01*
X174300000Y-126750000D02*
G75*
G02*
X177700000Y-126750000I1700000J0D01*
G01*
%TO.C,R1*%
X186550000Y-167897936D02*
X186550000Y-169352064D01*
X188370000Y-167897936D02*
X188370000Y-169352064D01*
%TO.C,J13*%
X225700000Y-168675000D02*
G75*
G02*
X222300000Y-168675000I-1700000J0D01*
G01*
X222300000Y-168675000D02*
G75*
G02*
X225700000Y-168675000I1700000J0D01*
G01*
%TO.C,R4*%
X209840000Y-169402064D02*
X209840000Y-167947936D01*
X211660000Y-169402064D02*
X211660000Y-167947936D01*
%TO.C,J10*%
X209920000Y-148225000D02*
X209920000Y-112605000D01*
X209920000Y-150825000D02*
X209920000Y-149495000D01*
X211250000Y-150825000D02*
X209920000Y-150825000D01*
X212580000Y-112605000D02*
X209920000Y-112605000D01*
X212580000Y-148225000D02*
X209920000Y-148225000D01*
X212580000Y-148225000D02*
X212580000Y-112605000D01*
%TO.C,J16*%
X237200000Y-104175000D02*
G75*
G02*
X233800000Y-104175000I-1700000J0D01*
G01*
X233800000Y-104175000D02*
G75*
G02*
X237200000Y-104175000I1700000J0D01*
G01*
%TO.C,L2*%
X235295030Y-129615000D02*
G75*
G02*
X242704970Y-129615000I3704970J-1560001D01*
G01*
X242704970Y-132735000D02*
G75*
G02*
X235295030Y-132735000I-3704970J1560001D01*
G01*
%TO.C,J9*%
X172780000Y-159090000D02*
X179220000Y-159090000D01*
X172780000Y-159680000D02*
X172780000Y-159090000D01*
X172780000Y-162220000D02*
X172780000Y-161740000D01*
X172780000Y-164870000D02*
X172780000Y-164280000D01*
X173400000Y-159090000D02*
X173400000Y-159680000D01*
X173400000Y-161740000D02*
X173400000Y-162220000D01*
X173400000Y-164280000D02*
X173400000Y-164870000D01*
X178700000Y-159090000D02*
X178700000Y-164870000D01*
X179220000Y-159090000D02*
X179220000Y-164870000D01*
X179220000Y-164870000D02*
X172780000Y-164870000D01*
X172430000Y-160710000D02*
X171820000Y-161150000D01*
X171820000Y-160270000D01*
X172430000Y-160710000D01*
G36*
X172430000Y-160710000D02*
G01*
X171820000Y-161150000D01*
X171820000Y-160270000D01*
X172430000Y-160710000D01*
G37*
%TO.C,J17*%
X254950000Y-104175000D02*
G75*
G02*
X251550000Y-104175000I-1700000J0D01*
G01*
X251550000Y-104175000D02*
G75*
G02*
X254950000Y-104175000I1700000J0D01*
G01*
D15*
%TO.C,IC2*%
X204525000Y-158095000D02*
X206052000Y-158095000D01*
X206402000Y-158223000D02*
X209598000Y-158223000D01*
X206402000Y-163127000D02*
X206402000Y-158223000D01*
X209598000Y-158223000D02*
X209598000Y-163127000D01*
X209598000Y-163127000D02*
X206402000Y-163127000D01*
D14*
%TO.C,Q2*%
X247140000Y-113615000D02*
X257360000Y-113615000D01*
X247140000Y-114995000D02*
X257360000Y-114995000D01*
X247140000Y-118235000D02*
X247140000Y-113615000D01*
X250400000Y-113615000D02*
X250400000Y-114995000D01*
X254100000Y-113615000D02*
X254100000Y-114995000D01*
X257360000Y-113615000D02*
X257360000Y-118235000D01*
X257360000Y-118235000D02*
X247140000Y-118235000D01*
%TO.C,Q1*%
X229440000Y-113665000D02*
X239660000Y-113665000D01*
X229440000Y-115045000D02*
X239660000Y-115045000D01*
X229440000Y-118285000D02*
X229440000Y-113665000D01*
X232700000Y-113665000D02*
X232700000Y-115045000D01*
X236400000Y-113665000D02*
X236400000Y-115045000D01*
X239660000Y-113665000D02*
X239660000Y-118285000D01*
X239660000Y-118285000D02*
X229440000Y-118285000D01*
%TO.C,J8*%
X172780000Y-133435000D02*
X179220000Y-133435000D01*
X172780000Y-134025000D02*
X172780000Y-133435000D01*
X172780000Y-136565000D02*
X172780000Y-136085000D01*
X172780000Y-139215000D02*
X172780000Y-138625000D01*
X173400000Y-133435000D02*
X173400000Y-134025000D01*
X173400000Y-136085000D02*
X173400000Y-136565000D01*
X173400000Y-138625000D02*
X173400000Y-139215000D01*
X178700000Y-133435000D02*
X178700000Y-139215000D01*
X179220000Y-133435000D02*
X179220000Y-139215000D01*
X179220000Y-139215000D02*
X172780000Y-139215000D01*
X172430000Y-135055000D02*
X171820000Y-135495000D01*
X171820000Y-134615000D01*
X172430000Y-135055000D01*
G36*
X172430000Y-135055000D02*
G01*
X171820000Y-135495000D01*
X171820000Y-134615000D01*
X172430000Y-135055000D01*
G37*
D16*
%TO.C,G\u002A\u002A\u002A*%
G36*
X172486139Y-105749999D02*
G01*
X172486139Y-105785561D01*
X172352782Y-105785561D01*
X172219426Y-105785561D01*
X172219426Y-105749999D01*
X172219426Y-105714437D01*
X172352782Y-105714437D01*
X172486139Y-105714437D01*
X172486139Y-105749999D01*
G37*
G36*
X178682779Y-105603307D02*
G01*
X178682779Y-105714437D01*
X178798354Y-105714437D01*
X178913930Y-105714437D01*
X178913930Y-105749999D01*
X178913930Y-105785561D01*
X178798354Y-105785561D01*
X178682779Y-105785561D01*
X178682779Y-105896692D01*
X178682779Y-106007822D01*
X178647217Y-106007822D01*
X178611655Y-106007822D01*
X178611655Y-105896692D01*
X178611655Y-105785561D01*
X178500525Y-105785561D01*
X178389394Y-105785561D01*
X178389394Y-105749999D01*
X178389394Y-105714437D01*
X178500525Y-105714437D01*
X178611655Y-105714437D01*
X178611655Y-105603307D01*
X178611655Y-105492176D01*
X178647217Y-105492176D01*
X178682779Y-105492176D01*
X178682779Y-105603307D01*
G37*
G36*
X178723410Y-104902326D02*
G01*
X178794917Y-104909022D01*
X178855336Y-104920318D01*
X178859993Y-104921548D01*
X178974710Y-104961426D01*
X179081559Y-105015874D01*
X179179191Y-105083536D01*
X179266256Y-105163058D01*
X179341405Y-105253085D01*
X179403288Y-105352262D01*
X179450555Y-105459235D01*
X179474277Y-105538248D01*
X179495028Y-105658800D01*
X179498866Y-105777937D01*
X179486613Y-105894300D01*
X179459097Y-106006530D01*
X179417141Y-106113269D01*
X179361572Y-106213157D01*
X179293215Y-106304835D01*
X179212895Y-106386945D01*
X179121437Y-106458129D01*
X179019667Y-106517026D01*
X178908409Y-106562278D01*
X178840633Y-106581550D01*
X178788234Y-106590806D01*
X178724653Y-106596850D01*
X178656167Y-106599522D01*
X178589050Y-106598665D01*
X178529582Y-106594122D01*
X178502658Y-106590043D01*
X178384140Y-106558991D01*
X178273282Y-106512966D01*
X178171246Y-106453171D01*
X178079194Y-106380808D01*
X177998287Y-106297081D01*
X177929688Y-106203192D01*
X177874558Y-106100343D01*
X177834058Y-105989739D01*
X177809351Y-105872581D01*
X177809305Y-105872243D01*
X177798694Y-105794451D01*
X176939744Y-105794451D01*
X176080794Y-105794451D01*
X176066530Y-105845571D01*
X176038222Y-105914778D01*
X175995000Y-105976003D01*
X175938755Y-106027072D01*
X175877135Y-106063217D01*
X175853311Y-106072835D01*
X175828949Y-106078888D01*
X175798917Y-106082131D01*
X175758085Y-106083320D01*
X175740042Y-106083391D01*
X175696496Y-106082969D01*
X175665463Y-106081073D01*
X175641680Y-106076761D01*
X175619886Y-106069091D01*
X175595575Y-106057501D01*
X175531279Y-106015381D01*
X175476900Y-105960321D01*
X175435774Y-105895738D01*
X175434091Y-105892246D01*
X175420822Y-105862459D01*
X175412659Y-105837252D01*
X175408392Y-105810355D01*
X175406812Y-105775499D01*
X175406650Y-105749999D01*
X175406891Y-105732654D01*
X177891214Y-105732654D01*
X177896554Y-105841990D01*
X177917655Y-105949998D01*
X177954703Y-106054774D01*
X178004342Y-106148786D01*
X178072686Y-106242444D01*
X178152127Y-106323178D01*
X178241092Y-106390348D01*
X178338003Y-106443315D01*
X178441285Y-106481440D01*
X178549362Y-106504082D01*
X178660658Y-106510603D01*
X178773599Y-106500362D01*
X178837541Y-106486924D01*
X178945170Y-106450602D01*
X179044969Y-106399112D01*
X179135617Y-106333833D01*
X179215790Y-106256144D01*
X179284165Y-106167426D01*
X179339420Y-106069058D01*
X179380231Y-105962420D01*
X179394994Y-105905582D01*
X179402740Y-105852983D01*
X179406300Y-105789231D01*
X179405831Y-105720416D01*
X179401487Y-105652628D01*
X179393423Y-105591956D01*
X179386162Y-105558855D01*
X179347088Y-105446888D01*
X179293314Y-105344511D01*
X179225566Y-105252607D01*
X179144567Y-105172059D01*
X179051042Y-105103748D01*
X178980640Y-105064728D01*
X178874717Y-105022193D01*
X178766059Y-104996592D01*
X178656285Y-104987617D01*
X178547012Y-104994963D01*
X178439859Y-105018322D01*
X178336443Y-105057389D01*
X178238381Y-105111856D01*
X178147293Y-105181416D01*
X178094367Y-105232690D01*
X178023713Y-105320109D01*
X177967883Y-105415718D01*
X177927065Y-105517615D01*
X177901447Y-105623895D01*
X177891214Y-105732654D01*
X175406891Y-105732654D01*
X175407234Y-105708035D01*
X175409817Y-105677496D01*
X175415643Y-105652045D01*
X175425957Y-105625341D01*
X175434972Y-105605754D01*
X175475859Y-105539429D01*
X175529667Y-105484234D01*
X175594233Y-105442373D01*
X175595860Y-105441569D01*
X175620970Y-105430081D01*
X175643314Y-105422759D01*
X175668194Y-105418685D01*
X175700912Y-105416942D01*
X175740042Y-105416608D01*
X175784559Y-105417126D01*
X175816677Y-105419268D01*
X175841761Y-105423918D01*
X175865178Y-105431957D01*
X175883846Y-105440260D01*
X175920017Y-105460530D01*
X175956970Y-105486321D01*
X175974735Y-105501184D01*
X176006057Y-105536660D01*
X176035544Y-105581524D01*
X176059346Y-105629032D01*
X176073613Y-105672443D01*
X176074204Y-105675413D01*
X176079857Y-105705547D01*
X176940013Y-105705547D01*
X177800169Y-105705547D01*
X177805967Y-105648957D01*
X177825787Y-105539283D01*
X177861805Y-105431022D01*
X177912494Y-105326998D01*
X177976327Y-105230036D01*
X178051776Y-105142960D01*
X178106710Y-105092680D01*
X178160313Y-105053415D01*
X178225468Y-105013816D01*
X178296271Y-104976932D01*
X178366815Y-104945809D01*
X178431198Y-104923496D01*
X178438291Y-104921539D01*
X178498256Y-104909836D01*
X178569490Y-104902733D01*
X178646405Y-104900230D01*
X178723410Y-104902326D01*
G37*
G36*
X172444030Y-104902544D02*
G01*
X172561425Y-104923498D01*
X172668512Y-104958160D01*
X172777420Y-105011001D01*
X172876478Y-105078003D01*
X172964581Y-105157847D01*
X173040626Y-105249214D01*
X173103510Y-105350784D01*
X173152128Y-105461239D01*
X173184482Y-105574994D01*
X173191227Y-105611897D01*
X173195893Y-105647376D01*
X173197374Y-105670566D01*
X173197374Y-105705547D01*
X174049076Y-105705547D01*
X174900778Y-105705547D01*
X174911673Y-105630189D01*
X174937682Y-105510273D01*
X174979540Y-105397104D01*
X175036278Y-105292017D01*
X175106926Y-105196347D01*
X175190517Y-105111427D01*
X175286080Y-105038593D01*
X175379979Y-104985229D01*
X175448820Y-104953790D01*
X175510675Y-104930967D01*
X175570862Y-104915591D01*
X175634700Y-104906490D01*
X175707507Y-104902493D01*
X175757822Y-104902059D01*
X175834925Y-104903827D01*
X175899648Y-104909267D01*
X175957207Y-104919503D01*
X176012820Y-104935660D01*
X176071704Y-104958863D01*
X176116589Y-104979387D01*
X176150774Y-104997299D01*
X176190326Y-105020603D01*
X176231833Y-105046982D01*
X176271882Y-105074114D01*
X176307060Y-105099679D01*
X176333954Y-105121359D01*
X176349151Y-105136832D01*
X176349930Y-105138003D01*
X176347784Y-105149394D01*
X176335555Y-105166960D01*
X176328756Y-105174278D01*
X176301814Y-105201220D01*
X176256604Y-105162222D01*
X176171930Y-105099754D01*
X176076190Y-105047690D01*
X175974152Y-105008342D01*
X175900306Y-104989355D01*
X175855935Y-104981876D01*
X175811984Y-104978128D01*
X175761845Y-104977747D01*
X175718052Y-104979361D01*
X175645539Y-104984750D01*
X175584256Y-104994059D01*
X175527813Y-105008817D01*
X175469819Y-105030553D01*
X175430267Y-105048211D01*
X175328484Y-105104153D01*
X175240015Y-105171131D01*
X175163726Y-105250280D01*
X175098478Y-105342736D01*
X175055295Y-105423192D01*
X175030958Y-105477117D01*
X175013221Y-105524771D01*
X175001115Y-105570923D01*
X174993671Y-105620344D01*
X174989918Y-105677804D01*
X174988889Y-105748073D01*
X174988890Y-105749999D01*
X174990554Y-105827721D01*
X174996186Y-105892885D01*
X175006915Y-105950487D01*
X175023870Y-106005521D01*
X175048181Y-106062983D01*
X175069247Y-106105525D01*
X175128990Y-106203030D01*
X175200192Y-106288253D01*
X175281232Y-106360856D01*
X175370489Y-106420504D01*
X175466343Y-106466861D01*
X175567173Y-106499590D01*
X175671359Y-106518355D01*
X175777280Y-106522820D01*
X175883315Y-106512648D01*
X175987844Y-106487504D01*
X176089246Y-106447051D01*
X176185901Y-106390953D01*
X176241937Y-106348824D01*
X176302174Y-106299138D01*
X176329615Y-106326579D01*
X176357057Y-106354020D01*
X176321930Y-106385465D01*
X176227007Y-106458779D01*
X176123463Y-106517345D01*
X176013183Y-106560762D01*
X175898051Y-106588628D01*
X175779954Y-106600540D01*
X175660774Y-106596098D01*
X175542397Y-106574897D01*
X175495765Y-106561658D01*
X175384842Y-106517617D01*
X175282303Y-106458795D01*
X175189381Y-106386691D01*
X175107312Y-106302802D01*
X175037330Y-106208629D01*
X174980670Y-106105669D01*
X174938567Y-105995422D01*
X174912255Y-105879386D01*
X174908140Y-105848339D01*
X174902043Y-105794451D01*
X174049709Y-105794451D01*
X173197374Y-105794451D01*
X173197374Y-105833318D01*
X173194154Y-105868857D01*
X173185394Y-105915611D01*
X173172447Y-105968404D01*
X173156663Y-106022059D01*
X173139394Y-106071401D01*
X173128156Y-106098396D01*
X173093876Y-106164821D01*
X173051335Y-106233307D01*
X173005534Y-106296115D01*
X172983081Y-106322852D01*
X172916237Y-106387605D01*
X172836256Y-106447999D01*
X172747706Y-106501304D01*
X172655158Y-106544790D01*
X172563180Y-106575728D01*
X172557262Y-106577257D01*
X172509365Y-106586702D01*
X172451659Y-106593975D01*
X172389512Y-106598785D01*
X172328289Y-106600844D01*
X172273356Y-106599859D01*
X172230081Y-106595541D01*
X172227599Y-106595101D01*
X172105566Y-106565621D01*
X171995332Y-106523889D01*
X171894984Y-106468972D01*
X171802610Y-106399937D01*
X171773193Y-106373565D01*
X171688849Y-106283285D01*
X171619949Y-106184481D01*
X171566101Y-106076470D01*
X171526914Y-105958568D01*
X171520457Y-105932253D01*
X171509517Y-105865166D01*
X171504295Y-105787856D01*
X171504684Y-105715583D01*
X171594692Y-105715583D01*
X171595300Y-105788997D01*
X171600968Y-105860073D01*
X171611603Y-105922381D01*
X171614059Y-105932253D01*
X171646132Y-106027198D01*
X171690621Y-106119621D01*
X171745079Y-106205532D01*
X171807056Y-106280939D01*
X171856942Y-106328151D01*
X171946869Y-106392657D01*
X172046602Y-106445176D01*
X172151854Y-106483763D01*
X172246097Y-106504722D01*
X172308501Y-106510003D01*
X172380202Y-106509239D01*
X172453932Y-106502849D01*
X172522423Y-106491252D01*
X172536265Y-106487994D01*
X172631472Y-106456233D01*
X172725128Y-106409992D01*
X172811938Y-106352171D01*
X172863087Y-106308911D01*
X172944840Y-106221714D01*
X173009874Y-106128580D01*
X173058371Y-106029093D01*
X173090516Y-105922835D01*
X173106490Y-105809389D01*
X173108470Y-105749999D01*
X173100033Y-105633253D01*
X173075340Y-105522278D01*
X173035315Y-105418268D01*
X172980882Y-105322416D01*
X172912966Y-105235915D01*
X172832493Y-105159960D01*
X172740387Y-105095744D01*
X172637572Y-105044459D01*
X172535036Y-105009916D01*
X172480525Y-104999363D01*
X172415096Y-104992801D01*
X172345139Y-104990377D01*
X172277043Y-104992233D01*
X172217197Y-104998516D01*
X172197199Y-105002257D01*
X172085602Y-105035477D01*
X171982412Y-105083832D01*
X171888694Y-105146266D01*
X171805508Y-105221721D01*
X171733918Y-105309140D01*
X171674986Y-105407467D01*
X171629774Y-105515644D01*
X171609032Y-105587473D01*
X171599238Y-105646264D01*
X171594692Y-105715583D01*
X171504684Y-105715583D01*
X171504731Y-105706916D01*
X171510768Y-105628940D01*
X171522346Y-105560521D01*
X171523819Y-105554409D01*
X171562194Y-105435524D01*
X171615702Y-105324827D01*
X171683437Y-105223629D01*
X171764487Y-105133245D01*
X171857944Y-105054986D01*
X171880369Y-105039332D01*
X171983228Y-104980463D01*
X172093053Y-104937141D01*
X172207815Y-104909574D01*
X172325483Y-104897972D01*
X172444030Y-104902544D01*
G37*
D14*
%TO.C,J2*%
X256145000Y-147230000D02*
X256145000Y-144630000D01*
X256145000Y-149830000D02*
X256145000Y-148500000D01*
X257475000Y-149830000D02*
X256145000Y-149830000D01*
X258805000Y-144630000D02*
X256145000Y-144630000D01*
X258805000Y-147230000D02*
X256145000Y-147230000D01*
X258805000Y-147230000D02*
X258805000Y-144630000D01*
D11*
%TO.C,HS2*%
X244750000Y-118125000D02*
X244750000Y-107725000D01*
X245050000Y-107425000D02*
X245450000Y-107425000D01*
X245450000Y-118425000D02*
X245050000Y-118425000D01*
X245750000Y-107725000D02*
X245750000Y-111625000D01*
X245750000Y-113725000D02*
X245750000Y-118125000D01*
X246050000Y-111925000D02*
X246950000Y-111925000D01*
X247250000Y-111625000D02*
X247250000Y-107725000D01*
X247550000Y-107425000D02*
X247950000Y-107425000D01*
X248250000Y-107725000D02*
X248250000Y-111625000D01*
X248550000Y-111925000D02*
X249450000Y-111925000D01*
X249750000Y-111625000D02*
X249750000Y-107725000D01*
X250050000Y-107425000D02*
X250450000Y-107425000D01*
X250750000Y-107725000D02*
X250750000Y-109725000D01*
X251050000Y-110025000D02*
X251150000Y-110025000D01*
X251750000Y-110625000D02*
X251750000Y-111625000D01*
X252050000Y-111925000D02*
X252450000Y-111925000D01*
X252750000Y-111625000D02*
X252750000Y-110625000D01*
X253450000Y-110025000D02*
X253350000Y-110025000D01*
X253750000Y-109725000D02*
X253750000Y-107725000D01*
X254050000Y-107425000D02*
X254450000Y-107425000D01*
X254750000Y-107725000D02*
X254750000Y-111625000D01*
X255050000Y-111925000D02*
X255950000Y-111925000D01*
X256250000Y-111625000D02*
X256250000Y-107725000D01*
X256550000Y-107425000D02*
X256950000Y-107425000D01*
X257250000Y-107725000D02*
X257250000Y-111625000D01*
X257550000Y-111925000D02*
X258450000Y-111925000D01*
X258450000Y-113425000D02*
X246050000Y-113425000D01*
X258750000Y-111625000D02*
X258750000Y-107725000D01*
X258750000Y-118125000D02*
X258750000Y-113725000D01*
X259050000Y-107425000D02*
X259450000Y-107425000D01*
X259450000Y-118425000D02*
X259050000Y-118425000D01*
X259750000Y-107725000D02*
X259750000Y-118125000D01*
X244750000Y-107725000D02*
G75*
G02*
X245050000Y-107425000I300000J0D01*
G01*
X245050000Y-118425000D02*
G75*
G02*
X244750000Y-118125000I0J300000D01*
G01*
X245450000Y-107425000D02*
G75*
G02*
X245750000Y-107725000I0J-300000D01*
G01*
X245750000Y-113725000D02*
G75*
G02*
X246050000Y-113425000I300000J0D01*
G01*
X245750000Y-118125000D02*
G75*
G02*
X245450000Y-118425000I-300000J0D01*
G01*
X246050000Y-111925000D02*
G75*
G02*
X245750000Y-111625000I0J300000D01*
G01*
X247250000Y-107725000D02*
G75*
G02*
X247550000Y-107425000I300000J0D01*
G01*
X247250000Y-111625000D02*
G75*
G02*
X246950000Y-111925000I-300000J0D01*
G01*
X247950000Y-107425000D02*
G75*
G02*
X248250000Y-107725000I0J-300000D01*
G01*
X248550000Y-111925000D02*
G75*
G02*
X248250000Y-111625000I0J300000D01*
G01*
X249750000Y-107725000D02*
G75*
G02*
X250050000Y-107425000I300000J0D01*
G01*
X249750000Y-111625000D02*
G75*
G02*
X249450000Y-111925000I-300000J0D01*
G01*
X250450000Y-107425000D02*
G75*
G02*
X250750000Y-107725000I0J-300000D01*
G01*
X251050000Y-110025000D02*
G75*
G02*
X250750000Y-109725000I0J300000D01*
G01*
X251150000Y-110025000D02*
G75*
G02*
X251750000Y-110625000I0J-600000D01*
G01*
X252050000Y-111925000D02*
G75*
G02*
X251750000Y-111625000I0J300000D01*
G01*
X252750000Y-110625000D02*
G75*
G02*
X253350000Y-110025000I600000J0D01*
G01*
X252750000Y-111625000D02*
G75*
G02*
X252450000Y-111925000I-300000J0D01*
G01*
X253750000Y-107725000D02*
G75*
G02*
X254050000Y-107425000I300000J0D01*
G01*
X253750000Y-109725000D02*
G75*
G02*
X253450000Y-110025000I-300000J0D01*
G01*
X254450000Y-107425000D02*
G75*
G02*
X254750000Y-107725000I0J-300000D01*
G01*
X255050000Y-111925000D02*
G75*
G02*
X254750000Y-111625000I0J300000D01*
G01*
X256250000Y-107725000D02*
G75*
G02*
X256550000Y-107425000I300000J0D01*
G01*
X256250000Y-111625000D02*
G75*
G02*
X255950000Y-111925000I-300000J0D01*
G01*
X256950000Y-107425000D02*
G75*
G02*
X257250000Y-107725000I0J-300000D01*
G01*
X257550000Y-111925000D02*
G75*
G02*
X257250000Y-111625000I0J300000D01*
G01*
X258450000Y-113425000D02*
G75*
G02*
X258750000Y-113725000I0J-300000D01*
G01*
X258750000Y-107725000D02*
G75*
G02*
X259050000Y-107425000I300000J0D01*
G01*
X258750000Y-111625000D02*
G75*
G02*
X258450000Y-111925000I-300000J0D01*
G01*
X259050000Y-118425000D02*
G75*
G02*
X258750000Y-118125000I0J300000D01*
G01*
X259450000Y-107425000D02*
G75*
G02*
X259750000Y-107725000I0J-300000D01*
G01*
X259750000Y-118125000D02*
G75*
G02*
X259450000Y-118425000I-300000J0D01*
G01*
D14*
%TO.C,J11*%
X184420000Y-148225000D02*
X184420000Y-112605000D01*
X184420000Y-150825000D02*
X184420000Y-149495000D01*
X185750000Y-150825000D02*
X184420000Y-150825000D01*
X187080000Y-112605000D02*
X184420000Y-112605000D01*
X187080000Y-148225000D02*
X184420000Y-148225000D01*
X187080000Y-148225000D02*
X187080000Y-112605000D01*
%TO.C,J15*%
X177950000Y-143750000D02*
G75*
G02*
X174550000Y-143750000I-1700000J0D01*
G01*
X174550000Y-143750000D02*
G75*
G02*
X177950000Y-143750000I1700000J0D01*
G01*
D11*
%TO.C,HS1*%
X227000000Y-118125000D02*
X227000000Y-107725000D01*
X227300000Y-107425000D02*
X227700000Y-107425000D01*
X227700000Y-118425000D02*
X227300000Y-118425000D01*
X228000000Y-107725000D02*
X228000000Y-111625000D01*
X228000000Y-113725000D02*
X228000000Y-118125000D01*
X228300000Y-111925000D02*
X229200000Y-111925000D01*
X229500000Y-111625000D02*
X229500000Y-107725000D01*
X229800000Y-107425000D02*
X230200000Y-107425000D01*
X230500000Y-107725000D02*
X230500000Y-111625000D01*
X230800000Y-111925000D02*
X231700000Y-111925000D01*
X232000000Y-111625000D02*
X232000000Y-107725000D01*
X232300000Y-107425000D02*
X232700000Y-107425000D01*
X233000000Y-107725000D02*
X233000000Y-109725000D01*
X233300000Y-110025000D02*
X233400000Y-110025000D01*
X234000000Y-110625000D02*
X234000000Y-111625000D01*
X234300000Y-111925000D02*
X234700000Y-111925000D01*
X235000000Y-111625000D02*
X235000000Y-110625000D01*
X235700000Y-110025000D02*
X235600000Y-110025000D01*
X236000000Y-109725000D02*
X236000000Y-107725000D01*
X236300000Y-107425000D02*
X236700000Y-107425000D01*
X237000000Y-107725000D02*
X237000000Y-111625000D01*
X237300000Y-111925000D02*
X238200000Y-111925000D01*
X238500000Y-111625000D02*
X238500000Y-107725000D01*
X238800000Y-107425000D02*
X239200000Y-107425000D01*
X239500000Y-107725000D02*
X239500000Y-111625000D01*
X239800000Y-111925000D02*
X240700000Y-111925000D01*
X240700000Y-113425000D02*
X228300000Y-113425000D01*
X241000000Y-111625000D02*
X241000000Y-107725000D01*
X241000000Y-118125000D02*
X241000000Y-113725000D01*
X241300000Y-107425000D02*
X241700000Y-107425000D01*
X241700000Y-118425000D02*
X241300000Y-118425000D01*
X242000000Y-107725000D02*
X242000000Y-118125000D01*
X227000000Y-107725000D02*
G75*
G02*
X227300000Y-107425000I300000J0D01*
G01*
X227300000Y-118425000D02*
G75*
G02*
X227000000Y-118125000I0J300000D01*
G01*
X227700000Y-107425000D02*
G75*
G02*
X228000000Y-107725000I0J-300000D01*
G01*
X228000000Y-113725000D02*
G75*
G02*
X228300000Y-113425000I300000J0D01*
G01*
X228000000Y-118125000D02*
G75*
G02*
X227700000Y-118425000I-300000J0D01*
G01*
X228300000Y-111925000D02*
G75*
G02*
X228000000Y-111625000I0J300000D01*
G01*
X229500000Y-107725000D02*
G75*
G02*
X229800000Y-107425000I300000J0D01*
G01*
X229500000Y-111625000D02*
G75*
G02*
X229200000Y-111925000I-300000J0D01*
G01*
X230200000Y-107425000D02*
G75*
G02*
X230500000Y-107725000I0J-300000D01*
G01*
X230800000Y-111925000D02*
G75*
G02*
X230500000Y-111625000I0J300000D01*
G01*
X232000000Y-107725000D02*
G75*
G02*
X232300000Y-107425000I300000J0D01*
G01*
X232000000Y-111625000D02*
G75*
G02*
X231700000Y-111925000I-300000J0D01*
G01*
X232700000Y-107425000D02*
G75*
G02*
X233000000Y-107725000I0J-300000D01*
G01*
X233300000Y-110025000D02*
G75*
G02*
X233000000Y-109725000I0J300000D01*
G01*
X233400000Y-110025000D02*
G75*
G02*
X234000000Y-110625000I0J-600000D01*
G01*
X234300000Y-111925000D02*
G75*
G02*
X234000000Y-111625000I0J300000D01*
G01*
X235000000Y-110625000D02*
G75*
G02*
X235600000Y-110025000I600000J0D01*
G01*
X235000000Y-111625000D02*
G75*
G02*
X234700000Y-111925000I-300000J0D01*
G01*
X236000000Y-107725000D02*
G75*
G02*
X236300000Y-107425000I300000J0D01*
G01*
X236000000Y-109725000D02*
G75*
G02*
X235700000Y-110025000I-300000J0D01*
G01*
X236700000Y-107425000D02*
G75*
G02*
X237000000Y-107725000I0J-300000D01*
G01*
X237300000Y-111925000D02*
G75*
G02*
X237000000Y-111625000I0J300000D01*
G01*
X238500000Y-107725000D02*
G75*
G02*
X238800000Y-107425000I300000J0D01*
G01*
X238500000Y-111625000D02*
G75*
G02*
X238200000Y-111925000I-300000J0D01*
G01*
X239200000Y-107425000D02*
G75*
G02*
X239500000Y-107725000I0J-300000D01*
G01*
X239800000Y-111925000D02*
G75*
G02*
X239500000Y-111625000I0J300000D01*
G01*
X240700000Y-113425000D02*
G75*
G02*
X241000000Y-113725000I0J-300000D01*
G01*
X241000000Y-107725000D02*
G75*
G02*
X241300000Y-107425000I300000J0D01*
G01*
X241000000Y-111625000D02*
G75*
G02*
X240700000Y-111925000I-300000J0D01*
G01*
X241300000Y-118425000D02*
G75*
G02*
X241000000Y-118125000I0J300000D01*
G01*
X241700000Y-107425000D02*
G75*
G02*
X242000000Y-107725000I0J-300000D01*
G01*
X242000000Y-118125000D02*
G75*
G02*
X241700000Y-118425000I-300000J0D01*
G01*
D14*
%TO.C,L1*%
X235295030Y-145615000D02*
G75*
G02*
X242704970Y-145615000I3704970J-1560001D01*
G01*
X242704970Y-148735000D02*
G75*
G02*
X235295030Y-148735000I-3704970J1560001D01*
G01*
%TO.C,J4*%
X233880000Y-158527500D02*
X244120000Y-158527500D01*
X233880000Y-161547500D02*
X244120000Y-161547500D01*
X233880000Y-166447500D02*
X244120000Y-166447500D01*
X233880000Y-167947500D02*
X244120000Y-167947500D01*
X233880000Y-168567500D02*
X233880000Y-158527500D01*
X236200000Y-168567500D02*
X233880000Y-168567500D01*
X244120000Y-158527500D02*
X244120000Y-168567500D01*
X244120000Y-168567500D02*
X236800000Y-168567500D01*
X236940000Y-169177500D02*
X236060000Y-169177500D01*
X236500000Y-168567500D01*
X236940000Y-169177500D01*
G36*
X236940000Y-169177500D02*
G01*
X236060000Y-169177500D01*
X236500000Y-168567500D01*
X236940000Y-169177500D01*
G37*
%TO.C,J14*%
X177950000Y-153000000D02*
G75*
G02*
X174550000Y-153000000I-1700000J0D01*
G01*
X174550000Y-153000000D02*
G75*
G02*
X177950000Y-153000000I1700000J0D01*
G01*
%TO.C,R2*%
X192090000Y-169452064D02*
X192090000Y-167997936D01*
X193910000Y-169452064D02*
X193910000Y-167997936D01*
%TO.C,R3*%
X204340000Y-167997936D02*
X204340000Y-169452064D01*
X206160000Y-167997936D02*
X206160000Y-169452064D01*
D15*
%TO.C,IC1*%
X186775000Y-158095000D02*
X188302000Y-158095000D01*
X188652000Y-158223000D02*
X191848000Y-158223000D01*
X188652000Y-163127000D02*
X188652000Y-158223000D01*
X191848000Y-158223000D02*
X191848000Y-163127000D01*
X191848000Y-163127000D02*
X188652000Y-163127000D01*
D14*
%TO.C,J1*%
X170900000Y-107375000D02*
X180100000Y-107375000D01*
X170900000Y-115975000D02*
X170900000Y-107375000D01*
X170900000Y-121875000D02*
X170900000Y-120575000D01*
X172900000Y-121875000D02*
X170900000Y-121875000D01*
X178700000Y-122175000D02*
X180400000Y-122175000D01*
X180100000Y-107375000D02*
X180100000Y-121875000D01*
X180100000Y-121875000D02*
X178100000Y-121875000D01*
X180400000Y-122175000D02*
X180400000Y-120875000D01*
%TD*%
M02*
