M48
; DRILL file {KiCad 9.0.7} date 2026-06-26T14:08:49-0600
; FORMAT={-:-/ absolute / metric / decimal}
; #@! TF.CreationDate,2026-06-26T14:08:49-06:00
; #@! TF.GenerationSoftware,Kicad,Pcbnew,9.0.7
; #@! TF.FileFunction,Plated,1,4,PTH
FMAT,2
METRIC
; #@! TA.AperFunction,Plated,PTH,ViaDrill
T1C0.300
; #@! TA.AperFunction,Plated,PTH,ViaDrill
T2C0.500
; #@! TA.AperFunction,Plated,PTH,ComponentDrill
T3C1.000
; #@! TA.AperFunction,Plated,PTH,ComponentDrill
T4C1.100
; #@! TA.AperFunction,Plated,PTH,ComponentDrill
T5C1.300
; #@! TA.AperFunction,Plated,PTH,ComponentDrill
T6C1.500
%
G90
G05
T1
X184.75Y-159.25
X194.75Y-158.25
X202.0Y-158.5
X203.75Y-163.5
X208.75Y-158.75
X245.0Y-137.0
T2
X250.775Y-149.775
T3
X185.75Y-113.935
X185.75Y-116.475
X185.75Y-119.015
X185.75Y-121.555
X185.75Y-124.095
X185.75Y-126.635
X185.75Y-129.175
X185.75Y-131.715
X185.75Y-134.255
X185.75Y-136.795
X185.75Y-139.335
X185.75Y-141.875
X185.75Y-144.415
X185.75Y-146.955
X185.75Y-149.495
X211.25Y-113.935
X211.25Y-116.475
X211.25Y-119.015
X211.25Y-121.555
X211.25Y-124.095
X211.25Y-126.635
X211.25Y-129.175
X211.25Y-131.715
X211.25Y-134.255
X211.25Y-136.795
X211.25Y-139.335
X211.25Y-141.875
X211.25Y-144.415
X211.25Y-146.955
X211.25Y-149.495
X253.475Y-160.725
X253.475Y-163.265
X253.475Y-165.805
X253.525Y-128.71
X253.525Y-131.25
X253.525Y-133.79
X253.525Y-144.695
X253.525Y-147.235
X253.525Y-149.775
X257.475Y-129.96
X257.475Y-132.5
X257.475Y-145.96
X257.475Y-148.5
T4
X176.0Y-135.055
X176.0Y-137.595
X176.0Y-160.71
X176.0Y-163.25
X232.01Y-116.925
X234.55Y-116.925
X237.09Y-116.925
X249.71Y-116.875
X252.25Y-116.875
X254.79Y-116.875
T5
X236.5Y-131.175
X236.5Y-147.175
X236.5Y-163.847
X241.5Y-131.175
X241.5Y-147.175
X241.5Y-163.847
T6
X176.0Y-126.75
X176.25Y-143.75
X176.25Y-153.0
X224.0Y-168.675
X235.5Y-104.175
X253.25Y-104.175
T3
G00X170.7Y-119.375
M15
G01X170.7Y-117.175
M16
G05
G00X176.6Y-114.875
M15
G01X174.4Y-114.875
M16
G05
G00X176.8Y-121.175
M15
G01X174.2Y-121.175
M16
G05
M30
