%TF.GenerationSoftware,KiCad,Pcbnew,9.0.7*%
%TF.CreationDate,2026-06-26T14:07:03-06:00*%
%TF.ProjectId,Proyecto,50726f79-6563-4746-9f2e-6b696361645f,rev?*%
%TF.SameCoordinates,Original*%
%TF.FileFunction,Soldermask,Top*%
%TF.FilePolarity,Negative*%
%FSLAX46Y46*%
G04 Gerber Fmt 4.6, Leading zero omitted, Abs format (unit mm)*
G04 Created by KiCad (PCBNEW 9.0.7) date 2026-06-26 14:07:03*
%MOMM*%
%LPD*%
G01*
G04 APERTURE LIST*
G04 Aperture macros list*
%AMRoundRect*
0 Rectangle with rounded corners*
0 $1 Rounding radius*
0 $2 $3 $4 $5 $6 $7 $8 $9 X,Y pos of 4 corners*
0 Add a 4 corners polygon primitive as box body*
4,1,4,$2,$3,$4,$5,$6,$7,$8,$9,$2,$3,0*
0 Add four circle primitives for the rounded corners*
1,1,$1+$1,$2,$3*
1,1,$1+$1,$4,$5*
1,1,$1+$1,$6,$7*
1,1,$1+$1,$8,$9*
0 Add four rect primitives between the rounded corners*
20,1,$1+$1,$2,$3,$4,$5,0*
20,1,$1+$1,$4,$5,$6,$7,0*
20,1,$1+$1,$6,$7,$8,$9,0*
20,1,$1+$1,$8,$9,$2,$3,0*%
G04 Aperture macros list end*
%ADD10R,1.700000X1.700000*%
%ADD11C,1.700000*%
%ADD12C,3.000000*%
%ADD13RoundRect,0.250000X-0.625000X0.400000X-0.625000X-0.400000X0.625000X-0.400000X0.625000X0.400000X0*%
%ADD14C,3.200000*%
%ADD15RoundRect,0.250000X0.625000X-0.400000X0.625000X0.400000X-0.625000X0.400000X-0.625000X-0.400000X0*%
%ADD16C,2.600000*%
%ADD17C,1.100000*%
%ADD18RoundRect,0.249999X-0.850001X0.850001X-0.850001X-0.850001X0.850001X-0.850001X0.850001X0.850001X0*%
%ADD19C,2.200000*%
%ADD20R,1.528000X0.650000*%
%ADD21R,1.905000X2.000000*%
%ADD22O,1.905000X2.000000*%
%ADD23RoundRect,0.250000X-1.050000X-1.050000X1.050000X-1.050000X1.050000X1.050000X-1.050000X1.050000X0*%
%ADD24R,4.600000X2.000000*%
%ADD25O,4.200000X2.000000*%
%ADD26O,2.000000X4.200000*%
G04 APERTURE END LIST*
D10*
%TO.C,J3*%
X257475000Y-132500000D03*
D11*
X257475000Y-129960000D03*
%TD*%
D12*
%TO.C,J12*%
X176000000Y-126750000D03*
%TD*%
D13*
%TO.C,R1*%
X187460000Y-167075000D03*
X187460000Y-170175000D03*
%TD*%
D14*
%TO.C,H1*%
X170500000Y-103175000D03*
%TD*%
%TO.C,H2*%
X259750000Y-103175000D03*
%TD*%
D12*
%TO.C,J13*%
X224000000Y-168675000D03*
%TD*%
D15*
%TO.C,R4*%
X210750000Y-170225000D03*
X210750000Y-167125000D03*
%TD*%
D14*
%TO.C,H4*%
X259750000Y-171425000D03*
%TD*%
D10*
%TO.C,J10*%
X211250000Y-149495000D03*
D11*
X211250000Y-146955000D03*
X211250000Y-144415000D03*
X211250000Y-141875000D03*
X211250000Y-139335000D03*
X211250000Y-136795000D03*
X211250000Y-134255000D03*
X211250000Y-131715000D03*
X211250000Y-129175000D03*
X211250000Y-126635000D03*
X211250000Y-124095000D03*
X211250000Y-121555000D03*
X211250000Y-119015000D03*
X211250000Y-116475000D03*
X211250000Y-113935000D03*
%TD*%
D12*
%TO.C,J16*%
X235500000Y-104175000D03*
%TD*%
D16*
%TO.C,L2*%
X236500000Y-131175000D03*
X241500000Y-131175000D03*
%TD*%
D17*
%TO.C,J9*%
X173460000Y-160710000D03*
X173460000Y-163250000D03*
D18*
X176000000Y-160710000D03*
D19*
X176000000Y-163250000D03*
%TD*%
D12*
%TO.C,J17*%
X253250000Y-104175000D03*
%TD*%
D20*
%TO.C,IC2*%
X205289000Y-158770000D03*
X205289000Y-160040000D03*
X205289000Y-161310000D03*
X205289000Y-162580000D03*
X210711000Y-162580000D03*
X210711000Y-161310000D03*
X210711000Y-160040000D03*
X210711000Y-158770000D03*
%TD*%
D21*
%TO.C,Q2*%
X249710000Y-116875000D03*
D22*
X252250000Y-116875000D03*
X254790000Y-116875000D03*
%TD*%
D21*
%TO.C,Q1*%
X232010000Y-116925000D03*
D22*
X234550000Y-116925000D03*
X237090000Y-116925000D03*
%TD*%
D17*
%TO.C,J8*%
X173460000Y-135055000D03*
X173460000Y-137595000D03*
D18*
X176000000Y-135055000D03*
D19*
X176000000Y-137595000D03*
%TD*%
D10*
%TO.C,J2*%
X257475000Y-148500000D03*
D11*
X257475000Y-145960000D03*
%TD*%
D14*
%TO.C,H3*%
X170500000Y-171425000D03*
%TD*%
D10*
%TO.C,J11*%
X185750000Y-149495000D03*
D11*
X185750000Y-146955000D03*
X185750000Y-144415000D03*
X185750000Y-141875000D03*
X185750000Y-139335000D03*
X185750000Y-136795000D03*
X185750000Y-134255000D03*
X185750000Y-131715000D03*
X185750000Y-129175000D03*
X185750000Y-126635000D03*
X185750000Y-124095000D03*
X185750000Y-121555000D03*
X185750000Y-119015000D03*
X185750000Y-116475000D03*
X185750000Y-113935000D03*
%TD*%
D12*
%TO.C,J15*%
X176250000Y-143750000D03*
%TD*%
D16*
%TO.C,L1*%
X236500000Y-147175000D03*
X241500000Y-147175000D03*
%TD*%
D23*
%TO.C,J4*%
X236500000Y-163847500D03*
D16*
X241500000Y-163847500D03*
%TD*%
D12*
%TO.C,J14*%
X176250000Y-153000000D03*
%TD*%
D15*
%TO.C,R2*%
X193000000Y-170275000D03*
X193000000Y-167175000D03*
%TD*%
D13*
%TO.C,R3*%
X205250000Y-167175000D03*
X205250000Y-170275000D03*
%TD*%
D20*
%TO.C,IC1*%
X187539000Y-158770000D03*
X187539000Y-160040000D03*
X187539000Y-161310000D03*
X187539000Y-162580000D03*
X192961000Y-162580000D03*
X192961000Y-161310000D03*
X192961000Y-160040000D03*
X192961000Y-158770000D03*
%TD*%
D24*
%TO.C,J1*%
X175500000Y-121175000D03*
D25*
X175500000Y-114875000D03*
D26*
X170700000Y-118275000D03*
%TD*%
D10*
%TO.C,J7*%
X253475000Y-160725000D03*
D11*
X253475000Y-163265000D03*
X253475000Y-165805000D03*
%TD*%
D10*
%TO.C,J6*%
X253525000Y-133790000D03*
D11*
X253525000Y-131250000D03*
X253525000Y-128710000D03*
%TD*%
D10*
%TO.C,J5*%
X253525000Y-149775000D03*
D11*
X253525000Y-147235000D03*
X253525000Y-144695000D03*
%TD*%
M02*
