%TF.GenerationSoftware,KiCad,Pcbnew,9.0.7*%
%TF.CreationDate,2026-06-26T14:07:03-06:00*%
%TF.ProjectId,Proyecto,50726f79-6563-4746-9f2e-6b696361645f,rev?*%
%TF.SameCoordinates,Original*%
%TF.FileFunction,Copper,L4,Bot*%
%TF.FilePolarity,Positive*%
%FSLAX46Y46*%
G04 Gerber Fmt 4.6, Leading zero omitted, Abs format (unit mm)*
G04 Created by KiCad (PCBNEW 9.0.7) date 2026-06-26 14:07:03*
%MOMM*%
%LPD*%
G01*
G04 APERTURE LIST*
G04 Aperture macros list*
%AMRoundRect*
0 Rectangle with rounded corners*
0 $1 Rounding radius*
0 $2 $3 $4 $5 $6 $7 $8 $9 X,Y pos of 4 corners*
0 Add a 4 corners polygon primitive as box body*
4,1,4,$2,$3,$4,$5,$6,$7,$8,$9,$2,$3,0*
0 Add four circle primitives for the rounded corners*
1,1,$1+$1,$2,$3*
1,1,$1+$1,$4,$5*
1,1,$1+$1,$6,$7*
1,1,$1+$1,$8,$9*
0 Add four rect primitives between the rounded corners*
20,1,$1+$1,$2,$3,$4,$5,0*
20,1,$1+$1,$4,$5,$6,$7,0*
20,1,$1+$1,$6,$7,$8,$9,0*
20,1,$1+$1,$8,$9,$2,$3,0*%
G04 Aperture macros list end*
%TA.AperFunction,ComponentPad*%
%ADD10R,1.700000X1.700000*%
%TD*%
%TA.AperFunction,ComponentPad*%
%ADD11C,1.700000*%
%TD*%
%TA.AperFunction,ComponentPad*%
%ADD12C,3.000000*%
%TD*%
%TA.AperFunction,ComponentPad*%
%ADD13C,2.600000*%
%TD*%
%TA.AperFunction,ComponentPad*%
%ADD14RoundRect,0.249999X-0.850001X0.850001X-0.850001X-0.850001X0.850001X-0.850001X0.850001X0.850001X0*%
%TD*%
%TA.AperFunction,ComponentPad*%
%ADD15C,2.200000*%
%TD*%
%TA.AperFunction,ComponentPad*%
%ADD16R,1.905000X2.000000*%
%TD*%
%TA.AperFunction,ComponentPad*%
%ADD17O,1.905000X2.000000*%
%TD*%
%TA.AperFunction,ComponentPad*%
%ADD18RoundRect,0.250000X-1.050000X-1.050000X1.050000X-1.050000X1.050000X1.050000X-1.050000X1.050000X0*%
%TD*%
%TA.AperFunction,ComponentPad*%
%ADD19R,4.600000X2.000000*%
%TD*%
%TA.AperFunction,ComponentPad*%
%ADD20O,4.200000X2.000000*%
%TD*%
%TA.AperFunction,ComponentPad*%
%ADD21O,2.000000X4.200000*%
%TD*%
%TA.AperFunction,ViaPad*%
%ADD22C,0.600000*%
%TD*%
%TA.AperFunction,ViaPad*%
%ADD23C,1.300000*%
%TD*%
%TA.AperFunction,Conductor*%
%ADD24C,0.600000*%
%TD*%
%TA.AperFunction,Conductor*%
%ADD25C,1.500000*%
%TD*%
G04 APERTURE END LIST*
D10*
%TO.P,J3,1,Pin_1*%
%TO.N,Net-(J3-Pin_1)*%
X257475000Y-132500000D03*
D11*
%TO.P,J3,2,Pin_2*%
%TO.N,GND*%
X257475000Y-129960000D03*
%TD*%
D12*
%TO.P,J12,1,Pin_1*%
%TO.N,+V*%
X176000000Y-126750000D03*
%TD*%
%TO.P,J13,1,Pin_1*%
%TO.N,GND*%
X224000000Y-168675000D03*
%TD*%
D10*
%TO.P,J10,1,Pin_1*%
%TO.N,EN*%
X211250000Y-149495000D03*
D11*
%TO.P,J10,2,Pin_2*%
%TO.N,VP*%
X211250000Y-146955000D03*
%TO.P,J10,3,Pin_3*%
%TO.N,VN*%
X211250000Y-144415000D03*
%TO.P,J10,4,Pin_4*%
%TO.N,D34*%
X211250000Y-141875000D03*
%TO.P,J10,5,Pin_5*%
%TO.N,D35*%
X211250000Y-139335000D03*
%TO.P,J10,6,Pin_6*%
%TO.N,D32*%
X211250000Y-136795000D03*
%TO.P,J10,7,Pin_7*%
%TO.N,D33*%
X211250000Y-134255000D03*
%TO.P,J10,8,Pin_8*%
%TO.N,D25*%
X211250000Y-131715000D03*
%TO.P,J10,9,Pin_9*%
%TO.N,D26*%
X211250000Y-129175000D03*
%TO.P,J10,10,Pin_10*%
%TO.N,D27*%
X211250000Y-126635000D03*
%TO.P,J10,11,Pin_11*%
%TO.N,D14*%
X211250000Y-124095000D03*
%TO.P,J10,12,Pin_12*%
%TO.N,D12*%
X211250000Y-121555000D03*
%TO.P,J10,13,Pin_13*%
%TO.N,D13*%
X211250000Y-119015000D03*
%TO.P,J10,14,Pin_14*%
%TO.N,GND*%
X211250000Y-116475000D03*
%TO.P,J10,15,Pin_15*%
%TO.N,VIN*%
X211250000Y-113935000D03*
%TD*%
D12*
%TO.P,J16,1,Pin_1*%
%TO.N,C.Ampli*%
X235500000Y-104175000D03*
%TD*%
D13*
%TO.P,L2,1,1*%
%TO.N,Net-(IC2-2IN-)*%
X236500000Y-131175000D03*
%TO.P,L2,2,2*%
%TO.N,Net-(J3-Pin_1)*%
X241500000Y-131175000D03*
%TD*%
D14*
%TO.P,J9,1,Pin_1*%
%TO.N,Out_+*%
X176000000Y-160710000D03*
D15*
%TO.P,J9,2,Pin_2*%
%TO.N,GND*%
X176000000Y-163250000D03*
%TD*%
D12*
%TO.P,J17,1,Pin_1*%
%TO.N,D.Ampli*%
X253250000Y-104175000D03*
%TD*%
D16*
%TO.P,Q2,1,B*%
%TO.N,D.Ampli*%
X249710000Y-116875000D03*
D17*
%TO.P,Q2,2,C*%
%TO.N,B+*%
X252250000Y-116875000D03*
%TO.P,Q2,3,E*%
%TO.N,Net-(IC2-2IN-)*%
X254790000Y-116875000D03*
%TD*%
D16*
%TO.P,Q1,1,B*%
%TO.N,C.Ampli*%
X232010000Y-116925000D03*
D17*
%TO.P,Q1,2,C*%
%TO.N,+V*%
X234550000Y-116925000D03*
%TO.P,Q1,3,E*%
%TO.N,Net-(IC1-2IN-)*%
X237090000Y-116925000D03*
%TD*%
D14*
%TO.P,J8,1,Pin_1*%
%TO.N,+V*%
X176000000Y-135055000D03*
D15*
%TO.P,J8,2,Pin_2*%
%TO.N,GND*%
X176000000Y-137595000D03*
%TD*%
D10*
%TO.P,J2,1,Pin_1*%
%TO.N,Net-(J2-Pin_1)*%
X257475000Y-148500000D03*
D11*
%TO.P,J2,2,Pin_2*%
%TO.N,B+*%
X257475000Y-145960000D03*
%TD*%
D10*
%TO.P,J11,1,Pin_1*%
%TO.N,D23*%
X185750000Y-149495000D03*
D11*
%TO.P,J11,2,Pin_2*%
%TO.N,D22*%
X185750000Y-146955000D03*
%TO.P,J11,3,Pin_3*%
%TO.N,TX0*%
X185750000Y-144415000D03*
%TO.P,J11,4,Pin_4*%
%TO.N,RX0*%
X185750000Y-141875000D03*
%TO.P,J11,5,Pin_5*%
%TO.N,D21*%
X185750000Y-139335000D03*
%TO.P,J11,6,Pin_6*%
%TO.N,D19*%
X185750000Y-136795000D03*
%TO.P,J11,7,Pin_7*%
%TO.N,D18*%
X185750000Y-134255000D03*
%TO.P,J11,8,Pin_8*%
%TO.N,D5*%
X185750000Y-131715000D03*
%TO.P,J11,9,Pin_9*%
%TO.N,TX2*%
X185750000Y-129175000D03*
%TO.P,J11,10,Pin_10*%
%TO.N,RX2*%
X185750000Y-126635000D03*
%TO.P,J11,11,Pin_11*%
%TO.N,D4*%
X185750000Y-124095000D03*
%TO.P,J11,12,Pin_12*%
%TO.N,D2*%
X185750000Y-121555000D03*
%TO.P,J11,13,Pin_13*%
%TO.N,D15*%
X185750000Y-119015000D03*
%TO.P,J11,14,Pin_14*%
%TO.N,GND*%
X185750000Y-116475000D03*
%TO.P,J11,15,Pin_15*%
%TO.N,3V3*%
X185750000Y-113935000D03*
%TD*%
D12*
%TO.P,J15,1,Pin_1*%
%TO.N,D26*%
X176250000Y-143750000D03*
%TD*%
D13*
%TO.P,L1,1,1*%
%TO.N,Net-(IC1-2IN-)*%
X236500000Y-147175000D03*
%TO.P,L1,2,2*%
%TO.N,Net-(J2-Pin_1)*%
X241500000Y-147175000D03*
%TD*%
D18*
%TO.P,J4,1,Pin_1*%
%TO.N,B+*%
X236500000Y-163847500D03*
D13*
%TO.P,J4,2,Pin_2*%
%TO.N,GND*%
X241500000Y-163847500D03*
%TD*%
D12*
%TO.P,J14,1,Pin_1*%
%TO.N,D25*%
X176250000Y-153000000D03*
%TD*%
D19*
%TO.P,J1,1,Pin_1*%
%TO.N,GND*%
X175500000Y-121175000D03*
D20*
%TO.P,J1,2,Pin_2*%
%TO.N,+V*%
X175500000Y-114875000D03*
D21*
%TO.P,J1,3*%
%TO.N,N/C*%
X170700000Y-118275000D03*
%TD*%
D10*
%TO.P,J7,1,Pin_1*%
%TO.N,GND*%
X253475000Y-160725000D03*
D11*
%TO.P,J7,2,Pin_2*%
%TO.N,Out_+*%
X253475000Y-163265000D03*
%TO.P,J7,3,Pin_3*%
%TO.N,VN*%
X253475000Y-165805000D03*
%TD*%
D10*
%TO.P,J6,1,Pin_1*%
%TO.N,GND*%
X253525000Y-133790000D03*
D11*
%TO.P,J6,2,Pin_2*%
%TO.N,D34*%
X253525000Y-131250000D03*
%TO.P,J6,3,Pin_3*%
%TO.N,Out_+*%
X253525000Y-128710000D03*
%TD*%
D10*
%TO.P,J5,1,Pin_1*%
%TO.N,GND*%
X253525000Y-149775000D03*
D11*
%TO.P,J5,2,Pin_2*%
%TO.N,VP*%
X253525000Y-147235000D03*
%TO.P,J5,3,Pin_3*%
%TO.N,Out_+*%
X253525000Y-144695000D03*
%TD*%
D22*
%TO.N,+V*%
X194750000Y-158250000D03*
X208750000Y-158750000D03*
D23*
%TO.N,GND*%
X250775000Y-149775000D03*
D22*
%TO.N,Net-(IC2-2IN-)*%
X245000000Y-137000000D03*
%TO.N,D25*%
X184750000Y-159250000D03*
%TO.N,D26*%
X202000000Y-158500000D03*
X203750000Y-163500000D03*
%TD*%
D24*
%TO.N,+V*%
X195750000Y-157250000D02*
X207250000Y-157250000D01*
X194750000Y-158250000D02*
X195750000Y-157250000D01*
X207250000Y-157250000D02*
X208750000Y-158750000D01*
%TO.N,C.Ampli*%
X232010000Y-116925000D02*
X232010000Y-107665000D01*
X232010000Y-107665000D02*
X235500000Y-104175000D01*
%TO.N,Net-(IC2-2IN-)*%
X245000000Y-137000000D02*
X242000000Y-134000000D01*
X242000000Y-134000000D02*
X239325000Y-134000000D01*
X239325000Y-134000000D02*
X236500000Y-131175000D01*
%TO.N,D25*%
X184750000Y-158215000D02*
X184750000Y-159250000D01*
X211250000Y-131715000D02*
X184750000Y-158215000D01*
%TO.N,D26*%
X203750000Y-160250000D02*
X203750000Y-163250000D01*
X203750000Y-163500000D02*
X202250000Y-165000000D01*
X180000000Y-156750000D02*
X180000000Y-147500000D01*
X180000000Y-147500000D02*
X176250000Y-143750000D01*
X188250000Y-165000000D02*
X180000000Y-156750000D01*
X202250000Y-165000000D02*
X188250000Y-165000000D01*
X202000000Y-158500000D02*
X203750000Y-160250000D01*
%TO.N,D.Ampli*%
X249710000Y-107715000D02*
X253250000Y-104175000D01*
X249710000Y-116875000D02*
X249710000Y-107715000D01*
%TO.N,VP*%
X212831000Y-145374000D02*
X251664000Y-145374000D01*
X211250000Y-146955000D02*
X212831000Y-145374000D01*
X251664000Y-145374000D02*
X253525000Y-147235000D01*
%TO.N,D34*%
X251649000Y-129374000D02*
X253525000Y-131250000D01*
X223751000Y-129374000D02*
X251649000Y-129374000D01*
X211250000Y-141875000D02*
X223751000Y-129374000D01*
%TO.N,VN*%
X209000000Y-151500000D02*
X210500000Y-153000000D01*
X211250000Y-144415000D02*
X209000000Y-146665000D01*
X210500000Y-153000000D02*
X240670000Y-153000000D01*
X240670000Y-153000000D02*
X253475000Y-165805000D01*
X209000000Y-146665000D02*
X209000000Y-151500000D01*
D25*
%TO.N,Net-(J2-Pin_1)*%
X241500000Y-147175000D02*
X248325000Y-154000000D01*
X253750000Y-154000000D02*
X257475000Y-150275000D01*
X248325000Y-154000000D02*
X253750000Y-154000000D01*
X257475000Y-150275000D02*
X257475000Y-148500000D01*
%TO.N,Net-(J3-Pin_1)*%
X254250000Y-137750000D02*
X257475000Y-134525000D01*
X241500000Y-131175000D02*
X248075000Y-137750000D01*
X248075000Y-137750000D02*
X254250000Y-137750000D01*
X257475000Y-134525000D02*
X257475000Y-132500000D01*
%TD*%
%TA.AperFunction,Conductor*%
%TO.N,GND*%
G36*
X251348099Y-146194185D02*
G01*
X251368741Y-146210819D01*
X252145155Y-146987233D01*
X252178640Y-147048556D01*
X252179948Y-147094310D01*
X252174500Y-147128711D01*
X252174500Y-147341286D01*
X252206785Y-147545129D01*
X252207754Y-147551243D01*
X252244006Y-147662816D01*
X252273444Y-147753414D01*
X252369951Y-147942820D01*
X252494890Y-148114786D01*
X252608818Y-148228714D01*
X252642303Y-148290037D01*
X252637319Y-148359729D01*
X252595447Y-148415662D01*
X252564471Y-148432577D01*
X252432912Y-148481646D01*
X252432906Y-148481649D01*
X252317812Y-148567809D01*
X252317809Y-148567812D01*
X252231649Y-148682906D01*
X252231645Y-148682913D01*
X252181403Y-148817620D01*
X252181401Y-148817627D01*
X252175000Y-148877155D01*
X252175000Y-149525000D01*
X253091988Y-149525000D01*
X253059075Y-149582007D01*
X253025000Y-149709174D01*
X253025000Y-149840826D01*
X253059075Y-149967993D01*
X253091988Y-150025000D01*
X252175000Y-150025000D01*
X252175000Y-150672844D01*
X252181401Y-150732372D01*
X252181403Y-150732379D01*
X252231645Y-150867086D01*
X252231649Y-150867093D01*
X252317809Y-150982187D01*
X252317812Y-150982190D01*
X252432906Y-151068350D01*
X252432913Y-151068354D01*
X252567620Y-151118596D01*
X252567627Y-151118598D01*
X252627155Y-151124999D01*
X252627172Y-151125000D01*
X253275000Y-151125000D01*
X253275000Y-150208012D01*
X253332007Y-150240925D01*
X253459174Y-150275000D01*
X253590826Y-150275000D01*
X253717993Y-150240925D01*
X253775000Y-150208012D01*
X253775000Y-151125000D01*
X254422828Y-151125000D01*
X254422844Y-151124999D01*
X254482372Y-151118598D01*
X254482376Y-151118597D01*
X254555218Y-151091429D01*
X254624910Y-151086445D01*
X254686233Y-151119930D01*
X254719718Y-151181253D01*
X254714734Y-151250944D01*
X254686233Y-151295292D01*
X253268345Y-152713181D01*
X253207022Y-152746666D01*
X253180664Y-152749500D01*
X248894336Y-152749500D01*
X248827297Y-152729815D01*
X248806655Y-152713181D01*
X243336819Y-147243345D01*
X243303334Y-147182022D01*
X243300500Y-147155664D01*
X243300500Y-147056995D01*
X243300500Y-147056989D01*
X243269693Y-146822986D01*
X243208606Y-146595007D01*
X243118284Y-146376951D01*
X243108785Y-146360499D01*
X243092313Y-146292600D01*
X243115165Y-146226573D01*
X243170087Y-146183382D01*
X243216173Y-146174500D01*
X251281060Y-146174500D01*
X251348099Y-146194185D01*
G37*
%TD.AperFunction*%
%TA.AperFunction,Conductor*%
G36*
X259746022Y-100175527D02*
G01*
X259958104Y-100180023D01*
X259963530Y-100180258D01*
X260157396Y-100192918D01*
X260163067Y-100193419D01*
X260345662Y-100213800D01*
X260351480Y-100214591D01*
X260523074Y-100242098D01*
X260529125Y-100243223D01*
X260563945Y-100250593D01*
X260690969Y-100277481D01*
X260697123Y-100278950D01*
X260739613Y-100290250D01*
X260848672Y-100319255D01*
X260854970Y-100321109D01*
X260998437Y-100367527D01*
X261004777Y-100369771D01*
X261130555Y-100418168D01*
X261140044Y-100422282D01*
X261394105Y-100545313D01*
X261406565Y-100552260D01*
X261626354Y-100691940D01*
X261638103Y-100700410D01*
X261835478Y-100861036D01*
X261846137Y-100870798D01*
X262024148Y-101054004D01*
X262033426Y-101064715D01*
X262193815Y-101272799D01*
X262201553Y-101284072D01*
X262344623Y-101519346D01*
X262350795Y-101530811D01*
X262475435Y-101794674D01*
X262480126Y-101806030D01*
X262584047Y-102097795D01*
X262587408Y-102108832D01*
X262667445Y-102423471D01*
X262669655Y-102434080D01*
X262722352Y-102757192D01*
X262723578Y-102767313D01*
X262747145Y-103063384D01*
X262747515Y-103070957D01*
X262749479Y-103178423D01*
X262749500Y-103180689D01*
X262749500Y-171418148D01*
X262749470Y-171420873D01*
X262745006Y-171623944D01*
X262744754Y-171629582D01*
X262732218Y-171815043D01*
X262731683Y-171820891D01*
X262711459Y-171996191D01*
X262710613Y-172002219D01*
X262683303Y-172167294D01*
X262682117Y-172173482D01*
X262647987Y-172329948D01*
X262646438Y-172336253D01*
X262608469Y-172474993D01*
X262605435Y-172484545D01*
X262504277Y-172763417D01*
X262498816Y-172776190D01*
X262378263Y-173019472D01*
X262371219Y-173031845D01*
X262228768Y-173251687D01*
X262220292Y-173263245D01*
X262055016Y-173463252D01*
X262045372Y-173473650D01*
X261855415Y-173656291D01*
X261844952Y-173665286D01*
X261627998Y-173831737D01*
X261617079Y-173839223D01*
X261371073Y-173989245D01*
X261360031Y-173995234D01*
X261084080Y-174127267D01*
X261073176Y-174131858D01*
X260769061Y-174243153D01*
X260758457Y-174246503D01*
X260433262Y-174333400D01*
X260423016Y-174335678D01*
X260096044Y-174393975D01*
X260086144Y-174395331D01*
X259808429Y-174422026D01*
X259800706Y-174422526D01*
X259743712Y-174424431D01*
X259739570Y-174424500D01*
X170506850Y-174424500D01*
X170504125Y-174424470D01*
X170301054Y-174420006D01*
X170295416Y-174419754D01*
X170109955Y-174407218D01*
X170104107Y-174406683D01*
X169928807Y-174386459D01*
X169922779Y-174385613D01*
X169757704Y-174358303D01*
X169751516Y-174357117D01*
X169595050Y-174322987D01*
X169588758Y-174321441D01*
X169530214Y-174305420D01*
X169450005Y-174283469D01*
X169440453Y-174280435D01*
X169161581Y-174179277D01*
X169148808Y-174173816D01*
X168905526Y-174053263D01*
X168893153Y-174046219D01*
X168673311Y-173903768D01*
X168661753Y-173895292D01*
X168461746Y-173730016D01*
X168451348Y-173720372D01*
X168268707Y-173530415D01*
X168259712Y-173519952D01*
X168232088Y-173483946D01*
X168093256Y-173302991D01*
X168085779Y-173292085D01*
X167935752Y-173046072D01*
X167929764Y-173035031D01*
X167925376Y-173025861D01*
X167797730Y-172759079D01*
X167793140Y-172748176D01*
X167790222Y-172740202D01*
X167681840Y-172444046D01*
X167678498Y-172433467D01*
X167591597Y-172108260D01*
X167589320Y-172098016D01*
X167584871Y-172073064D01*
X167531022Y-171771039D01*
X167529667Y-171761144D01*
X167526293Y-171726039D01*
X167502970Y-171483399D01*
X167502473Y-171475727D01*
X167500569Y-171418710D01*
X167500500Y-171414572D01*
X167500500Y-171303711D01*
X168649500Y-171303711D01*
X168649500Y-171546288D01*
X168677785Y-171761144D01*
X168681162Y-171786789D01*
X168690300Y-171820891D01*
X168743947Y-172021104D01*
X168814569Y-172191599D01*
X168836776Y-172245212D01*
X168958064Y-172455289D01*
X168958066Y-172455292D01*
X168958067Y-172455293D01*
X169105733Y-172647736D01*
X169105739Y-172647743D01*
X169277256Y-172819260D01*
X169277262Y-172819265D01*
X169469711Y-172966936D01*
X169679788Y-173088224D01*
X169903900Y-173181054D01*
X170138211Y-173243838D01*
X170318586Y-173267584D01*
X170378711Y-173275500D01*
X170378712Y-173275500D01*
X170621289Y-173275500D01*
X170669388Y-173269167D01*
X170861789Y-173243838D01*
X171096100Y-173181054D01*
X171320212Y-173088224D01*
X171530289Y-172966936D01*
X171722738Y-172819265D01*
X171894265Y-172647738D01*
X172041936Y-172455289D01*
X172163224Y-172245212D01*
X172256054Y-172021100D01*
X172318838Y-171786789D01*
X172350500Y-171546288D01*
X172350500Y-171303712D01*
X172350500Y-171303711D01*
X257899500Y-171303711D01*
X257899500Y-171546288D01*
X257927785Y-171761144D01*
X257931162Y-171786789D01*
X257940300Y-171820891D01*
X257993947Y-172021104D01*
X258064569Y-172191599D01*
X258086776Y-172245212D01*
X258208064Y-172455289D01*
X258208066Y-172455292D01*
X258208067Y-172455293D01*
X258355733Y-172647736D01*
X258355739Y-172647743D01*
X258527256Y-172819260D01*
X258527262Y-172819265D01*
X258719711Y-172966936D01*
X258929788Y-173088224D01*
X259153900Y-173181054D01*
X259388211Y-173243838D01*
X259568586Y-173267584D01*
X259628711Y-173275500D01*
X259628712Y-173275500D01*
X259871289Y-173275500D01*
X259919388Y-173269167D01*
X260111789Y-173243838D01*
X260346100Y-173181054D01*
X260570212Y-173088224D01*
X260780289Y-172966936D01*
X260972738Y-172819265D01*
X261144265Y-172647738D01*
X261291936Y-172455289D01*
X261413224Y-172245212D01*
X261506054Y-172021100D01*
X261568838Y-171786789D01*
X261600500Y-171546288D01*
X261600500Y-171303712D01*
X261568838Y-171063211D01*
X261506054Y-170828900D01*
X261413224Y-170604788D01*
X261291936Y-170394711D01*
X261144265Y-170202262D01*
X261144260Y-170202256D01*
X260972743Y-170030739D01*
X260972736Y-170030733D01*
X260780293Y-169883067D01*
X260780292Y-169883066D01*
X260780289Y-169883064D01*
X260570212Y-169761776D01*
X260570205Y-169761773D01*
X260346104Y-169668947D01*
X260111785Y-169606161D01*
X259871289Y-169574500D01*
X259871288Y-169574500D01*
X259628712Y-169574500D01*
X259628711Y-169574500D01*
X259388214Y-169606161D01*
X259153895Y-169668947D01*
X258929794Y-169761773D01*
X258929785Y-169761777D01*
X258719706Y-169883067D01*
X258527263Y-170030733D01*
X258527256Y-170030739D01*
X258355739Y-170202256D01*
X258355733Y-170202263D01*
X258208067Y-170394706D01*
X258086777Y-170604785D01*
X258086773Y-170604794D01*
X257993947Y-170828895D01*
X257931161Y-171063214D01*
X257899500Y-171303711D01*
X172350500Y-171303711D01*
X172318838Y-171063211D01*
X172256054Y-170828900D01*
X172163224Y-170604788D01*
X172041936Y-170394711D01*
X171894265Y-170202262D01*
X171894260Y-170202256D01*
X171722743Y-170030739D01*
X171722736Y-170030733D01*
X171530293Y-169883067D01*
X171530292Y-169883066D01*
X171530289Y-169883064D01*
X171320212Y-169761776D01*
X171320205Y-169761773D01*
X171096104Y-169668947D01*
X170861785Y-169606161D01*
X170621289Y-169574500D01*
X170621288Y-169574500D01*
X170378712Y-169574500D01*
X170378711Y-169574500D01*
X170138214Y-169606161D01*
X169903895Y-169668947D01*
X169679794Y-169761773D01*
X169679785Y-169761777D01*
X169469706Y-169883067D01*
X169277263Y-170030733D01*
X169277256Y-170030739D01*
X169105739Y-170202256D01*
X169105733Y-170202263D01*
X168958067Y-170394706D01*
X168836777Y-170604785D01*
X168836773Y-170604794D01*
X168743947Y-170828895D01*
X168681161Y-171063214D01*
X168649500Y-171303711D01*
X167500500Y-171303711D01*
X167500500Y-168543905D01*
X222000000Y-168543905D01*
X222000000Y-168806094D01*
X222034220Y-169066009D01*
X222034222Y-169066020D01*
X222102075Y-169319255D01*
X222202404Y-169561471D01*
X222202409Y-169561482D01*
X222333488Y-169788516D01*
X222333494Y-169788524D01*
X222420080Y-169901365D01*
X223322421Y-168999024D01*
X223335359Y-169030258D01*
X223417437Y-169153097D01*
X223521903Y-169257563D01*
X223644742Y-169339641D01*
X223675974Y-169352577D01*
X222773633Y-170254917D01*
X222773633Y-170254918D01*
X222886475Y-170341505D01*
X222886483Y-170341511D01*
X223113517Y-170472590D01*
X223113528Y-170472595D01*
X223355744Y-170572924D01*
X223608979Y-170640777D01*
X223608990Y-170640779D01*
X223868905Y-170674999D01*
X223868920Y-170675000D01*
X224131080Y-170675000D01*
X224131094Y-170674999D01*
X224391009Y-170640779D01*
X224391020Y-170640777D01*
X224644255Y-170572924D01*
X224886471Y-170472595D01*
X224886482Y-170472590D01*
X225113516Y-170341511D01*
X225113534Y-170341499D01*
X225226365Y-170254919D01*
X225226365Y-170254917D01*
X224324025Y-169352578D01*
X224355258Y-169339641D01*
X224478097Y-169257563D01*
X224582563Y-169153097D01*
X224664641Y-169030258D01*
X224677577Y-168999025D01*
X225579917Y-169901365D01*
X225579919Y-169901365D01*
X225666499Y-169788534D01*
X225666511Y-169788516D01*
X225797590Y-169561482D01*
X225797595Y-169561471D01*
X225897924Y-169319255D01*
X225965777Y-169066020D01*
X225965779Y-169066009D01*
X225999999Y-168806094D01*
X226000000Y-168806080D01*
X226000000Y-168543919D01*
X225999999Y-168543905D01*
X225965779Y-168283990D01*
X225965777Y-168283979D01*
X225897924Y-168030744D01*
X225797595Y-167788528D01*
X225797590Y-167788517D01*
X225666511Y-167561483D01*
X225666505Y-167561475D01*
X225579918Y-167448633D01*
X225579917Y-167448633D01*
X224677577Y-168350973D01*
X224664641Y-168319742D01*
X224582563Y-168196903D01*
X224478097Y-168092437D01*
X224355258Y-168010359D01*
X224324023Y-167997421D01*
X225226365Y-167095080D01*
X225113524Y-167008494D01*
X225113516Y-167008488D01*
X224886482Y-166877409D01*
X224886471Y-166877404D01*
X224644255Y-166777075D01*
X224391020Y-166709222D01*
X224391009Y-166709220D01*
X224131094Y-166675000D01*
X223868905Y-166675000D01*
X223608990Y-166709220D01*
X223608979Y-166709222D01*
X223355744Y-166777075D01*
X223113528Y-166877404D01*
X223113517Y-166877409D01*
X222886471Y-167008496D01*
X222773633Y-167095079D01*
X222773633Y-167095080D01*
X223675974Y-167997421D01*
X223644742Y-168010359D01*
X223521903Y-168092437D01*
X223417437Y-168196903D01*
X223335359Y-168319742D01*
X223322421Y-168350974D01*
X222420080Y-167448633D01*
X222420079Y-167448633D01*
X222333496Y-167561471D01*
X222202409Y-167788517D01*
X222202404Y-167788528D01*
X222102075Y-168030744D01*
X222034222Y-168283979D01*
X222034220Y-168283990D01*
X222000000Y-168543905D01*
X167500500Y-168543905D01*
X167500500Y-160631153D01*
X172659500Y-160631153D01*
X172659500Y-160788846D01*
X172690261Y-160943489D01*
X172690264Y-160943501D01*
X172750602Y-161089172D01*
X172750609Y-161089185D01*
X172838210Y-161220288D01*
X172838213Y-161220292D01*
X172949707Y-161331786D01*
X172949711Y-161331789D01*
X173080814Y-161419390D01*
X173080827Y-161419397D01*
X173226498Y-161479735D01*
X173226503Y-161479737D01*
X173381153Y-161510499D01*
X173381156Y-161510500D01*
X173381158Y-161510500D01*
X173538844Y-161510500D01*
X173538845Y-161510499D01*
X173693497Y-161479737D01*
X173839179Y-161419394D01*
X173970289Y-161331789D01*
X174081789Y-161220289D01*
X174169394Y-161089179D01*
X174172398Y-161084684D01*
X174226010Y-161039879D01*
X174295335Y-161031172D01*
X174358363Y-161061326D01*
X174395082Y-161120770D01*
X174399500Y-161153575D01*
X174399500Y-161610017D01*
X174410000Y-161712796D01*
X174410001Y-161712798D01*
X174465186Y-161879335D01*
X174550931Y-162018350D01*
X174557289Y-162028657D01*
X174686451Y-162157819D01*
X174684117Y-162160152D01*
X174716065Y-162205195D01*
X174719257Y-162274992D01*
X174699126Y-162318415D01*
X174631559Y-162411413D01*
X174517219Y-162635815D01*
X174439397Y-162875329D01*
X174434008Y-162909353D01*
X174404077Y-162972487D01*
X174344765Y-163009417D01*
X174274902Y-163008418D01*
X174216671Y-162969807D01*
X174196974Y-162937405D01*
X174169397Y-162870827D01*
X174169390Y-162870814D01*
X174081789Y-162739711D01*
X174081786Y-162739707D01*
X173970292Y-162628213D01*
X173970288Y-162628210D01*
X173839185Y-162540609D01*
X173839172Y-162540602D01*
X173693501Y-162480264D01*
X173693489Y-162480261D01*
X173538845Y-162449500D01*
X173538842Y-162449500D01*
X173381158Y-162449500D01*
X173381155Y-162449500D01*
X173226510Y-162480261D01*
X173226498Y-162480264D01*
X173080827Y-162540602D01*
X173080814Y-162540609D01*
X172949711Y-162628210D01*
X172949707Y-162628213D01*
X172838213Y-162739707D01*
X172838210Y-162739711D01*
X172750609Y-162870814D01*
X172750602Y-162870827D01*
X172690264Y-163016498D01*
X172690261Y-163016510D01*
X172659500Y-163171153D01*
X172659500Y-163328846D01*
X172690261Y-163483489D01*
X172690264Y-163483501D01*
X172750602Y-163629172D01*
X172750609Y-163629185D01*
X172838210Y-163760288D01*
X172838213Y-163760292D01*
X172949707Y-163871786D01*
X172949711Y-163871789D01*
X173080814Y-163959390D01*
X173080827Y-163959397D01*
X173226498Y-164019735D01*
X173226503Y-164019737D01*
X173381153Y-164050499D01*
X173381156Y-164050500D01*
X173381158Y-164050500D01*
X173538844Y-164050500D01*
X173538845Y-164050499D01*
X173693497Y-164019737D01*
X173839179Y-163959394D01*
X173970289Y-163871789D01*
X174081789Y-163760289D01*
X174169394Y-163629179D01*
X174196974Y-163562592D01*
X174240814Y-163508191D01*
X174307108Y-163486125D01*
X174374807Y-163503403D01*
X174422418Y-163554540D01*
X174434008Y-163590646D01*
X174439397Y-163624670D01*
X174517219Y-163864184D01*
X174631557Y-164088583D01*
X174705748Y-164190697D01*
X174705748Y-164190698D01*
X175476212Y-163420233D01*
X175487482Y-163462292D01*
X175559890Y-163587708D01*
X175662292Y-163690110D01*
X175787708Y-163762518D01*
X175829765Y-163773787D01*
X175059300Y-164544250D01*
X175161416Y-164618442D01*
X175385815Y-164732780D01*
X175625330Y-164810602D01*
X175874072Y-164850000D01*
X176125928Y-164850000D01*
X176374669Y-164810602D01*
X176614184Y-164732780D01*
X176838575Y-164618446D01*
X176838581Y-164618442D01*
X176940697Y-164544250D01*
X176940698Y-164544250D01*
X176170234Y-163773787D01*
X176212292Y-163762518D01*
X176337708Y-163690110D01*
X176440110Y-163587708D01*
X176512518Y-163462292D01*
X176523787Y-163420234D01*
X177294250Y-164190698D01*
X177294250Y-164190697D01*
X177368442Y-164088581D01*
X177368446Y-164088575D01*
X177482780Y-163864184D01*
X177560602Y-163624669D01*
X177600000Y-163375928D01*
X177600000Y-163124071D01*
X177560602Y-162875330D01*
X177482780Y-162635815D01*
X177368442Y-162411416D01*
X177300873Y-162318416D01*
X177277393Y-162252610D01*
X177293218Y-162184556D01*
X177315082Y-162159352D01*
X177313549Y-162157819D01*
X177362075Y-162109293D01*
X177442712Y-162028656D01*
X177534814Y-161879335D01*
X177589999Y-161712798D01*
X177600500Y-161610010D01*
X177600500Y-159809990D01*
X177589999Y-159707202D01*
X177534814Y-159540665D01*
X177442712Y-159391344D01*
X177318656Y-159267288D01*
X177169335Y-159175186D01*
X177002798Y-159120001D01*
X177002796Y-159120000D01*
X176900017Y-159109500D01*
X176900010Y-159109500D01*
X175099990Y-159109500D01*
X175099982Y-159109500D01*
X174997203Y-159120000D01*
X174997202Y-159120001D01*
X174969526Y-159129172D01*
X174830667Y-159175185D01*
X174830662Y-159175187D01*
X174681342Y-159267289D01*
X174557289Y-159391342D01*
X174465187Y-159540662D01*
X174465186Y-159540665D01*
X174410001Y-159707202D01*
X174410001Y-159707203D01*
X174410000Y-159707203D01*
X174399500Y-159809982D01*
X174399500Y-160266424D01*
X174379815Y-160333463D01*
X174327011Y-160379218D01*
X174257853Y-160389162D01*
X174194297Y-160360137D01*
X174172398Y-160335315D01*
X174081789Y-160199711D01*
X174081786Y-160199707D01*
X173970291Y-160088212D01*
X173970288Y-160088210D01*
X173839185Y-160000609D01*
X173839172Y-160000602D01*
X173693501Y-159940264D01*
X173693489Y-159940261D01*
X173538845Y-159909500D01*
X173538842Y-159909500D01*
X173381158Y-159909500D01*
X173381155Y-159909500D01*
X173226510Y-159940261D01*
X173226498Y-159940264D01*
X173080827Y-160000602D01*
X173080814Y-160000609D01*
X172949711Y-160088210D01*
X172949709Y-160088212D01*
X172838213Y-160199707D01*
X172838210Y-160199711D01*
X172750609Y-160330814D01*
X172750602Y-160330827D01*
X172690264Y-160476498D01*
X172690261Y-160476510D01*
X172659500Y-160631153D01*
X167500500Y-160631153D01*
X167500500Y-152868872D01*
X174249500Y-152868872D01*
X174249500Y-153131127D01*
X174276123Y-153333339D01*
X174283730Y-153391116D01*
X174345539Y-153621790D01*
X174351602Y-153644418D01*
X174351605Y-153644428D01*
X174451953Y-153886690D01*
X174451958Y-153886700D01*
X174583075Y-154113803D01*
X174742718Y-154321851D01*
X174742726Y-154321860D01*
X174928140Y-154507274D01*
X174928148Y-154507281D01*
X175136196Y-154666924D01*
X175363299Y-154798041D01*
X175363309Y-154798046D01*
X175605571Y-154898394D01*
X175605581Y-154898398D01*
X175858884Y-154966270D01*
X176118880Y-155000500D01*
X176118887Y-155000500D01*
X176381113Y-155000500D01*
X176381120Y-155000500D01*
X176641116Y-154966270D01*
X176894419Y-154898398D01*
X177136697Y-154798043D01*
X177363803Y-154666924D01*
X177571851Y-154507282D01*
X177571855Y-154507277D01*
X177571860Y-154507274D01*
X177757274Y-154321860D01*
X177757277Y-154321855D01*
X177757282Y-154321851D01*
X177916924Y-154113803D01*
X178048043Y-153886697D01*
X178148398Y-153644419D01*
X178216270Y-153391116D01*
X178250500Y-153131120D01*
X178250500Y-152868880D01*
X178216270Y-152608884D01*
X178148398Y-152355581D01*
X178121486Y-152290609D01*
X178048046Y-152113309D01*
X178048041Y-152113299D01*
X177916924Y-151886196D01*
X177757281Y-151678148D01*
X177757274Y-151678140D01*
X177571860Y-151492726D01*
X177571851Y-151492718D01*
X177363803Y-151333075D01*
X177136700Y-151201958D01*
X177136690Y-151201953D01*
X176894428Y-151101605D01*
X176894421Y-151101603D01*
X176894419Y-151101602D01*
X176641116Y-151033730D01*
X176583339Y-151026123D01*
X176381127Y-150999500D01*
X176381120Y-150999500D01*
X176118880Y-150999500D01*
X176118872Y-150999500D01*
X175887772Y-151029926D01*
X175858884Y-151033730D01*
X175650202Y-151089646D01*
X175605581Y-151101602D01*
X175605571Y-151101605D01*
X175363309Y-151201953D01*
X175363299Y-151201958D01*
X175136196Y-151333075D01*
X174928148Y-151492718D01*
X174742718Y-151678148D01*
X174583075Y-151886196D01*
X174451958Y-152113299D01*
X174451953Y-152113309D01*
X174351605Y-152355571D01*
X174351602Y-152355581D01*
X174283730Y-152608885D01*
X174249500Y-152868872D01*
X167500500Y-152868872D01*
X167500500Y-143618872D01*
X174249500Y-143618872D01*
X174249500Y-143881127D01*
X174251536Y-143896588D01*
X174283730Y-144141116D01*
X174351602Y-144394419D01*
X174351603Y-144394421D01*
X174351605Y-144394428D01*
X174451953Y-144636690D01*
X174451958Y-144636700D01*
X174583075Y-144863803D01*
X174742718Y-145071851D01*
X174742726Y-145071860D01*
X174928140Y-145257274D01*
X174928148Y-145257281D01*
X175136196Y-145416924D01*
X175363299Y-145548041D01*
X175363309Y-145548046D01*
X175605571Y-145648394D01*
X175605581Y-145648398D01*
X175858884Y-145716270D01*
X176118880Y-145750500D01*
X176118887Y-145750500D01*
X176381113Y-145750500D01*
X176381120Y-145750500D01*
X176641116Y-145716270D01*
X176894419Y-145648398D01*
X176904062Y-145644403D01*
X176973527Y-145636929D01*
X177036009Y-145668199D01*
X177039202Y-145671280D01*
X179163181Y-147795259D01*
X179196666Y-147856582D01*
X179199500Y-147882940D01*
X179199500Y-156828846D01*
X179230261Y-156983489D01*
X179230264Y-156983501D01*
X179290602Y-157129172D01*
X179290609Y-157129185D01*
X179378210Y-157260288D01*
X179378213Y-157260292D01*
X187628211Y-165510289D01*
X187700234Y-165582312D01*
X187739712Y-165621790D01*
X187870814Y-165709390D01*
X187870827Y-165709397D01*
X188016498Y-165769735D01*
X188016503Y-165769737D01*
X188171153Y-165800499D01*
X188171156Y-165800500D01*
X188171158Y-165800500D01*
X202328844Y-165800500D01*
X202328845Y-165800499D01*
X202483497Y-165769737D01*
X202629179Y-165709394D01*
X202760289Y-165621789D01*
X204371788Y-164010290D01*
X204371789Y-164010289D01*
X204459394Y-163879179D01*
X204492190Y-163800000D01*
X204502061Y-163776170D01*
X204502062Y-163776168D01*
X204519736Y-163733500D01*
X204519739Y-163733490D01*
X204548152Y-163590646D01*
X204550500Y-163578843D01*
X204550500Y-163421158D01*
X204550500Y-163421155D01*
X204546131Y-163399197D01*
X204546131Y-163350803D01*
X204550500Y-163328844D01*
X204550500Y-162747483D01*
X234699500Y-162747483D01*
X234699500Y-164947501D01*
X234699501Y-164947518D01*
X234710000Y-165050296D01*
X234710001Y-165050299D01*
X234758885Y-165197819D01*
X234765186Y-165216834D01*
X234857288Y-165366156D01*
X234981344Y-165490212D01*
X235130666Y-165582314D01*
X235297203Y-165637499D01*
X235399991Y-165648000D01*
X237600008Y-165647999D01*
X237702797Y-165637499D01*
X237869334Y-165582314D01*
X238018656Y-165490212D01*
X238142712Y-165366156D01*
X238234814Y-165216834D01*
X238289999Y-165050297D01*
X238300500Y-164947509D01*
X238300499Y-163729514D01*
X239700000Y-163729514D01*
X239700000Y-163965485D01*
X239730799Y-164199414D01*
X239791870Y-164427337D01*
X239882160Y-164645319D01*
X239882165Y-164645328D01*
X240000144Y-164849671D01*
X240000145Y-164849672D01*
X240062721Y-164931223D01*
X240898958Y-164094987D01*
X240923978Y-164155390D01*
X240995112Y-164261851D01*
X241085649Y-164352388D01*
X241192110Y-164423522D01*
X241252511Y-164448541D01*
X240416275Y-165284777D01*
X240497827Y-165347354D01*
X240497828Y-165347355D01*
X240702171Y-165465334D01*
X240702180Y-165465339D01*
X240920163Y-165555629D01*
X240920161Y-165555629D01*
X241148085Y-165616700D01*
X241382014Y-165647499D01*
X241382029Y-165647500D01*
X241617971Y-165647500D01*
X241617985Y-165647499D01*
X241851914Y-165616700D01*
X242079837Y-165555629D01*
X242297819Y-165465339D01*
X242297828Y-165465334D01*
X242502181Y-165347350D01*
X242583723Y-165284779D01*
X242583723Y-165284776D01*
X241747487Y-164448541D01*
X241807890Y-164423522D01*
X241914351Y-164352388D01*
X242004888Y-164261851D01*
X242076022Y-164155390D01*
X242101041Y-164094987D01*
X242937276Y-164931223D01*
X242937279Y-164931223D01*
X242999850Y-164849681D01*
X243117834Y-164645328D01*
X243117839Y-164645319D01*
X243208129Y-164427337D01*
X243269200Y-164199414D01*
X243299999Y-163965485D01*
X243300000Y-163965471D01*
X243300000Y-163729528D01*
X243299999Y-163729514D01*
X243269200Y-163495585D01*
X243208129Y-163267662D01*
X243117839Y-163049680D01*
X243117834Y-163049671D01*
X242999855Y-162845328D01*
X242999854Y-162845327D01*
X242937277Y-162763775D01*
X242101041Y-163600011D01*
X242076022Y-163539610D01*
X242004888Y-163433149D01*
X241914351Y-163342612D01*
X241807890Y-163271478D01*
X241747488Y-163246458D01*
X242583723Y-162410221D01*
X242502172Y-162347645D01*
X242502171Y-162347644D01*
X242297828Y-162229665D01*
X242297819Y-162229660D01*
X242079836Y-162139370D01*
X242079838Y-162139370D01*
X241851914Y-162078299D01*
X241617985Y-162047500D01*
X241382014Y-162047500D01*
X241148085Y-162078299D01*
X240920162Y-162139370D01*
X240702180Y-162229660D01*
X240702171Y-162229665D01*
X240497828Y-162347644D01*
X240497818Y-162347650D01*
X240416275Y-162410220D01*
X240416275Y-162410221D01*
X241252512Y-163246458D01*
X241192110Y-163271478D01*
X241085649Y-163342612D01*
X240995112Y-163433149D01*
X240923978Y-163539610D01*
X240898958Y-163600012D01*
X240062721Y-162763775D01*
X240062720Y-162763775D01*
X240000150Y-162845318D01*
X240000144Y-162845328D01*
X239882165Y-163049671D01*
X239882160Y-163049680D01*
X239791870Y-163267662D01*
X239730799Y-163495585D01*
X239700000Y-163729514D01*
X238300499Y-163729514D01*
X238300499Y-162747492D01*
X238299476Y-162737482D01*
X238289999Y-162644703D01*
X238289998Y-162644700D01*
X238241114Y-162497178D01*
X238241113Y-162497176D01*
X238234816Y-162478172D01*
X238234815Y-162478171D01*
X238234814Y-162478166D01*
X238142712Y-162328844D01*
X238018656Y-162204788D01*
X237869334Y-162112686D01*
X237702797Y-162057501D01*
X237702795Y-162057500D01*
X237600010Y-162047000D01*
X235399998Y-162047000D01*
X235399981Y-162047001D01*
X235297203Y-162057500D01*
X235297200Y-162057501D01*
X235130668Y-162112685D01*
X235130663Y-162112687D01*
X234981342Y-162204789D01*
X234857289Y-162328842D01*
X234765187Y-162478163D01*
X234765185Y-162478168D01*
X234758886Y-162497178D01*
X234710001Y-162644703D01*
X234710001Y-162644704D01*
X234710000Y-162644704D01*
X234699500Y-162747483D01*
X204550500Y-162747483D01*
X204550500Y-160171157D01*
X204550499Y-160171156D01*
X204534001Y-160088211D01*
X204534001Y-160088210D01*
X204534001Y-160088208D01*
X204519739Y-160016510D01*
X204519738Y-160016503D01*
X204459394Y-159870821D01*
X204459392Y-159870818D01*
X204459390Y-159870814D01*
X204371789Y-159739711D01*
X204371786Y-159739707D01*
X202894259Y-158262181D01*
X202860774Y-158200858D01*
X202865758Y-158131166D01*
X202907630Y-158075233D01*
X202973094Y-158050816D01*
X202981940Y-158050500D01*
X206867060Y-158050500D01*
X206934099Y-158070185D01*
X206954741Y-158086819D01*
X208128211Y-159260289D01*
X208196764Y-159328842D01*
X208239712Y-159371790D01*
X208254096Y-159381401D01*
X208370821Y-159459394D01*
X208473833Y-159502062D01*
X208516502Y-159519737D01*
X208621724Y-159540667D01*
X208671152Y-159550499D01*
X208671155Y-159550500D01*
X208671157Y-159550500D01*
X208828844Y-159550500D01*
X208828845Y-159550499D01*
X208983497Y-159519737D01*
X209129179Y-159459394D01*
X209260289Y-159371789D01*
X209371789Y-159260289D01*
X209459394Y-159129179D01*
X209519737Y-158983497D01*
X209550500Y-158828842D01*
X209550500Y-158671158D01*
X209524532Y-158540606D01*
X209519737Y-158516502D01*
X209502062Y-158473833D01*
X209459394Y-158370821D01*
X209431347Y-158328846D01*
X209371790Y-158239712D01*
X209324225Y-158192147D01*
X209260289Y-158128211D01*
X208725289Y-157593211D01*
X207760292Y-156628213D01*
X207760288Y-156628210D01*
X207629185Y-156540609D01*
X207629172Y-156540602D01*
X207483501Y-156480264D01*
X207483489Y-156480261D01*
X207328845Y-156449500D01*
X207328842Y-156449500D01*
X195828843Y-156449500D01*
X195671158Y-156449500D01*
X195671153Y-156449500D01*
X195516510Y-156480260D01*
X195516502Y-156480262D01*
X195370824Y-156540604D01*
X195370814Y-156540609D01*
X195239711Y-156628210D01*
X195239707Y-156628213D01*
X194128213Y-157739707D01*
X194128210Y-157739711D01*
X194040609Y-157870814D01*
X194040602Y-157870827D01*
X193980264Y-158016498D01*
X193980261Y-158016510D01*
X193949500Y-158171153D01*
X193949500Y-158328846D01*
X193980261Y-158483489D01*
X193980264Y-158483501D01*
X194040602Y-158629172D01*
X194040609Y-158629185D01*
X194128210Y-158760288D01*
X194128213Y-158760292D01*
X194239707Y-158871786D01*
X194239711Y-158871789D01*
X194370814Y-158959390D01*
X194370827Y-158959397D01*
X194516498Y-159019735D01*
X194516503Y-159019737D01*
X194671153Y-159050499D01*
X194671156Y-159050500D01*
X194671158Y-159050500D01*
X194828844Y-159050500D01*
X194828845Y-159050499D01*
X194983497Y-159019737D01*
X195129179Y-158959394D01*
X195260289Y-158871789D01*
X196045259Y-158086819D01*
X196106582Y-158053334D01*
X196132940Y-158050500D01*
X201134155Y-158050500D01*
X201201194Y-158070185D01*
X201246949Y-158122989D01*
X201256893Y-158192147D01*
X201248716Y-158221952D01*
X201230264Y-158266498D01*
X201230261Y-158266510D01*
X201199500Y-158421153D01*
X201199500Y-158578846D01*
X201230261Y-158733489D01*
X201230264Y-158733501D01*
X201290602Y-158879172D01*
X201290609Y-158879185D01*
X201378210Y-159010288D01*
X201378213Y-159010292D01*
X202913181Y-160545259D01*
X202946666Y-160606582D01*
X202949500Y-160632940D01*
X202949500Y-163117060D01*
X202929815Y-163184099D01*
X202913181Y-163204741D01*
X201954741Y-164163181D01*
X201893418Y-164196666D01*
X201867060Y-164199500D01*
X188632940Y-164199500D01*
X188565901Y-164179815D01*
X188545259Y-164163181D01*
X184644259Y-160262181D01*
X184610774Y-160200858D01*
X184615758Y-160131166D01*
X184657630Y-160075233D01*
X184723094Y-160050816D01*
X184731940Y-160050500D01*
X184828844Y-160050500D01*
X184828845Y-160050499D01*
X184983497Y-160019737D01*
X185129179Y-159959394D01*
X185260289Y-159871789D01*
X185371789Y-159760289D01*
X185459394Y-159629179D01*
X185519737Y-159483497D01*
X185550500Y-159328842D01*
X185550500Y-158597940D01*
X185570185Y-158530901D01*
X185586819Y-158510259D01*
X197618666Y-146478412D01*
X209705034Y-134392043D01*
X209766355Y-134358560D01*
X209836047Y-134363544D01*
X209891980Y-134405416D01*
X209915186Y-134460327D01*
X209932753Y-134571240D01*
X209932754Y-134571243D01*
X209997249Y-134769738D01*
X209998444Y-134773414D01*
X210094951Y-134962820D01*
X210219890Y-135134786D01*
X210370213Y-135285109D01*
X210542182Y-135410050D01*
X210550946Y-135414516D01*
X210601742Y-135462491D01*
X210618536Y-135530312D01*
X210595998Y-135596447D01*
X210550946Y-135635484D01*
X210542182Y-135639949D01*
X210370213Y-135764890D01*
X210219890Y-135915213D01*
X210094951Y-136087179D01*
X209998444Y-136276585D01*
X209932753Y-136478760D01*
X209899500Y-136688713D01*
X209899500Y-136901286D01*
X209928551Y-137084711D01*
X209932754Y-137111243D01*
X209988368Y-137282405D01*
X209998444Y-137313414D01*
X210094951Y-137502820D01*
X210219890Y-137674786D01*
X210370213Y-137825109D01*
X210542182Y-137950050D01*
X210550946Y-137954516D01*
X210601742Y-138002491D01*
X210618536Y-138070312D01*
X210595998Y-138136447D01*
X210550946Y-138175484D01*
X210542182Y-138179949D01*
X210370213Y-138304890D01*
X210219890Y-138455213D01*
X210094951Y-138627179D01*
X209998444Y-138816585D01*
X209932753Y-139018760D01*
X209899500Y-139228713D01*
X209899500Y-139441286D01*
X209932753Y-139651239D01*
X209998444Y-139853414D01*
X210094951Y-140042820D01*
X210219890Y-140214786D01*
X210370213Y-140365109D01*
X210542182Y-140490050D01*
X210550946Y-140494516D01*
X210601742Y-140542491D01*
X210618536Y-140610312D01*
X210595998Y-140676447D01*
X210550946Y-140715484D01*
X210542182Y-140719949D01*
X210370213Y-140844890D01*
X210219890Y-140995213D01*
X210094951Y-141167179D01*
X209998444Y-141356585D01*
X209932753Y-141558760D01*
X209921908Y-141627233D01*
X209899500Y-141768713D01*
X209899500Y-141981287D01*
X209932754Y-142191243D01*
X209949479Y-142242718D01*
X209998444Y-142393414D01*
X210094951Y-142582820D01*
X210219890Y-142754786D01*
X210370213Y-142905109D01*
X210542182Y-143030050D01*
X210550946Y-143034516D01*
X210601742Y-143082491D01*
X210618536Y-143150312D01*
X210595998Y-143216447D01*
X210550946Y-143255484D01*
X210542182Y-143259949D01*
X210370213Y-143384890D01*
X210219890Y-143535213D01*
X210094951Y-143707179D01*
X209998444Y-143896585D01*
X209932753Y-144098760D01*
X209899500Y-144308713D01*
X209899500Y-144521287D01*
X209899499Y-144521287D01*
X209904948Y-144555686D01*
X209895993Y-144624979D01*
X209870156Y-144662764D01*
X208829479Y-145703443D01*
X208489711Y-146043211D01*
X208457714Y-146075208D01*
X208378209Y-146154712D01*
X208290609Y-146285814D01*
X208290602Y-146285827D01*
X208230264Y-146431498D01*
X208230261Y-146431510D01*
X208199500Y-146586153D01*
X208199500Y-151578846D01*
X208230261Y-151733489D01*
X208230264Y-151733501D01*
X208290602Y-151879172D01*
X208290609Y-151879185D01*
X208378210Y-152010288D01*
X208378213Y-152010292D01*
X209878211Y-153510289D01*
X209989711Y-153621789D01*
X209989712Y-153621790D01*
X210120815Y-153709390D01*
X210120821Y-153709394D01*
X210223833Y-153752062D01*
X210266502Y-153769737D01*
X210421152Y-153800499D01*
X210421155Y-153800500D01*
X210421157Y-153800500D01*
X210421158Y-153800500D01*
X240287060Y-153800500D01*
X240354099Y-153820185D01*
X240374741Y-153836819D01*
X252095155Y-165557233D01*
X252128640Y-165618556D01*
X252129948Y-165664310D01*
X252124500Y-165698711D01*
X252124500Y-165911286D01*
X252157753Y-166121239D01*
X252223444Y-166323414D01*
X252319951Y-166512820D01*
X252444890Y-166684786D01*
X252595213Y-166835109D01*
X252767179Y-166960048D01*
X252767181Y-166960049D01*
X252767184Y-166960051D01*
X252956588Y-167056557D01*
X253158757Y-167122246D01*
X253368713Y-167155500D01*
X253368714Y-167155500D01*
X253581286Y-167155500D01*
X253581287Y-167155500D01*
X253791243Y-167122246D01*
X253993412Y-167056557D01*
X254182816Y-166960051D01*
X254296571Y-166877404D01*
X254354786Y-166835109D01*
X254354788Y-166835106D01*
X254354792Y-166835104D01*
X254505104Y-166684792D01*
X254505106Y-166684788D01*
X254505109Y-166684786D01*
X254630048Y-166512820D01*
X254630047Y-166512820D01*
X254630051Y-166512816D01*
X254726557Y-166323412D01*
X254792246Y-166121243D01*
X254825500Y-165911287D01*
X254825500Y-165698713D01*
X254792246Y-165488757D01*
X254726557Y-165286588D01*
X254630051Y-165097184D01*
X254630049Y-165097181D01*
X254630048Y-165097179D01*
X254505109Y-164925213D01*
X254354786Y-164774890D01*
X254182820Y-164649951D01*
X254182115Y-164649591D01*
X254174054Y-164645485D01*
X254123259Y-164597512D01*
X254106463Y-164529692D01*
X254128999Y-164463556D01*
X254174054Y-164424515D01*
X254182816Y-164420051D01*
X254275947Y-164352388D01*
X254354786Y-164295109D01*
X254354788Y-164295106D01*
X254354792Y-164295104D01*
X254505104Y-164144792D01*
X254505106Y-164144788D01*
X254505109Y-164144786D01*
X254630048Y-163972820D01*
X254630047Y-163972820D01*
X254630051Y-163972816D01*
X254726557Y-163783412D01*
X254792246Y-163581243D01*
X254825500Y-163371287D01*
X254825500Y-163158713D01*
X254792246Y-162948757D01*
X254726557Y-162746588D01*
X254630051Y-162557184D01*
X254630049Y-162557181D01*
X254630048Y-162557179D01*
X254505109Y-162385213D01*
X254391181Y-162271285D01*
X254357696Y-162209962D01*
X254362680Y-162140270D01*
X254404552Y-162084337D01*
X254435529Y-162067422D01*
X254567086Y-162018354D01*
X254567093Y-162018350D01*
X254682187Y-161932190D01*
X254682190Y-161932187D01*
X254768350Y-161817093D01*
X254768354Y-161817086D01*
X254818596Y-161682379D01*
X254818598Y-161682372D01*
X254824999Y-161622844D01*
X254825000Y-161622827D01*
X254825000Y-160975000D01*
X253908012Y-160975000D01*
X253940925Y-160917993D01*
X253975000Y-160790826D01*
X253975000Y-160659174D01*
X253940925Y-160532007D01*
X253908012Y-160475000D01*
X254825000Y-160475000D01*
X254825000Y-159827172D01*
X254824999Y-159827155D01*
X254818598Y-159767627D01*
X254818596Y-159767620D01*
X254768354Y-159632913D01*
X254768350Y-159632906D01*
X254682190Y-159517812D01*
X254682187Y-159517809D01*
X254567093Y-159431649D01*
X254567086Y-159431645D01*
X254432379Y-159381403D01*
X254432372Y-159381401D01*
X254372844Y-159375000D01*
X253725000Y-159375000D01*
X253725000Y-160291988D01*
X253667993Y-160259075D01*
X253540826Y-160225000D01*
X253409174Y-160225000D01*
X253282007Y-160259075D01*
X253225000Y-160291988D01*
X253225000Y-159375000D01*
X252577155Y-159375000D01*
X252517627Y-159381401D01*
X252517620Y-159381403D01*
X252382913Y-159431645D01*
X252382906Y-159431649D01*
X252267812Y-159517809D01*
X252267809Y-159517812D01*
X252181649Y-159632906D01*
X252181645Y-159632913D01*
X252131403Y-159767620D01*
X252131401Y-159767627D01*
X252125000Y-159827155D01*
X252125000Y-160475000D01*
X253041988Y-160475000D01*
X253009075Y-160532007D01*
X252975000Y-160659174D01*
X252975000Y-160790826D01*
X253009075Y-160917993D01*
X253041988Y-160975000D01*
X252125000Y-160975000D01*
X252125000Y-161622844D01*
X252131401Y-161682372D01*
X252131403Y-161682379D01*
X252181645Y-161817086D01*
X252181649Y-161817093D01*
X252267809Y-161932187D01*
X252267812Y-161932190D01*
X252382906Y-162018350D01*
X252382913Y-162018354D01*
X252514470Y-162067422D01*
X252570404Y-162109293D01*
X252594821Y-162174758D01*
X252579969Y-162243031D01*
X252558819Y-162271285D01*
X252444889Y-162385215D01*
X252319951Y-162557179D01*
X252223444Y-162746585D01*
X252157753Y-162948759D01*
X252140186Y-163059672D01*
X252110256Y-163122806D01*
X252050945Y-163159737D01*
X251981082Y-163158739D01*
X251930032Y-163127954D01*
X248713610Y-159911532D01*
X241180292Y-152378213D01*
X241180288Y-152378210D01*
X241049185Y-152290609D01*
X241049172Y-152290602D01*
X240903501Y-152230264D01*
X240903489Y-152230261D01*
X240748845Y-152199500D01*
X240748842Y-152199500D01*
X210882940Y-152199500D01*
X210815901Y-152179815D01*
X210795259Y-152163181D01*
X209836819Y-151204741D01*
X209803334Y-151143418D01*
X209800500Y-151117060D01*
X209800500Y-150751893D01*
X209820185Y-150684854D01*
X209872989Y-150639099D01*
X209942147Y-150629155D01*
X210005703Y-150658180D01*
X210023767Y-150677583D01*
X210042454Y-150702546D01*
X210042455Y-150702547D01*
X210157664Y-150788793D01*
X210157671Y-150788797D01*
X210292517Y-150839091D01*
X210292516Y-150839091D01*
X210299444Y-150839835D01*
X210352127Y-150845500D01*
X212147872Y-150845499D01*
X212207483Y-150839091D01*
X212342331Y-150788796D01*
X212457546Y-150702546D01*
X212543796Y-150587331D01*
X212594091Y-150452483D01*
X212600500Y-150392873D01*
X212600499Y-148597128D01*
X212594091Y-148537517D01*
X212591881Y-148531593D01*
X212543797Y-148402671D01*
X212543793Y-148402664D01*
X212457547Y-148287455D01*
X212457544Y-148287452D01*
X212342335Y-148201206D01*
X212342328Y-148201202D01*
X212210917Y-148152189D01*
X212154983Y-148110318D01*
X212130566Y-148044853D01*
X212145418Y-147976580D01*
X212166563Y-147948332D01*
X212280104Y-147834792D01*
X212405051Y-147662816D01*
X212501557Y-147473412D01*
X212567246Y-147271243D01*
X212600500Y-147061287D01*
X212600500Y-146848713D01*
X212595051Y-146814312D01*
X212604005Y-146745020D01*
X212629840Y-146707236D01*
X213126259Y-146210819D01*
X213187582Y-146177334D01*
X213213940Y-146174500D01*
X234783827Y-146174500D01*
X234850866Y-146194185D01*
X234896621Y-146246989D01*
X234906565Y-146316147D01*
X234891214Y-146360500D01*
X234881717Y-146376948D01*
X234881713Y-146376957D01*
X234791394Y-146595006D01*
X234730306Y-146822989D01*
X234699501Y-147056979D01*
X234699500Y-147056995D01*
X234699500Y-147293004D01*
X234699501Y-147293020D01*
X234727765Y-147507711D01*
X234730307Y-147527014D01*
X234750434Y-147602127D01*
X234791394Y-147754993D01*
X234881714Y-147973045D01*
X234881719Y-147973056D01*
X234923172Y-148044853D01*
X234999727Y-148177450D01*
X234999729Y-148177453D01*
X234999730Y-148177454D01*
X235143406Y-148364697D01*
X235143412Y-148364704D01*
X235310295Y-148531587D01*
X235310302Y-148531593D01*
X235337218Y-148552246D01*
X235497550Y-148675273D01*
X235628918Y-148751118D01*
X235701943Y-148793280D01*
X235701948Y-148793282D01*
X235701951Y-148793284D01*
X235920007Y-148883606D01*
X236147986Y-148944693D01*
X236381989Y-148975500D01*
X236381996Y-148975500D01*
X236618004Y-148975500D01*
X236618011Y-148975500D01*
X236852014Y-148944693D01*
X237079993Y-148883606D01*
X237298049Y-148793284D01*
X237502450Y-148675273D01*
X237689699Y-148531592D01*
X237856592Y-148364699D01*
X238000273Y-148177450D01*
X238118284Y-147973049D01*
X238208606Y-147754993D01*
X238269693Y-147527014D01*
X238300500Y-147293011D01*
X238300500Y-147056989D01*
X238269693Y-146822986D01*
X238208606Y-146595007D01*
X238118284Y-146376951D01*
X238108785Y-146360499D01*
X238092313Y-146292600D01*
X238115165Y-146226573D01*
X238170087Y-146183382D01*
X238216173Y-146174500D01*
X239783827Y-146174500D01*
X239850866Y-146194185D01*
X239896621Y-146246989D01*
X239906565Y-146316147D01*
X239891214Y-146360500D01*
X239881717Y-146376948D01*
X239881713Y-146376957D01*
X239791394Y-146595006D01*
X239730306Y-146822989D01*
X239699501Y-147056979D01*
X239699500Y-147056995D01*
X239699500Y-147293004D01*
X239699501Y-147293020D01*
X239727765Y-147507711D01*
X239730307Y-147527014D01*
X239750434Y-147602127D01*
X239791394Y-147754993D01*
X239881714Y-147973045D01*
X239881719Y-147973056D01*
X239923172Y-148044853D01*
X239999727Y-148177450D01*
X239999729Y-148177453D01*
X239999730Y-148177454D01*
X240143406Y-148364697D01*
X240143412Y-148364704D01*
X240310295Y-148531587D01*
X240310302Y-148531593D01*
X240337218Y-148552246D01*
X240497550Y-148675273D01*
X240628918Y-148751118D01*
X240701943Y-148793280D01*
X240701948Y-148793282D01*
X240701951Y-148793284D01*
X240920007Y-148883606D01*
X241147986Y-148944693D01*
X241381989Y-148975500D01*
X241480664Y-148975500D01*
X241547703Y-148995185D01*
X241568345Y-149011819D01*
X247371172Y-154814646D01*
X247510354Y-154953828D01*
X247669595Y-155069524D01*
X247752455Y-155111743D01*
X247844970Y-155158882D01*
X247844972Y-155158882D01*
X247844975Y-155158884D01*
X247945317Y-155191487D01*
X248032173Y-155219709D01*
X248226578Y-155250500D01*
X248226583Y-155250500D01*
X253848422Y-155250500D01*
X254042826Y-155219709D01*
X254230026Y-155158884D01*
X254405405Y-155069524D01*
X254564646Y-154953828D01*
X258428829Y-151089645D01*
X258544524Y-150930405D01*
X258633884Y-150755025D01*
X258694709Y-150567826D01*
X258712977Y-150452483D01*
X258725500Y-150373417D01*
X258725500Y-149691438D01*
X258745185Y-149624399D01*
X258750234Y-149617126D01*
X258768796Y-149592331D01*
X258819091Y-149457483D01*
X258825500Y-149397873D01*
X258825499Y-147602128D01*
X258819091Y-147542517D01*
X258813307Y-147527010D01*
X258768797Y-147407671D01*
X258768793Y-147407664D01*
X258682547Y-147292455D01*
X258682544Y-147292452D01*
X258567335Y-147206206D01*
X258567328Y-147206202D01*
X258435917Y-147157189D01*
X258379983Y-147115318D01*
X258355566Y-147049853D01*
X258370418Y-146981580D01*
X258391563Y-146953332D01*
X258505104Y-146839792D01*
X258523616Y-146814313D01*
X258630048Y-146667820D01*
X258630047Y-146667820D01*
X258630051Y-146667816D01*
X258726557Y-146478412D01*
X258792246Y-146276243D01*
X258825500Y-146066287D01*
X258825500Y-145853713D01*
X258792246Y-145643757D01*
X258726557Y-145441588D01*
X258630051Y-145252184D01*
X258630049Y-145252181D01*
X258630048Y-145252179D01*
X258505109Y-145080213D01*
X258354786Y-144929890D01*
X258182820Y-144804951D01*
X257993414Y-144708444D01*
X257993413Y-144708443D01*
X257993412Y-144708443D01*
X257791243Y-144642754D01*
X257791241Y-144642753D01*
X257791240Y-144642753D01*
X257629957Y-144617208D01*
X257581287Y-144609500D01*
X257368713Y-144609500D01*
X257320042Y-144617208D01*
X257158760Y-144642753D01*
X256956585Y-144708444D01*
X256767179Y-144804951D01*
X256595213Y-144929890D01*
X256444890Y-145080213D01*
X256319951Y-145252179D01*
X256223444Y-145441585D01*
X256157753Y-145643760D01*
X256124500Y-145853713D01*
X256124500Y-146066286D01*
X256153150Y-146247179D01*
X256157754Y-146276243D01*
X256209853Y-146436588D01*
X256223444Y-146478414D01*
X256319951Y-146667820D01*
X256444890Y-146839786D01*
X256558430Y-146953326D01*
X256591915Y-147014649D01*
X256586931Y-147084341D01*
X256545059Y-147140274D01*
X256514083Y-147157189D01*
X256382669Y-147206203D01*
X256382664Y-147206206D01*
X256267455Y-147292452D01*
X256267452Y-147292455D01*
X256181206Y-147407664D01*
X256181202Y-147407671D01*
X256130908Y-147542517D01*
X256124501Y-147602116D01*
X256124501Y-147602123D01*
X256124500Y-147602135D01*
X256124500Y-149397870D01*
X256124501Y-149397876D01*
X256130908Y-149457483D01*
X256181203Y-149592329D01*
X256199766Y-149617126D01*
X256207504Y-149637874D01*
X256219477Y-149656503D01*
X256222628Y-149678418D01*
X256224184Y-149682590D01*
X256224500Y-149691438D01*
X256224500Y-149705664D01*
X256204815Y-149772703D01*
X256188181Y-149793345D01*
X255045292Y-150936233D01*
X254983969Y-150969718D01*
X254914277Y-150964734D01*
X254858344Y-150922862D01*
X254833927Y-150857398D01*
X254841429Y-150805218D01*
X254868597Y-150732376D01*
X254868598Y-150732372D01*
X254874999Y-150672844D01*
X254875000Y-150672827D01*
X254875000Y-150025000D01*
X253958012Y-150025000D01*
X253990925Y-149967993D01*
X254025000Y-149840826D01*
X254025000Y-149709174D01*
X253990925Y-149582007D01*
X253958012Y-149525000D01*
X254875000Y-149525000D01*
X254875000Y-148877172D01*
X254874999Y-148877155D01*
X254868598Y-148817627D01*
X254868596Y-148817620D01*
X254818354Y-148682913D01*
X254818350Y-148682906D01*
X254732190Y-148567812D01*
X254732187Y-148567809D01*
X254617093Y-148481649D01*
X254617088Y-148481646D01*
X254485528Y-148432577D01*
X254429595Y-148390705D01*
X254405178Y-148325241D01*
X254420030Y-148256968D01*
X254441175Y-148228720D01*
X254555104Y-148114792D01*
X254580861Y-148079341D01*
X254655520Y-147976580D01*
X254680051Y-147942816D01*
X254776557Y-147753412D01*
X254842246Y-147551243D01*
X254875500Y-147341287D01*
X254875500Y-147128713D01*
X254842246Y-146918757D01*
X254776557Y-146716588D01*
X254680051Y-146527184D01*
X254680049Y-146527181D01*
X254680048Y-146527179D01*
X254555109Y-146355213D01*
X254404786Y-146204890D01*
X254232820Y-146079951D01*
X254232115Y-146079591D01*
X254224054Y-146075485D01*
X254173259Y-146027512D01*
X254156463Y-145959692D01*
X254178999Y-145893556D01*
X254224054Y-145854515D01*
X254232816Y-145850051D01*
X254361652Y-145756447D01*
X254404786Y-145725109D01*
X254404788Y-145725106D01*
X254404792Y-145725104D01*
X254555104Y-145574792D01*
X254555106Y-145574788D01*
X254555109Y-145574786D01*
X254680048Y-145402820D01*
X254680047Y-145402820D01*
X254680051Y-145402816D01*
X254776557Y-145213412D01*
X254842246Y-145011243D01*
X254875500Y-144801287D01*
X254875500Y-144588713D01*
X254842246Y-144378757D01*
X254776557Y-144176588D01*
X254680051Y-143987184D01*
X254680049Y-143987181D01*
X254680048Y-143987179D01*
X254555109Y-143815213D01*
X254404786Y-143664890D01*
X254232820Y-143539951D01*
X254043414Y-143443444D01*
X254043413Y-143443443D01*
X254043412Y-143443443D01*
X253841243Y-143377754D01*
X253841241Y-143377753D01*
X253841240Y-143377753D01*
X253679957Y-143352208D01*
X253631287Y-143344500D01*
X253418713Y-143344500D01*
X253370042Y-143352208D01*
X253208760Y-143377753D01*
X253006585Y-143443444D01*
X252817179Y-143539951D01*
X252645213Y-143664890D01*
X252494890Y-143815213D01*
X252369951Y-143987179D01*
X252273444Y-144176585D01*
X252207753Y-144378760D01*
X252179741Y-144555623D01*
X252149812Y-144618758D01*
X252090500Y-144655689D01*
X252020638Y-144654691D01*
X252009816Y-144650786D01*
X251897501Y-144604264D01*
X251897489Y-144604261D01*
X251742845Y-144573500D01*
X251742842Y-144573500D01*
X212909843Y-144573500D01*
X212752158Y-144573500D01*
X212748689Y-144574189D01*
X212746835Y-144574024D01*
X212746095Y-144574097D01*
X212746081Y-144573956D01*
X212679098Y-144567961D01*
X212623921Y-144525097D01*
X212600678Y-144459207D01*
X212600500Y-144452572D01*
X212600500Y-144308713D01*
X212573955Y-144141116D01*
X212567246Y-144098757D01*
X212501557Y-143896588D01*
X212405051Y-143707184D01*
X212405049Y-143707181D01*
X212405048Y-143707179D01*
X212280109Y-143535213D01*
X212129786Y-143384890D01*
X211957820Y-143259951D01*
X211957115Y-143259591D01*
X211949054Y-143255485D01*
X211898259Y-143207512D01*
X211881463Y-143139692D01*
X211903999Y-143073556D01*
X211949054Y-143034515D01*
X211957816Y-143030051D01*
X211979789Y-143014086D01*
X212129786Y-142905109D01*
X212129788Y-142905106D01*
X212129792Y-142905104D01*
X212280104Y-142754792D01*
X212280106Y-142754788D01*
X212280109Y-142754786D01*
X212405048Y-142582820D01*
X212405047Y-142582820D01*
X212405051Y-142582816D01*
X212501557Y-142393412D01*
X212567246Y-142191243D01*
X212600500Y-141981287D01*
X212600500Y-141768713D01*
X212595051Y-141734312D01*
X212604005Y-141665020D01*
X212629840Y-141627236D01*
X224046259Y-130210819D01*
X224107582Y-130177334D01*
X224133940Y-130174500D01*
X234783827Y-130174500D01*
X234850866Y-130194185D01*
X234896621Y-130246989D01*
X234906565Y-130316147D01*
X234891214Y-130360500D01*
X234881717Y-130376948D01*
X234881713Y-130376957D01*
X234791394Y-130595006D01*
X234730306Y-130822989D01*
X234699501Y-131056979D01*
X234699500Y-131056995D01*
X234699500Y-131293004D01*
X234699501Y-131293020D01*
X234713421Y-131398757D01*
X234730307Y-131527014D01*
X234750434Y-131602127D01*
X234791394Y-131754993D01*
X234881714Y-131973045D01*
X234881719Y-131973056D01*
X234915314Y-132031243D01*
X234999727Y-132177450D01*
X234999729Y-132177453D01*
X234999730Y-132177454D01*
X235143406Y-132364697D01*
X235143412Y-132364704D01*
X235310295Y-132531587D01*
X235310301Y-132531592D01*
X235497550Y-132675273D01*
X235628918Y-132751118D01*
X235701943Y-132793280D01*
X235701948Y-132793282D01*
X235701951Y-132793284D01*
X235920007Y-132883606D01*
X236147986Y-132944693D01*
X236381989Y-132975500D01*
X236381996Y-132975500D01*
X236618004Y-132975500D01*
X236618011Y-132975500D01*
X236852014Y-132944693D01*
X237008109Y-132902867D01*
X237077958Y-132904530D01*
X237127883Y-132934961D01*
X238698870Y-134505947D01*
X238698891Y-134505970D01*
X238814707Y-134621786D01*
X238814711Y-134621789D01*
X238945814Y-134709390D01*
X238945827Y-134709397D01*
X239091498Y-134769735D01*
X239091503Y-134769737D01*
X239091507Y-134769737D01*
X239091508Y-134769738D01*
X239246154Y-134800500D01*
X239246157Y-134800500D01*
X239246158Y-134800500D01*
X241617060Y-134800500D01*
X241684099Y-134820185D01*
X241704741Y-134836819D01*
X244489707Y-137621786D01*
X244489711Y-137621789D01*
X244620814Y-137709390D01*
X244620818Y-137709392D01*
X244620821Y-137709394D01*
X244766503Y-137769738D01*
X244921153Y-137800499D01*
X244921157Y-137800500D01*
X244921158Y-137800500D01*
X245078844Y-137800500D01*
X245078845Y-137800499D01*
X245233497Y-137769738D01*
X245379179Y-137709394D01*
X245510289Y-137621789D01*
X245621789Y-137510289D01*
X245709394Y-137379179D01*
X245709397Y-137379172D01*
X245709404Y-137379164D01*
X245712779Y-137374114D01*
X245713735Y-137374753D01*
X245758349Y-137329318D01*
X245826483Y-137313843D01*
X245892168Y-137337662D01*
X245906448Y-137349922D01*
X247260354Y-138703828D01*
X247419595Y-138819524D01*
X247502454Y-138861742D01*
X247594969Y-138908882D01*
X247594971Y-138908882D01*
X247594974Y-138908884D01*
X247695318Y-138941487D01*
X247782173Y-138969709D01*
X247976578Y-139000500D01*
X247976583Y-139000500D01*
X254348422Y-139000500D01*
X254542826Y-138969709D01*
X254730026Y-138908884D01*
X254905405Y-138819524D01*
X255064646Y-138703828D01*
X258428829Y-135339646D01*
X258544524Y-135180405D01*
X258633884Y-135005026D01*
X258694709Y-134817826D01*
X258701743Y-134773414D01*
X258725500Y-134623421D01*
X258725500Y-133691438D01*
X258745185Y-133624399D01*
X258750234Y-133617126D01*
X258753856Y-133612288D01*
X258768796Y-133592331D01*
X258819091Y-133457483D01*
X258825500Y-133397873D01*
X258825499Y-131602128D01*
X258819091Y-131542517D01*
X258813307Y-131527010D01*
X258768797Y-131407671D01*
X258768793Y-131407664D01*
X258682547Y-131292455D01*
X258682544Y-131292452D01*
X258567335Y-131206206D01*
X258567328Y-131206202D01*
X258432482Y-131155908D01*
X258432483Y-131155908D01*
X258372883Y-131149501D01*
X258372881Y-131149500D01*
X258372873Y-131149500D01*
X258372865Y-131149500D01*
X258362309Y-131149500D01*
X258295270Y-131129815D01*
X258274628Y-131113181D01*
X257604408Y-130442962D01*
X257667993Y-130425925D01*
X257782007Y-130360099D01*
X257875099Y-130267007D01*
X257940925Y-130152993D01*
X257957962Y-130089408D01*
X258590270Y-130721717D01*
X258590270Y-130721716D01*
X258629622Y-130667554D01*
X258726095Y-130478217D01*
X258791757Y-130276130D01*
X258791757Y-130276127D01*
X258825000Y-130066246D01*
X258825000Y-129853753D01*
X258791757Y-129643872D01*
X258791757Y-129643869D01*
X258726095Y-129441782D01*
X258629624Y-129252449D01*
X258590270Y-129198282D01*
X258590269Y-129198282D01*
X257957962Y-129830590D01*
X257940925Y-129767007D01*
X257875099Y-129652993D01*
X257782007Y-129559901D01*
X257667993Y-129494075D01*
X257604409Y-129477037D01*
X258236716Y-128844728D01*
X258182550Y-128805375D01*
X257993217Y-128708904D01*
X257791129Y-128643242D01*
X257581246Y-128610000D01*
X257368754Y-128610000D01*
X257158872Y-128643242D01*
X257158869Y-128643242D01*
X256956782Y-128708904D01*
X256767439Y-128805380D01*
X256713282Y-128844727D01*
X256713282Y-128844728D01*
X257345591Y-129477037D01*
X257282007Y-129494075D01*
X257167993Y-129559901D01*
X257074901Y-129652993D01*
X257009075Y-129767007D01*
X256992037Y-129830591D01*
X256359728Y-129198282D01*
X256359727Y-129198282D01*
X256320380Y-129252439D01*
X256223904Y-129441782D01*
X256158242Y-129643869D01*
X256158242Y-129643872D01*
X256125000Y-129853753D01*
X256125000Y-130066246D01*
X256158242Y-130276127D01*
X256158242Y-130276130D01*
X256223904Y-130478217D01*
X256320375Y-130667550D01*
X256359728Y-130721716D01*
X256992036Y-130089407D01*
X257009075Y-130152993D01*
X257074901Y-130267007D01*
X257167993Y-130360099D01*
X257282007Y-130425925D01*
X257345590Y-130442962D01*
X256675370Y-131113181D01*
X256614047Y-131146666D01*
X256587698Y-131149500D01*
X256577134Y-131149500D01*
X256577123Y-131149501D01*
X256517516Y-131155908D01*
X256382671Y-131206202D01*
X256382664Y-131206206D01*
X256267455Y-131292452D01*
X256267452Y-131292455D01*
X256181206Y-131407664D01*
X256181202Y-131407671D01*
X256130908Y-131542517D01*
X256124501Y-131602116D01*
X256124501Y-131602123D01*
X256124500Y-131602135D01*
X256124500Y-133397870D01*
X256124501Y-133397876D01*
X256130908Y-133457483D01*
X256181203Y-133592329D01*
X256199766Y-133617126D01*
X256224184Y-133682590D01*
X256224500Y-133691438D01*
X256224500Y-133955663D01*
X256204815Y-134022702D01*
X256188181Y-134043344D01*
X253768345Y-136463181D01*
X253707022Y-136496666D01*
X253680664Y-136499500D01*
X248644336Y-136499500D01*
X248577297Y-136479815D01*
X248556655Y-136463181D01*
X243336819Y-131243345D01*
X243303334Y-131182022D01*
X243300500Y-131155664D01*
X243300500Y-131056995D01*
X243300500Y-131056989D01*
X243269693Y-130822986D01*
X243208606Y-130595007D01*
X243118284Y-130376951D01*
X243108785Y-130360499D01*
X243092313Y-130292600D01*
X243115165Y-130226573D01*
X243170087Y-130183382D01*
X243216173Y-130174500D01*
X251266060Y-130174500D01*
X251333099Y-130194185D01*
X251353741Y-130210819D01*
X252145155Y-131002233D01*
X252178640Y-131063556D01*
X252179948Y-131109310D01*
X252176701Y-131129815D01*
X252174500Y-131143713D01*
X252174500Y-131356287D01*
X252184534Y-131419644D01*
X252201540Y-131527014D01*
X252207754Y-131566243D01*
X252264718Y-131741560D01*
X252273444Y-131768414D01*
X252369951Y-131957820D01*
X252494890Y-132129786D01*
X252608818Y-132243714D01*
X252642303Y-132305037D01*
X252637319Y-132374729D01*
X252595447Y-132430662D01*
X252564471Y-132447577D01*
X252432912Y-132496646D01*
X252432906Y-132496649D01*
X252317812Y-132582809D01*
X252317809Y-132582812D01*
X252231649Y-132697906D01*
X252231645Y-132697913D01*
X252181403Y-132832620D01*
X252181401Y-132832627D01*
X252175000Y-132892155D01*
X252175000Y-133540000D01*
X253091988Y-133540000D01*
X253059075Y-133597007D01*
X253025000Y-133724174D01*
X253025000Y-133855826D01*
X253059075Y-133982993D01*
X253091988Y-134040000D01*
X252175000Y-134040000D01*
X252175000Y-134687844D01*
X252181401Y-134747372D01*
X252181403Y-134747379D01*
X252231645Y-134882086D01*
X252231649Y-134882093D01*
X252317809Y-134997187D01*
X252317812Y-134997190D01*
X252432906Y-135083350D01*
X252432913Y-135083354D01*
X252567620Y-135133596D01*
X252567627Y-135133598D01*
X252627155Y-135139999D01*
X252627172Y-135140000D01*
X253275000Y-135140000D01*
X253275000Y-134223012D01*
X253332007Y-134255925D01*
X253459174Y-134290000D01*
X253590826Y-134290000D01*
X253717993Y-134255925D01*
X253775000Y-134223012D01*
X253775000Y-135140000D01*
X254422828Y-135140000D01*
X254422844Y-135139999D01*
X254482372Y-135133598D01*
X254482379Y-135133596D01*
X254617086Y-135083354D01*
X254617093Y-135083350D01*
X254732187Y-134997190D01*
X254732190Y-134997187D01*
X254818350Y-134882093D01*
X254818354Y-134882086D01*
X254868596Y-134747379D01*
X254868598Y-134747372D01*
X254874999Y-134687844D01*
X254875000Y-134687827D01*
X254875000Y-134040000D01*
X253958012Y-134040000D01*
X253990925Y-133982993D01*
X254025000Y-133855826D01*
X254025000Y-133724174D01*
X253990925Y-133597007D01*
X253958012Y-133540000D01*
X254875000Y-133540000D01*
X254875000Y-132892172D01*
X254874999Y-132892155D01*
X254868598Y-132832627D01*
X254868596Y-132832620D01*
X254818354Y-132697913D01*
X254818350Y-132697906D01*
X254732190Y-132582812D01*
X254732187Y-132582809D01*
X254617093Y-132496649D01*
X254617088Y-132496646D01*
X254485528Y-132447577D01*
X254429595Y-132405705D01*
X254405178Y-132340241D01*
X254420030Y-132271968D01*
X254441175Y-132243720D01*
X254555104Y-132129792D01*
X254680051Y-131957816D01*
X254776557Y-131768412D01*
X254842246Y-131566243D01*
X254875500Y-131356287D01*
X254875500Y-131143713D01*
X254842246Y-130933757D01*
X254776557Y-130731588D01*
X254680051Y-130542184D01*
X254680049Y-130542181D01*
X254680048Y-130542179D01*
X254555109Y-130370213D01*
X254404786Y-130219890D01*
X254232820Y-130094951D01*
X254232115Y-130094591D01*
X254224054Y-130090485D01*
X254173259Y-130042512D01*
X254156463Y-129974692D01*
X254178999Y-129908556D01*
X254208823Y-129878708D01*
X254216106Y-129873565D01*
X254232816Y-129865051D01*
X254404792Y-129740104D01*
X254555104Y-129589792D01*
X254555106Y-129589788D01*
X254555109Y-129589786D01*
X254680048Y-129417820D01*
X254680047Y-129417820D01*
X254680051Y-129417816D01*
X254776557Y-129228412D01*
X254842246Y-129026243D01*
X254875500Y-128816287D01*
X254875500Y-128603713D01*
X254842246Y-128393757D01*
X254776557Y-128191588D01*
X254680051Y-128002184D01*
X254680049Y-128002181D01*
X254680048Y-128002179D01*
X254555109Y-127830213D01*
X254404786Y-127679890D01*
X254232820Y-127554951D01*
X254043414Y-127458444D01*
X254043413Y-127458443D01*
X254043412Y-127458443D01*
X253841243Y-127392754D01*
X253841241Y-127392753D01*
X253841240Y-127392753D01*
X253679957Y-127367208D01*
X253631287Y-127359500D01*
X253418713Y-127359500D01*
X253370042Y-127367208D01*
X253208760Y-127392753D01*
X253006585Y-127458444D01*
X252817179Y-127554951D01*
X252645213Y-127679890D01*
X252494890Y-127830213D01*
X252369951Y-128002179D01*
X252273444Y-128191585D01*
X252207753Y-128393760D01*
X252181047Y-128562377D01*
X252151118Y-128625512D01*
X252091806Y-128662443D01*
X252021944Y-128661445D01*
X252011122Y-128657540D01*
X251882501Y-128604264D01*
X251882489Y-128604261D01*
X251727845Y-128573500D01*
X251727842Y-128573500D01*
X223829843Y-128573500D01*
X223672158Y-128573500D01*
X223672153Y-128573500D01*
X223517510Y-128604260D01*
X223517502Y-128604262D01*
X223371824Y-128664604D01*
X223371814Y-128664609D01*
X223240711Y-128752210D01*
X223240707Y-128752213D01*
X212794967Y-139197954D01*
X212733644Y-139231439D01*
X212663952Y-139226455D01*
X212608019Y-139184583D01*
X212584813Y-139129671D01*
X212567246Y-139018759D01*
X212567246Y-139018757D01*
X212501557Y-138816588D01*
X212405051Y-138627184D01*
X212405049Y-138627181D01*
X212405048Y-138627179D01*
X212280109Y-138455213D01*
X212129786Y-138304890D01*
X211957820Y-138179951D01*
X211957115Y-138179591D01*
X211949054Y-138175485D01*
X211898259Y-138127512D01*
X211881463Y-138059692D01*
X211903999Y-137993556D01*
X211949054Y-137954515D01*
X211957816Y-137950051D01*
X212027339Y-137899540D01*
X212129786Y-137825109D01*
X212129788Y-137825106D01*
X212129792Y-137825104D01*
X212280104Y-137674792D01*
X212280106Y-137674788D01*
X212280109Y-137674786D01*
X212405048Y-137502820D01*
X212405047Y-137502820D01*
X212405051Y-137502816D01*
X212501557Y-137313412D01*
X212567246Y-137111243D01*
X212600500Y-136901287D01*
X212600500Y-136688713D01*
X212567246Y-136478757D01*
X212501557Y-136276588D01*
X212405051Y-136087184D01*
X212405049Y-136087181D01*
X212405048Y-136087179D01*
X212280109Y-135915213D01*
X212129786Y-135764890D01*
X211957820Y-135639951D01*
X211957115Y-135639591D01*
X211949054Y-135635485D01*
X211898259Y-135587512D01*
X211881463Y-135519692D01*
X211903999Y-135453556D01*
X211949054Y-135414515D01*
X211957816Y-135410051D01*
X212054724Y-135339644D01*
X212129786Y-135285109D01*
X212129788Y-135285106D01*
X212129792Y-135285104D01*
X212280104Y-135134792D01*
X212280106Y-135134788D01*
X212280109Y-135134786D01*
X212405048Y-134962820D01*
X212405047Y-134962820D01*
X212405051Y-134962816D01*
X212501557Y-134773412D01*
X212567246Y-134571243D01*
X212600500Y-134361287D01*
X212600500Y-134148713D01*
X212567246Y-133938757D01*
X212501557Y-133736588D01*
X212405051Y-133547184D01*
X212405049Y-133547181D01*
X212405048Y-133547179D01*
X212280109Y-133375213D01*
X212129786Y-133224890D01*
X211957820Y-133099951D01*
X211957115Y-133099591D01*
X211949054Y-133095485D01*
X211898259Y-133047512D01*
X211881463Y-132979692D01*
X211903999Y-132913556D01*
X211949054Y-132874515D01*
X211957816Y-132870051D01*
X212009336Y-132832620D01*
X212129786Y-132745109D01*
X212129788Y-132745106D01*
X212129792Y-132745104D01*
X212280104Y-132594792D01*
X212280106Y-132594788D01*
X212280109Y-132594786D01*
X212405048Y-132422820D01*
X212405047Y-132422820D01*
X212405051Y-132422816D01*
X212501557Y-132233412D01*
X212567246Y-132031243D01*
X212600500Y-131821287D01*
X212600500Y-131608713D01*
X212567246Y-131398757D01*
X212501557Y-131196588D01*
X212405051Y-131007184D01*
X212405049Y-131007181D01*
X212405048Y-131007179D01*
X212280109Y-130835213D01*
X212129786Y-130684890D01*
X211957820Y-130559951D01*
X211957115Y-130559591D01*
X211949054Y-130555485D01*
X211898259Y-130507512D01*
X211881463Y-130439692D01*
X211903999Y-130373556D01*
X211949054Y-130334515D01*
X211957816Y-130330051D01*
X212016825Y-130287179D01*
X212129786Y-130205109D01*
X212129788Y-130205106D01*
X212129792Y-130205104D01*
X212280104Y-130054792D01*
X212280106Y-130054788D01*
X212280109Y-130054786D01*
X212405048Y-129882820D01*
X212405047Y-129882820D01*
X212405051Y-129882816D01*
X212501557Y-129693412D01*
X212567246Y-129491243D01*
X212600500Y-129281287D01*
X212600500Y-129068713D01*
X212567246Y-128858757D01*
X212501557Y-128656588D01*
X212405051Y-128467184D01*
X212405049Y-128467181D01*
X212405048Y-128467179D01*
X212280109Y-128295213D01*
X212129786Y-128144890D01*
X211957820Y-128019951D01*
X211957115Y-128019591D01*
X211949054Y-128015485D01*
X211898259Y-127967512D01*
X211881463Y-127899692D01*
X211903999Y-127833556D01*
X211949054Y-127794515D01*
X211957816Y-127790051D01*
X211979789Y-127774086D01*
X212129786Y-127665109D01*
X212129788Y-127665106D01*
X212129792Y-127665104D01*
X212280104Y-127514792D01*
X212280106Y-127514788D01*
X212280109Y-127514786D01*
X212405048Y-127342820D01*
X212405047Y-127342820D01*
X212405051Y-127342816D01*
X212501557Y-127153412D01*
X212567246Y-126951243D01*
X212600500Y-126741287D01*
X212600500Y-126528713D01*
X212567246Y-126318757D01*
X212501557Y-126116588D01*
X212405051Y-125927184D01*
X212405049Y-125927181D01*
X212405048Y-125927179D01*
X212280109Y-125755213D01*
X212129786Y-125604890D01*
X211957820Y-125479951D01*
X211957115Y-125479591D01*
X211949054Y-125475485D01*
X211898259Y-125427512D01*
X211881463Y-125359692D01*
X211903999Y-125293556D01*
X211949054Y-125254515D01*
X211957816Y-125250051D01*
X211979789Y-125234086D01*
X212129786Y-125125109D01*
X212129788Y-125125106D01*
X212129792Y-125125104D01*
X212280104Y-124974792D01*
X212280106Y-124974788D01*
X212280109Y-124974786D01*
X212405048Y-124802820D01*
X212405047Y-124802820D01*
X212405051Y-124802816D01*
X212501557Y-124613412D01*
X212567246Y-124411243D01*
X212600500Y-124201287D01*
X212600500Y-123988713D01*
X212567246Y-123778757D01*
X212501557Y-123576588D01*
X212405051Y-123387184D01*
X212405049Y-123387181D01*
X212405048Y-123387179D01*
X212280109Y-123215213D01*
X212129786Y-123064890D01*
X211957820Y-122939951D01*
X211957115Y-122939591D01*
X211949054Y-122935485D01*
X211898259Y-122887512D01*
X211881463Y-122819692D01*
X211903999Y-122753556D01*
X211949054Y-122714515D01*
X211957816Y-122710051D01*
X212014872Y-122668598D01*
X212129786Y-122585109D01*
X212129788Y-122585106D01*
X212129792Y-122585104D01*
X212280104Y-122434792D01*
X212280106Y-122434788D01*
X212280109Y-122434786D01*
X212405048Y-122262820D01*
X212405047Y-122262820D01*
X212405051Y-122262816D01*
X212501557Y-122073412D01*
X212567246Y-121871243D01*
X212600500Y-121661287D01*
X212600500Y-121448713D01*
X212567246Y-121238757D01*
X212501557Y-121036588D01*
X212405051Y-120847184D01*
X212405049Y-120847181D01*
X212405048Y-120847179D01*
X212280109Y-120675213D01*
X212129786Y-120524890D01*
X211957820Y-120399951D01*
X211957115Y-120399591D01*
X211949054Y-120395485D01*
X211898259Y-120347512D01*
X211881463Y-120279692D01*
X211903999Y-120213556D01*
X211949054Y-120174515D01*
X211957816Y-120170051D01*
X211979789Y-120154086D01*
X212129786Y-120045109D01*
X212129788Y-120045106D01*
X212129792Y-120045104D01*
X212280104Y-119894792D01*
X212280106Y-119894788D01*
X212280109Y-119894786D01*
X212405048Y-119722820D01*
X212405047Y-119722820D01*
X212405051Y-119722816D01*
X212501557Y-119533412D01*
X212567246Y-119331243D01*
X212600500Y-119121287D01*
X212600500Y-118908713D01*
X212567246Y-118698757D01*
X212501557Y-118496588D01*
X212405051Y-118307184D01*
X212405049Y-118307181D01*
X212405048Y-118307179D01*
X212280109Y-118135213D01*
X212129786Y-117984890D01*
X211957817Y-117859949D01*
X211948504Y-117855204D01*
X211897707Y-117807230D01*
X211880912Y-117739409D01*
X211903449Y-117673274D01*
X211948507Y-117634232D01*
X211957555Y-117629622D01*
X212011716Y-117590270D01*
X212011717Y-117590270D01*
X211379408Y-116957962D01*
X211442993Y-116940925D01*
X211557007Y-116875099D01*
X211650099Y-116782007D01*
X211715925Y-116667993D01*
X211732962Y-116604408D01*
X212365270Y-117236717D01*
X212365270Y-117236716D01*
X212404622Y-117182554D01*
X212501095Y-116993217D01*
X212566757Y-116791130D01*
X212566757Y-116791127D01*
X212600000Y-116581246D01*
X212600000Y-116368753D01*
X212566757Y-116158872D01*
X212566757Y-116158869D01*
X212501094Y-115956780D01*
X212487501Y-115930102D01*
X212487500Y-115930101D01*
X212460512Y-115877135D01*
X230557000Y-115877135D01*
X230557000Y-117972870D01*
X230557001Y-117972876D01*
X230563408Y-118032483D01*
X230613702Y-118167328D01*
X230613706Y-118167335D01*
X230699952Y-118282544D01*
X230699955Y-118282547D01*
X230815164Y-118368793D01*
X230815171Y-118368797D01*
X230950017Y-118419091D01*
X230950016Y-118419091D01*
X230956944Y-118419835D01*
X231009627Y-118425500D01*
X233010372Y-118425499D01*
X233069983Y-118419091D01*
X233204831Y-118368796D01*
X233320046Y-118282546D01*
X233406296Y-118167331D01*
X233416690Y-118139460D01*
X233458560Y-118083527D01*
X233524023Y-118059108D01*
X233592297Y-118073958D01*
X233605746Y-118082465D01*
X233788462Y-118215217D01*
X233920599Y-118282544D01*
X233992244Y-118319049D01*
X234209751Y-118389721D01*
X234209752Y-118389721D01*
X234209755Y-118389722D01*
X234435646Y-118425500D01*
X234435647Y-118425500D01*
X234664353Y-118425500D01*
X234664354Y-118425500D01*
X234890245Y-118389722D01*
X234890248Y-118389721D01*
X234890249Y-118389721D01*
X235107755Y-118319049D01*
X235107755Y-118319048D01*
X235107758Y-118319048D01*
X235311538Y-118215217D01*
X235496566Y-118080786D01*
X235658286Y-117919066D01*
X235719683Y-117834559D01*
X235775012Y-117791896D01*
X235844625Y-117785917D01*
X235906420Y-117818523D01*
X235920314Y-117834556D01*
X235981714Y-117919066D01*
X236143434Y-118080786D01*
X236328462Y-118215217D01*
X236460599Y-118282544D01*
X236532244Y-118319049D01*
X236749751Y-118389721D01*
X236749752Y-118389721D01*
X236749755Y-118389722D01*
X236975646Y-118425500D01*
X236975647Y-118425500D01*
X237204353Y-118425500D01*
X237204354Y-118425500D01*
X237430245Y-118389722D01*
X237430248Y-118389721D01*
X237430249Y-118389721D01*
X237647755Y-118319049D01*
X237647755Y-118319048D01*
X237647758Y-118319048D01*
X237851538Y-118215217D01*
X238036566Y-118080786D01*
X238198286Y-117919066D01*
X238332717Y-117734038D01*
X238436548Y-117530258D01*
X238507222Y-117312745D01*
X238543000Y-117086854D01*
X238543000Y-116763146D01*
X238507222Y-116537255D01*
X238507221Y-116537251D01*
X238507221Y-116537250D01*
X238436549Y-116319744D01*
X238402743Y-116253396D01*
X238332717Y-116115962D01*
X238198286Y-115930934D01*
X238094487Y-115827135D01*
X248257000Y-115827135D01*
X248257000Y-117922870D01*
X248257001Y-117922876D01*
X248263408Y-117982483D01*
X248313702Y-118117328D01*
X248313706Y-118117335D01*
X248399952Y-118232544D01*
X248399955Y-118232547D01*
X248515164Y-118318793D01*
X248515171Y-118318797D01*
X248650017Y-118369091D01*
X248650016Y-118369091D01*
X248656944Y-118369835D01*
X248709627Y-118375500D01*
X250710372Y-118375499D01*
X250769983Y-118369091D01*
X250904831Y-118318796D01*
X251020046Y-118232546D01*
X251106296Y-118117331D01*
X251116690Y-118089460D01*
X251158560Y-118033527D01*
X251224023Y-118009108D01*
X251292297Y-118023958D01*
X251305746Y-118032465D01*
X251488462Y-118165217D01*
X251586591Y-118215216D01*
X251692244Y-118269049D01*
X251909751Y-118339721D01*
X251909752Y-118339721D01*
X251909755Y-118339722D01*
X252135646Y-118375500D01*
X252135647Y-118375500D01*
X252364353Y-118375500D01*
X252364354Y-118375500D01*
X252590245Y-118339722D01*
X252590248Y-118339721D01*
X252590249Y-118339721D01*
X252807755Y-118269049D01*
X252807755Y-118269048D01*
X252807758Y-118269048D01*
X253011538Y-118165217D01*
X253196566Y-118030786D01*
X253358286Y-117869066D01*
X253419683Y-117784559D01*
X253475012Y-117741896D01*
X253544625Y-117735917D01*
X253606420Y-117768523D01*
X253620314Y-117784556D01*
X253681714Y-117869066D01*
X253843434Y-118030786D01*
X254028462Y-118165217D01*
X254126591Y-118215216D01*
X254232244Y-118269049D01*
X254449751Y-118339721D01*
X254449752Y-118339721D01*
X254449755Y-118339722D01*
X254675646Y-118375500D01*
X254675647Y-118375500D01*
X254904353Y-118375500D01*
X254904354Y-118375500D01*
X255130245Y-118339722D01*
X255130248Y-118339721D01*
X255130249Y-118339721D01*
X255347755Y-118269049D01*
X255347755Y-118269048D01*
X255347758Y-118269048D01*
X255551538Y-118165217D01*
X255736566Y-118030786D01*
X255898286Y-117869066D01*
X256032717Y-117684038D01*
X256136548Y-117480258D01*
X256207222Y-117262745D01*
X256243000Y-117036854D01*
X256243000Y-116713146D01*
X256207222Y-116487255D01*
X256207221Y-116487251D01*
X256207221Y-116487250D01*
X256136549Y-116269744D01*
X256060987Y-116121446D01*
X256032717Y-116065962D01*
X255898286Y-115880934D01*
X255736566Y-115719214D01*
X255551538Y-115584783D01*
X255445885Y-115530950D01*
X255347755Y-115480950D01*
X255130248Y-115410278D01*
X254944812Y-115380908D01*
X254904354Y-115374500D01*
X254675646Y-115374500D01*
X254635188Y-115380908D01*
X254449753Y-115410278D01*
X254449750Y-115410278D01*
X254232244Y-115480950D01*
X254028461Y-115584783D01*
X253962550Y-115632671D01*
X253843434Y-115719214D01*
X253843432Y-115719216D01*
X253843431Y-115719216D01*
X253681715Y-115880932D01*
X253620318Y-115965438D01*
X253564987Y-116008103D01*
X253495374Y-116014082D01*
X253433579Y-115981476D01*
X253419682Y-115965438D01*
X253379148Y-115909648D01*
X253358286Y-115880934D01*
X253196566Y-115719214D01*
X253011538Y-115584783D01*
X252905885Y-115530950D01*
X252807755Y-115480950D01*
X252590248Y-115410278D01*
X252404812Y-115380908D01*
X252364354Y-115374500D01*
X252135646Y-115374500D01*
X252095188Y-115380908D01*
X251909753Y-115410278D01*
X251909750Y-115410278D01*
X251692244Y-115480950D01*
X251488461Y-115584783D01*
X251364977Y-115674500D01*
X251314125Y-115711447D01*
X251305759Y-115717525D01*
X251239952Y-115741005D01*
X251171898Y-115725180D01*
X251123203Y-115675074D01*
X251116690Y-115660538D01*
X251106296Y-115632669D01*
X251106293Y-115632664D01*
X251020047Y-115517455D01*
X251020044Y-115517452D01*
X250904835Y-115431206D01*
X250904828Y-115431202D01*
X250769982Y-115380908D01*
X250769983Y-115380908D01*
X250710383Y-115374501D01*
X250710381Y-115374500D01*
X250710373Y-115374500D01*
X250710365Y-115374500D01*
X250634500Y-115374500D01*
X250567461Y-115354815D01*
X250521706Y-115302011D01*
X250510500Y-115250500D01*
X250510500Y-108097939D01*
X250530185Y-108030900D01*
X250546814Y-108010263D01*
X252460798Y-106096278D01*
X252522119Y-106062795D01*
X252591811Y-106067779D01*
X252595896Y-106069386D01*
X252605581Y-106073398D01*
X252858884Y-106141270D01*
X253118880Y-106175500D01*
X253118887Y-106175500D01*
X253381113Y-106175500D01*
X253381120Y-106175500D01*
X253641116Y-106141270D01*
X253894419Y-106073398D01*
X254136697Y-105973043D01*
X254363803Y-105841924D01*
X254571851Y-105682282D01*
X254571855Y-105682277D01*
X254571860Y-105682274D01*
X254757274Y-105496860D01*
X254757277Y-105496855D01*
X254757282Y-105496851D01*
X254916924Y-105288803D01*
X255048043Y-105061697D01*
X255148398Y-104819419D01*
X255216270Y-104566116D01*
X255250500Y-104306120D01*
X255250500Y-104043880D01*
X255216270Y-103783884D01*
X255148398Y-103530581D01*
X255051351Y-103296288D01*
X255048046Y-103288309D01*
X255048041Y-103288299D01*
X254946055Y-103111653D01*
X254916924Y-103061196D01*
X254911180Y-103053711D01*
X257899500Y-103053711D01*
X257899500Y-103296288D01*
X257931161Y-103536785D01*
X257993947Y-103771104D01*
X258086773Y-103995205D01*
X258086776Y-103995212D01*
X258208064Y-104205289D01*
X258208066Y-104205292D01*
X258208067Y-104205293D01*
X258355733Y-104397736D01*
X258355739Y-104397743D01*
X258527256Y-104569260D01*
X258527262Y-104569265D01*
X258719711Y-104716936D01*
X258929788Y-104838224D01*
X259153900Y-104931054D01*
X259388211Y-104993838D01*
X259568586Y-105017584D01*
X259628711Y-105025500D01*
X259628712Y-105025500D01*
X259871289Y-105025500D01*
X259919388Y-105019167D01*
X260111789Y-104993838D01*
X260346100Y-104931054D01*
X260570212Y-104838224D01*
X260780289Y-104716936D01*
X260972738Y-104569265D01*
X261144265Y-104397738D01*
X261291936Y-104205289D01*
X261413224Y-103995212D01*
X261506054Y-103771100D01*
X261568838Y-103536789D01*
X261600500Y-103296288D01*
X261600500Y-103053712D01*
X261595832Y-103018258D01*
X261584009Y-102928447D01*
X261568838Y-102813211D01*
X261506054Y-102578900D01*
X261505245Y-102576948D01*
X261484529Y-102526935D01*
X261413224Y-102354788D01*
X261291936Y-102144711D01*
X261144265Y-101952262D01*
X261144260Y-101952256D01*
X260972743Y-101780739D01*
X260972736Y-101780733D01*
X260780293Y-101633067D01*
X260780292Y-101633066D01*
X260780289Y-101633064D01*
X260570212Y-101511776D01*
X260535986Y-101497599D01*
X260346104Y-101418947D01*
X260196674Y-101378907D01*
X260111789Y-101356162D01*
X260111788Y-101356161D01*
X260111785Y-101356161D01*
X259871289Y-101324500D01*
X259871288Y-101324500D01*
X259628712Y-101324500D01*
X259628711Y-101324500D01*
X259388214Y-101356161D01*
X259153895Y-101418947D01*
X258929794Y-101511773D01*
X258929785Y-101511777D01*
X258719706Y-101633067D01*
X258527263Y-101780733D01*
X258527256Y-101780739D01*
X258355739Y-101952256D01*
X258355733Y-101952263D01*
X258208067Y-102144706D01*
X258086777Y-102354785D01*
X258086773Y-102354794D01*
X257993947Y-102578895D01*
X257931161Y-102813214D01*
X257899500Y-103053711D01*
X254911180Y-103053711D01*
X254757281Y-102853148D01*
X254757274Y-102853140D01*
X254571860Y-102667726D01*
X254571851Y-102667718D01*
X254363803Y-102508075D01*
X254136700Y-102376958D01*
X254136690Y-102376953D01*
X253894428Y-102276605D01*
X253894421Y-102276603D01*
X253894419Y-102276602D01*
X253641116Y-102208730D01*
X253583339Y-102201123D01*
X253381127Y-102174500D01*
X253381120Y-102174500D01*
X253118880Y-102174500D01*
X253118872Y-102174500D01*
X252887772Y-102204926D01*
X252858884Y-102208730D01*
X252653542Y-102263751D01*
X252605581Y-102276602D01*
X252605571Y-102276605D01*
X252363309Y-102376953D01*
X252363299Y-102376958D01*
X252136196Y-102508075D01*
X251928148Y-102667718D01*
X251742718Y-102853148D01*
X251583075Y-103061196D01*
X251451958Y-103288299D01*
X251451953Y-103288309D01*
X251351605Y-103530571D01*
X251351602Y-103530581D01*
X251287155Y-103771104D01*
X251283730Y-103783885D01*
X251249500Y-104043872D01*
X251249500Y-104306127D01*
X251276123Y-104508339D01*
X251283730Y-104566116D01*
X251312415Y-104673172D01*
X251351601Y-104819418D01*
X251355598Y-104829065D01*
X251363068Y-104898534D01*
X251331795Y-104961014D01*
X251328719Y-104964201D01*
X249249711Y-107043211D01*
X249199711Y-107093211D01*
X249143960Y-107148962D01*
X249088209Y-107204712D01*
X249000609Y-107335814D01*
X249000602Y-107335827D01*
X248940264Y-107481498D01*
X248940261Y-107481510D01*
X248909500Y-107636153D01*
X248909500Y-115250500D01*
X248889815Y-115317539D01*
X248837011Y-115363294D01*
X248785502Y-115374500D01*
X248709630Y-115374500D01*
X248709623Y-115374501D01*
X248650016Y-115380908D01*
X248515171Y-115431202D01*
X248515164Y-115431206D01*
X248399955Y-115517452D01*
X248399952Y-115517455D01*
X248313706Y-115632664D01*
X248313702Y-115632671D01*
X248263408Y-115767517D01*
X248257001Y-115827116D01*
X248257000Y-115827135D01*
X238094487Y-115827135D01*
X238036566Y-115769214D01*
X237851538Y-115634783D01*
X237847379Y-115632664D01*
X237647755Y-115530950D01*
X237430248Y-115460278D01*
X237260826Y-115433444D01*
X237204354Y-115424500D01*
X236975646Y-115424500D01*
X236900349Y-115436426D01*
X236749753Y-115460278D01*
X236749750Y-115460278D01*
X236532244Y-115530950D01*
X236328461Y-115634783D01*
X236262550Y-115682671D01*
X236143434Y-115769214D01*
X236143432Y-115769216D01*
X236143431Y-115769216D01*
X235981715Y-115930932D01*
X235920318Y-116015438D01*
X235864987Y-116058103D01*
X235795374Y-116064082D01*
X235733579Y-116031476D01*
X235719682Y-116015438D01*
X235690302Y-115975000D01*
X235658286Y-115930934D01*
X235496566Y-115769214D01*
X235311538Y-115634783D01*
X235307379Y-115632664D01*
X235107755Y-115530950D01*
X234890248Y-115460278D01*
X234720826Y-115433444D01*
X234664354Y-115424500D01*
X234435646Y-115424500D01*
X234360349Y-115436426D01*
X234209753Y-115460278D01*
X234209750Y-115460278D01*
X233992244Y-115530950D01*
X233788461Y-115634783D01*
X233672253Y-115719214D01*
X233605864Y-115767449D01*
X233605759Y-115767525D01*
X233539952Y-115791005D01*
X233471898Y-115775180D01*
X233423203Y-115725074D01*
X233416690Y-115710538D01*
X233406296Y-115682669D01*
X233406293Y-115682664D01*
X233320047Y-115567455D01*
X233320044Y-115567452D01*
X233204835Y-115481206D01*
X233204828Y-115481202D01*
X233069982Y-115430908D01*
X233069983Y-115430908D01*
X233010383Y-115424501D01*
X233010381Y-115424500D01*
X233010373Y-115424500D01*
X233010365Y-115424500D01*
X232934500Y-115424500D01*
X232867461Y-115404815D01*
X232821706Y-115352011D01*
X232810500Y-115300500D01*
X232810500Y-108047939D01*
X232830185Y-107980900D01*
X232846814Y-107960263D01*
X234710798Y-106096278D01*
X234772119Y-106062795D01*
X234841811Y-106067779D01*
X234845896Y-106069386D01*
X234855581Y-106073398D01*
X235108884Y-106141270D01*
X235368880Y-106175500D01*
X235368887Y-106175500D01*
X235631113Y-106175500D01*
X235631120Y-106175500D01*
X235891116Y-106141270D01*
X236144419Y-106073398D01*
X236386697Y-105973043D01*
X236613803Y-105841924D01*
X236821851Y-105682282D01*
X236821855Y-105682277D01*
X236821860Y-105682274D01*
X237007274Y-105496860D01*
X237007277Y-105496855D01*
X237007282Y-105496851D01*
X237166924Y-105288803D01*
X237298043Y-105061697D01*
X237398398Y-104819419D01*
X237466270Y-104566116D01*
X237500500Y-104306120D01*
X237500500Y-104043880D01*
X237466270Y-103783884D01*
X237398398Y-103530581D01*
X237301351Y-103296288D01*
X237298046Y-103288309D01*
X237298041Y-103288299D01*
X237166924Y-103061196D01*
X237007281Y-102853148D01*
X237007274Y-102853140D01*
X236821860Y-102667726D01*
X236821851Y-102667718D01*
X236613803Y-102508075D01*
X236386700Y-102376958D01*
X236386690Y-102376953D01*
X236144428Y-102276605D01*
X236144421Y-102276603D01*
X236144419Y-102276602D01*
X235891116Y-102208730D01*
X235833339Y-102201123D01*
X235631127Y-102174500D01*
X235631120Y-102174500D01*
X235368880Y-102174500D01*
X235368872Y-102174500D01*
X235137772Y-102204926D01*
X235108884Y-102208730D01*
X234903542Y-102263751D01*
X234855581Y-102276602D01*
X234855571Y-102276605D01*
X234613309Y-102376953D01*
X234613299Y-102376958D01*
X234386196Y-102508075D01*
X234178148Y-102667718D01*
X233992718Y-102853148D01*
X233833075Y-103061196D01*
X233701958Y-103288299D01*
X233701953Y-103288309D01*
X233601605Y-103530571D01*
X233601602Y-103530581D01*
X233537155Y-103771104D01*
X233533730Y-103783885D01*
X233499500Y-104043872D01*
X233499500Y-104306127D01*
X233526123Y-104508339D01*
X233533730Y-104566116D01*
X233562415Y-104673172D01*
X233601601Y-104819418D01*
X233605598Y-104829065D01*
X233613068Y-104898534D01*
X233581795Y-104961014D01*
X233578719Y-104964201D01*
X231499711Y-107043211D01*
X231449711Y-107093211D01*
X231388209Y-107154712D01*
X231300609Y-107285814D01*
X231300602Y-107285827D01*
X231240264Y-107431498D01*
X231240261Y-107431510D01*
X231209500Y-107586153D01*
X231209500Y-115300500D01*
X231189815Y-115367539D01*
X231137011Y-115413294D01*
X231085502Y-115424500D01*
X231009630Y-115424500D01*
X231009623Y-115424501D01*
X230950016Y-115430908D01*
X230815171Y-115481202D01*
X230815164Y-115481206D01*
X230699955Y-115567452D01*
X230699952Y-115567455D01*
X230613706Y-115682664D01*
X230613702Y-115682671D01*
X230563408Y-115817517D01*
X230557001Y-115877116D01*
X230557000Y-115877135D01*
X212460512Y-115877135D01*
X212404624Y-115767449D01*
X212365270Y-115713282D01*
X212365269Y-115713282D01*
X211732962Y-116345590D01*
X211715925Y-116282007D01*
X211650099Y-116167993D01*
X211557007Y-116074901D01*
X211442993Y-116009075D01*
X211379409Y-115992037D01*
X212011716Y-115359728D01*
X211957547Y-115320373D01*
X211957547Y-115320372D01*
X211948500Y-115315763D01*
X211897706Y-115267788D01*
X211880912Y-115199966D01*
X211903451Y-115133832D01*
X211948508Y-115094793D01*
X211957816Y-115090051D01*
X212091270Y-114993092D01*
X212129786Y-114965109D01*
X212129788Y-114965106D01*
X212129792Y-114965104D01*
X212280104Y-114814792D01*
X212280106Y-114814788D01*
X212280109Y-114814786D01*
X212405048Y-114642820D01*
X212405047Y-114642820D01*
X212405051Y-114642816D01*
X212501557Y-114453412D01*
X212567246Y-114251243D01*
X212600500Y-114041287D01*
X212600500Y-113828713D01*
X212567246Y-113618757D01*
X212501557Y-113416588D01*
X212405051Y-113227184D01*
X212405049Y-113227181D01*
X212405048Y-113227179D01*
X212280109Y-113055213D01*
X212129786Y-112904890D01*
X211957820Y-112779951D01*
X211768414Y-112683444D01*
X211768413Y-112683443D01*
X211768412Y-112683443D01*
X211566243Y-112617754D01*
X211566241Y-112617753D01*
X211566240Y-112617753D01*
X211404957Y-112592208D01*
X211356287Y-112584500D01*
X211143713Y-112584500D01*
X211095042Y-112592208D01*
X210933760Y-112617753D01*
X210731585Y-112683444D01*
X210542179Y-112779951D01*
X210370213Y-112904890D01*
X210219890Y-113055213D01*
X210094951Y-113227179D01*
X209998444Y-113416585D01*
X209932753Y-113618760D01*
X209915058Y-113730483D01*
X209899500Y-113828713D01*
X209899500Y-114041287D01*
X209932754Y-114251243D01*
X209948272Y-114299003D01*
X209998444Y-114453414D01*
X210094951Y-114642820D01*
X210219890Y-114814786D01*
X210370213Y-114965109D01*
X210542179Y-115090048D01*
X210542181Y-115090049D01*
X210542184Y-115090051D01*
X210551493Y-115094794D01*
X210602290Y-115142766D01*
X210619087Y-115210587D01*
X210596552Y-115276722D01*
X210551505Y-115315760D01*
X210542446Y-115320376D01*
X210542440Y-115320380D01*
X210488282Y-115359727D01*
X210488282Y-115359728D01*
X211120591Y-115992037D01*
X211057007Y-116009075D01*
X210942993Y-116074901D01*
X210849901Y-116167993D01*
X210784075Y-116282007D01*
X210767037Y-116345591D01*
X210134728Y-115713282D01*
X210134727Y-115713282D01*
X210095380Y-115767439D01*
X209998904Y-115956782D01*
X209933242Y-116158869D01*
X209933242Y-116158872D01*
X209900000Y-116368753D01*
X209900000Y-116581246D01*
X209933242Y-116791127D01*
X209933242Y-116791130D01*
X209998904Y-116993217D01*
X210095375Y-117182550D01*
X210134728Y-117236716D01*
X210767036Y-116604407D01*
X210784075Y-116667993D01*
X210849901Y-116782007D01*
X210942993Y-116875099D01*
X211057007Y-116940925D01*
X211120590Y-116957962D01*
X210488282Y-117590269D01*
X210488282Y-117590270D01*
X210542452Y-117629626D01*
X210542451Y-117629626D01*
X210551495Y-117634234D01*
X210602292Y-117682208D01*
X210619087Y-117750029D01*
X210596550Y-117816164D01*
X210551499Y-117855202D01*
X210542182Y-117859949D01*
X210370213Y-117984890D01*
X210219890Y-118135213D01*
X210094951Y-118307179D01*
X209998444Y-118496585D01*
X209932753Y-118698760D01*
X209899500Y-118908713D01*
X209899500Y-119121287D01*
X209932754Y-119331243D01*
X209985342Y-119493092D01*
X209998444Y-119533414D01*
X210094951Y-119722820D01*
X210219890Y-119894786D01*
X210370213Y-120045109D01*
X210542182Y-120170050D01*
X210550946Y-120174516D01*
X210601742Y-120222491D01*
X210618536Y-120290312D01*
X210595998Y-120356447D01*
X210550946Y-120395484D01*
X210542182Y-120399949D01*
X210370213Y-120524890D01*
X210219890Y-120675213D01*
X210094951Y-120847179D01*
X209998444Y-121036585D01*
X209932753Y-121238760D01*
X209899500Y-121448713D01*
X209899500Y-121661286D01*
X209932753Y-121871239D01*
X209998444Y-122073414D01*
X210094951Y-122262820D01*
X210219890Y-122434786D01*
X210370213Y-122585109D01*
X210542182Y-122710050D01*
X210550946Y-122714516D01*
X210601742Y-122762491D01*
X210618536Y-122830312D01*
X210595998Y-122896447D01*
X210550946Y-122935484D01*
X210542182Y-122939949D01*
X210370213Y-123064890D01*
X210219890Y-123215213D01*
X210094951Y-123387179D01*
X209998444Y-123576585D01*
X209932753Y-123778760D01*
X209899500Y-123988713D01*
X209899500Y-124201286D01*
X209932753Y-124411239D01*
X209998444Y-124613414D01*
X210094951Y-124802820D01*
X210219890Y-124974786D01*
X210370213Y-125125109D01*
X210542182Y-125250050D01*
X210550946Y-125254516D01*
X210601742Y-125302491D01*
X210618536Y-125370312D01*
X210595998Y-125436447D01*
X210550946Y-125475484D01*
X210542182Y-125479949D01*
X210370213Y-125604890D01*
X210219890Y-125755213D01*
X210094951Y-125927179D01*
X209998444Y-126116585D01*
X209932753Y-126318760D01*
X209899500Y-126528713D01*
X209899500Y-126741286D01*
X209932753Y-126951239D01*
X209998444Y-127153414D01*
X210094951Y-127342820D01*
X210219890Y-127514786D01*
X210370213Y-127665109D01*
X210542182Y-127790050D01*
X210550946Y-127794516D01*
X210601742Y-127842491D01*
X210618536Y-127910312D01*
X210595998Y-127976447D01*
X210550946Y-128015484D01*
X210542182Y-128019949D01*
X210370213Y-128144890D01*
X210219890Y-128295213D01*
X210094951Y-128467179D01*
X209998444Y-128656585D01*
X209932753Y-128858760D01*
X209899500Y-129068713D01*
X209899500Y-129281286D01*
X209927805Y-129460000D01*
X209932754Y-129491243D01*
X209982346Y-129643872D01*
X209998444Y-129693414D01*
X210094951Y-129882820D01*
X210219890Y-130054786D01*
X210370213Y-130205109D01*
X210542182Y-130330050D01*
X210550946Y-130334516D01*
X210601742Y-130382491D01*
X210618536Y-130450312D01*
X210595998Y-130516447D01*
X210550946Y-130555484D01*
X210542182Y-130559949D01*
X210370213Y-130684890D01*
X210219890Y-130835213D01*
X210094951Y-131007179D01*
X209998444Y-131196585D01*
X209932753Y-131398760D01*
X209899500Y-131608713D01*
X209899500Y-131821287D01*
X209899499Y-131821287D01*
X209904948Y-131855686D01*
X209895993Y-131924979D01*
X209870156Y-131962764D01*
X190630969Y-151201953D01*
X184239711Y-157593211D01*
X184183960Y-157648962D01*
X184128209Y-157704712D01*
X184040609Y-157835814D01*
X184040602Y-157835827D01*
X183980264Y-157981498D01*
X183980261Y-157981510D01*
X183949500Y-158136153D01*
X183949500Y-159268060D01*
X183929815Y-159335099D01*
X183877011Y-159380854D01*
X183807853Y-159390798D01*
X183744297Y-159361773D01*
X183737819Y-159355741D01*
X180836819Y-156454741D01*
X180803334Y-156393418D01*
X180800500Y-156367060D01*
X180800500Y-147421155D01*
X180800499Y-147421153D01*
X180797816Y-147407664D01*
X180769737Y-147266503D01*
X180745101Y-147207026D01*
X180709397Y-147120827D01*
X180709390Y-147120814D01*
X180621790Y-146989712D01*
X180585403Y-146953325D01*
X180510289Y-146878211D01*
X178171280Y-144539202D01*
X178137795Y-144477879D01*
X178142779Y-144408187D01*
X178144380Y-144404117D01*
X178148398Y-144394419D01*
X178216270Y-144141116D01*
X178250500Y-143881120D01*
X178250500Y-143618880D01*
X178216270Y-143358884D01*
X178148398Y-143105581D01*
X178118961Y-143034514D01*
X178048046Y-142863309D01*
X178048041Y-142863299D01*
X177916924Y-142636196D01*
X177757281Y-142428148D01*
X177757274Y-142428140D01*
X177571860Y-142242726D01*
X177571851Y-142242718D01*
X177363803Y-142083075D01*
X177136700Y-141951958D01*
X177136690Y-141951953D01*
X176894428Y-141851605D01*
X176894421Y-141851603D01*
X176894419Y-141851602D01*
X176641116Y-141783730D01*
X176583339Y-141776123D01*
X176381127Y-141749500D01*
X176381120Y-141749500D01*
X176118880Y-141749500D01*
X176118872Y-141749500D01*
X175887772Y-141779926D01*
X175858884Y-141783730D01*
X175605581Y-141851602D01*
X175605571Y-141851605D01*
X175363309Y-141951953D01*
X175363299Y-141951958D01*
X175136196Y-142083075D01*
X174928148Y-142242718D01*
X174742718Y-142428148D01*
X174583075Y-142636196D01*
X174451958Y-142863299D01*
X174451953Y-142863309D01*
X174351605Y-143105571D01*
X174351602Y-143105581D01*
X174310240Y-143259949D01*
X174283730Y-143358885D01*
X174249500Y-143618872D01*
X167500500Y-143618872D01*
X167500500Y-134976153D01*
X172659500Y-134976153D01*
X172659500Y-135133846D01*
X172690261Y-135288489D01*
X172690264Y-135288501D01*
X172750602Y-135434172D01*
X172750609Y-135434185D01*
X172838210Y-135565288D01*
X172838213Y-135565292D01*
X172949707Y-135676786D01*
X172949711Y-135676789D01*
X173080814Y-135764390D01*
X173080827Y-135764397D01*
X173226498Y-135824735D01*
X173226503Y-135824737D01*
X173381153Y-135855499D01*
X173381156Y-135855500D01*
X173381158Y-135855500D01*
X173538844Y-135855500D01*
X173538845Y-135855499D01*
X173693497Y-135824737D01*
X173839179Y-135764394D01*
X173970289Y-135676789D01*
X174081789Y-135565289D01*
X174169394Y-135434179D01*
X174172398Y-135429684D01*
X174226010Y-135384879D01*
X174295335Y-135376172D01*
X174358363Y-135406326D01*
X174395082Y-135465770D01*
X174399500Y-135498575D01*
X174399500Y-135955017D01*
X174410000Y-136057796D01*
X174465185Y-136224332D01*
X174465187Y-136224337D01*
X174557289Y-136373657D01*
X174686451Y-136502819D01*
X174684117Y-136505152D01*
X174716065Y-136550195D01*
X174719257Y-136619992D01*
X174699126Y-136663415D01*
X174631559Y-136756413D01*
X174517219Y-136980815D01*
X174439397Y-137220329D01*
X174434008Y-137254353D01*
X174404077Y-137317487D01*
X174344765Y-137354417D01*
X174274902Y-137353418D01*
X174216671Y-137314807D01*
X174196974Y-137282405D01*
X174169397Y-137215827D01*
X174169390Y-137215814D01*
X174081789Y-137084711D01*
X174081786Y-137084707D01*
X173970292Y-136973213D01*
X173970288Y-136973210D01*
X173839185Y-136885609D01*
X173839172Y-136885602D01*
X173693501Y-136825264D01*
X173693489Y-136825261D01*
X173538845Y-136794500D01*
X173538842Y-136794500D01*
X173381158Y-136794500D01*
X173381155Y-136794500D01*
X173226510Y-136825261D01*
X173226498Y-136825264D01*
X173080827Y-136885602D01*
X173080814Y-136885609D01*
X172949711Y-136973210D01*
X172949707Y-136973213D01*
X172838213Y-137084707D01*
X172838210Y-137084711D01*
X172750609Y-137215814D01*
X172750602Y-137215827D01*
X172690264Y-137361498D01*
X172690261Y-137361510D01*
X172659500Y-137516153D01*
X172659500Y-137673846D01*
X172690261Y-137828489D01*
X172690264Y-137828501D01*
X172750602Y-137974172D01*
X172750609Y-137974185D01*
X172838210Y-138105288D01*
X172838213Y-138105292D01*
X172949707Y-138216786D01*
X172949711Y-138216789D01*
X173080814Y-138304390D01*
X173080827Y-138304397D01*
X173226498Y-138364735D01*
X173226503Y-138364737D01*
X173381153Y-138395499D01*
X173381156Y-138395500D01*
X173381158Y-138395500D01*
X173538844Y-138395500D01*
X173538845Y-138395499D01*
X173693497Y-138364737D01*
X173839179Y-138304394D01*
X173970289Y-138216789D01*
X174081789Y-138105289D01*
X174169394Y-137974179D01*
X174196974Y-137907592D01*
X174240814Y-137853191D01*
X174307108Y-137831125D01*
X174374807Y-137848403D01*
X174422418Y-137899540D01*
X174434008Y-137935646D01*
X174439397Y-137969670D01*
X174517219Y-138209184D01*
X174631557Y-138433583D01*
X174705748Y-138535697D01*
X174705748Y-138535698D01*
X175476212Y-137765233D01*
X175487482Y-137807292D01*
X175559890Y-137932708D01*
X175662292Y-138035110D01*
X175787708Y-138107518D01*
X175829765Y-138118787D01*
X175059300Y-138889250D01*
X175161416Y-138963442D01*
X175385815Y-139077780D01*
X175625330Y-139155602D01*
X175874072Y-139195000D01*
X176125928Y-139195000D01*
X176374669Y-139155602D01*
X176614184Y-139077780D01*
X176838575Y-138963446D01*
X176838581Y-138963442D01*
X176940697Y-138889250D01*
X176940698Y-138889250D01*
X176170234Y-138118787D01*
X176212292Y-138107518D01*
X176337708Y-138035110D01*
X176440110Y-137932708D01*
X176512518Y-137807292D01*
X176523787Y-137765234D01*
X177294250Y-138535698D01*
X177294250Y-138535697D01*
X177368442Y-138433581D01*
X177368446Y-138433575D01*
X177482780Y-138209184D01*
X177560602Y-137969669D01*
X177600000Y-137720928D01*
X177600000Y-137469071D01*
X177560602Y-137220330D01*
X177482780Y-136980815D01*
X177368442Y-136756416D01*
X177300873Y-136663416D01*
X177277393Y-136597610D01*
X177293218Y-136529556D01*
X177315082Y-136504352D01*
X177313549Y-136502819D01*
X177353187Y-136463181D01*
X177442712Y-136373656D01*
X177534814Y-136224335D01*
X177589999Y-136057798D01*
X177600500Y-135955010D01*
X177600500Y-134154990D01*
X177589999Y-134052202D01*
X177534814Y-133885665D01*
X177442712Y-133736344D01*
X177318656Y-133612288D01*
X177169335Y-133520186D01*
X177002798Y-133465001D01*
X177002796Y-133465000D01*
X176900017Y-133454500D01*
X176900010Y-133454500D01*
X175099990Y-133454500D01*
X175099982Y-133454500D01*
X174997203Y-133465000D01*
X174997202Y-133465001D01*
X174942906Y-133482993D01*
X174830667Y-133520185D01*
X174830662Y-133520187D01*
X174681342Y-133612289D01*
X174557289Y-133736342D01*
X174465187Y-133885662D01*
X174465186Y-133885665D01*
X174410001Y-134052202D01*
X174410001Y-134052203D01*
X174410000Y-134052203D01*
X174399500Y-134154982D01*
X174399500Y-134611424D01*
X174379815Y-134678463D01*
X174327011Y-134724218D01*
X174257853Y-134734162D01*
X174194297Y-134705137D01*
X174172398Y-134680315D01*
X174081789Y-134544711D01*
X174081786Y-134544707D01*
X173970292Y-134433213D01*
X173970288Y-134433210D01*
X173839185Y-134345609D01*
X173839172Y-134345602D01*
X173693501Y-134285264D01*
X173693489Y-134285261D01*
X173538845Y-134254500D01*
X173538842Y-134254500D01*
X173381158Y-134254500D01*
X173381155Y-134254500D01*
X173226510Y-134285261D01*
X173226498Y-134285264D01*
X173080827Y-134345602D01*
X173080814Y-134345609D01*
X172949711Y-134433210D01*
X172949707Y-134433213D01*
X172838213Y-134544707D01*
X172838210Y-134544711D01*
X172750609Y-134675814D01*
X172750602Y-134675827D01*
X172690264Y-134821498D01*
X172690261Y-134821510D01*
X172659500Y-134976153D01*
X167500500Y-134976153D01*
X167500500Y-126618872D01*
X173999500Y-126618872D01*
X173999500Y-126881127D01*
X174008732Y-126951243D01*
X174033730Y-127141116D01*
X174087775Y-127342816D01*
X174101602Y-127394418D01*
X174101605Y-127394428D01*
X174201953Y-127636690D01*
X174201958Y-127636700D01*
X174333075Y-127863803D01*
X174492718Y-128071851D01*
X174492726Y-128071860D01*
X174678140Y-128257274D01*
X174678148Y-128257281D01*
X174886196Y-128416924D01*
X175113299Y-128548041D01*
X175113309Y-128548046D01*
X175300329Y-128625512D01*
X175355581Y-128648398D01*
X175608884Y-128716270D01*
X175868880Y-128750500D01*
X175868887Y-128750500D01*
X176131113Y-128750500D01*
X176131120Y-128750500D01*
X176391116Y-128716270D01*
X176644419Y-128648398D01*
X176886697Y-128548043D01*
X177113803Y-128416924D01*
X177321851Y-128257282D01*
X177321855Y-128257277D01*
X177321860Y-128257274D01*
X177507274Y-128071860D01*
X177507277Y-128071855D01*
X177507282Y-128071851D01*
X177666924Y-127863803D01*
X177798043Y-127636697D01*
X177898398Y-127394419D01*
X177966270Y-127141116D01*
X178000500Y-126881120D01*
X178000500Y-126618880D01*
X177966270Y-126358884D01*
X177898398Y-126105581D01*
X177898394Y-126105571D01*
X177798046Y-125863309D01*
X177798041Y-125863299D01*
X177666924Y-125636196D01*
X177507281Y-125428148D01*
X177507274Y-125428140D01*
X177321860Y-125242726D01*
X177321851Y-125242718D01*
X177113803Y-125083075D01*
X176886700Y-124951958D01*
X176886690Y-124951953D01*
X176644428Y-124851605D01*
X176644421Y-124851603D01*
X176644419Y-124851602D01*
X176391116Y-124783730D01*
X176333339Y-124776123D01*
X176131127Y-124749500D01*
X176131120Y-124749500D01*
X175868880Y-124749500D01*
X175868872Y-124749500D01*
X175637772Y-124779926D01*
X175608884Y-124783730D01*
X175355581Y-124851602D01*
X175355571Y-124851605D01*
X175113309Y-124951953D01*
X175113299Y-124951958D01*
X174886196Y-125083075D01*
X174678148Y-125242718D01*
X174492718Y-125428148D01*
X174333075Y-125636196D01*
X174201958Y-125863299D01*
X174201953Y-125863309D01*
X174101605Y-126105571D01*
X174101602Y-126105581D01*
X174033730Y-126358885D01*
X173999500Y-126618872D01*
X167500500Y-126618872D01*
X167500500Y-117056902D01*
X169199500Y-117056902D01*
X169199500Y-119493097D01*
X169236446Y-119726368D01*
X169309433Y-119950996D01*
X169368860Y-120067627D01*
X169416657Y-120161433D01*
X169555483Y-120352510D01*
X169722490Y-120519517D01*
X169913567Y-120658343D01*
X170012991Y-120709002D01*
X170124003Y-120765566D01*
X170124005Y-120765566D01*
X170124008Y-120765568D01*
X170244412Y-120804689D01*
X170348631Y-120838553D01*
X170581903Y-120875500D01*
X170581908Y-120875500D01*
X170818097Y-120875500D01*
X171051368Y-120838553D01*
X171275992Y-120765568D01*
X171486433Y-120658343D01*
X171677510Y-120519517D01*
X171844517Y-120352510D01*
X171983343Y-120161433D01*
X172000809Y-120127155D01*
X172700000Y-120127155D01*
X172700000Y-120925000D01*
X173766988Y-120925000D01*
X173734075Y-120982007D01*
X173700000Y-121109174D01*
X173700000Y-121240826D01*
X173734075Y-121367993D01*
X173766988Y-121425000D01*
X172700000Y-121425000D01*
X172700000Y-122222844D01*
X172706401Y-122282372D01*
X172706403Y-122282379D01*
X172756645Y-122417086D01*
X172756649Y-122417093D01*
X172842809Y-122532187D01*
X172842812Y-122532190D01*
X172957906Y-122618350D01*
X172957913Y-122618354D01*
X173092620Y-122668596D01*
X173092627Y-122668598D01*
X173152155Y-122674999D01*
X173152172Y-122675000D01*
X175250000Y-122675000D01*
X175250000Y-121675000D01*
X175750000Y-121675000D01*
X175750000Y-122675000D01*
X177847828Y-122675000D01*
X177847844Y-122674999D01*
X177907372Y-122668598D01*
X177907379Y-122668596D01*
X178042086Y-122618354D01*
X178042093Y-122618350D01*
X178157187Y-122532190D01*
X178157190Y-122532187D01*
X178243350Y-122417093D01*
X178243354Y-122417086D01*
X178293596Y-122282379D01*
X178293598Y-122282372D01*
X178299999Y-122222844D01*
X178300000Y-122222827D01*
X178300000Y-121425000D01*
X177233012Y-121425000D01*
X177265925Y-121367993D01*
X177300000Y-121240826D01*
X177300000Y-121109174D01*
X177265925Y-120982007D01*
X177233012Y-120925000D01*
X178300000Y-120925000D01*
X178300000Y-120127172D01*
X178299999Y-120127155D01*
X178293598Y-120067627D01*
X178293596Y-120067620D01*
X178243354Y-119932913D01*
X178243350Y-119932906D01*
X178157190Y-119817812D01*
X178157187Y-119817809D01*
X178042093Y-119731649D01*
X178042086Y-119731645D01*
X177907379Y-119681403D01*
X177907372Y-119681401D01*
X177847844Y-119675000D01*
X175750000Y-119675000D01*
X175750000Y-120675000D01*
X175250000Y-120675000D01*
X175250000Y-119675000D01*
X173152155Y-119675000D01*
X173092627Y-119681401D01*
X173092620Y-119681403D01*
X172957913Y-119731645D01*
X172957906Y-119731649D01*
X172842812Y-119817809D01*
X172842809Y-119817812D01*
X172756649Y-119932906D01*
X172756645Y-119932913D01*
X172706403Y-120067620D01*
X172706401Y-120067627D01*
X172700000Y-120127155D01*
X172000809Y-120127155D01*
X172090568Y-119950992D01*
X172163553Y-119726368D01*
X172194114Y-119533414D01*
X172200500Y-119493097D01*
X172200500Y-117056902D01*
X172163553Y-116823631D01*
X172127654Y-116713146D01*
X172090568Y-116599008D01*
X172090566Y-116599005D01*
X172090566Y-116599003D01*
X172027382Y-116474999D01*
X171983343Y-116388567D01*
X171844517Y-116197490D01*
X171677510Y-116030483D01*
X171486433Y-115891657D01*
X171457918Y-115877128D01*
X171275996Y-115784433D01*
X171051368Y-115711446D01*
X170818097Y-115674500D01*
X170818092Y-115674500D01*
X170581908Y-115674500D01*
X170581903Y-115674500D01*
X170348631Y-115711446D01*
X170124003Y-115784433D01*
X169913566Y-115891657D01*
X169859507Y-115930934D01*
X169722490Y-116030483D01*
X169722488Y-116030485D01*
X169722487Y-116030485D01*
X169555485Y-116197487D01*
X169555485Y-116197488D01*
X169555483Y-116197490D01*
X169514865Y-116253396D01*
X169416657Y-116388566D01*
X169309433Y-116599003D01*
X169236446Y-116823631D01*
X169199500Y-117056902D01*
X167500500Y-117056902D01*
X167500500Y-114756902D01*
X172899500Y-114756902D01*
X172899500Y-114993097D01*
X172936446Y-115226368D01*
X173009433Y-115450996D01*
X173077602Y-115584783D01*
X173116657Y-115661433D01*
X173255483Y-115852510D01*
X173422490Y-116019517D01*
X173613567Y-116158343D01*
X173712991Y-116209002D01*
X173824003Y-116265566D01*
X173824005Y-116265566D01*
X173824008Y-116265568D01*
X173944412Y-116304689D01*
X174048631Y-116338553D01*
X174281903Y-116375500D01*
X174281908Y-116375500D01*
X176718097Y-116375500D01*
X176951368Y-116338553D01*
X177175992Y-116265568D01*
X177386433Y-116158343D01*
X177577510Y-116019517D01*
X177744517Y-115852510D01*
X177883343Y-115661433D01*
X177990568Y-115450992D01*
X178063553Y-115226368D01*
X178067735Y-115199966D01*
X178100500Y-114993097D01*
X178100500Y-114756902D01*
X178063553Y-114523631D01*
X177990566Y-114299003D01*
X177883342Y-114088566D01*
X177848991Y-114041286D01*
X177744517Y-113897490D01*
X177675740Y-113828713D01*
X184399500Y-113828713D01*
X184399500Y-114041287D01*
X184432754Y-114251243D01*
X184448272Y-114299003D01*
X184498444Y-114453414D01*
X184594951Y-114642820D01*
X184719890Y-114814786D01*
X184870213Y-114965109D01*
X185042179Y-115090048D01*
X185042181Y-115090049D01*
X185042184Y-115090051D01*
X185051493Y-115094794D01*
X185102290Y-115142766D01*
X185119087Y-115210587D01*
X185096552Y-115276722D01*
X185051505Y-115315760D01*
X185042446Y-115320376D01*
X185042440Y-115320380D01*
X184988282Y-115359727D01*
X184988282Y-115359728D01*
X185620591Y-115992037D01*
X185557007Y-116009075D01*
X185442993Y-116074901D01*
X185349901Y-116167993D01*
X185284075Y-116282007D01*
X185267037Y-116345591D01*
X184634728Y-115713282D01*
X184634727Y-115713282D01*
X184595380Y-115767439D01*
X184498904Y-115956782D01*
X184433242Y-116158869D01*
X184433242Y-116158872D01*
X184400000Y-116368753D01*
X184400000Y-116581246D01*
X184433242Y-116791127D01*
X184433242Y-116791130D01*
X184498904Y-116993217D01*
X184595375Y-117182550D01*
X184634728Y-117236716D01*
X185267037Y-116604408D01*
X185284075Y-116667993D01*
X185349901Y-116782007D01*
X185442993Y-116875099D01*
X185557007Y-116940925D01*
X185620590Y-116957962D01*
X184988282Y-117590269D01*
X184988282Y-117590270D01*
X185042452Y-117629626D01*
X185042451Y-117629626D01*
X185051495Y-117634234D01*
X185102292Y-117682208D01*
X185119087Y-117750029D01*
X185096550Y-117816164D01*
X185051499Y-117855202D01*
X185042182Y-117859949D01*
X184870213Y-117984890D01*
X184719890Y-118135213D01*
X184594951Y-118307179D01*
X184498444Y-118496585D01*
X184432753Y-118698760D01*
X184399500Y-118908713D01*
X184399500Y-119121287D01*
X184432754Y-119331243D01*
X184485342Y-119493092D01*
X184498444Y-119533414D01*
X184594951Y-119722820D01*
X184719890Y-119894786D01*
X184870213Y-120045109D01*
X185042182Y-120170050D01*
X185050946Y-120174516D01*
X185101742Y-120222491D01*
X185118536Y-120290312D01*
X185095998Y-120356447D01*
X185050946Y-120395484D01*
X185042182Y-120399949D01*
X184870213Y-120524890D01*
X184719890Y-120675213D01*
X184594951Y-120847179D01*
X184498444Y-121036585D01*
X184432753Y-121238760D01*
X184399500Y-121448713D01*
X184399500Y-121661286D01*
X184432753Y-121871239D01*
X184498444Y-122073414D01*
X184594951Y-122262820D01*
X184719890Y-122434786D01*
X184870213Y-122585109D01*
X185042182Y-122710050D01*
X185050946Y-122714516D01*
X185101742Y-122762491D01*
X185118536Y-122830312D01*
X185095998Y-122896447D01*
X185050946Y-122935484D01*
X185042182Y-122939949D01*
X184870213Y-123064890D01*
X184719890Y-123215213D01*
X184594951Y-123387179D01*
X184498444Y-123576585D01*
X184432753Y-123778760D01*
X184399500Y-123988713D01*
X184399500Y-124201286D01*
X184432753Y-124411239D01*
X184498444Y-124613414D01*
X184594951Y-124802820D01*
X184719890Y-124974786D01*
X184870213Y-125125109D01*
X185042182Y-125250050D01*
X185050946Y-125254516D01*
X185101742Y-125302491D01*
X185118536Y-125370312D01*
X185095998Y-125436447D01*
X185050946Y-125475484D01*
X185042182Y-125479949D01*
X184870213Y-125604890D01*
X184719890Y-125755213D01*
X184594951Y-125927179D01*
X184498444Y-126116585D01*
X184432753Y-126318760D01*
X184399500Y-126528713D01*
X184399500Y-126741286D01*
X184432753Y-126951239D01*
X184498444Y-127153414D01*
X184594951Y-127342820D01*
X184719890Y-127514786D01*
X184870213Y-127665109D01*
X185042182Y-127790050D01*
X185050946Y-127794516D01*
X185101742Y-127842491D01*
X185118536Y-127910312D01*
X185095998Y-127976447D01*
X185050946Y-128015484D01*
X185042182Y-128019949D01*
X184870213Y-128144890D01*
X184719890Y-128295213D01*
X184594951Y-128467179D01*
X184498444Y-128656585D01*
X184432753Y-128858760D01*
X184399500Y-129068713D01*
X184399500Y-129281286D01*
X184427805Y-129460000D01*
X184432754Y-129491243D01*
X184482346Y-129643872D01*
X184498444Y-129693414D01*
X184594951Y-129882820D01*
X184719890Y-130054786D01*
X184870213Y-130205109D01*
X185042182Y-130330050D01*
X185050946Y-130334516D01*
X185101742Y-130382491D01*
X185118536Y-130450312D01*
X185095998Y-130516447D01*
X185050946Y-130555484D01*
X185042182Y-130559949D01*
X184870213Y-130684890D01*
X184719890Y-130835213D01*
X184594951Y-131007179D01*
X184498444Y-131196585D01*
X184432753Y-131398760D01*
X184399500Y-131608713D01*
X184399500Y-131821286D01*
X184432753Y-132031239D01*
X184498444Y-132233414D01*
X184594951Y-132422820D01*
X184719890Y-132594786D01*
X184870213Y-132745109D01*
X185042182Y-132870050D01*
X185050946Y-132874516D01*
X185101742Y-132922491D01*
X185118536Y-132990312D01*
X185095998Y-133056447D01*
X185050946Y-133095484D01*
X185042182Y-133099949D01*
X184870213Y-133224890D01*
X184719890Y-133375213D01*
X184594951Y-133547179D01*
X184498444Y-133736585D01*
X184432753Y-133938760D01*
X184416189Y-134043344D01*
X184399500Y-134148713D01*
X184399500Y-134361287D01*
X184404372Y-134392045D01*
X184432753Y-134571239D01*
X184432753Y-134571241D01*
X184432754Y-134571243D01*
X184497249Y-134769738D01*
X184498444Y-134773414D01*
X184594951Y-134962820D01*
X184719890Y-135134786D01*
X184870213Y-135285109D01*
X185042182Y-135410050D01*
X185050946Y-135414516D01*
X185101742Y-135462491D01*
X185118536Y-135530312D01*
X185095998Y-135596447D01*
X185050946Y-135635484D01*
X185042182Y-135639949D01*
X184870213Y-135764890D01*
X184719890Y-135915213D01*
X184594951Y-136087179D01*
X184498444Y-136276585D01*
X184432753Y-136478760D01*
X184399500Y-136688713D01*
X184399500Y-136901286D01*
X184428551Y-137084711D01*
X184432754Y-137111243D01*
X184488368Y-137282405D01*
X184498444Y-137313414D01*
X184594951Y-137502820D01*
X184719890Y-137674786D01*
X184870213Y-137825109D01*
X185042182Y-137950050D01*
X185050946Y-137954516D01*
X185101742Y-138002491D01*
X185118536Y-138070312D01*
X185095998Y-138136447D01*
X185050946Y-138175484D01*
X185042182Y-138179949D01*
X184870213Y-138304890D01*
X184719890Y-138455213D01*
X184594951Y-138627179D01*
X184498444Y-138816585D01*
X184432753Y-139018760D01*
X184399500Y-139228713D01*
X184399500Y-139441286D01*
X184432753Y-139651239D01*
X184498444Y-139853414D01*
X184594951Y-140042820D01*
X184719890Y-140214786D01*
X184870213Y-140365109D01*
X185042182Y-140490050D01*
X185050946Y-140494516D01*
X185101742Y-140542491D01*
X185118536Y-140610312D01*
X185095998Y-140676447D01*
X185050946Y-140715484D01*
X185042182Y-140719949D01*
X184870213Y-140844890D01*
X184719890Y-140995213D01*
X184594951Y-141167179D01*
X184498444Y-141356585D01*
X184432753Y-141558760D01*
X184421908Y-141627233D01*
X184399500Y-141768713D01*
X184399500Y-141981287D01*
X184432754Y-142191243D01*
X184449479Y-142242718D01*
X184498444Y-142393414D01*
X184594951Y-142582820D01*
X184719890Y-142754786D01*
X184870213Y-142905109D01*
X185042182Y-143030050D01*
X185050946Y-143034516D01*
X185101742Y-143082491D01*
X185118536Y-143150312D01*
X185095998Y-143216447D01*
X185050946Y-143255484D01*
X185042182Y-143259949D01*
X184870213Y-143384890D01*
X184719890Y-143535213D01*
X184594951Y-143707179D01*
X184498444Y-143896585D01*
X184432753Y-144098760D01*
X184399500Y-144308713D01*
X184399500Y-144521287D01*
X184407770Y-144573500D01*
X184429142Y-144708443D01*
X184432754Y-144731243D01*
X184456703Y-144804951D01*
X184498444Y-144933414D01*
X184594951Y-145122820D01*
X184719890Y-145294786D01*
X184870213Y-145445109D01*
X185042182Y-145570050D01*
X185050946Y-145574516D01*
X185101742Y-145622491D01*
X185118536Y-145690312D01*
X185095998Y-145756447D01*
X185050946Y-145795484D01*
X185042182Y-145799949D01*
X184870213Y-145924890D01*
X184719890Y-146075213D01*
X184594951Y-146247179D01*
X184498444Y-146436585D01*
X184498443Y-146436587D01*
X184498443Y-146436588D01*
X184484853Y-146478414D01*
X184432753Y-146638760D01*
X184415923Y-146745020D01*
X184399500Y-146848713D01*
X184399500Y-147061287D01*
X184404730Y-147094310D01*
X184422452Y-147206203D01*
X184432754Y-147271243D01*
X184477082Y-147407671D01*
X184498444Y-147473414D01*
X184594951Y-147662820D01*
X184719890Y-147834786D01*
X184833430Y-147948326D01*
X184866915Y-148009649D01*
X184861931Y-148079341D01*
X184820059Y-148135274D01*
X184789083Y-148152189D01*
X184657669Y-148201203D01*
X184657664Y-148201206D01*
X184542455Y-148287452D01*
X184542452Y-148287455D01*
X184456206Y-148402664D01*
X184456202Y-148402671D01*
X184405908Y-148537517D01*
X184400750Y-148585500D01*
X184399501Y-148597123D01*
X184399500Y-148597135D01*
X184399500Y-150392870D01*
X184399501Y-150392876D01*
X184405908Y-150452483D01*
X184456202Y-150587328D01*
X184456206Y-150587335D01*
X184542452Y-150702544D01*
X184542455Y-150702547D01*
X184657664Y-150788793D01*
X184657671Y-150788797D01*
X184792517Y-150839091D01*
X184792516Y-150839091D01*
X184799444Y-150839835D01*
X184852127Y-150845500D01*
X186647872Y-150845499D01*
X186707483Y-150839091D01*
X186842331Y-150788796D01*
X186957546Y-150702546D01*
X187043796Y-150587331D01*
X187094091Y-150452483D01*
X187100500Y-150392873D01*
X187100499Y-148597128D01*
X187094091Y-148537517D01*
X187091881Y-148531593D01*
X187043797Y-148402671D01*
X187043793Y-148402664D01*
X186957547Y-148287455D01*
X186957544Y-148287452D01*
X186842335Y-148201206D01*
X186842328Y-148201202D01*
X186710917Y-148152189D01*
X186654983Y-148110318D01*
X186630566Y-148044853D01*
X186645418Y-147976580D01*
X186666563Y-147948332D01*
X186780104Y-147834792D01*
X186905051Y-147662816D01*
X187001557Y-147473412D01*
X187067246Y-147271243D01*
X187100500Y-147061287D01*
X187100500Y-146848713D01*
X187067246Y-146638757D01*
X187001557Y-146436588D01*
X186905051Y-146247184D01*
X186905049Y-146247181D01*
X186905048Y-146247179D01*
X186780109Y-146075213D01*
X186629786Y-145924890D01*
X186457820Y-145799951D01*
X186457115Y-145799591D01*
X186449054Y-145795485D01*
X186398259Y-145747512D01*
X186381463Y-145679692D01*
X186403999Y-145613556D01*
X186449054Y-145574515D01*
X186457816Y-145570051D01*
X186479789Y-145554086D01*
X186629786Y-145445109D01*
X186629788Y-145445106D01*
X186629792Y-145445104D01*
X186780104Y-145294792D01*
X186780106Y-145294788D01*
X186780109Y-145294786D01*
X186905048Y-145122820D01*
X186905047Y-145122820D01*
X186905051Y-145122816D01*
X187001557Y-144933412D01*
X187067246Y-144731243D01*
X187100500Y-144521287D01*
X187100500Y-144308713D01*
X187067246Y-144098757D01*
X187001557Y-143896588D01*
X186905051Y-143707184D01*
X186905049Y-143707181D01*
X186905048Y-143707179D01*
X186780109Y-143535213D01*
X186629786Y-143384890D01*
X186457820Y-143259951D01*
X186457115Y-143259591D01*
X186449054Y-143255485D01*
X186398259Y-143207512D01*
X186381463Y-143139692D01*
X186403999Y-143073556D01*
X186449054Y-143034515D01*
X186457816Y-143030051D01*
X186479789Y-143014086D01*
X186629786Y-142905109D01*
X186629788Y-142905106D01*
X186629792Y-142905104D01*
X186780104Y-142754792D01*
X186780106Y-142754788D01*
X186780109Y-142754786D01*
X186905048Y-142582820D01*
X186905047Y-142582820D01*
X186905051Y-142582816D01*
X187001557Y-142393412D01*
X187067246Y-142191243D01*
X187100500Y-141981287D01*
X187100500Y-141768713D01*
X187067246Y-141558757D01*
X187001557Y-141356588D01*
X186905051Y-141167184D01*
X186905049Y-141167181D01*
X186905048Y-141167179D01*
X186780109Y-140995213D01*
X186629786Y-140844890D01*
X186457820Y-140719951D01*
X186457115Y-140719591D01*
X186449054Y-140715485D01*
X186398259Y-140667512D01*
X186381463Y-140599692D01*
X186403999Y-140533556D01*
X186449054Y-140494515D01*
X186457816Y-140490051D01*
X186479789Y-140474086D01*
X186629786Y-140365109D01*
X186629788Y-140365106D01*
X186629792Y-140365104D01*
X186780104Y-140214792D01*
X186780106Y-140214788D01*
X186780109Y-140214786D01*
X186905048Y-140042820D01*
X186905047Y-140042820D01*
X186905051Y-140042816D01*
X187001557Y-139853412D01*
X187067246Y-139651243D01*
X187100500Y-139441287D01*
X187100500Y-139228713D01*
X187067246Y-139018757D01*
X187001557Y-138816588D01*
X186905051Y-138627184D01*
X186905049Y-138627181D01*
X186905048Y-138627179D01*
X186780109Y-138455213D01*
X186629786Y-138304890D01*
X186457820Y-138179951D01*
X186457115Y-138179591D01*
X186449054Y-138175485D01*
X186398259Y-138127512D01*
X186381463Y-138059692D01*
X186403999Y-137993556D01*
X186449054Y-137954515D01*
X186457816Y-137950051D01*
X186527339Y-137899540D01*
X186629786Y-137825109D01*
X186629788Y-137825106D01*
X186629792Y-137825104D01*
X186780104Y-137674792D01*
X186780106Y-137674788D01*
X186780109Y-137674786D01*
X186905048Y-137502820D01*
X186905047Y-137502820D01*
X186905051Y-137502816D01*
X187001557Y-137313412D01*
X187067246Y-137111243D01*
X187100500Y-136901287D01*
X187100500Y-136688713D01*
X187067246Y-136478757D01*
X187001557Y-136276588D01*
X186905051Y-136087184D01*
X186905049Y-136087181D01*
X186905048Y-136087179D01*
X186780109Y-135915213D01*
X186629786Y-135764890D01*
X186457820Y-135639951D01*
X186457115Y-135639591D01*
X186449054Y-135635485D01*
X186398259Y-135587512D01*
X186381463Y-135519692D01*
X186403999Y-135453556D01*
X186449054Y-135414515D01*
X186457816Y-135410051D01*
X186554724Y-135339644D01*
X186629786Y-135285109D01*
X186629788Y-135285106D01*
X186629792Y-135285104D01*
X186780104Y-135134792D01*
X186780106Y-135134788D01*
X186780109Y-135134786D01*
X186905048Y-134962820D01*
X186905047Y-134962820D01*
X186905051Y-134962816D01*
X187001557Y-134773412D01*
X187067246Y-134571243D01*
X187100500Y-134361287D01*
X187100500Y-134148713D01*
X187067246Y-133938757D01*
X187001557Y-133736588D01*
X186905051Y-133547184D01*
X186905049Y-133547181D01*
X186905048Y-133547179D01*
X186780109Y-133375213D01*
X186629786Y-133224890D01*
X186457820Y-133099951D01*
X186457115Y-133099591D01*
X186449054Y-133095485D01*
X186398259Y-133047512D01*
X186381463Y-132979692D01*
X186403999Y-132913556D01*
X186449054Y-132874515D01*
X186457816Y-132870051D01*
X186509336Y-132832620D01*
X186629786Y-132745109D01*
X186629788Y-132745106D01*
X186629792Y-132745104D01*
X186780104Y-132594792D01*
X186780106Y-132594788D01*
X186780109Y-132594786D01*
X186905048Y-132422820D01*
X186905047Y-132422820D01*
X186905051Y-132422816D01*
X187001557Y-132233412D01*
X187067246Y-132031243D01*
X187100500Y-131821287D01*
X187100500Y-131608713D01*
X187067246Y-131398757D01*
X187001557Y-131196588D01*
X186905051Y-131007184D01*
X186905049Y-131007181D01*
X186905048Y-131007179D01*
X186780109Y-130835213D01*
X186629786Y-130684890D01*
X186457820Y-130559951D01*
X186457115Y-130559591D01*
X186449054Y-130555485D01*
X186398259Y-130507512D01*
X186381463Y-130439692D01*
X186403999Y-130373556D01*
X186449054Y-130334515D01*
X186457816Y-130330051D01*
X186516825Y-130287179D01*
X186629786Y-130205109D01*
X186629788Y-130205106D01*
X186629792Y-130205104D01*
X186780104Y-130054792D01*
X186780106Y-130054788D01*
X186780109Y-130054786D01*
X186905048Y-129882820D01*
X186905047Y-129882820D01*
X186905051Y-129882816D01*
X187001557Y-129693412D01*
X187067246Y-129491243D01*
X187100500Y-129281287D01*
X187100500Y-129068713D01*
X187067246Y-128858757D01*
X187001557Y-128656588D01*
X186905051Y-128467184D01*
X186905049Y-128467181D01*
X186905048Y-128467179D01*
X186780109Y-128295213D01*
X186629786Y-128144890D01*
X186457820Y-128019951D01*
X186457115Y-128019591D01*
X186449054Y-128015485D01*
X186398259Y-127967512D01*
X186381463Y-127899692D01*
X186403999Y-127833556D01*
X186449054Y-127794515D01*
X186457816Y-127790051D01*
X186479789Y-127774086D01*
X186629786Y-127665109D01*
X186629788Y-127665106D01*
X186629792Y-127665104D01*
X186780104Y-127514792D01*
X186780106Y-127514788D01*
X186780109Y-127514786D01*
X186905048Y-127342820D01*
X186905047Y-127342820D01*
X186905051Y-127342816D01*
X187001557Y-127153412D01*
X187067246Y-126951243D01*
X187100500Y-126741287D01*
X187100500Y-126528713D01*
X187067246Y-126318757D01*
X187001557Y-126116588D01*
X186905051Y-125927184D01*
X186905049Y-125927181D01*
X186905048Y-125927179D01*
X186780109Y-125755213D01*
X186629786Y-125604890D01*
X186457820Y-125479951D01*
X186457115Y-125479591D01*
X186449054Y-125475485D01*
X186398259Y-125427512D01*
X186381463Y-125359692D01*
X186403999Y-125293556D01*
X186449054Y-125254515D01*
X186457816Y-125250051D01*
X186479789Y-125234086D01*
X186629786Y-125125109D01*
X186629788Y-125125106D01*
X186629792Y-125125104D01*
X186780104Y-124974792D01*
X186780106Y-124974788D01*
X186780109Y-124974786D01*
X186905048Y-124802820D01*
X186905047Y-124802820D01*
X186905051Y-124802816D01*
X187001557Y-124613412D01*
X187067246Y-124411243D01*
X187100500Y-124201287D01*
X187100500Y-123988713D01*
X187067246Y-123778757D01*
X187001557Y-123576588D01*
X186905051Y-123387184D01*
X186905049Y-123387181D01*
X186905048Y-123387179D01*
X186780109Y-123215213D01*
X186629786Y-123064890D01*
X186457820Y-122939951D01*
X186457115Y-122939591D01*
X186449054Y-122935485D01*
X186398259Y-122887512D01*
X186381463Y-122819692D01*
X186403999Y-122753556D01*
X186449054Y-122714515D01*
X186457816Y-122710051D01*
X186514872Y-122668598D01*
X186629786Y-122585109D01*
X186629788Y-122585106D01*
X186629792Y-122585104D01*
X186780104Y-122434792D01*
X186780106Y-122434788D01*
X186780109Y-122434786D01*
X186905048Y-122262820D01*
X186905047Y-122262820D01*
X186905051Y-122262816D01*
X187001557Y-122073412D01*
X187067246Y-121871243D01*
X187100500Y-121661287D01*
X187100500Y-121448713D01*
X187067246Y-121238757D01*
X187001557Y-121036588D01*
X186905051Y-120847184D01*
X186905049Y-120847181D01*
X186905048Y-120847179D01*
X186780109Y-120675213D01*
X186629786Y-120524890D01*
X186457820Y-120399951D01*
X186457115Y-120399591D01*
X186449054Y-120395485D01*
X186398259Y-120347512D01*
X186381463Y-120279692D01*
X186403999Y-120213556D01*
X186449054Y-120174515D01*
X186457816Y-120170051D01*
X186479789Y-120154086D01*
X186629786Y-120045109D01*
X186629788Y-120045106D01*
X186629792Y-120045104D01*
X186780104Y-119894792D01*
X186780106Y-119894788D01*
X186780109Y-119894786D01*
X186905048Y-119722820D01*
X186905047Y-119722820D01*
X186905051Y-119722816D01*
X187001557Y-119533412D01*
X187067246Y-119331243D01*
X187100500Y-119121287D01*
X187100500Y-118908713D01*
X187067246Y-118698757D01*
X187001557Y-118496588D01*
X186905051Y-118307184D01*
X186905049Y-118307181D01*
X186905048Y-118307179D01*
X186780109Y-118135213D01*
X186629786Y-117984890D01*
X186457817Y-117859949D01*
X186448504Y-117855204D01*
X186397707Y-117807230D01*
X186380912Y-117739409D01*
X186403449Y-117673274D01*
X186448507Y-117634232D01*
X186457555Y-117629622D01*
X186511716Y-117590270D01*
X186511717Y-117590270D01*
X185879408Y-116957962D01*
X185942993Y-116940925D01*
X186057007Y-116875099D01*
X186150099Y-116782007D01*
X186215925Y-116667993D01*
X186232962Y-116604408D01*
X186865270Y-117236717D01*
X186865270Y-117236716D01*
X186904622Y-117182554D01*
X187001095Y-116993217D01*
X187066757Y-116791130D01*
X187066757Y-116791127D01*
X187100000Y-116581246D01*
X187100000Y-116368753D01*
X187066757Y-116158872D01*
X187066757Y-116158869D01*
X187001095Y-115956782D01*
X186904624Y-115767449D01*
X186865270Y-115713282D01*
X186865269Y-115713282D01*
X186232962Y-116345590D01*
X186215925Y-116282007D01*
X186150099Y-116167993D01*
X186057007Y-116074901D01*
X185942993Y-116009075D01*
X185879409Y-115992037D01*
X186511716Y-115359728D01*
X186457547Y-115320373D01*
X186457547Y-115320372D01*
X186448500Y-115315763D01*
X186397706Y-115267788D01*
X186380912Y-115199966D01*
X186403451Y-115133832D01*
X186448508Y-115094793D01*
X186457816Y-115090051D01*
X186591270Y-114993092D01*
X186629786Y-114965109D01*
X186629788Y-114965106D01*
X186629792Y-114965104D01*
X186780104Y-114814792D01*
X186780106Y-114814788D01*
X186780109Y-114814786D01*
X186905048Y-114642820D01*
X186905047Y-114642820D01*
X186905051Y-114642816D01*
X187001557Y-114453412D01*
X187067246Y-114251243D01*
X187100500Y-114041287D01*
X187100500Y-113828713D01*
X187067246Y-113618757D01*
X187001557Y-113416588D01*
X186905051Y-113227184D01*
X186905049Y-113227181D01*
X186905048Y-113227179D01*
X186780109Y-113055213D01*
X186629786Y-112904890D01*
X186457820Y-112779951D01*
X186268414Y-112683444D01*
X186268413Y-112683443D01*
X186268412Y-112683443D01*
X186066243Y-112617754D01*
X186066241Y-112617753D01*
X186066240Y-112617753D01*
X185904957Y-112592208D01*
X185856287Y-112584500D01*
X185643713Y-112584500D01*
X185595042Y-112592208D01*
X185433760Y-112617753D01*
X185231585Y-112683444D01*
X185042179Y-112779951D01*
X184870213Y-112904890D01*
X184719890Y-113055213D01*
X184594951Y-113227179D01*
X184498444Y-113416585D01*
X184432753Y-113618760D01*
X184415058Y-113730483D01*
X184399500Y-113828713D01*
X177675740Y-113828713D01*
X177577510Y-113730483D01*
X177386433Y-113591657D01*
X177175996Y-113484433D01*
X176951368Y-113411446D01*
X176718097Y-113374500D01*
X176718092Y-113374500D01*
X174281908Y-113374500D01*
X174281903Y-113374500D01*
X174048631Y-113411446D01*
X173824003Y-113484433D01*
X173613566Y-113591657D01*
X173504550Y-113670862D01*
X173422490Y-113730483D01*
X173422488Y-113730485D01*
X173422487Y-113730485D01*
X173255485Y-113897487D01*
X173255485Y-113897488D01*
X173255483Y-113897490D01*
X173195862Y-113979550D01*
X173116657Y-114088566D01*
X173009433Y-114299003D01*
X172936446Y-114523631D01*
X172899500Y-114756902D01*
X167500500Y-114756902D01*
X167500500Y-103181839D01*
X167500530Y-103179115D01*
X167502957Y-103068675D01*
X167503286Y-103053711D01*
X168649500Y-103053711D01*
X168649500Y-103296288D01*
X168681161Y-103536785D01*
X168743947Y-103771104D01*
X168836773Y-103995205D01*
X168836776Y-103995212D01*
X168958064Y-104205289D01*
X168958066Y-104205292D01*
X168958067Y-104205293D01*
X169105733Y-104397736D01*
X169105739Y-104397743D01*
X169277256Y-104569260D01*
X169277262Y-104569265D01*
X169469711Y-104716936D01*
X169679788Y-104838224D01*
X169903900Y-104931054D01*
X170138211Y-104993838D01*
X170318586Y-105017584D01*
X170378711Y-105025500D01*
X170378712Y-105025500D01*
X170621289Y-105025500D01*
X170669388Y-105019167D01*
X170861789Y-104993838D01*
X171096100Y-104931054D01*
X171320212Y-104838224D01*
X171530289Y-104716936D01*
X171722738Y-104569265D01*
X171894265Y-104397738D01*
X172041936Y-104205289D01*
X172163224Y-103995212D01*
X172256054Y-103771100D01*
X172318838Y-103536789D01*
X172350500Y-103296288D01*
X172350500Y-103053712D01*
X172345832Y-103018258D01*
X172334009Y-102928447D01*
X172318838Y-102813211D01*
X172256054Y-102578900D01*
X172255245Y-102576948D01*
X172234529Y-102526935D01*
X172163224Y-102354788D01*
X172041936Y-102144711D01*
X171894265Y-101952262D01*
X171894260Y-101952256D01*
X171722743Y-101780739D01*
X171722736Y-101780733D01*
X171530293Y-101633067D01*
X171530292Y-101633066D01*
X171530289Y-101633064D01*
X171320212Y-101511776D01*
X171285986Y-101497599D01*
X171096104Y-101418947D01*
X170946674Y-101378907D01*
X170861789Y-101356162D01*
X170861788Y-101356161D01*
X170861785Y-101356161D01*
X170621289Y-101324500D01*
X170621288Y-101324500D01*
X170378712Y-101324500D01*
X170378711Y-101324500D01*
X170138214Y-101356161D01*
X169903895Y-101418947D01*
X169679794Y-101511773D01*
X169679785Y-101511777D01*
X169469706Y-101633067D01*
X169277263Y-101780733D01*
X169277256Y-101780739D01*
X169105739Y-101952256D01*
X169105733Y-101952263D01*
X168958067Y-102144706D01*
X168836777Y-102354785D01*
X168836773Y-102354794D01*
X168743947Y-102578895D01*
X168681161Y-102813214D01*
X168649500Y-103053711D01*
X167503286Y-103053711D01*
X167504993Y-102976023D01*
X167505242Y-102970454D01*
X167517783Y-102784923D01*
X167518313Y-102779130D01*
X167538541Y-102603779D01*
X167539378Y-102597815D01*
X167566697Y-102432691D01*
X167567881Y-102426516D01*
X167602019Y-102270016D01*
X167603549Y-102263790D01*
X167641531Y-102124998D01*
X167644564Y-102115450D01*
X167650968Y-102097795D01*
X167745724Y-101836573D01*
X167751178Y-101823817D01*
X167871734Y-101580526D01*
X167878768Y-101568168D01*
X168021250Y-101348278D01*
X168029703Y-101336754D01*
X168194987Y-101136739D01*
X168204612Y-101126362D01*
X168394594Y-100943697D01*
X168405034Y-100934722D01*
X168622018Y-100768247D01*
X168632907Y-100760782D01*
X168878936Y-100610745D01*
X168889959Y-100604767D01*
X169165924Y-100472728D01*
X169176804Y-100468146D01*
X169480958Y-100356837D01*
X169491511Y-100353503D01*
X169816737Y-100266597D01*
X169826969Y-100264322D01*
X170153963Y-100206021D01*
X170163843Y-100204668D01*
X170441601Y-100177969D01*
X170449269Y-100177473D01*
X170502997Y-100175678D01*
X170506288Y-100175569D01*
X170510426Y-100175500D01*
X259743395Y-100175500D01*
X259746022Y-100175527D01*
G37*
%TD.AperFunction*%
%TD*%
M02*
