%TF.GenerationSoftware,KiCad,Pcbnew,9.0.7*%
%TF.CreationDate,2026-06-26T14:07:03-06:00*%
%TF.ProjectId,Proyecto,50726f79-6563-4746-9f2e-6b696361645f,rev?*%
%TF.SameCoordinates,Original*%
%TF.FileFunction,Profile,NP*%
%FSLAX46Y46*%
G04 Gerber Fmt 4.6, Leading zero omitted, Abs format (unit mm)*
G04 Created by KiCad (PCBNEW 9.0.7) date 2026-06-26 14:07:03*
%MOMM*%
%LPD*%
G01*
G04 APERTURE LIST*
%TA.AperFunction,Profile*%
%ADD10C,0.050000*%
%TD*%
%ADD11C,0.050000*%
G04 APERTURE END LIST*
D10*
X170500000Y-99675000D02*
X259750000Y-99675000D01*
X263250000Y-103175000D02*
X263250000Y-171425000D01*
D11*
X170500000Y-174925000D02*
X170489763Y-174924990D01*
X170479546Y-174924960D01*
X170469349Y-174924910D01*
X170459172Y-174924840D01*
X170449015Y-174924751D01*
X170438877Y-174924641D01*
X170428759Y-174924512D01*
X170418662Y-174924363D01*
X170408583Y-174924195D01*
X170398525Y-174924006D01*
X170388486Y-174923799D01*
X170378467Y-174923571D01*
X170368467Y-174923324D01*
X170358487Y-174923058D01*
X170348526Y-174922772D01*
X170338585Y-174922466D01*
X170328663Y-174922142D01*
X170318760Y-174921797D01*
X170308877Y-174921434D01*
X170299013Y-174921051D01*
X170289168Y-174920649D01*
X170279343Y-174920228D01*
X170269536Y-174919788D01*
X170259749Y-174919328D01*
X170249981Y-174918849D01*
X170240232Y-174918352D01*
X170230502Y-174917835D01*
X170220791Y-174917299D01*
X170211099Y-174916745D01*
X170201426Y-174916171D01*
X170191771Y-174915578D01*
X170182136Y-174914967D01*
X170172519Y-174914337D01*
X170162921Y-174913688D01*
X170153342Y-174913020D01*
X170143781Y-174912334D01*
X170134239Y-174911628D01*
X170124716Y-174910905D01*
X170115211Y-174910162D01*
X170105725Y-174909401D01*
X170096257Y-174908621D01*
X170086808Y-174907823D01*
X170077377Y-174907007D01*
X170067965Y-174906172D01*
X170058570Y-174905318D01*
X170049195Y-174904446D01*
X170039837Y-174903556D01*
X170030498Y-174902647D01*
X170021176Y-174901720D01*
X170011874Y-174900775D01*
X170002589Y-174899812D01*
X169993322Y-174898830D01*
X169984073Y-174897830D01*
X169974843Y-174896812D01*
X169965630Y-174895776D01*
X169956435Y-174894722D01*
X169947258Y-174893650D01*
X169938099Y-174892559D01*
X169928958Y-174891451D01*
X169919835Y-174890325D01*
X169910728Y-174889181D01*
X169901641Y-174888019D01*
X169892570Y-174886839D01*
X169883518Y-174885641D01*
X169874483Y-174884425D01*
X169865466Y-174883192D01*
X169856465Y-174881941D01*
X169847484Y-174880672D01*
X169838518Y-174879385D01*
X169829571Y-174878081D01*
X169820640Y-174876759D01*
X169811728Y-174875419D01*
X169802832Y-174874062D01*
X169793955Y-174872687D01*
X169785093Y-174871295D01*
X169776250Y-174869885D01*
X169767423Y-174868458D01*
X169758615Y-174867013D01*
X169749822Y-174865551D01*
X169741047Y-174864071D01*
X169732289Y-174862574D01*
X169723548Y-174861060D01*
X169714823Y-174859528D01*
X169706117Y-174857979D01*
X169697426Y-174856413D01*
X169688754Y-174854830D01*
X169680096Y-174853229D01*
X169671457Y-174851611D01*
X169662834Y-174849976D01*
X169654228Y-174848323D01*
X169645638Y-174846654D01*
X169637066Y-174844967D01*
X169628509Y-174843264D01*
X169619970Y-174841543D01*
X169611446Y-174839805D01*
X169602940Y-174838050D01*
X169594449Y-174836279D01*
X169585977Y-174834490D01*
X169577518Y-174832684D01*
X169569079Y-174830862D01*
X169560653Y-174829022D01*
X169552246Y-174827166D01*
X169543853Y-174825292D01*
X169535479Y-174823402D01*
X169527118Y-174821495D01*
X169518776Y-174819572D01*
X169510448Y-174817631D01*
X169502139Y-174815674D01*
X169493843Y-174813700D01*
X169485565Y-174811709D01*
X169477301Y-174809702D01*
X169469056Y-174807678D01*
X169460824Y-174805637D01*
X169452610Y-174803580D01*
X169444410Y-174801506D01*
X169436228Y-174799416D01*
X169428060Y-174797308D01*
X169419910Y-174795185D01*
X169411773Y-174793044D01*
X169403654Y-174790888D01*
X169395549Y-174788714D01*
X169387462Y-174786525D01*
X169379387Y-174784319D01*
X169371331Y-174782096D01*
X169363288Y-174779857D01*
X169355264Y-174777602D01*
X169347252Y-174775330D01*
X169339258Y-174773042D01*
X169331277Y-174770737D01*
X169323314Y-174768417D01*
X169315363Y-174766079D01*
X169307431Y-174763726D01*
X169299512Y-174761356D01*
X169291610Y-174758970D01*
X169283721Y-174756567D01*
X169275850Y-174754149D01*
X169267991Y-174751714D01*
X169260151Y-174749264D01*
X169252322Y-174746796D01*
X169244512Y-174744313D01*
X169228934Y-174739298D01*
X169213415Y-174734218D01*
X169197957Y-174729074D01*
X169182558Y-174723866D01*
X169167218Y-174718593D01*
X169151938Y-174713256D01*
X169136716Y-174707856D01*
X169121554Y-174702391D01*
X169106449Y-174696863D01*
X169091403Y-174691270D01*
X169076415Y-174685615D01*
X169061485Y-174679895D01*
X169046612Y-174674112D01*
X169031796Y-174668266D01*
X169017038Y-174662357D01*
X169002336Y-174656384D01*
X168987692Y-174650348D01*
X168973103Y-174644249D01*
X168958571Y-174638087D01*
X168944095Y-174631862D01*
X168929675Y-174625574D01*
X168915310Y-174619223D01*
X168901001Y-174612810D01*
X168886747Y-174606334D01*
X168872548Y-174599795D01*
X168858404Y-174593193D01*
X168844314Y-174586529D01*
X168830279Y-174579802D01*
X168816298Y-174573013D01*
X168802371Y-174566161D01*
X168788498Y-174559246D01*
X168774679Y-174552269D01*
X168760913Y-174545230D01*
X168747201Y-174538128D01*
X168733541Y-174530964D01*
X168719935Y-174523738D01*
X168706381Y-174516449D01*
X168692880Y-174509098D01*
X168679432Y-174501684D01*
X168666035Y-174494208D01*
X168652691Y-174486670D01*
X168639399Y-174479069D01*
X168626159Y-174471406D01*
X168612970Y-174463681D01*
X168599832Y-174455893D01*
X168586746Y-174448043D01*
X168573711Y-174440130D01*
X168560728Y-174432155D01*
X168547795Y-174424118D01*
X168534912Y-174416018D01*
X168522081Y-174407855D01*
X168509299Y-174399630D01*
X168496568Y-174391342D01*
X168483888Y-174382992D01*
X168471257Y-174374579D01*
X168458676Y-174366104D01*
X168446145Y-174357566D01*
X168433664Y-174348964D01*
X168421232Y-174340301D01*
X168408849Y-174331574D01*
X168396516Y-174322784D01*
X168384232Y-174313932D01*
X168371997Y-174305016D01*
X168359812Y-174296037D01*
X168347675Y-174286995D01*
X168335587Y-174277890D01*
X168323547Y-174268721D01*
X168311556Y-174259490D01*
X168299614Y-174250194D01*
X168287720Y-174240836D01*
X168275874Y-174231413D01*
X168264076Y-174221927D01*
X168252327Y-174212378D01*
X168240626Y-174202764D01*
X168228972Y-174193087D01*
X168217367Y-174183345D01*
X168205809Y-174173540D01*
X168194300Y-174163670D01*
X168182838Y-174153736D01*
X168171423Y-174143738D01*
X168160056Y-174133675D01*
X168148737Y-174123548D01*
X168137465Y-174113356D01*
X168126241Y-174103100D01*
X168115064Y-174092778D01*
X168103935Y-174082392D01*
X168092852Y-174071941D01*
X168081817Y-174061424D01*
X168070830Y-174050842D01*
X168059889Y-174040195D01*
X168048996Y-174029483D01*
X168038150Y-174018705D01*
X168027351Y-174007861D01*
X168016599Y-173996951D01*
X168005894Y-173985976D01*
X167995237Y-173974934D01*
X167984626Y-173963827D01*
X167974063Y-173952653D01*
X167963547Y-173941413D01*
X167953078Y-173930106D01*
X167942656Y-173918733D01*
X167932281Y-173907293D01*
X167921953Y-173895786D01*
X167911672Y-173884212D01*
X167901439Y-173872571D01*
X167891253Y-173860863D01*
X167881114Y-173849088D01*
X167871022Y-173837245D01*
X167860978Y-173825335D01*
X167850981Y-173813357D01*
X167841031Y-173801311D01*
X167831129Y-173789197D01*
X167821274Y-173777015D01*
X167811467Y-173764765D01*
X167801707Y-173752447D01*
X167791995Y-173740061D01*
X167782331Y-173727606D01*
X167772714Y-173715082D01*
X167763146Y-173702490D01*
X167753625Y-173689829D01*
X167744152Y-173677099D01*
X167734727Y-173664300D01*
X167725351Y-173651431D01*
X167716023Y-173638494D01*
X167706743Y-173625487D01*
X167697511Y-173612410D01*
X167688328Y-173599265D01*
X167679194Y-173586049D01*
X167670109Y-173572763D01*
X167661072Y-173559408D01*
X167652084Y-173545983D01*
X167643146Y-173532487D01*
X167634256Y-173518922D01*
X167625417Y-173505286D01*
X167616626Y-173491580D01*
X167607885Y-173477804D01*
X167599194Y-173463957D01*
X167590553Y-173450039D01*
X167581962Y-173436051D01*
X167573421Y-173421993D01*
X167564931Y-173407863D01*
X167556491Y-173393663D01*
X167548101Y-173379392D01*
X167539763Y-173365050D01*
X167531475Y-173350637D01*
X167523239Y-173336153D01*
X167515054Y-173321598D01*
X167506921Y-173306973D01*
X167498839Y-173292276D01*
X167490810Y-173277508D01*
X167482832Y-173262669D01*
X167474907Y-173247759D01*
X167467034Y-173232778D01*
X167459214Y-173217726D01*
X167451448Y-173202603D01*
X167443734Y-173187409D01*
X167436073Y-173172144D01*
X167428467Y-173156808D01*
X167420914Y-173141401D01*
X167413415Y-173125924D01*
X167405971Y-173110376D01*
X167398581Y-173094757D01*
X167391246Y-173079068D01*
X167383966Y-173063308D01*
X167376741Y-173047479D01*
X167369572Y-173031579D01*
X167362459Y-173015609D01*
X167355402Y-172999569D01*
X167348401Y-172983459D01*
X167341457Y-172967280D01*
X167334570Y-172951032D01*
X167327740Y-172934715D01*
X167320968Y-172918329D01*
X167314253Y-172901874D01*
X167307597Y-172885351D01*
X167300999Y-172868759D01*
X167294460Y-172852101D01*
X167287980Y-172835374D01*
X167281560Y-172818581D01*
X167275199Y-172801720D01*
X167268898Y-172784794D01*
X167262658Y-172767801D01*
X167256478Y-172750743D01*
X167250359Y-172733620D01*
X167244302Y-172716432D01*
X167238307Y-172699180D01*
X167232374Y-172681865D01*
X167226503Y-172664487D01*
X167220696Y-172647046D01*
X167214951Y-172629543D01*
X167209270Y-172611979D01*
X167203654Y-172594355D01*
X167198101Y-172576671D01*
X167192614Y-172558928D01*
X167187192Y-172541127D01*
X167181835Y-172523269D01*
X167176545Y-172505355D01*
X167171321Y-172487385D01*
X167166164Y-172469360D01*
X167161075Y-172451282D01*
X167156053Y-172433152D01*
X167151100Y-172414971D01*
X167146215Y-172396739D01*
X167141400Y-172378459D01*
X167136654Y-172360132D01*
X167131978Y-172341759D01*
X167127373Y-172323341D01*
X167122839Y-172304881D01*
X167118377Y-172286379D01*
X167113986Y-172267838D01*
X167109669Y-172249259D01*
X167105424Y-172230645D01*
X167101253Y-172211996D01*
X167097157Y-172193316D01*
X167093135Y-172174607D01*
X167089188Y-172155871D01*
X167085317Y-172137111D01*
X167081523Y-172118328D01*
X167077805Y-172099527D01*
X167074165Y-172080710D01*
X167070604Y-172061880D01*
X167067120Y-172043041D01*
X167063717Y-172024195D01*
X167060393Y-172005348D01*
X167057149Y-171986502D01*
X167053987Y-171967662D01*
X167050907Y-171948833D01*
X167047909Y-171930020D01*
X167044995Y-171911227D01*
X167042164Y-171892460D01*
X167039418Y-171873725D01*
X167036757Y-171855029D01*
X167034182Y-171836378D01*
X167031693Y-171817780D01*
X167029292Y-171799242D01*
X167026980Y-171780773D01*
X167024756Y-171762383D01*
X167022621Y-171744082D01*
X167020577Y-171725880D01*
X167018625Y-171707791D01*
X167016764Y-171689826D01*
X167014997Y-171672002D01*
X167013323Y-171654335D01*
X167011743Y-171636842D01*
X167010260Y-171619544D01*
X167008872Y-171602465D01*
X167007582Y-171585631D01*
X167006390Y-171569073D01*
X167005298Y-171552825D01*
X167004305Y-171536930D01*
X167003414Y-171521436D01*
X167002624Y-171506404D01*
X167001937Y-171491910D01*
X167001354Y-171478050D01*
X167000876Y-171464953D01*
X167000503Y-171452800D01*
X167000235Y-171441867D01*
X167000071Y-171432639D01*
X167000004Y-171426198D01*
X167000000Y-171425000D01*
X167000000Y-103175000D02*
X167000010Y-103164763D01*
X167000040Y-103154546D01*
X167000090Y-103144349D01*
X167000160Y-103134172D01*
X167000249Y-103124015D01*
X167000359Y-103113877D01*
X167000488Y-103103759D01*
X167000637Y-103093662D01*
X167000805Y-103083583D01*
X167000994Y-103073525D01*
X167001201Y-103063486D01*
X167001429Y-103053467D01*
X167001676Y-103043467D01*
X167001942Y-103033487D01*
X167002228Y-103023526D01*
X167002534Y-103013585D01*
X167002858Y-103003663D01*
X167003203Y-102993760D01*
X167003566Y-102983877D01*
X167003949Y-102974013D01*
X167004351Y-102964168D01*
X167004772Y-102954343D01*
X167005212Y-102944536D01*
X167005672Y-102934749D01*
X167006151Y-102924981D01*
X167006648Y-102915232D01*
X167007165Y-102905502D01*
X167007701Y-102895791D01*
X167008255Y-102886099D01*
X167008829Y-102876426D01*
X167009422Y-102866771D01*
X167010033Y-102857136D01*
X167010663Y-102847519D01*
X167011312Y-102837921D01*
X167011980Y-102828342D01*
X167012666Y-102818781D01*
X167013372Y-102809239D01*
X167014095Y-102799716D01*
X167014838Y-102790211D01*
X167015599Y-102780725D01*
X167016379Y-102771257D01*
X167017177Y-102761808D01*
X167017993Y-102752377D01*
X167018828Y-102742965D01*
X167019682Y-102733570D01*
X167020554Y-102724195D01*
X167021444Y-102714837D01*
X167022353Y-102705498D01*
X167023280Y-102696176D01*
X167024225Y-102686874D01*
X167025188Y-102677589D01*
X167026170Y-102668322D01*
X167027170Y-102659073D01*
X167028188Y-102649843D01*
X167029224Y-102640630D01*
X167030278Y-102631435D01*
X167031350Y-102622258D01*
X167032441Y-102613099D01*
X167033549Y-102603958D01*
X167034675Y-102594835D01*
X167035819Y-102585728D01*
X167036981Y-102576641D01*
X167038161Y-102567570D01*
X167039359Y-102558518D01*
X167040575Y-102549483D01*
X167041808Y-102540466D01*
X167043059Y-102531465D01*
X167044328Y-102522484D01*
X167045615Y-102513518D01*
X167046919Y-102504571D01*
X167048241Y-102495640D01*
X167049581Y-102486728D01*
X167050938Y-102477832D01*
X167052313Y-102468955D01*
X167053705Y-102460093D01*
X167055115Y-102451250D01*
X167056542Y-102442423D01*
X167057987Y-102433615D01*
X167059449Y-102424822D01*
X167060929Y-102416047D01*
X167062426Y-102407289D01*
X167063940Y-102398548D01*
X167065472Y-102389823D01*
X167067021Y-102381117D01*
X167068587Y-102372426D01*
X167070170Y-102363754D01*
X167071771Y-102355096D01*
X167073389Y-102346457D01*
X167075024Y-102337834D01*
X167076677Y-102329228D01*
X167078346Y-102320638D01*
X167080033Y-102312066D01*
X167081736Y-102303509D01*
X167083457Y-102294970D01*
X167085195Y-102286446D01*
X167086950Y-102277940D01*
X167088721Y-102269449D01*
X167090510Y-102260977D01*
X167092316Y-102252518D01*
X167094138Y-102244079D01*
X167095978Y-102235653D01*
X167097834Y-102227246D01*
X167099708Y-102218853D01*
X167101598Y-102210479D01*
X167103505Y-102202118D01*
X167105428Y-102193776D01*
X167107369Y-102185448D01*
X167109326Y-102177139D01*
X167111300Y-102168843D01*
X167113291Y-102160565D01*
X167115298Y-102152301D01*
X167117322Y-102144056D01*
X167119363Y-102135824D01*
X167121420Y-102127610D01*
X167123494Y-102119410D01*
X167125584Y-102111228D01*
X167127692Y-102103060D01*
X167129815Y-102094910D01*
X167131956Y-102086773D01*
X167134112Y-102078654D01*
X167136286Y-102070549D01*
X167138475Y-102062462D01*
X167140681Y-102054387D01*
X167142904Y-102046331D01*
X167145143Y-102038288D01*
X167147398Y-102030264D01*
X167149670Y-102022252D01*
X167151958Y-102014258D01*
X167154263Y-102006277D01*
X167156583Y-101998314D01*
X167158921Y-101990363D01*
X167161274Y-101982431D01*
X167163644Y-101974512D01*
X167166030Y-101966610D01*
X167168433Y-101958721D01*
X167170851Y-101950850D01*
X167173286Y-101942991D01*
X167175736Y-101935151D01*
X167178204Y-101927322D01*
X167180687Y-101919512D01*
X167185702Y-101903934D01*
X167190782Y-101888415D01*
X167195926Y-101872957D01*
X167201134Y-101857558D01*
X167206407Y-101842218D01*
X167211744Y-101826938D01*
X167217144Y-101811716D01*
X167222609Y-101796554D01*
X167228137Y-101781449D01*
X167233730Y-101766403D01*
X167239385Y-101751415D01*
X167245105Y-101736485D01*
X167250888Y-101721612D01*
X167256734Y-101706796D01*
X167262643Y-101692038D01*
X167268616Y-101677336D01*
X167274652Y-101662692D01*
X167280751Y-101648103D01*
X167286913Y-101633571D01*
X167293138Y-101619095D01*
X167299426Y-101604675D01*
X167305777Y-101590310D01*
X167312190Y-101576001D01*
X167318666Y-101561747D01*
X167325205Y-101547548D01*
X167331807Y-101533404D01*
X167338471Y-101519314D01*
X167345198Y-101505279D01*
X167351987Y-101491298D01*
X167358839Y-101477371D01*
X167365754Y-101463498D01*
X167372731Y-101449679D01*
X167379770Y-101435913D01*
X167386872Y-101422201D01*
X167394036Y-101408541D01*
X167401262Y-101394935D01*
X167408551Y-101381381D01*
X167415902Y-101367880D01*
X167423316Y-101354432D01*
X167430792Y-101341035D01*
X167438330Y-101327691D01*
X167445931Y-101314399D01*
X167453594Y-101301159D01*
X167461319Y-101287970D01*
X167469107Y-101274832D01*
X167476957Y-101261746D01*
X167484870Y-101248711D01*
X167492845Y-101235728D01*
X167500882Y-101222795D01*
X167508982Y-101209912D01*
X167517145Y-101197081D01*
X167525370Y-101184299D01*
X167533658Y-101171568D01*
X167542008Y-101158888D01*
X167550421Y-101146257D01*
X167558896Y-101133676D01*
X167567434Y-101121145D01*
X167576036Y-101108664D01*
X167584699Y-101096232D01*
X167593426Y-101083849D01*
X167602216Y-101071516D01*
X167611068Y-101059232D01*
X167619984Y-101046997D01*
X167628963Y-101034812D01*
X167638005Y-101022675D01*
X167647110Y-101010587D01*
X167656279Y-100998547D01*
X167665510Y-100986556D01*
X167674806Y-100974614D01*
X167684164Y-100962720D01*
X167693587Y-100950874D01*
X167703073Y-100939076D01*
X167712622Y-100927327D01*
X167722236Y-100915626D01*
X167731913Y-100903972D01*
X167741655Y-100892367D01*
X167751460Y-100880809D01*
X167761330Y-100869300D01*
X167771264Y-100857838D01*
X167781262Y-100846423D01*
X167791325Y-100835056D01*
X167801452Y-100823737D01*
X167811644Y-100812465D01*
X167821900Y-100801241D01*
X167832222Y-100790064D01*
X167842608Y-100778935D01*
X167853059Y-100767852D01*
X167863576Y-100756817D01*
X167874158Y-100745830D01*
X167884805Y-100734889D01*
X167895517Y-100723996D01*
X167906295Y-100713150D01*
X167917139Y-100702351D01*
X167928049Y-100691599D01*
X167939024Y-100680894D01*
X167950066Y-100670237D01*
X167961173Y-100659626D01*
X167972347Y-100649063D01*
X167983587Y-100638547D01*
X167994894Y-100628078D01*
X168006267Y-100617656D01*
X168017707Y-100607281D01*
X168029214Y-100596953D01*
X168040788Y-100586672D01*
X168052429Y-100576439D01*
X168064137Y-100566253D01*
X168075912Y-100556114D01*
X168087755Y-100546022D01*
X168099665Y-100535978D01*
X168111643Y-100525981D01*
X168123689Y-100516031D01*
X168135803Y-100506129D01*
X168147985Y-100496274D01*
X168160235Y-100486467D01*
X168172553Y-100476707D01*
X168184939Y-100466995D01*
X168197394Y-100457331D01*
X168209918Y-100447714D01*
X168222510Y-100438146D01*
X168235171Y-100428625D01*
X168247901Y-100419152D01*
X168260700Y-100409727D01*
X168273569Y-100400351D01*
X168286506Y-100391023D01*
X168299513Y-100381743D01*
X168312590Y-100372511D01*
X168325735Y-100363328D01*
X168338951Y-100354194D01*
X168352237Y-100345109D01*
X168365592Y-100336072D01*
X168379017Y-100327084D01*
X168392513Y-100318146D01*
X168406078Y-100309256D01*
X168419714Y-100300417D01*
X168433420Y-100291626D01*
X168447196Y-100282885D01*
X168461043Y-100274194D01*
X168474961Y-100265553D01*
X168488949Y-100256962D01*
X168503007Y-100248421D01*
X168517137Y-100239931D01*
X168531337Y-100231491D01*
X168545608Y-100223101D01*
X168559950Y-100214763D01*
X168574363Y-100206475D01*
X168588847Y-100198239D01*
X168603402Y-100190054D01*
X168618027Y-100181921D01*
X168632724Y-100173839D01*
X168647492Y-100165810D01*
X168662331Y-100157832D01*
X168677241Y-100149907D01*
X168692222Y-100142034D01*
X168707274Y-100134214D01*
X168722397Y-100126448D01*
X168737591Y-100118734D01*
X168752856Y-100111073D01*
X168768192Y-100103467D01*
X168783599Y-100095914D01*
X168799076Y-100088415D01*
X168814624Y-100080971D01*
X168830243Y-100073581D01*
X168845932Y-100066246D01*
X168861692Y-100058966D01*
X168877521Y-100051741D01*
X168893421Y-100044572D01*
X168909391Y-100037459D01*
X168925431Y-100030402D01*
X168941541Y-100023401D01*
X168957720Y-100016457D01*
X168973968Y-100009570D01*
X168990285Y-100002740D01*
X169006671Y-99995968D01*
X169023126Y-99989253D01*
X169039649Y-99982597D01*
X169056241Y-99975999D01*
X169072899Y-99969460D01*
X169089626Y-99962980D01*
X169106419Y-99956560D01*
X169123280Y-99950199D01*
X169140206Y-99943898D01*
X169157199Y-99937658D01*
X169174257Y-99931478D01*
X169191380Y-99925359D01*
X169208568Y-99919302D01*
X169225820Y-99913307D01*
X169243135Y-99907374D01*
X169260513Y-99901503D01*
X169277954Y-99895696D01*
X169295457Y-99889951D01*
X169313021Y-99884270D01*
X169330645Y-99878654D01*
X169348329Y-99873101D01*
X169366072Y-99867614D01*
X169383873Y-99862192D01*
X169401731Y-99856835D01*
X169419645Y-99851545D01*
X169437615Y-99846321D01*
X169455640Y-99841164D01*
X169473718Y-99836075D01*
X169491848Y-99831053D01*
X169510029Y-99826100D01*
X169528261Y-99821215D01*
X169546541Y-99816400D01*
X169564868Y-99811654D01*
X169583241Y-99806978D01*
X169601659Y-99802373D01*
X169620119Y-99797839D01*
X169638621Y-99793377D01*
X169657162Y-99788986D01*
X169675741Y-99784669D01*
X169694355Y-99780424D01*
X169713004Y-99776253D01*
X169731684Y-99772157D01*
X169750393Y-99768135D01*
X169769129Y-99764188D01*
X169787889Y-99760317D01*
X169806672Y-99756523D01*
X169825473Y-99752805D01*
X169844290Y-99749165D01*
X169863120Y-99745604D01*
X169881959Y-99742120D01*
X169900805Y-99738717D01*
X169919652Y-99735393D01*
X169938498Y-99732149D01*
X169957338Y-99728987D01*
X169976167Y-99725907D01*
X169994980Y-99722909D01*
X170013773Y-99719995D01*
X170032540Y-99717164D01*
X170051275Y-99714418D01*
X170069971Y-99711757D01*
X170088622Y-99709182D01*
X170107220Y-99706693D01*
X170125758Y-99704292D01*
X170144227Y-99701980D01*
X170162617Y-99699756D01*
X170180918Y-99697621D01*
X170199120Y-99695577D01*
X170217209Y-99693625D01*
X170235174Y-99691764D01*
X170252998Y-99689997D01*
X170270665Y-99688323D01*
X170288158Y-99686743D01*
X170305456Y-99685260D01*
X170322535Y-99683872D01*
X170339369Y-99682582D01*
X170355927Y-99681390D01*
X170372175Y-99680298D01*
X170388070Y-99679305D01*
X170403564Y-99678414D01*
X170418596Y-99677624D01*
X170433090Y-99676937D01*
X170446950Y-99676354D01*
X170460047Y-99675876D01*
X170472200Y-99675503D01*
X170483133Y-99675235D01*
X170492361Y-99675071D01*
X170498802Y-99675004D01*
X170500000Y-99675000D01*
D10*
X259750000Y-174925000D02*
X170500000Y-174925000D01*
X167000000Y-171425000D02*
X167000000Y-103175000D01*
D11*
X263250000Y-171425000D02*
X263249990Y-171435237D01*
X263249960Y-171445454D01*
X263249910Y-171455651D01*
X263249840Y-171465828D01*
X263249751Y-171475985D01*
X263249641Y-171486123D01*
X263249512Y-171496241D01*
X263249363Y-171506338D01*
X263249195Y-171516417D01*
X263249006Y-171526475D01*
X263248799Y-171536514D01*
X263248571Y-171546533D01*
X263248324Y-171556533D01*
X263248058Y-171566513D01*
X263247772Y-171576474D01*
X263247466Y-171586415D01*
X263247142Y-171596337D01*
X263246797Y-171606240D01*
X263246434Y-171616123D01*
X263246051Y-171625987D01*
X263245649Y-171635832D01*
X263245228Y-171645657D01*
X263244788Y-171655464D01*
X263244328Y-171665251D01*
X263243849Y-171675019D01*
X263243352Y-171684768D01*
X263242835Y-171694498D01*
X263242299Y-171704209D01*
X263241745Y-171713901D01*
X263241171Y-171723574D01*
X263240578Y-171733229D01*
X263239967Y-171742864D01*
X263239337Y-171752481D01*
X263238688Y-171762079D01*
X263238020Y-171771658D01*
X263237334Y-171781219D01*
X263236628Y-171790761D01*
X263235905Y-171800284D01*
X263235162Y-171809789D01*
X263234401Y-171819275D01*
X263233621Y-171828743D01*
X263232823Y-171838192D01*
X263232007Y-171847623D01*
X263231172Y-171857035D01*
X263230318Y-171866430D01*
X263229446Y-171875805D01*
X263228556Y-171885163D01*
X263227647Y-171894502D01*
X263226720Y-171903824D01*
X263225775Y-171913126D01*
X263224812Y-171922411D01*
X263223830Y-171931678D01*
X263222830Y-171940927D01*
X263221812Y-171950157D01*
X263220776Y-171959370D01*
X263219722Y-171968565D01*
X263218650Y-171977742D01*
X263217559Y-171986901D01*
X263216451Y-171996042D01*
X263215325Y-172005165D01*
X263214181Y-172014272D01*
X263213019Y-172023359D01*
X263211839Y-172032430D01*
X263210641Y-172041482D01*
X263209425Y-172050517D01*
X263208192Y-172059534D01*
X263206941Y-172068535D01*
X263205672Y-172077516D01*
X263204385Y-172086482D01*
X263203081Y-172095429D01*
X263201759Y-172104360D01*
X263200419Y-172113272D01*
X263199062Y-172122168D01*
X263197687Y-172131045D01*
X263196295Y-172139907D01*
X263194885Y-172148750D01*
X263193458Y-172157577D01*
X263192013Y-172166385D01*
X263190551Y-172175178D01*
X263189071Y-172183953D01*
X263187574Y-172192711D01*
X263186060Y-172201452D01*
X263184528Y-172210177D01*
X263182979Y-172218883D01*
X263181413Y-172227574D01*
X263179830Y-172236246D01*
X263178229Y-172244904D01*
X263176611Y-172253543D01*
X263174976Y-172262166D01*
X263173323Y-172270772D01*
X263171654Y-172279362D01*
X263169967Y-172287934D01*
X263168264Y-172296491D01*
X263166543Y-172305030D01*
X263164805Y-172313554D01*
X263163050Y-172322060D01*
X263161279Y-172330551D01*
X263159490Y-172339023D01*
X263157684Y-172347482D01*
X263155862Y-172355921D01*
X263154022Y-172364347D01*
X263152166Y-172372754D01*
X263150292Y-172381147D01*
X263148402Y-172389521D01*
X263146495Y-172397882D01*
X263144572Y-172406224D01*
X263142631Y-172414552D01*
X263140674Y-172422861D01*
X263138700Y-172431157D01*
X263136709Y-172439435D01*
X263134702Y-172447699D01*
X263132678Y-172455944D01*
X263130637Y-172464176D01*
X263128580Y-172472390D01*
X263126506Y-172480590D01*
X263124416Y-172488772D01*
X263122308Y-172496940D01*
X263120185Y-172505090D01*
X263118044Y-172513227D01*
X263115888Y-172521346D01*
X263113714Y-172529451D01*
X263111525Y-172537538D01*
X263109319Y-172545613D01*
X263107096Y-172553669D01*
X263104857Y-172561712D01*
X263102602Y-172569736D01*
X263100330Y-172577748D01*
X263098042Y-172585742D01*
X263095737Y-172593723D01*
X263093417Y-172601686D01*
X263091079Y-172609637D01*
X263088726Y-172617569D01*
X263086356Y-172625488D01*
X263083970Y-172633390D01*
X263081567Y-172641279D01*
X263079149Y-172649150D01*
X263076714Y-172657009D01*
X263074264Y-172664849D01*
X263071796Y-172672678D01*
X263069313Y-172680488D01*
X263064298Y-172696066D01*
X263059218Y-172711585D01*
X263054074Y-172727043D01*
X263048866Y-172742442D01*
X263043593Y-172757782D01*
X263038256Y-172773062D01*
X263032856Y-172788284D01*
X263027391Y-172803446D01*
X263021863Y-172818551D01*
X263016270Y-172833597D01*
X263010615Y-172848585D01*
X263004895Y-172863515D01*
X262999112Y-172878388D01*
X262993266Y-172893204D01*
X262987357Y-172907962D01*
X262981384Y-172922664D01*
X262975348Y-172937308D01*
X262969249Y-172951897D01*
X262963087Y-172966429D01*
X262956862Y-172980905D01*
X262950574Y-172995325D01*
X262944223Y-173009690D01*
X262937810Y-173023999D01*
X262931334Y-173038253D01*
X262924795Y-173052452D01*
X262918193Y-173066596D01*
X262911529Y-173080686D01*
X262904802Y-173094721D01*
X262898013Y-173108702D01*
X262891161Y-173122629D01*
X262884246Y-173136502D01*
X262877269Y-173150321D01*
X262870230Y-173164087D01*
X262863128Y-173177799D01*
X262855964Y-173191459D01*
X262848738Y-173205065D01*
X262841449Y-173218619D01*
X262834098Y-173232120D01*
X262826684Y-173245568D01*
X262819208Y-173258965D01*
X262811670Y-173272309D01*
X262804069Y-173285601D01*
X262796406Y-173298841D01*
X262788681Y-173312030D01*
X262780893Y-173325168D01*
X262773043Y-173338254D01*
X262765130Y-173351289D01*
X262757155Y-173364272D01*
X262749118Y-173377205D01*
X262741018Y-173390088D01*
X262732855Y-173402919D01*
X262724630Y-173415701D01*
X262716342Y-173428432D01*
X262707992Y-173441112D01*
X262699579Y-173453743D01*
X262691104Y-173466324D01*
X262682566Y-173478855D01*
X262673964Y-173491336D01*
X262665301Y-173503768D01*
X262656574Y-173516151D01*
X262647784Y-173528484D01*
X262638932Y-173540768D01*
X262630016Y-173553003D01*
X262621037Y-173565188D01*
X262611995Y-173577325D01*
X262602890Y-173589413D01*
X262593721Y-173601453D01*
X262584490Y-173613444D01*
X262575194Y-173625386D01*
X262565836Y-173637280D01*
X262556413Y-173649126D01*
X262546927Y-173660924D01*
X262537378Y-173672673D01*
X262527764Y-173684374D01*
X262518087Y-173696028D01*
X262508345Y-173707633D01*
X262498540Y-173719191D01*
X262488670Y-173730700D01*
X262478736Y-173742162D01*
X262468738Y-173753577D01*
X262458675Y-173764944D01*
X262448548Y-173776263D01*
X262438356Y-173787535D01*
X262428100Y-173798759D01*
X262417778Y-173809936D01*
X262407392Y-173821065D01*
X262396941Y-173832148D01*
X262386424Y-173843183D01*
X262375842Y-173854170D01*
X262365195Y-173865111D01*
X262354483Y-173876004D01*
X262343705Y-173886850D01*
X262332861Y-173897649D01*
X262321951Y-173908401D01*
X262310976Y-173919106D01*
X262299934Y-173929763D01*
X262288827Y-173940374D01*
X262277653Y-173950937D01*
X262266413Y-173961453D01*
X262255106Y-173971922D01*
X262243733Y-173982344D01*
X262232293Y-173992719D01*
X262220786Y-174003047D01*
X262209212Y-174013328D01*
X262197571Y-174023561D01*
X262185863Y-174033747D01*
X262174088Y-174043886D01*
X262162245Y-174053978D01*
X262150335Y-174064022D01*
X262138357Y-174074019D01*
X262126311Y-174083969D01*
X262114197Y-174093871D01*
X262102015Y-174103726D01*
X262089765Y-174113533D01*
X262077447Y-174123293D01*
X262065061Y-174133005D01*
X262052606Y-174142669D01*
X262040082Y-174152286D01*
X262027490Y-174161854D01*
X262014829Y-174171375D01*
X262002099Y-174180848D01*
X261989300Y-174190273D01*
X261976431Y-174199649D01*
X261963494Y-174208977D01*
X261950487Y-174218257D01*
X261937410Y-174227489D01*
X261924265Y-174236672D01*
X261911049Y-174245806D01*
X261897763Y-174254891D01*
X261884408Y-174263928D01*
X261870983Y-174272916D01*
X261857487Y-174281854D01*
X261843922Y-174290744D01*
X261830286Y-174299583D01*
X261816580Y-174308374D01*
X261802804Y-174317115D01*
X261788957Y-174325806D01*
X261775039Y-174334447D01*
X261761051Y-174343038D01*
X261746993Y-174351579D01*
X261732863Y-174360069D01*
X261718663Y-174368509D01*
X261704392Y-174376899D01*
X261690050Y-174385237D01*
X261675637Y-174393525D01*
X261661153Y-174401761D01*
X261646598Y-174409946D01*
X261631973Y-174418079D01*
X261617276Y-174426161D01*
X261602508Y-174434190D01*
X261587669Y-174442168D01*
X261572759Y-174450093D01*
X261557778Y-174457966D01*
X261542726Y-174465786D01*
X261527603Y-174473552D01*
X261512409Y-174481266D01*
X261497144Y-174488927D01*
X261481808Y-174496533D01*
X261466401Y-174504086D01*
X261450924Y-174511585D01*
X261435376Y-174519029D01*
X261419757Y-174526419D01*
X261404068Y-174533754D01*
X261388308Y-174541034D01*
X261372479Y-174548259D01*
X261356579Y-174555428D01*
X261340609Y-174562541D01*
X261324569Y-174569598D01*
X261308459Y-174576599D01*
X261292280Y-174583543D01*
X261276032Y-174590430D01*
X261259715Y-174597260D01*
X261243329Y-174604032D01*
X261226874Y-174610747D01*
X261210351Y-174617403D01*
X261193759Y-174624001D01*
X261177101Y-174630540D01*
X261160374Y-174637020D01*
X261143581Y-174643440D01*
X261126720Y-174649801D01*
X261109794Y-174656102D01*
X261092801Y-174662342D01*
X261075743Y-174668522D01*
X261058620Y-174674641D01*
X261041432Y-174680698D01*
X261024180Y-174686693D01*
X261006865Y-174692626D01*
X260989487Y-174698497D01*
X260972046Y-174704304D01*
X260954543Y-174710049D01*
X260936979Y-174715730D01*
X260919355Y-174721346D01*
X260901671Y-174726899D01*
X260883928Y-174732386D01*
X260866127Y-174737808D01*
X260848269Y-174743165D01*
X260830355Y-174748455D01*
X260812385Y-174753679D01*
X260794360Y-174758836D01*
X260776282Y-174763925D01*
X260758152Y-174768947D01*
X260739971Y-174773900D01*
X260721739Y-174778785D01*
X260703459Y-174783600D01*
X260685132Y-174788346D01*
X260666759Y-174793022D01*
X260648341Y-174797627D01*
X260629881Y-174802161D01*
X260611379Y-174806623D01*
X260592838Y-174811014D01*
X260574259Y-174815331D01*
X260555645Y-174819576D01*
X260536996Y-174823747D01*
X260518316Y-174827843D01*
X260499607Y-174831865D01*
X260480871Y-174835812D01*
X260462111Y-174839683D01*
X260443328Y-174843477D01*
X260424527Y-174847195D01*
X260405710Y-174850835D01*
X260386880Y-174854396D01*
X260368041Y-174857880D01*
X260349195Y-174861283D01*
X260330348Y-174864607D01*
X260311502Y-174867851D01*
X260292662Y-174871013D01*
X260273833Y-174874093D01*
X260255020Y-174877091D01*
X260236227Y-174880005D01*
X260217460Y-174882836D01*
X260198725Y-174885582D01*
X260180029Y-174888243D01*
X260161378Y-174890818D01*
X260142780Y-174893307D01*
X260124242Y-174895708D01*
X260105773Y-174898020D01*
X260087383Y-174900244D01*
X260069082Y-174902379D01*
X260050880Y-174904423D01*
X260032791Y-174906375D01*
X260014826Y-174908236D01*
X259997002Y-174910003D01*
X259979335Y-174911677D01*
X259961842Y-174913257D01*
X259944544Y-174914740D01*
X259927465Y-174916128D01*
X259910631Y-174917418D01*
X259894073Y-174918610D01*
X259877825Y-174919702D01*
X259861930Y-174920695D01*
X259846436Y-174921586D01*
X259831404Y-174922376D01*
X259816910Y-174923063D01*
X259803050Y-174923646D01*
X259789953Y-174924124D01*
X259777800Y-174924497D01*
X259766867Y-174924765D01*
X259757639Y-174924929D01*
X259751198Y-174924996D01*
X259750000Y-174925000D01*
X259750000Y-99675000D02*
X259760623Y-99675010D01*
X259771224Y-99675040D01*
X259781804Y-99675090D01*
X259792361Y-99675160D01*
X259802897Y-99675249D01*
X259813411Y-99675359D01*
X259823903Y-99675488D01*
X259834374Y-99675637D01*
X259844823Y-99675805D01*
X259855250Y-99675993D01*
X259865656Y-99676201D01*
X259876040Y-99676428D01*
X259886403Y-99676675D01*
X259896745Y-99676941D01*
X259907065Y-99677227D01*
X259917363Y-99677532D01*
X259927641Y-99677857D01*
X259937897Y-99678201D01*
X259948132Y-99678564D01*
X259958345Y-99678946D01*
X259968538Y-99679348D01*
X259978710Y-99679768D01*
X259988860Y-99680208D01*
X259998989Y-99680667D01*
X260009098Y-99681145D01*
X260019185Y-99681642D01*
X260029252Y-99682158D01*
X260039298Y-99682693D01*
X260049323Y-99683247D01*
X260059327Y-99683819D01*
X260069311Y-99684411D01*
X260079274Y-99685021D01*
X260089216Y-99685650D01*
X260099137Y-99686298D01*
X260109039Y-99686964D01*
X260118919Y-99687649D01*
X260128779Y-99688353D01*
X260138619Y-99689075D01*
X260148438Y-99689816D01*
X260158237Y-99690575D01*
X260168016Y-99691353D01*
X260177774Y-99692149D01*
X260187512Y-99692964D01*
X260197230Y-99693797D01*
X260206928Y-99694648D01*
X260216605Y-99695518D01*
X260226263Y-99696406D01*
X260235900Y-99697312D01*
X260245518Y-99698236D01*
X260255115Y-99699178D01*
X260264693Y-99700139D01*
X260274251Y-99701117D01*
X260283789Y-99702114D01*
X260293307Y-99703129D01*
X260302806Y-99704161D01*
X260312284Y-99705212D01*
X260321744Y-99706280D01*
X260331183Y-99707367D01*
X260340603Y-99708471D01*
X260350003Y-99709593D01*
X260359384Y-99710733D01*
X260368745Y-99711891D01*
X260378087Y-99713066D01*
X260387409Y-99714259D01*
X260396713Y-99715470D01*
X260405996Y-99716698D01*
X260415261Y-99717944D01*
X260424506Y-99719208D01*
X260433733Y-99720489D01*
X260442939Y-99721787D01*
X260452127Y-99723103D01*
X260461296Y-99724437D01*
X260470446Y-99725788D01*
X260479576Y-99727156D01*
X260488688Y-99728542D01*
X260497780Y-99729945D01*
X260506855Y-99731365D01*
X260515909Y-99732803D01*
X260524946Y-99734257D01*
X260533963Y-99735729D01*
X260542962Y-99737219D01*
X260551942Y-99738725D01*
X260560904Y-99740249D01*
X260569846Y-99741789D01*
X260578771Y-99743347D01*
X260587676Y-99744921D01*
X260596564Y-99746513D01*
X260605432Y-99748122D01*
X260614283Y-99749748D01*
X260623114Y-99751390D01*
X260631928Y-99753050D01*
X260640723Y-99754726D01*
X260649500Y-99756419D01*
X260658258Y-99758129D01*
X260666999Y-99759856D01*
X260675721Y-99761600D01*
X260684426Y-99763360D01*
X260693111Y-99765137D01*
X260701780Y-99766931D01*
X260710429Y-99768741D01*
X260719062Y-99770569D01*
X260727675Y-99772412D01*
X260736272Y-99774273D01*
X260744849Y-99776150D01*
X260753411Y-99778043D01*
X260761952Y-99779953D01*
X260770478Y-99781880D01*
X260778984Y-99783822D01*
X260787475Y-99785782D01*
X260795946Y-99787758D01*
X260804401Y-99789750D01*
X260812836Y-99791758D01*
X260821256Y-99793784D01*
X260829657Y-99795825D01*
X260838042Y-99797882D01*
X260846408Y-99799956D01*
X260854758Y-99802046D01*
X260863089Y-99804153D01*
X260871404Y-99806275D01*
X260879701Y-99808414D01*
X260887982Y-99810569D01*
X260896243Y-99812740D01*
X260904490Y-99814928D01*
X260912717Y-99817131D01*
X260920929Y-99819351D01*
X260929123Y-99821586D01*
X260937301Y-99823838D01*
X260945460Y-99826105D01*
X260953604Y-99828389D01*
X260961729Y-99830689D01*
X260969839Y-99833005D01*
X260977931Y-99835336D01*
X260986007Y-99837684D01*
X260994065Y-99840047D01*
X261002108Y-99842426D01*
X261010132Y-99844821D01*
X261018142Y-99847233D01*
X261026132Y-99849659D01*
X261034109Y-99852102D01*
X261042066Y-99854561D01*
X261050009Y-99857035D01*
X261057934Y-99859525D01*
X261065844Y-99862031D01*
X261073735Y-99864552D01*
X261081612Y-99867090D01*
X261089471Y-99869643D01*
X261097315Y-99872212D01*
X261105141Y-99874796D01*
X261112953Y-99877396D01*
X261120746Y-99880011D01*
X261128525Y-99882643D01*
X261136286Y-99885289D01*
X261144033Y-99887952D01*
X261151761Y-99890630D01*
X261159476Y-99893324D01*
X261167172Y-99896032D01*
X261174855Y-99898757D01*
X261182518Y-99901497D01*
X261190169Y-99904253D01*
X261197801Y-99907024D01*
X261213020Y-99912612D01*
X261228175Y-99918262D01*
X261243268Y-99923974D01*
X261258297Y-99929748D01*
X261273264Y-99935583D01*
X261288168Y-99941479D01*
X261303010Y-99947437D01*
X261317790Y-99953455D01*
X261332508Y-99959535D01*
X261347165Y-99965676D01*
X261361760Y-99971877D01*
X261376294Y-99978140D01*
X261390768Y-99984463D01*
X261405181Y-99990847D01*
X261419534Y-99997291D01*
X261433826Y-100003796D01*
X261448059Y-100010362D01*
X261462232Y-100016988D01*
X261476345Y-100023674D01*
X261490400Y-100030420D01*
X261504395Y-100037227D01*
X261518331Y-100044094D01*
X261532209Y-100051021D01*
X261546029Y-100058008D01*
X261559790Y-100065055D01*
X261573493Y-100072162D01*
X261587139Y-100079329D01*
X261600726Y-100086556D01*
X261614257Y-100093843D01*
X261627730Y-100101190D01*
X261641147Y-100108597D01*
X261654506Y-100116063D01*
X261667809Y-100123590D01*
X261681055Y-100131176D01*
X261694245Y-100138822D01*
X261707380Y-100146528D01*
X261720458Y-100154293D01*
X261733480Y-100162118D01*
X261746447Y-100170003D01*
X261759359Y-100177948D01*
X261772215Y-100185953D01*
X261785017Y-100194017D01*
X261797763Y-100202142D01*
X261810455Y-100210326D01*
X261823092Y-100218569D01*
X261835675Y-100226873D01*
X261848204Y-100235237D01*
X261860678Y-100243660D01*
X261873099Y-100252143D01*
X261885466Y-100260687D01*
X261897779Y-100269290D01*
X261910039Y-100277953D01*
X261922245Y-100286677D01*
X261934398Y-100295460D01*
X261946498Y-100304304D01*
X261958545Y-100313207D01*
X261970539Y-100322171D01*
X261982481Y-100331196D01*
X261994370Y-100340280D01*
X262006206Y-100349425D01*
X262017990Y-100358630D01*
X262029722Y-100367896D01*
X262041401Y-100377223D01*
X262053029Y-100386610D01*
X262064604Y-100396057D01*
X262076128Y-100405566D01*
X262087600Y-100415135D01*
X262099021Y-100424765D01*
X262110390Y-100434456D01*
X262121707Y-100444208D01*
X262132973Y-100454022D01*
X262144188Y-100463896D01*
X262155351Y-100473832D01*
X262166464Y-100483829D01*
X262177525Y-100493888D01*
X262188536Y-100504008D01*
X262199495Y-100514189D01*
X262210404Y-100524433D01*
X262221261Y-100534738D01*
X262232068Y-100545105D01*
X262242825Y-100555534D01*
X262253530Y-100566025D01*
X262264186Y-100576579D01*
X262274790Y-100587194D01*
X262285344Y-100597872D01*
X262295848Y-100608613D01*
X262306301Y-100619416D01*
X262316704Y-100630282D01*
X262327056Y-100641211D01*
X262337358Y-100652202D01*
X262347610Y-100663257D01*
X262357811Y-100674375D01*
X262367963Y-100685556D01*
X262378063Y-100696800D01*
X262388114Y-100708108D01*
X262398114Y-100719479D01*
X262408064Y-100730915D01*
X262417964Y-100742414D01*
X262427814Y-100753976D01*
X262437613Y-100765603D01*
X262447362Y-100777294D01*
X262457060Y-100789050D01*
X262466708Y-100800870D01*
X262476306Y-100812754D01*
X262485854Y-100824703D01*
X262495351Y-100836716D01*
X262504797Y-100848795D01*
X262514193Y-100860938D01*
X262523539Y-100873147D01*
X262532834Y-100885421D01*
X262542078Y-100897760D01*
X262551272Y-100910164D01*
X262560415Y-100922635D01*
X262569507Y-100935170D01*
X262578548Y-100947772D01*
X262587538Y-100960439D01*
X262596477Y-100973173D01*
X262605366Y-100985972D01*
X262614203Y-100998838D01*
X262622988Y-101011770D01*
X262631723Y-101024769D01*
X262640406Y-101037834D01*
X262649037Y-101050966D01*
X262657617Y-101064164D01*
X262666146Y-101077429D01*
X262674622Y-101090762D01*
X262683046Y-101104161D01*
X262691419Y-101117627D01*
X262699739Y-101131161D01*
X262708007Y-101144762D01*
X262716223Y-101158430D01*
X262724386Y-101172166D01*
X262732496Y-101185969D01*
X262740554Y-101199840D01*
X262748558Y-101213779D01*
X262756510Y-101227785D01*
X262764409Y-101241859D01*
X262772254Y-101256001D01*
X262780045Y-101270211D01*
X262787783Y-101284489D01*
X262795467Y-101298835D01*
X262803097Y-101313249D01*
X262810672Y-101327731D01*
X262818194Y-101342281D01*
X262825661Y-101356899D01*
X262833073Y-101371585D01*
X262840430Y-101386340D01*
X262847732Y-101401163D01*
X262854979Y-101416054D01*
X262862170Y-101431013D01*
X262869306Y-101446040D01*
X262876386Y-101461136D01*
X262883409Y-101476299D01*
X262890376Y-101491531D01*
X262897287Y-101506830D01*
X262904141Y-101522198D01*
X262910938Y-101537633D01*
X262917678Y-101553137D01*
X262924360Y-101568708D01*
X262930985Y-101584346D01*
X262937551Y-101600053D01*
X262944060Y-101615826D01*
X262950510Y-101631667D01*
X262956901Y-101647575D01*
X262963233Y-101663550D01*
X262969507Y-101679592D01*
X262975720Y-101695700D01*
X262981874Y-101711875D01*
X262987968Y-101728116D01*
X262994002Y-101744423D01*
X262999975Y-101760796D01*
X263005887Y-101777235D01*
X263011738Y-101793738D01*
X263017527Y-101810307D01*
X263023255Y-101826940D01*
X263028920Y-101843637D01*
X263034523Y-101860399D01*
X263040064Y-101877224D01*
X263045541Y-101894112D01*
X263050956Y-101911063D01*
X263056306Y-101928076D01*
X263061593Y-101945151D01*
X263066815Y-101962287D01*
X263071972Y-101979484D01*
X263077065Y-101996741D01*
X263082092Y-102014058D01*
X263087054Y-102031434D01*
X263091949Y-102048869D01*
X263096778Y-102066361D01*
X263101540Y-102083910D01*
X263106236Y-102101515D01*
X263110863Y-102119176D01*
X263115423Y-102136891D01*
X263119915Y-102154660D01*
X263124338Y-102172482D01*
X263128691Y-102190356D01*
X263132976Y-102208280D01*
X263137191Y-102226254D01*
X263141335Y-102244277D01*
X263145409Y-102262347D01*
X263149412Y-102280463D01*
X263153343Y-102298624D01*
X263157203Y-102316829D01*
X263160990Y-102335075D01*
X263164705Y-102353362D01*
X263168347Y-102371687D01*
X263171915Y-102390050D01*
X263175409Y-102408448D01*
X263178829Y-102426879D01*
X263182174Y-102445342D01*
X263185444Y-102463834D01*
X263188638Y-102482353D01*
X263191756Y-102500896D01*
X263194797Y-102519462D01*
X263197762Y-102538048D01*
X263200649Y-102556650D01*
X263203458Y-102575267D01*
X263206189Y-102593894D01*
X263208841Y-102612529D01*
X263211414Y-102631168D01*
X263213907Y-102649807D01*
X263216320Y-102668442D01*
X263218652Y-102687070D01*
X263220903Y-102705686D01*
X263223073Y-102724285D01*
X263225161Y-102742862D01*
X263227167Y-102761411D01*
X263229090Y-102779927D01*
X263230930Y-102798404D01*
X263232686Y-102816835D01*
X263234359Y-102835212D01*
X263235947Y-102853528D01*
X263237450Y-102871775D01*
X263238869Y-102889943D01*
X263240202Y-102908022D01*
X263241449Y-102926003D01*
X263242611Y-102943872D01*
X263243687Y-102961617D01*
X263244677Y-102979225D01*
X263245580Y-102996678D01*
X263246398Y-103013961D01*
X263247129Y-103031053D01*
X263247775Y-103047933D01*
X263248335Y-103064578D01*
X263248811Y-103080961D01*
X263249203Y-103097053D01*
X263249513Y-103112823D01*
X263249743Y-103128240D01*
X263249896Y-103143286D01*
X263249978Y-103157989D01*
X263250000Y-103172614D01*
X263250000Y-103175000D01*
M02*
