ISO-10303-21;
HEADER;
FILE_DESCRIPTION(('CAx-IF Rec.Pracs.---Model Styling and Organization---1.5---2016-08-15','CAx-IF Rec.Pracs.---Geometric and Assembly Validation Properties---4.4---2016-08-17','CAx-IF Rec.Pracs.---User Defined Attributes---1.5---2016-08-15','CAx-IF Rec.Pracs.---External References---2.1---2005-01-19'),'2;1');
FILE_NAME('2190609.step','2025-12-10T23:52:07',('Unspecified'),('Unspecified'),'CAD Exchanger 3.10.2 (cadexchanger.com)','Unspecified','');
FILE_SCHEMA(('AUTOMOTIVE_DESIGN { 1 0 10303 214 1 1 1 1 }'));
ENDSEC;
DATA;
#1=APPLICATION_CONTEXT('core data for automotive mechanical design processes');
#2=APPLICATION_PROTOCOL_DEFINITION('international standard','automotive_design',2000,#1);
#3=PRODUCT_CONTEXT('',#1,'mechanical');
#4=PRODUCT('TBA1E-DUAL','TBA1E-DUAL',$,(#3));
#5=PRODUCT_DEFINITION_FORMATION('',$,#4);
#6=PRODUCT_DEFINITION_CONTEXT('part definition',#1,'design');
#7=PRODUCT_DEFINITION('design',$,#5,#6);
#8=PRODUCT_DEFINITION_SHAPE('',$,#7);
#9=MANIFOLD_SOLID_BREP('',#10);
#10=CLOSED_SHELL('',(#11,#51,#82,#106,#130,#317,#380,#404,#460,#477,#494,#511,#528,#545,#557,#588,#612,#636,#653,#665,#696,#720,#744,#761,#773,#804,#828,#852,#869,#881,#912,#936,#960,#977,#989));
#11=ADVANCED_FACE('',(#12),#46,.T.);
#12=FACE_BOUND('',#13,.T.);
#13=EDGE_LOOP('',(#14,#24,#32,#40));
#14=ORIENTED_EDGE('',*,*,#15,.T.);
#15=EDGE_CURVE('',#16,#18,#20,.F.);
#16=VERTEX_POINT('',#17);
#17=CARTESIAN_POINT('',(218.73590441,179.181714727,29.948157783));
#18=VERTEX_POINT('',#19);
#19=CARTESIAN_POINT('',(218.73590441,179.431714727,29.948157783));
#20=LINE('',#21,#22);
#21=CARTESIAN_POINT('',(218.73590441,179.431714727,29.948157783));
#22=VECTOR('',#23,1.0);
#23=DIRECTION('',(0.0,-1.0,0.0));
#24=ORIENTED_EDGE('',*,*,#25,.T.);
#25=EDGE_CURVE('',#18,#26,#28,.F.);
#26=VERTEX_POINT('',#27);
#27=CARTESIAN_POINT('',(218.73590441,179.431714727,33.498157783));
#28=LINE('',#29,#30);
#29=CARTESIAN_POINT('',(218.73590441,179.431714727,33.498157783));
#30=VECTOR('',#31,1.0);
#31=DIRECTION('',(0.0,0.0,-1.0));
#32=ORIENTED_EDGE('',*,*,#33,.T.);
#33=EDGE_CURVE('',#26,#34,#36,.F.);
#34=VERTEX_POINT('',#35);
#35=CARTESIAN_POINT('',(218.73590441,179.181714727,33.498157783));
#36=LINE('',#37,#38);
#37=CARTESIAN_POINT('',(218.73590441,179.181714727,33.498157783));
#38=VECTOR('',#39,1.0);
#39=DIRECTION('',(0.0,1.0,0.0));
#40=ORIENTED_EDGE('',*,*,#41,.T.);
#41=EDGE_CURVE('',#34,#16,#42,.F.);
#42=LINE('',#43,#44);
#43=CARTESIAN_POINT('',(218.73590441,179.181714727,29.948157783));
#44=VECTOR('',#45,1.0);
#45=DIRECTION('',(0.0,0.0,1.0));
#46=PLANE('',#47);
#47=AXIS2_PLACEMENT_3D('',#48,#49,#50);
#48=CARTESIAN_POINT('',(218.73590441,179.431714727,33.498157783));
#49=DIRECTION('',(1.0,0.0,0.0));
#50=DIRECTION('',(0.0,1.0,0.0));
#51=ADVANCED_FACE('',(#52),#77,.T.);
#52=FACE_BOUND('',#53,.T.);
#53=EDGE_LOOP('',(#54,#62,#70,#76));
#54=ORIENTED_EDGE('',*,*,#55,.T.);
#55=EDGE_CURVE('',#34,#56,#58,.F.);
#56=VERTEX_POINT('',#57);
#57=CARTESIAN_POINT('',(218.23590441,179.181714727,33.498157783));
#58=LINE('',#59,#60);
#59=CARTESIAN_POINT('',(218.23590441,179.181714727,33.498157783));
#60=VECTOR('',#61,1.0);
#61=DIRECTION('',(1.0,0.0,0.0));
#62=ORIENTED_EDGE('',*,*,#63,.T.);
#63=EDGE_CURVE('',#56,#64,#66,.T.);
#64=VERTEX_POINT('',#65);
#65=CARTESIAN_POINT('',(218.23590441,179.181714727,29.948157783));
#66=LINE('',#67,#68);
#67=CARTESIAN_POINT('',(218.23590441,179.181714727,33.498157783));
#68=VECTOR('',#69,1.0);
#69=DIRECTION('',(0.0,0.0,-1.0));
#70=ORIENTED_EDGE('',*,*,#71,.T.);
#71=EDGE_CURVE('',#64,#16,#72,.T.);
#72=LINE('',#73,#74);
#73=CARTESIAN_POINT('',(218.23590441,179.181714727,29.948157783));
#74=VECTOR('',#75,1.0);
#75=DIRECTION('',(1.0,0.0,0.0));
#76=ORIENTED_EDGE('',*,*,#41,.F.);
#77=PLANE('',#78);
#78=AXIS2_PLACEMENT_3D('',#79,#80,#81);
#79=CARTESIAN_POINT('',(218.48590441,179.181714727,31.723157783));
#80=DIRECTION('',(0.0,-1.0,0.0));
#81=DIRECTION('',(1.0,0.0,0.0));
#82=ADVANCED_FACE('',(#83),#101,.T.);
#83=FACE_BOUND('',#84,.T.);
#84=EDGE_LOOP('',(#85,#93,#99,#100));
#85=ORIENTED_EDGE('',*,*,#86,.T.);
#86=EDGE_CURVE('',#64,#87,#89,.F.);
#87=VERTEX_POINT('',#88);
#88=CARTESIAN_POINT('',(218.23590441,179.431714727,29.948157783));
#89=LINE('',#90,#91);
#90=CARTESIAN_POINT('',(218.23590441,179.431714727,29.948157783));
#91=VECTOR('',#92,1.0);
#92=DIRECTION('',(0.0,-1.0,0.0));
#93=ORIENTED_EDGE('',*,*,#94,.T.);
#94=EDGE_CURVE('',#87,#18,#95,.F.);
#95=LINE('',#96,#97);
#96=CARTESIAN_POINT('',(218.73590441,179.431714727,29.948157783));
#97=VECTOR('',#98,1.0);
#98=DIRECTION('',(-1.0,0.0,0.0));
#99=ORIENTED_EDGE('',*,*,#15,.F.);
#100=ORIENTED_EDGE('',*,*,#71,.F.);
#101=PLANE('',#102);
#102=AXIS2_PLACEMENT_3D('',#103,#104,#105);
#103=CARTESIAN_POINT('',(218.73590441,179.431714727,29.948157783));
#104=DIRECTION('',(0.0,0.0,-1.0));
#105=DIRECTION('',(0.0,1.0,0.0));
#106=ADVANCED_FACE('',(#107),#125,.F.);
#107=FACE_BOUND('',#108,.T.);
#108=EDGE_LOOP('',(#109,#110,#111,#119));
#109=ORIENTED_EDGE('',*,*,#25,.F.);
#110=ORIENTED_EDGE('',*,*,#94,.F.);
#111=ORIENTED_EDGE('',*,*,#112,.T.);
#112=EDGE_CURVE('',#87,#113,#115,.T.);
#113=VERTEX_POINT('',#114);
#114=CARTESIAN_POINT('',(218.23590441,179.431714727,33.498157783));
#115=LINE('',#116,#117);
#116=CARTESIAN_POINT('',(218.23590441,179.431714727,29.948157783));
#117=VECTOR('',#118,1.0);
#118=DIRECTION('',(0.0,0.0,1.0));
#119=ORIENTED_EDGE('',*,*,#120,.T.);
#120=EDGE_CURVE('',#113,#26,#121,.F.);
#121=LINE('',#122,#123);
#122=CARTESIAN_POINT('',(218.73590441,179.431714727,33.498157783));
#123=VECTOR('',#124,1.0);
#124=DIRECTION('',(-1.0,0.0,0.0));
#125=PLANE('',#126);
#126=AXIS2_PLACEMENT_3D('',#127,#128,#129);
#127=CARTESIAN_POINT('',(218.48590441,179.431714727,31.723157783));
#128=DIRECTION('',(0.0,-1.0,0.0));
#129=DIRECTION('',(1.0,0.0,0.0));
#130=ADVANCED_FACE('',(#131,#165,#199,#233,#267,#301),#312,.T.);
#131=FACE_BOUND('',#132,.T.);
#132=EDGE_LOOP('',(#133,#143,#151,#159));
#133=ORIENTED_EDGE('',*,*,#134,.T.);
#134=EDGE_CURVE('',#135,#137,#139,.F.);
#135=VERTEX_POINT('',#136);
#136=CARTESIAN_POINT('',(203.88590441,174.656714727,33.498157783));
#137=VERTEX_POINT('',#138);
#138=CARTESIAN_POINT('',(203.88590441,180.656714727,33.498157783));
#139=LINE('',#140,#141);
#140=CARTESIAN_POINT('',(203.88590441,180.656714727,33.498157783));
#141=VECTOR('',#142,1.0);
#142=DIRECTION('',(0.0,-1.0,0.0));
#143=ORIENTED_EDGE('',*,*,#144,.T.);
#144=EDGE_CURVE('',#137,#145,#147,.F.);
#145=VERTEX_POINT('',#146);
#146=CARTESIAN_POINT('',(222.38590441,180.656714727,33.498157783));
#147=LINE('',#148,#149);
#148=CARTESIAN_POINT('',(222.38590441,180.656714727,33.498157783));
#149=VECTOR('',#150,1.0);
#150=DIRECTION('',(-1.0,0.0,0.0));
#151=ORIENTED_EDGE('',*,*,#152,.T.);
#152=EDGE_CURVE('',#145,#153,#155,.F.);
#153=VERTEX_POINT('',#154);
#154=CARTESIAN_POINT('',(222.38590441,174.656714727,33.498157783));
#155=LINE('',#156,#157);
#156=CARTESIAN_POINT('',(222.38590441,174.656714727,33.498157783));
#157=VECTOR('',#158,1.0);
#158=DIRECTION('',(0.0,1.0,0.0));
#159=ORIENTED_EDGE('',*,*,#160,.T.);
#160=EDGE_CURVE('',#153,#135,#161,.F.);
#161=LINE('',#162,#163);
#162=CARTESIAN_POINT('',(203.88590441,174.656714727,33.498157783));
#163=VECTOR('',#164,1.0);
#164=DIRECTION('',(1.0,0.0,0.0));
#165=FACE_BOUND('',#166,.T.);
#166=EDGE_LOOP('',(#167,#177,#185,#193));
#167=ORIENTED_EDGE('',*,*,#168,.T.);
#168=EDGE_CURVE('',#169,#171,#173,.T.);
#169=VERTEX_POINT('',#170);
#170=CARTESIAN_POINT('',(213.655904541,179.431714727,33.498157783));
#171=VERTEX_POINT('',#172);
#172=CARTESIAN_POINT('',(213.155904541,179.431714727,33.498157783));
#173=LINE('',#174,#175);
#174=CARTESIAN_POINT('',(213.655904541,179.431714727,33.498157783));
#175=VECTOR('',#176,1.0);
#176=DIRECTION('',(-1.0,0.0,0.0));
#177=ORIENTED_EDGE('',*,*,#178,.T.);
#178=EDGE_CURVE('',#171,#179,#181,.T.);
#179=VERTEX_POINT('',#180);
#180=CARTESIAN_POINT('',(213.155904541,179.181714727,33.498157783));
#181=LINE('',#182,#183);
#182=CARTESIAN_POINT('',(213.155904541,179.431714727,33.498157783));
#183=VECTOR('',#184,1.0);
#184=DIRECTION('',(0.0,-1.0,0.0));
#185=ORIENTED_EDGE('',*,*,#186,.T.);
#186=EDGE_CURVE('',#179,#187,#189,.T.);
#187=VERTEX_POINT('',#188);
#188=CARTESIAN_POINT('',(213.655904541,179.181714727,33.498157783));
#189=LINE('',#190,#191);
#190=CARTESIAN_POINT('',(213.155904541,179.181714727,33.498157783));
#191=VECTOR('',#192,1.0);
#192=DIRECTION('',(1.0,0.0,0.0));
#193=ORIENTED_EDGE('',*,*,#194,.T.);
#194=EDGE_CURVE('',#187,#169,#195,.T.);
#195=LINE('',#196,#197);
#196=CARTESIAN_POINT('',(213.655904541,179.181714727,33.498157783));
#197=VECTOR('',#198,1.0);
#198=DIRECTION('',(0.0,1.0,0.0));
#199=FACE_BOUND('',#200,.T.);
#200=EDGE_LOOP('',(#201,#211,#219,#227));
#201=ORIENTED_EDGE('',*,*,#202,.T.);
#202=EDGE_CURVE('',#203,#205,#207,.T.);
#203=VERTEX_POINT('',#204);
#204=CARTESIAN_POINT('',(216.195904541,179.431714727,33.498157783));
#205=VERTEX_POINT('',#206);
#206=CARTESIAN_POINT('',(215.695904541,179.431714727,33.498157783));
#207=LINE('',#208,#209);
#208=CARTESIAN_POINT('',(216.195904541,179.431714727,33.498157783));
#209=VECTOR('',#210,1.0);
#210=DIRECTION('',(-1.0,0.0,0.0));
#211=ORIENTED_EDGE('',*,*,#212,.T.);
#212=EDGE_CURVE('',#205,#213,#215,.T.);
#213=VERTEX_POINT('',#214);
#214=CARTESIAN_POINT('',(215.695904541,179.181714727,33.498157783));
#215=LINE('',#216,#217);
#216=CARTESIAN_POINT('',(215.695904541,179.431714727,33.498157783));
#217=VECTOR('',#218,1.0);
#218=DIRECTION('',(0.0,-1.0,0.0));
#219=ORIENTED_EDGE('',*,*,#220,.T.);
#220=EDGE_CURVE('',#213,#221,#223,.T.);
#221=VERTEX_POINT('',#222);
#222=CARTESIAN_POINT('',(216.195904541,179.181714727,33.498157783));
#223=LINE('',#224,#225);
#224=CARTESIAN_POINT('',(215.695904541,179.181714727,33.498157783));
#225=VECTOR('',#226,1.0);
#226=DIRECTION('',(1.0,0.0,0.0));
#227=ORIENTED_EDGE('',*,*,#228,.T.);
#228=EDGE_CURVE('',#221,#203,#229,.T.);
#229=LINE('',#230,#231);
#230=CARTESIAN_POINT('',(216.195904541,179.181714727,33.498157783));
#231=VECTOR('',#232,1.0);
#232=DIRECTION('',(0.0,1.0,0.0));
#233=FACE_BOUND('',#234,.T.);
#234=EDGE_LOOP('',(#235,#245,#253,#261));
#235=ORIENTED_EDGE('',*,*,#236,.T.);
#236=EDGE_CURVE('',#237,#239,#241,.T.);
#237=VERTEX_POINT('',#238);
#238=CARTESIAN_POINT('',(205.53590441,179.181714727,33.498157783));
#239=VERTEX_POINT('',#240);
#240=CARTESIAN_POINT('',(206.03590441,179.181714727,33.498157783));
#241=LINE('',#242,#243);
#242=CARTESIAN_POINT('',(205.53590441,179.181714727,33.498157783));
#243=VECTOR('',#244,1.0);
#244=DIRECTION('',(1.0,0.0,0.0));
#245=ORIENTED_EDGE('',*,*,#246,.T.);
#246=EDGE_CURVE('',#239,#247,#249,.T.);
#247=VERTEX_POINT('',#248);
#248=CARTESIAN_POINT('',(206.03590441,179.431714727,33.498157783));
#249=LINE('',#250,#251);
#250=CARTESIAN_POINT('',(206.03590441,179.181714727,33.498157783));
#251=VECTOR('',#252,1.0);
#252=DIRECTION('',(0.0,1.0,0.0));
#253=ORIENTED_EDGE('',*,*,#254,.T.);
#254=EDGE_CURVE('',#247,#255,#257,.T.);
#255=VERTEX_POINT('',#256);
#256=CARTESIAN_POINT('',(205.53590441,179.431714727,33.498157783));
#257=LINE('',#258,#259);
#258=CARTESIAN_POINT('',(206.03590441,179.431714727,33.498157783));
#259=VECTOR('',#260,1.0);
#260=DIRECTION('',(-1.0,0.0,0.0));
#261=ORIENTED_EDGE('',*,*,#262,.T.);
#262=EDGE_CURVE('',#255,#237,#263,.T.);
#263=LINE('',#264,#265);
#264=CARTESIAN_POINT('',(205.53590441,179.431714727,33.498157783));
#265=VECTOR('',#266,1.0);
#266=DIRECTION('',(0.0,-1.0,0.0));
#267=FACE_BOUND('',#268,.T.);
#268=EDGE_LOOP('',(#269,#279,#287,#295));
#269=ORIENTED_EDGE('',*,*,#270,.T.);
#270=EDGE_CURVE('',#271,#273,#275,.T.);
#271=VERTEX_POINT('',#272);
#272=CARTESIAN_POINT('',(208.07590441,179.181714727,33.498157783));
#273=VERTEX_POINT('',#274);
#274=CARTESIAN_POINT('',(208.57590441,179.181714727,33.498157783));
#275=LINE('',#276,#277);
#276=CARTESIAN_POINT('',(208.07590441,179.181714727,33.498157783));
#277=VECTOR('',#278,1.0);
#278=DIRECTION('',(1.0,0.0,0.0));
#279=ORIENTED_EDGE('',*,*,#280,.T.);
#280=EDGE_CURVE('',#273,#281,#283,.T.);
#281=VERTEX_POINT('',#282);
#282=CARTESIAN_POINT('',(208.57590441,179.431714727,33.498157783));
#283=LINE('',#284,#285);
#284=CARTESIAN_POINT('',(208.57590441,179.181714727,33.498157783));
#285=VECTOR('',#286,1.0);
#286=DIRECTION('',(0.0,1.0,0.0));
#287=ORIENTED_EDGE('',*,*,#288,.T.);
#288=EDGE_CURVE('',#281,#289,#291,.T.);
#289=VERTEX_POINT('',#290);
#290=CARTESIAN_POINT('',(208.07590441,179.431714727,33.498157783));
#291=LINE('',#292,#293);
#292=CARTESIAN_POINT('',(208.57590441,179.431714727,33.498157783));
#293=VECTOR('',#294,1.0);
#294=DIRECTION('',(-1.0,0.0,0.0));
#295=ORIENTED_EDGE('',*,*,#296,.T.);
#296=EDGE_CURVE('',#289,#271,#297,.T.);
#297=LINE('',#298,#299);
#298=CARTESIAN_POINT('',(208.07590441,179.431714727,33.498157783));
#299=VECTOR('',#300,1.0);
#300=DIRECTION('',(0.0,-1.0,0.0));
#301=FACE_BOUND('',#302,.T.);
#302=EDGE_LOOP('',(#303,#304,#305,#306));
#303=ORIENTED_EDGE('',*,*,#55,.F.);
#304=ORIENTED_EDGE('',*,*,#33,.F.);
#305=ORIENTED_EDGE('',*,*,#120,.F.);
#306=ORIENTED_EDGE('',*,*,#307,.T.);
#307=EDGE_CURVE('',#113,#56,#308,.T.);
#308=LINE('',#309,#310);
#309=CARTESIAN_POINT('',(218.23590441,179.431714727,33.498157783));
#310=VECTOR('',#311,1.0);
#311=DIRECTION('',(0.0,-1.0,0.0));
#312=PLANE('',#313);
#313=AXIS2_PLACEMENT_3D('',#314,#315,#316);
#314=CARTESIAN_POINT('',(222.38590441,180.656714727,33.498157783));
#315=DIRECTION('',(0.0,0.0,-1.0));
#316=DIRECTION('',(0.0,1.0,0.0));
#317=ADVANCED_FACE('',(#318),#375,.T.);
#318=FACE_BOUND('',#319,.T.);
#319=EDGE_LOOP('',(#320,#328,#336,#344,#352,#360,#368,#374));
#320=ORIENTED_EDGE('',*,*,#321,.T.);
#321=EDGE_CURVE('',#153,#322,#324,.T.);
#322=VERTEX_POINT('',#323);
#323=CARTESIAN_POINT('',(222.38590441,174.656714727,32.998157783));
#324=LINE('',#325,#326);
#325=CARTESIAN_POINT('',(222.38590441,174.656714727,33.498157783));
#326=VECTOR('',#327,1.0);
#327=DIRECTION('',(0.0,0.0,-1.0));
#328=ORIENTED_EDGE('',*,*,#329,.T.);
#329=EDGE_CURVE('',#322,#330,#332,.T.);
#330=VERTEX_POINT('',#331);
#331=CARTESIAN_POINT('',(222.88590441,174.656714727,32.998157783));
#332=LINE('',#333,#334);
#333=CARTESIAN_POINT('',(222.38590441,174.656714727,32.998157783));
#334=VECTOR('',#335,1.0);
#335=DIRECTION('',(1.0,0.0,0.0));
#336=ORIENTED_EDGE('',*,*,#337,.T.);
#337=EDGE_CURVE('',#330,#338,#340,.T.);
#338=VERTEX_POINT('',#339);
#339=CARTESIAN_POINT('',(222.88590441,174.656714727,42.998157783));
#340=LINE('',#341,#342);
#341=CARTESIAN_POINT('',(222.88590441,174.656714727,32.998157783));
#342=VECTOR('',#343,1.0);
#343=DIRECTION('',(0.0,0.0,1.0));
#344=ORIENTED_EDGE('',*,*,#345,.T.);
#345=EDGE_CURVE('',#338,#346,#348,.T.);
#346=VERTEX_POINT('',#347);
#347=CARTESIAN_POINT('',(203.38590441,174.656714727,42.998157783));
#348=LINE('',#349,#350);
#349=CARTESIAN_POINT('',(222.88590441,174.656714727,42.998157783));
#350=VECTOR('',#351,1.0);
#351=DIRECTION('',(-1.0,0.0,0.0));
#352=ORIENTED_EDGE('',*,*,#353,.T.);
#353=EDGE_CURVE('',#346,#354,#356,.T.);
#354=VERTEX_POINT('',#355);
#355=CARTESIAN_POINT('',(203.38590441,174.656714727,32.998157783));
#356=LINE('',#357,#358);
#357=CARTESIAN_POINT('',(203.38590441,174.656714727,42.998157783));
#358=VECTOR('',#359,1.0);
#359=DIRECTION('',(0.0,0.0,-1.0));
#360=ORIENTED_EDGE('',*,*,#361,.T.);
#361=EDGE_CURVE('',#354,#362,#364,.T.);
#362=VERTEX_POINT('',#363);
#363=CARTESIAN_POINT('',(203.88590441,174.656714727,32.998157783));
#364=LINE('',#365,#366);
#365=CARTESIAN_POINT('',(203.38590441,174.656714727,32.998157783));
#366=VECTOR('',#367,1.0);
#367=DIRECTION('',(1.0,0.0,0.0));
#368=ORIENTED_EDGE('',*,*,#369,.T.);
#369=EDGE_CURVE('',#362,#135,#370,.T.);
#370=LINE('',#371,#372);
#371=CARTESIAN_POINT('',(203.88590441,174.656714727,32.998157783));
#372=VECTOR('',#373,1.0);
#373=DIRECTION('',(0.0,0.0,1.0));
#374=ORIENTED_EDGE('',*,*,#160,.F.);
#375=PLANE('',#376);
#376=AXIS2_PLACEMENT_3D('',#377,#378,#379);
#377=CARTESIAN_POINT('',(213.13590441,174.656714727,38.073157783));
#378=DIRECTION('',(0.0,-1.0,0.0));
#379=DIRECTION('',(1.0,0.0,0.0));
#380=ADVANCED_FACE('',(#381),#399,.T.);
#381=FACE_BOUND('',#382,.T.);
#382=EDGE_LOOP('',(#383,#391,#397,#398));
#383=ORIENTED_EDGE('',*,*,#384,.T.);
#384=EDGE_CURVE('',#362,#385,#387,.F.);
#385=VERTEX_POINT('',#386);
#386=CARTESIAN_POINT('',(203.88590441,180.656714727,32.998157783));
#387=LINE('',#388,#389);
#388=CARTESIAN_POINT('',(203.88590441,180.656714727,32.998157783));
#389=VECTOR('',#390,1.0);
#390=DIRECTION('',(0.0,-1.0,0.0));
#391=ORIENTED_EDGE('',*,*,#392,.T.);
#392=EDGE_CURVE('',#385,#137,#393,.F.);
#393=LINE('',#394,#395);
#394=CARTESIAN_POINT('',(203.88590441,180.656714727,33.498157783));
#395=VECTOR('',#396,1.0);
#396=DIRECTION('',(0.0,0.0,-1.0));
#397=ORIENTED_EDGE('',*,*,#134,.F.);
#398=ORIENTED_EDGE('',*,*,#369,.F.);
#399=PLANE('',#400);
#400=AXIS2_PLACEMENT_3D('',#401,#402,#403);
#401=CARTESIAN_POINT('',(203.88590441,180.656714727,33.498157783));
#402=DIRECTION('',(1.0,0.0,0.0));
#403=DIRECTION('',(0.0,1.0,0.0));
#404=ADVANCED_FACE('',(#405),#455,.F.);
#405=FACE_BOUND('',#406,.T.);
#406=EDGE_LOOP('',(#407,#408,#409,#417,#425,#433,#441,#449));
#407=ORIENTED_EDGE('',*,*,#144,.F.);
#408=ORIENTED_EDGE('',*,*,#392,.F.);
#409=ORIENTED_EDGE('',*,*,#410,.T.);
#410=EDGE_CURVE('',#385,#411,#413,.T.);
#411=VERTEX_POINT('',#412);
#412=CARTESIAN_POINT('',(203.38590441,180.656714727,32.998157783));
#413=LINE('',#414,#415);
#414=CARTESIAN_POINT('',(203.88590441,180.656714727,32.998157783));
#415=VECTOR('',#416,1.0);
#416=DIRECTION('',(-1.0,0.0,0.0));
#417=ORIENTED_EDGE('',*,*,#418,.T.);
#418=EDGE_CURVE('',#411,#419,#421,.T.);
#419=VERTEX_POINT('',#420);
#420=CARTESIAN_POINT('',(203.38590441,180.656714727,42.998157783));
#421=LINE('',#422,#423);
#422=CARTESIAN_POINT('',(203.38590441,180.656714727,32.998157783));
#423=VECTOR('',#424,1.0);
#424=DIRECTION('',(0.0,0.0,1.0));
#425=ORIENTED_EDGE('',*,*,#426,.T.);
#426=EDGE_CURVE('',#419,#427,#429,.T.);
#427=VERTEX_POINT('',#428);
#428=CARTESIAN_POINT('',(222.88590441,180.656714727,42.998157783));
#429=LINE('',#430,#431);
#430=CARTESIAN_POINT('',(203.38590441,180.656714727,42.998157783));
#431=VECTOR('',#432,1.0);
#432=DIRECTION('',(1.0,0.0,0.0));
#433=ORIENTED_EDGE('',*,*,#434,.T.);
#434=EDGE_CURVE('',#427,#435,#437,.T.);
#435=VERTEX_POINT('',#436);
#436=CARTESIAN_POINT('',(222.88590441,180.656714727,32.998157783));
#437=LINE('',#438,#439);
#438=CARTESIAN_POINT('',(222.88590441,180.656714727,42.998157783));
#439=VECTOR('',#440,1.0);
#440=DIRECTION('',(0.0,0.0,-1.0));
#441=ORIENTED_EDGE('',*,*,#442,.T.);
#442=EDGE_CURVE('',#435,#443,#445,.T.);
#443=VERTEX_POINT('',#444);
#444=CARTESIAN_POINT('',(222.38590441,180.656714727,32.998157783));
#445=LINE('',#446,#447);
#446=CARTESIAN_POINT('',(222.88590441,180.656714727,32.998157783));
#447=VECTOR('',#448,1.0);
#448=DIRECTION('',(-1.0,0.0,0.0));
#449=ORIENTED_EDGE('',*,*,#450,.T.);
#450=EDGE_CURVE('',#443,#145,#451,.T.);
#451=LINE('',#452,#453);
#452=CARTESIAN_POINT('',(222.38590441,180.656714727,32.998157783));
#453=VECTOR('',#454,1.0);
#454=DIRECTION('',(0.0,0.0,1.0));
#455=PLANE('',#456);
#456=AXIS2_PLACEMENT_3D('',#457,#458,#459);
#457=CARTESIAN_POINT('',(213.13590441,180.656714727,38.073157783));
#458=DIRECTION('',(0.0,-1.0,0.0));
#459=DIRECTION('',(1.0,0.0,0.0));
#460=ADVANCED_FACE('',(#461),#472,.T.);
#461=FACE_BOUND('',#462,.T.);
#462=EDGE_LOOP('',(#463,#464,#465,#471));
#463=ORIENTED_EDGE('',*,*,#152,.F.);
#464=ORIENTED_EDGE('',*,*,#450,.F.);
#465=ORIENTED_EDGE('',*,*,#466,.T.);
#466=EDGE_CURVE('',#443,#322,#467,.T.);
#467=LINE('',#468,#469);
#468=CARTESIAN_POINT('',(222.38590441,180.656714727,32.998157783));
#469=VECTOR('',#470,1.0);
#470=DIRECTION('',(0.0,-1.0,0.0));
#471=ORIENTED_EDGE('',*,*,#321,.F.);
#472=PLANE('',#473);
#473=AXIS2_PLACEMENT_3D('',#474,#475,#476);
#474=CARTESIAN_POINT('',(222.38590441,180.656714727,32.998157783));
#475=DIRECTION('',(-1.0,0.0,0.0));
#476=DIRECTION('',(0.0,-1.0,0.0));
#477=ADVANCED_FACE('',(#478),#489,.T.);
#478=FACE_BOUND('',#479,.T.);
#479=EDGE_LOOP('',(#480,#481,#482,#488));
#480=ORIENTED_EDGE('',*,*,#466,.F.);
#481=ORIENTED_EDGE('',*,*,#442,.F.);
#482=ORIENTED_EDGE('',*,*,#483,.T.);
#483=EDGE_CURVE('',#435,#330,#484,.T.);
#484=LINE('',#485,#486);
#485=CARTESIAN_POINT('',(222.88590441,180.656714727,32.998157783));
#486=VECTOR('',#487,1.0);
#487=DIRECTION('',(0.0,-1.0,0.0));
#488=ORIENTED_EDGE('',*,*,#329,.F.);
#489=PLANE('',#490);
#490=AXIS2_PLACEMENT_3D('',#491,#492,#493);
#491=CARTESIAN_POINT('',(222.88590441,180.656714727,32.998157783));
#492=DIRECTION('',(0.0,0.0,-1.0));
#493=DIRECTION('',(0.0,1.0,0.0));
#494=ADVANCED_FACE('',(#495),#506,.T.);
#495=FACE_BOUND('',#496,.T.);
#496=EDGE_LOOP('',(#497,#498,#499,#505));
#497=ORIENTED_EDGE('',*,*,#483,.F.);
#498=ORIENTED_EDGE('',*,*,#434,.F.);
#499=ORIENTED_EDGE('',*,*,#500,.T.);
#500=EDGE_CURVE('',#427,#338,#501,.T.);
#501=LINE('',#502,#503);
#502=CARTESIAN_POINT('',(222.88590441,180.656714727,42.998157783));
#503=VECTOR('',#504,1.0);
#504=DIRECTION('',(0.0,-1.0,0.0));
#505=ORIENTED_EDGE('',*,*,#337,.F.);
#506=PLANE('',#507);
#507=AXIS2_PLACEMENT_3D('',#508,#509,#510);
#508=CARTESIAN_POINT('',(222.88590441,180.656714727,33.498157783));
#509=DIRECTION('',(1.0,0.0,0.0));
#510=DIRECTION('',(0.0,1.0,0.0));
#511=ADVANCED_FACE('',(#512),#523,.T.);
#512=FACE_BOUND('',#513,.T.);
#513=EDGE_LOOP('',(#514,#515,#516,#522));
#514=ORIENTED_EDGE('',*,*,#500,.F.);
#515=ORIENTED_EDGE('',*,*,#426,.F.);
#516=ORIENTED_EDGE('',*,*,#517,.T.);
#517=EDGE_CURVE('',#419,#346,#518,.T.);
#518=LINE('',#519,#520);
#519=CARTESIAN_POINT('',(203.38590441,180.656714727,42.998157783));
#520=VECTOR('',#521,1.0);
#521=DIRECTION('',(0.0,-1.0,0.0));
#522=ORIENTED_EDGE('',*,*,#345,.F.);
#523=PLANE('',#524);
#524=AXIS2_PLACEMENT_3D('',#525,#526,#527);
#525=CARTESIAN_POINT('',(203.38590441,180.656714727,42.998157783));
#526=DIRECTION('',(0.0,0.0,1.0));
#527=DIRECTION('',(0.0,-1.0,0.0));
#528=ADVANCED_FACE('',(#529),#540,.T.);
#529=FACE_BOUND('',#530,.T.);
#530=EDGE_LOOP('',(#531,#532,#533,#539));
#531=ORIENTED_EDGE('',*,*,#517,.F.);
#532=ORIENTED_EDGE('',*,*,#418,.F.);
#533=ORIENTED_EDGE('',*,*,#534,.T.);
#534=EDGE_CURVE('',#411,#354,#535,.T.);
#535=LINE('',#536,#537);
#536=CARTESIAN_POINT('',(203.38590441,180.656714727,32.998157783));
#537=VECTOR('',#538,1.0);
#538=DIRECTION('',(0.0,-1.0,0.0));
#539=ORIENTED_EDGE('',*,*,#353,.F.);
#540=PLANE('',#541);
#541=AXIS2_PLACEMENT_3D('',#542,#543,#544);
#542=CARTESIAN_POINT('',(203.38590441,180.656714727,33.498157783));
#543=DIRECTION('',(-1.0,0.0,0.0));
#544=DIRECTION('',(0.0,-1.0,0.0));
#545=ADVANCED_FACE('',(#546),#552,.T.);
#546=FACE_BOUND('',#547,.T.);
#547=EDGE_LOOP('',(#548,#549,#550,#551));
#548=ORIENTED_EDGE('',*,*,#534,.F.);
#549=ORIENTED_EDGE('',*,*,#410,.F.);
#550=ORIENTED_EDGE('',*,*,#384,.F.);
#551=ORIENTED_EDGE('',*,*,#361,.F.);
#552=PLANE('',#553);
#553=AXIS2_PLACEMENT_3D('',#554,#555,#556);
#554=CARTESIAN_POINT('',(203.88590441,180.656714727,32.998157783));
#555=DIRECTION('',(0.0,0.0,-1.0));
#556=DIRECTION('',(0.0,1.0,0.0));
#557=ADVANCED_FACE('',(#558),#583,.T.);
#558=FACE_BOUND('',#559,.T.);
#559=EDGE_LOOP('',(#560,#570,#576,#577));
#560=ORIENTED_EDGE('',*,*,#561,.T.);
#561=EDGE_CURVE('',#562,#564,#566,.F.);
#562=VERTEX_POINT('',#563);
#563=CARTESIAN_POINT('',(213.655904541,179.181714727,29.948157837));
#564=VERTEX_POINT('',#565);
#565=CARTESIAN_POINT('',(213.655904541,179.431714727,29.948157837));
#566=LINE('',#567,#568);
#567=CARTESIAN_POINT('',(213.655904541,179.431714727,29.948157837));
#568=VECTOR('',#569,1.0);
#569=DIRECTION('',(0.0,-1.0,0.0));
#570=ORIENTED_EDGE('',*,*,#571,.T.);
#571=EDGE_CURVE('',#564,#169,#572,.F.);
#572=LINE('',#573,#574);
#573=CARTESIAN_POINT('',(213.655904541,179.431714727,33.498157783));
#574=VECTOR('',#575,1.0);
#575=DIRECTION('',(0.0,0.0,-1.0));
#576=ORIENTED_EDGE('',*,*,#194,.F.);
#577=ORIENTED_EDGE('',*,*,#578,.T.);
#578=EDGE_CURVE('',#187,#562,#579,.F.);
#579=LINE('',#580,#581);
#580=CARTESIAN_POINT('',(213.655904541,179.181714727,29.948157837));
#581=VECTOR('',#582,1.0);
#582=DIRECTION('',(0.0,0.0,1.0));
#583=PLANE('',#584);
#584=AXIS2_PLACEMENT_3D('',#585,#586,#587);
#585=CARTESIAN_POINT('',(213.655904541,179.431714727,33.498157837));
#586=DIRECTION('',(1.0,0.0,0.0));
#587=DIRECTION('',(0.0,1.0,0.0));
#588=ADVANCED_FACE('',(#589),#607,.T.);
#589=FACE_BOUND('',#590,.T.);
#590=EDGE_LOOP('',(#591,#599,#600,#601));
#591=ORIENTED_EDGE('',*,*,#592,.T.);
#592=EDGE_CURVE('',#593,#562,#595,.T.);
#593=VERTEX_POINT('',#594);
#594=CARTESIAN_POINT('',(213.155904541,179.181714727,29.948157837));
#595=LINE('',#596,#597);
#596=CARTESIAN_POINT('',(213.155904541,179.181714727,29.948157837));
#597=VECTOR('',#598,1.0);
#598=DIRECTION('',(1.0,0.0,0.0));
#599=ORIENTED_EDGE('',*,*,#578,.F.);
#600=ORIENTED_EDGE('',*,*,#186,.F.);
#601=ORIENTED_EDGE('',*,*,#602,.T.);
#602=EDGE_CURVE('',#179,#593,#603,.T.);
#603=LINE('',#604,#605);
#604=CARTESIAN_POINT('',(213.155904541,179.181714727,33.498157783));
#605=VECTOR('',#606,1.0);
#606=DIRECTION('',(0.0,0.0,-1.0));
#607=PLANE('',#608);
#608=AXIS2_PLACEMENT_3D('',#609,#610,#611);
#609=CARTESIAN_POINT('',(213.405904541,179.181714727,31.723157837));
#610=DIRECTION('',(0.0,-1.0,0.0));
#611=DIRECTION('',(1.0,0.0,0.0));
#612=ADVANCED_FACE('',(#613),#631,.T.);
#613=FACE_BOUND('',#614,.T.);
#614=EDGE_LOOP('',(#615,#616,#624,#630));
#615=ORIENTED_EDGE('',*,*,#178,.F.);
#616=ORIENTED_EDGE('',*,*,#617,.T.);
#617=EDGE_CURVE('',#171,#618,#620,.F.);
#618=VERTEX_POINT('',#619);
#619=CARTESIAN_POINT('',(213.155904541,179.431714727,29.948157837));
#620=LINE('',#621,#622);
#621=CARTESIAN_POINT('',(213.155904541,179.431714727,29.948157837));
#622=VECTOR('',#623,1.0);
#623=DIRECTION('',(0.0,0.0,1.0));
#624=ORIENTED_EDGE('',*,*,#625,.T.);
#625=EDGE_CURVE('',#618,#593,#626,.F.);
#626=LINE('',#627,#628);
#627=CARTESIAN_POINT('',(213.155904541,179.181714727,29.948157837));
#628=VECTOR('',#629,1.0);
#629=DIRECTION('',(0.0,1.0,0.0));
#630=ORIENTED_EDGE('',*,*,#602,.F.);
#631=PLANE('',#632);
#632=AXIS2_PLACEMENT_3D('',#633,#634,#635);
#633=CARTESIAN_POINT('',(213.155904541,179.431714727,29.948157837));
#634=DIRECTION('',(-1.0,0.0,0.0));
#635=DIRECTION('',(0.0,-1.0,0.0));
#636=ADVANCED_FACE('',(#637),#648,.T.);
#637=FACE_BOUND('',#638,.T.);
#638=EDGE_LOOP('',(#639,#640,#646,#647));
#639=ORIENTED_EDGE('',*,*,#625,.F.);
#640=ORIENTED_EDGE('',*,*,#641,.T.);
#641=EDGE_CURVE('',#618,#564,#642,.F.);
#642=LINE('',#643,#644);
#643=CARTESIAN_POINT('',(213.655904541,179.431714727,29.948157837));
#644=VECTOR('',#645,1.0);
#645=DIRECTION('',(-1.0,0.0,0.0));
#646=ORIENTED_EDGE('',*,*,#561,.F.);
#647=ORIENTED_EDGE('',*,*,#592,.F.);
#648=PLANE('',#649);
#649=AXIS2_PLACEMENT_3D('',#650,#651,#652);
#650=CARTESIAN_POINT('',(213.655904541,179.431714727,29.948157837));
#651=DIRECTION('',(0.0,0.0,-1.0));
#652=DIRECTION('',(0.0,1.0,0.0));
#653=ADVANCED_FACE('',(#654),#660,.F.);
#654=FACE_BOUND('',#655,.T.);
#655=EDGE_LOOP('',(#656,#657,#658,#659));
#656=ORIENTED_EDGE('',*,*,#617,.F.);
#657=ORIENTED_EDGE('',*,*,#168,.F.);
#658=ORIENTED_EDGE('',*,*,#571,.F.);
#659=ORIENTED_EDGE('',*,*,#641,.F.);
#660=PLANE('',#661);
#661=AXIS2_PLACEMENT_3D('',#662,#663,#664);
#662=CARTESIAN_POINT('',(213.405904541,179.431714727,31.723157837));
#663=DIRECTION('',(0.0,-1.0,0.0));
#664=DIRECTION('',(1.0,0.0,0.0));
#665=ADVANCED_FACE('',(#666),#691,.T.);
#666=FACE_BOUND('',#667,.T.);
#667=EDGE_LOOP('',(#668,#678,#684,#685));
#668=ORIENTED_EDGE('',*,*,#669,.T.);
#669=EDGE_CURVE('',#670,#672,#674,.F.);
#670=VERTEX_POINT('',#671);
#671=CARTESIAN_POINT('',(216.195904541,179.181714727,29.948157837));
#672=VERTEX_POINT('',#673);
#673=CARTESIAN_POINT('',(216.195904541,179.431714727,29.948157837));
#674=LINE('',#675,#676);
#675=CARTESIAN_POINT('',(216.195904541,179.431714727,29.948157837));
#676=VECTOR('',#677,1.0);
#677=DIRECTION('',(0.0,-1.0,0.0));
#678=ORIENTED_EDGE('',*,*,#679,.T.);
#679=EDGE_CURVE('',#672,#203,#680,.F.);
#680=LINE('',#681,#682);
#681=CARTESIAN_POINT('',(216.195904541,179.431714727,33.498157783));
#682=VECTOR('',#683,1.0);
#683=DIRECTION('',(0.0,0.0,-1.0));
#684=ORIENTED_EDGE('',*,*,#228,.F.);
#685=ORIENTED_EDGE('',*,*,#686,.T.);
#686=EDGE_CURVE('',#221,#670,#687,.F.);
#687=LINE('',#688,#689);
#688=CARTESIAN_POINT('',(216.195904541,179.181714727,29.948157837));
#689=VECTOR('',#690,1.0);
#690=DIRECTION('',(0.0,0.0,1.0));
#691=PLANE('',#692);
#692=AXIS2_PLACEMENT_3D('',#693,#694,#695);
#693=CARTESIAN_POINT('',(216.195904541,179.431714727,33.498157837));
#694=DIRECTION('',(1.0,0.0,0.0));
#695=DIRECTION('',(0.0,1.0,0.0));
#696=ADVANCED_FACE('',(#697),#715,.T.);
#697=FACE_BOUND('',#698,.T.);
#698=EDGE_LOOP('',(#699,#707,#708,#709));
#699=ORIENTED_EDGE('',*,*,#700,.T.);
#700=EDGE_CURVE('',#701,#670,#703,.T.);
#701=VERTEX_POINT('',#702);
#702=CARTESIAN_POINT('',(215.695904541,179.181714727,29.948157837));
#703=LINE('',#704,#705);
#704=CARTESIAN_POINT('',(215.695904541,179.181714727,29.948157837));
#705=VECTOR('',#706,1.0);
#706=DIRECTION('',(1.0,0.0,0.0));
#707=ORIENTED_EDGE('',*,*,#686,.F.);
#708=ORIENTED_EDGE('',*,*,#220,.F.);
#709=ORIENTED_EDGE('',*,*,#710,.T.);
#710=EDGE_CURVE('',#213,#701,#711,.T.);
#711=LINE('',#712,#713);
#712=CARTESIAN_POINT('',(215.695904541,179.181714727,33.498157783));
#713=VECTOR('',#714,1.0);
#714=DIRECTION('',(0.0,0.0,-1.0));
#715=PLANE('',#716);
#716=AXIS2_PLACEMENT_3D('',#717,#718,#719);
#717=CARTESIAN_POINT('',(215.945904541,179.181714727,31.723157837));
#718=DIRECTION('',(0.0,-1.0,0.0));
#719=DIRECTION('',(1.0,0.0,0.0));
#720=ADVANCED_FACE('',(#721),#739,.T.);
#721=FACE_BOUND('',#722,.T.);
#722=EDGE_LOOP('',(#723,#724,#732,#738));
#723=ORIENTED_EDGE('',*,*,#212,.F.);
#724=ORIENTED_EDGE('',*,*,#725,.T.);
#725=EDGE_CURVE('',#205,#726,#728,.F.);
#726=VERTEX_POINT('',#727);
#727=CARTESIAN_POINT('',(215.695904541,179.431714727,29.948157837));
#728=LINE('',#729,#730);
#729=CARTESIAN_POINT('',(215.695904541,179.431714727,29.948157837));
#730=VECTOR('',#731,1.0);
#731=DIRECTION('',(0.0,0.0,1.0));
#732=ORIENTED_EDGE('',*,*,#733,.T.);
#733=EDGE_CURVE('',#726,#701,#734,.F.);
#734=LINE('',#735,#736);
#735=CARTESIAN_POINT('',(215.695904541,179.181714727,29.948157837));
#736=VECTOR('',#737,1.0);
#737=DIRECTION('',(0.0,1.0,0.0));
#738=ORIENTED_EDGE('',*,*,#710,.F.);
#739=PLANE('',#740);
#740=AXIS2_PLACEMENT_3D('',#741,#742,#743);
#741=CARTESIAN_POINT('',(215.695904541,179.431714727,29.948157837));
#742=DIRECTION('',(-1.0,0.0,0.0));
#743=DIRECTION('',(0.0,-1.0,0.0));
#744=ADVANCED_FACE('',(#745),#756,.T.);
#745=FACE_BOUND('',#746,.T.);
#746=EDGE_LOOP('',(#747,#748,#754,#755));
#747=ORIENTED_EDGE('',*,*,#733,.F.);
#748=ORIENTED_EDGE('',*,*,#749,.T.);
#749=EDGE_CURVE('',#726,#672,#750,.F.);
#750=LINE('',#751,#752);
#751=CARTESIAN_POINT('',(216.195904541,179.431714727,29.948157837));
#752=VECTOR('',#753,1.0);
#753=DIRECTION('',(-1.0,0.0,0.0));
#754=ORIENTED_EDGE('',*,*,#669,.F.);
#755=ORIENTED_EDGE('',*,*,#700,.F.);
#756=PLANE('',#757);
#757=AXIS2_PLACEMENT_3D('',#758,#759,#760);
#758=CARTESIAN_POINT('',(216.195904541,179.431714727,29.948157837));
#759=DIRECTION('',(0.0,0.0,-1.0));
#760=DIRECTION('',(0.0,1.0,0.0));
#761=ADVANCED_FACE('',(#762),#768,.F.);
#762=FACE_BOUND('',#763,.T.);
#763=EDGE_LOOP('',(#764,#765,#766,#767));
#764=ORIENTED_EDGE('',*,*,#725,.F.);
#765=ORIENTED_EDGE('',*,*,#202,.F.);
#766=ORIENTED_EDGE('',*,*,#679,.F.);
#767=ORIENTED_EDGE('',*,*,#749,.F.);
#768=PLANE('',#769);
#769=AXIS2_PLACEMENT_3D('',#770,#771,#772);
#770=CARTESIAN_POINT('',(215.945904541,179.431714727,31.723157837));
#771=DIRECTION('',(0.0,-1.0,0.0));
#772=DIRECTION('',(1.0,0.0,0.0));
#773=ADVANCED_FACE('',(#774),#799,.T.);
#774=FACE_BOUND('',#775,.T.);
#775=EDGE_LOOP('',(#776,#777,#785,#793));
#776=ORIENTED_EDGE('',*,*,#262,.F.);
#777=ORIENTED_EDGE('',*,*,#778,.T.);
#778=EDGE_CURVE('',#255,#779,#781,.F.);
#779=VERTEX_POINT('',#780);
#780=CARTESIAN_POINT('',(205.53590441,179.431714727,29.948157783));
#781=LINE('',#782,#783);
#782=CARTESIAN_POINT('',(205.53590441,179.431714727,29.948157783));
#783=VECTOR('',#784,1.0);
#784=DIRECTION('',(0.0,0.0,1.0));
#785=ORIENTED_EDGE('',*,*,#786,.T.);
#786=EDGE_CURVE('',#779,#787,#789,.T.);
#787=VERTEX_POINT('',#788);
#788=CARTESIAN_POINT('',(205.53590441,179.181714727,29.948157783));
#789=LINE('',#790,#791);
#790=CARTESIAN_POINT('',(205.53590441,179.431714727,29.948157783));
#791=VECTOR('',#792,1.0);
#792=DIRECTION('',(0.0,-1.0,0.0));
#793=ORIENTED_EDGE('',*,*,#794,.T.);
#794=EDGE_CURVE('',#787,#237,#795,.F.);
#795=LINE('',#796,#797);
#796=CARTESIAN_POINT('',(205.53590441,179.181714727,33.498157783));
#797=VECTOR('',#798,1.0);
#798=DIRECTION('',(0.0,0.0,-1.0));
#799=PLANE('',#800);
#800=AXIS2_PLACEMENT_3D('',#801,#802,#803);
#801=CARTESIAN_POINT('',(205.53590441,179.431714727,29.948157783));
#802=DIRECTION('',(-1.0,0.0,0.0));
#803=DIRECTION('',(0.0,-1.0,0.0));
#804=ADVANCED_FACE('',(#805),#823,.T.);
#805=FACE_BOUND('',#806,.T.);
#806=EDGE_LOOP('',(#807,#808,#809,#817));
#807=ORIENTED_EDGE('',*,*,#236,.F.);
#808=ORIENTED_EDGE('',*,*,#794,.F.);
#809=ORIENTED_EDGE('',*,*,#810,.T.);
#810=EDGE_CURVE('',#787,#811,#813,.T.);
#811=VERTEX_POINT('',#812);
#812=CARTESIAN_POINT('',(206.03590441,179.181714727,29.948157783));
#813=LINE('',#814,#815);
#814=CARTESIAN_POINT('',(205.53590441,179.181714727,29.948157783));
#815=VECTOR('',#816,1.0);
#816=DIRECTION('',(1.0,0.0,0.0));
#817=ORIENTED_EDGE('',*,*,#818,.T.);
#818=EDGE_CURVE('',#811,#239,#819,.T.);
#819=LINE('',#820,#821);
#820=CARTESIAN_POINT('',(206.03590441,179.181714727,29.948157783));
#821=VECTOR('',#822,1.0);
#822=DIRECTION('',(0.0,0.0,1.0));
#823=PLANE('',#824);
#824=AXIS2_PLACEMENT_3D('',#825,#826,#827);
#825=CARTESIAN_POINT('',(205.78590441,179.181714727,31.723157783));
#826=DIRECTION('',(0.0,-1.0,0.0));
#827=DIRECTION('',(1.0,0.0,0.0));
#828=ADVANCED_FACE('',(#829),#847,.T.);
#829=FACE_BOUND('',#830,.T.);
#830=EDGE_LOOP('',(#831,#839,#845,#846));
#831=ORIENTED_EDGE('',*,*,#832,.T.);
#832=EDGE_CURVE('',#811,#833,#835,.F.);
#833=VERTEX_POINT('',#834);
#834=CARTESIAN_POINT('',(206.03590441,179.431714727,29.948157783));
#835=LINE('',#836,#837);
#836=CARTESIAN_POINT('',(206.03590441,179.431714727,29.948157783));
#837=VECTOR('',#838,1.0);
#838=DIRECTION('',(0.0,-1.0,0.0));
#839=ORIENTED_EDGE('',*,*,#840,.T.);
#840=EDGE_CURVE('',#833,#247,#841,.F.);
#841=LINE('',#842,#843);
#842=CARTESIAN_POINT('',(206.03590441,179.431714727,33.498157783));
#843=VECTOR('',#844,1.0);
#844=DIRECTION('',(0.0,0.0,-1.0));
#845=ORIENTED_EDGE('',*,*,#246,.F.);
#846=ORIENTED_EDGE('',*,*,#818,.F.);
#847=PLANE('',#848);
#848=AXIS2_PLACEMENT_3D('',#849,#850,#851);
#849=CARTESIAN_POINT('',(206.03590441,179.431714727,33.498157783));
#850=DIRECTION('',(1.0,0.0,0.0));
#851=DIRECTION('',(0.0,1.0,0.0));
#852=ADVANCED_FACE('',(#853),#864,.F.);
#853=FACE_BOUND('',#854,.T.);
#854=EDGE_LOOP('',(#855,#856,#862,#863));
#855=ORIENTED_EDGE('',*,*,#840,.F.);
#856=ORIENTED_EDGE('',*,*,#857,.T.);
#857=EDGE_CURVE('',#833,#779,#858,.T.);
#858=LINE('',#859,#860);
#859=CARTESIAN_POINT('',(206.03590441,179.431714727,29.948157783));
#860=VECTOR('',#861,1.0);
#861=DIRECTION('',(-1.0,0.0,0.0));
#862=ORIENTED_EDGE('',*,*,#778,.F.);
#863=ORIENTED_EDGE('',*,*,#254,.F.);
#864=PLANE('',#865);
#865=AXIS2_PLACEMENT_3D('',#866,#867,#868);
#866=CARTESIAN_POINT('',(205.78590441,179.431714727,31.723157783));
#867=DIRECTION('',(0.0,-1.0,0.0));
#868=DIRECTION('',(1.0,0.0,0.0));
#869=ADVANCED_FACE('',(#870),#876,.T.);
#870=FACE_BOUND('',#871,.T.);
#871=EDGE_LOOP('',(#872,#873,#874,#875));
#872=ORIENTED_EDGE('',*,*,#786,.F.);
#873=ORIENTED_EDGE('',*,*,#857,.F.);
#874=ORIENTED_EDGE('',*,*,#832,.F.);
#875=ORIENTED_EDGE('',*,*,#810,.F.);
#876=PLANE('',#877);
#877=AXIS2_PLACEMENT_3D('',#878,#879,#880);
#878=CARTESIAN_POINT('',(206.03590441,179.431714727,29.948157783));
#879=DIRECTION('',(0.0,0.0,-1.0));
#880=DIRECTION('',(0.0,1.0,0.0));
#881=ADVANCED_FACE('',(#882),#907,.T.);
#882=FACE_BOUND('',#883,.T.);
#883=EDGE_LOOP('',(#884,#885,#893,#901));
#884=ORIENTED_EDGE('',*,*,#296,.F.);
#885=ORIENTED_EDGE('',*,*,#886,.T.);
#886=EDGE_CURVE('',#289,#887,#889,.F.);
#887=VERTEX_POINT('',#888);
#888=CARTESIAN_POINT('',(208.07590441,179.431714727,29.948157783));
#889=LINE('',#890,#891);
#890=CARTESIAN_POINT('',(208.07590441,179.431714727,29.948157783));
#891=VECTOR('',#892,1.0);
#892=DIRECTION('',(0.0,0.0,1.0));
#893=ORIENTED_EDGE('',*,*,#894,.T.);
#894=EDGE_CURVE('',#887,#895,#897,.T.);
#895=VERTEX_POINT('',#896);
#896=CARTESIAN_POINT('',(208.07590441,179.181714727,29.948157783));
#897=LINE('',#898,#899);
#898=CARTESIAN_POINT('',(208.07590441,179.431714727,29.948157783));
#899=VECTOR('',#900,1.0);
#900=DIRECTION('',(0.0,-1.0,0.0));
#901=ORIENTED_EDGE('',*,*,#902,.T.);
#902=EDGE_CURVE('',#895,#271,#903,.F.);
#903=LINE('',#904,#905);
#904=CARTESIAN_POINT('',(208.07590441,179.181714727,33.498157783));
#905=VECTOR('',#906,1.0);
#906=DIRECTION('',(0.0,0.0,-1.0));
#907=PLANE('',#908);
#908=AXIS2_PLACEMENT_3D('',#909,#910,#911);
#909=CARTESIAN_POINT('',(208.07590441,179.431714727,29.948157783));
#910=DIRECTION('',(-1.0,0.0,0.0));
#911=DIRECTION('',(0.0,-1.0,0.0));
#912=ADVANCED_FACE('',(#913),#931,.T.);
#913=FACE_BOUND('',#914,.T.);
#914=EDGE_LOOP('',(#915,#916,#917,#925));
#915=ORIENTED_EDGE('',*,*,#270,.F.);
#916=ORIENTED_EDGE('',*,*,#902,.F.);
#917=ORIENTED_EDGE('',*,*,#918,.T.);
#918=EDGE_CURVE('',#895,#919,#921,.T.);
#919=VERTEX_POINT('',#920);
#920=CARTESIAN_POINT('',(208.57590441,179.181714727,29.948157783));
#921=LINE('',#922,#923);
#922=CARTESIAN_POINT('',(208.07590441,179.181714727,29.948157783));
#923=VECTOR('',#924,1.0);
#924=DIRECTION('',(1.0,0.0,0.0));
#925=ORIENTED_EDGE('',*,*,#926,.T.);
#926=EDGE_CURVE('',#919,#273,#927,.T.);
#927=LINE('',#928,#929);
#928=CARTESIAN_POINT('',(208.57590441,179.181714727,29.948157783));
#929=VECTOR('',#930,1.0);
#930=DIRECTION('',(0.0,0.0,1.0));
#931=PLANE('',#932);
#932=AXIS2_PLACEMENT_3D('',#933,#934,#935);
#933=CARTESIAN_POINT('',(208.32590441,179.181714727,31.723157783));
#934=DIRECTION('',(0.0,-1.0,0.0));
#935=DIRECTION('',(1.0,0.0,0.0));
#936=ADVANCED_FACE('',(#937),#955,.T.);
#937=FACE_BOUND('',#938,.T.);
#938=EDGE_LOOP('',(#939,#947,#953,#954));
#939=ORIENTED_EDGE('',*,*,#940,.T.);
#940=EDGE_CURVE('',#919,#941,#943,.F.);
#941=VERTEX_POINT('',#942);
#942=CARTESIAN_POINT('',(208.57590441,179.431714727,29.948157783));
#943=LINE('',#944,#945);
#944=CARTESIAN_POINT('',(208.57590441,179.431714727,29.948157783));
#945=VECTOR('',#946,1.0);
#946=DIRECTION('',(0.0,-1.0,0.0));
#947=ORIENTED_EDGE('',*,*,#948,.T.);
#948=EDGE_CURVE('',#941,#281,#949,.F.);
#949=LINE('',#950,#951);
#950=CARTESIAN_POINT('',(208.57590441,179.431714727,33.498157783));
#951=VECTOR('',#952,1.0);
#952=DIRECTION('',(0.0,0.0,-1.0));
#953=ORIENTED_EDGE('',*,*,#280,.F.);
#954=ORIENTED_EDGE('',*,*,#926,.F.);
#955=PLANE('',#956);
#956=AXIS2_PLACEMENT_3D('',#957,#958,#959);
#957=CARTESIAN_POINT('',(208.57590441,179.431714727,33.498157783));
#958=DIRECTION('',(1.0,0.0,0.0));
#959=DIRECTION('',(0.0,1.0,0.0));
#960=ADVANCED_FACE('',(#961),#972,.F.);
#961=FACE_BOUND('',#962,.T.);
#962=EDGE_LOOP('',(#963,#964,#970,#971));
#963=ORIENTED_EDGE('',*,*,#948,.F.);
#964=ORIENTED_EDGE('',*,*,#965,.T.);
#965=EDGE_CURVE('',#941,#887,#966,.T.);
#966=LINE('',#967,#968);
#967=CARTESIAN_POINT('',(208.57590441,179.431714727,29.948157783));
#968=VECTOR('',#969,1.0);
#969=DIRECTION('',(-1.0,0.0,0.0));
#970=ORIENTED_EDGE('',*,*,#886,.F.);
#971=ORIENTED_EDGE('',*,*,#288,.F.);
#972=PLANE('',#973);
#973=AXIS2_PLACEMENT_3D('',#974,#975,#976);
#974=CARTESIAN_POINT('',(208.32590441,179.431714727,31.723157783));
#975=DIRECTION('',(0.0,-1.0,0.0));
#976=DIRECTION('',(1.0,0.0,0.0));
#977=ADVANCED_FACE('',(#978),#984,.T.);
#978=FACE_BOUND('',#979,.T.);
#979=EDGE_LOOP('',(#980,#981,#982,#983));
#980=ORIENTED_EDGE('',*,*,#894,.F.);
#981=ORIENTED_EDGE('',*,*,#965,.F.);
#982=ORIENTED_EDGE('',*,*,#940,.F.);
#983=ORIENTED_EDGE('',*,*,#918,.F.);
#984=PLANE('',#985);
#985=AXIS2_PLACEMENT_3D('',#986,#987,#988);
#986=CARTESIAN_POINT('',(208.57590441,179.431714727,29.948157783));
#987=DIRECTION('',(0.0,0.0,-1.0));
#988=DIRECTION('',(0.0,1.0,0.0));
#989=ADVANCED_FACE('',(#990),#996,.T.);
#990=FACE_BOUND('',#991,.T.);
#991=EDGE_LOOP('',(#992,#993,#994,#995));
#992=ORIENTED_EDGE('',*,*,#307,.F.);
#993=ORIENTED_EDGE('',*,*,#112,.F.);
#994=ORIENTED_EDGE('',*,*,#86,.F.);
#995=ORIENTED_EDGE('',*,*,#63,.F.);
#996=PLANE('',#997);
#997=AXIS2_PLACEMENT_3D('',#998,#999,#1000);
#998=CARTESIAN_POINT('',(218.23590441,179.431714727,29.948157783));
#999=DIRECTION('',(-1.0,0.0,0.0));
#1000=DIRECTION('',(0.0,-1.0,0.0));
#1001=AXIS2_PLACEMENT_3D('',#1002,#1003,#1004);
#1002=CARTESIAN_POINT('',(0.0,0.0,0.0));
#1003=DIRECTION('',(0.0,0.0,1.0));
#1004=DIRECTION('',(1.0,0.0,0.0));
#1005=(GEOMETRIC_REPRESENTATION_CONTEXT(3)GLOBAL_UNCERTAINTY_ASSIGNED_CONTEXT((#1009))GLOBAL_UNIT_ASSIGNED_CONTEXT((#1006,#1007,#1008))REPRESENTATION_CONTEXT('',''));
#1006=(LENGTH_UNIT()NAMED_UNIT(*)SI_UNIT(.MILLI.,.METRE.));
#1007=(NAMED_UNIT(*)PLANE_ANGLE_UNIT()SI_UNIT($,.RADIAN.));
#1008=(NAMED_UNIT(*)SI_UNIT($,.STERADIAN.)SOLID_ANGLE_UNIT());
#1009=UNCERTAINTY_MEASURE_WITH_UNIT(LENGTH_MEASURE(1.0E-07),#1006,'','maximum tolerance');
#1010=ADVANCED_BREP_SHAPE_REPRESENTATION('',(#9,#1001),#1005);
#1011=SHAPE_DEFINITION_REPRESENTATION(#8,#1010);
#1012=PRODUCT_RELATED_PRODUCT_CATEGORY('part',$,(#4));
ENDSEC;
END-ISO-10303-21;
